<svg
	xmlns="http://www.w3.org/2000/svg"
	xmlns:xlink="http://www.w3.org/1999/xlink"
	version="1.1"
	viewBox="42.52 166.84 304.66 170.08"
	height="300"
>
	<!-- table -->
	<g name="table">
		<path xmlns="http://www.w3.org/2000/svg" transform="matrix(1,0,0,-1,46.7676,166.84119)" d="M 0 0 C -2.338 0 -4.252 -1.914 -4.252 -4.252 L -4.252 -165.828 C -4.252 -168.167 -2.338 -170.08 0 -170.08 L 296.154 -170.08 C 298.492 -170.08 300.406 -168.167 300.406 -165.828 L 300.406 -4.252 C 300.406 -1.914 298.492 0 296.154 0 Z " fill="#b19aca"></path>
		<path xmlns="http://www.w3.org/2000/svg" transform="matrix(1,0,0,-1,46.7676,167.97504)" d="M 0 0 C -1.719 0 -3.118 -1.399 -3.118 -3.118 L -3.118 -164.694 C -3.118 -166.414 -1.719 -167.813 0 -167.813 L 296.154 -167.813 C 297.873 -167.813 299.271 -166.414 299.271 -164.694 L 299.271 -3.118 C 299.271 -1.399 297.873 0 296.154 0 Z " fill="#ffffff"></path>
		<path xmlns="http://www.w3.org/2000/svg" transform="matrix(1,0,0,-1,43.6494,181.56769)" d="M 0 0 L 0 -151.102 C 0 -152.821 1.399 -154.22 3.118 -154.22 L 71.256 -154.22 L 71.256 0 Z " fill="#e0d5ea"></path>
		<path xmlns="http://www.w3.org/2000/svg" transform="matrix(1,0,0,-1,342.9219,167.97504)" d="M 0 0 L -228.049 0 L -228.049 -13.611 L 3.117 -13.611 L 3.117 -3.118 C 3.117 -1.399 1.719 0 0 0 " fill="#e0d5ea"></path>
		<path xmlns="http://www.w3.org/2000/svg" transform="matrix(1,0,0,-1,0,841.89)" d="M 346.551 527.569 L 43.649995 527.569 L 43.649995 528.13497 L 346.551 528.13497 Z " fill="#b19aca"></path>
		<path xmlns="http://www.w3.org/2000/svg" transform="matrix(1,0,0,-1,0,841.89)" d="M 346.551 549.598 L 43.649995 549.598 L 43.649995 550.164 L 346.551 550.164 Z " fill="#b19aca"></path>
		<path xmlns="http://www.w3.org/2000/svg" transform="matrix(1,0,0,-1,0,841.89)" d="M 346.598 571.627 L 43.649995 571.627 L 43.649995 572.193 L 346.598 572.193 Z " fill="#b19aca"></path>
		<path xmlns="http://www.w3.org/2000/svg" transform="matrix(1,0,0,-1,0,841.89)" d="M 346.551 593.656 L 43.649995 593.656 L 43.649995 594.222 L 346.551 594.222 Z " fill="#b19aca"></path>
		<path xmlns="http://www.w3.org/2000/svg" transform="matrix(1,0,0,-1,0,841.89)" d="M 346.506 615.686 L 43.650026 615.686 L 43.650026 616.25198 L 346.506 616.25198 Z " fill="#b19aca"></path>
		<path xmlns="http://www.w3.org/2000/svg" transform="matrix(1,0,0,-1,0,841.89)" d="M 346.551 637.715 L 43.649995 637.715 L 43.649995 638.281 L 346.551 638.281 Z " fill="#b19aca"></path>
		<path xmlns="http://www.w3.org/2000/svg" transform="matrix(1,0,0,-1,0,841.89)" d="M 346.551 659.744 L 43.649995 659.744 L 43.649995 660.31 L 346.551 660.31 Z " fill="#b19aca"></path>
		<path xmlns="http://www.w3.org/2000/svg" transform="matrix(1,0,0,-1,0,841.89)" d="M 347.174 659.735 L 43.650026 659.735 L 43.650026 660.868 L 347.174 660.868 Z " fill="#b19aca"></path>
		
		<path xmlns="http://www.w3.org/2000/svg" transform="matrix(1,0,0,-1,0,841.89)" d="M 178.244 506.105 L 179.095 506.105 L 179.095 673.918 L 178.244 673.918 Z " fill="#ffffff"></path>
		<path xmlns="http://www.w3.org/2000/svg" transform="matrix(1,0,0,-1,0,841.89)" d="M 177.667 505.824 L 178.23401 505.824 L 178.23401 674.482 L 177.667 674.482 Z " fill="#b19aca"></path>
		<path xmlns="http://www.w3.org/2000/svg" transform="matrix(1,0,0,-1,0,841.89)" d="M 179.095 505.824 L 179.662 505.824 L 179.662 674.482 L 179.095 674.482 Z " fill="#b19aca"></path>
		
		<path xmlns="http://www.w3.org/2000/svg" transform="matrix(1,0,0,-1,0,841.89)" d="M 247.253 506.105 L 248.104 506.105 L 248.104 673.918 L 247.253 673.918 Z " fill="#ffffff"></path>
		<path xmlns="http://www.w3.org/2000/svg" transform="matrix(1,0,0,-1,0,841.89)" d="M 246.692 505.824 L 247.259 505.824 L 247.259 674.482 L 246.692 674.482 Z " fill="#b19aca"></path>
		<path xmlns="http://www.w3.org/2000/svg" transform="matrix(1,0,0,-1,0,841.89)" d="M 248.104 505.824 L 248.671 505.824 L 248.671 674.482 L 248.104 674.482 Z " fill="#b19aca"></path>
		<path xmlns="http://www.w3.org/2000/svg" transform="matrix(1,0,0,-1,0,841.89)" d="M 296.292 505.824 L 296.85899 505.824 L 296.85899 674.482 L 296.292 674.482 Z " fill="#b19aca"></path>
		<path xmlns="http://www.w3.org/2000/svg" transform="matrix(1,0,0,-1,0,841.89)" d="M 176.534 506.671 L 116.022998 506.671 L 116.022998 673.333 L 176.534 673.333 Z M 114.322 504.97 L 178.234 504.97 L 178.234 675.033 L 114.322 675.033 Z " fill="#a286be"></path>
	</g>
		<!-- collumns -->
	<g name="collumns">
		<g name="result">
			<path xmlns="http://www.w3.org/2000/svg" transform="matrix(1,0,0,-1,133.4458,173.6883)" d="M 0 0 L 1.393 0 C 1.893 0 2.16 .288 2.16 .833 C 2.16 1.359 1.786 1.597 1.321 1.597 L 0 1.597 Z M -1.66 3.075 L 1.589 3.075 C 2.705 3.075 3.821 2.509 3.821 1.081 C 3.821 .317 3.5 -.407 2.821 -.694 L 2.821 -.714 C 3.49 -.902 3.705 -1.735 3.749 -2.41 C 3.776 -2.717 3.794 -3.729 4.017 -4.007 L 2.375 -4.007 C 2.232 -3.759 2.214 -3.084 2.187 -2.876 C 2.143 -2.162 2.044 -1.428 1.259 -1.428 L 0 -1.428 L 0 -4.007 L -1.66 -4.007 Z " fill="#231f20"></path>
			<path xmlns="http://www.w3.org/2000/svg" transform="matrix(1,0,0,-1,141.3477,174.5907)" d="M 0 0 C -.027 .585 -.393 1.051 -.901 1.051 C -1.437 1.051 -1.785 .635 -1.883 0 Z M -1.883 -.942 C -1.856 -1.656 -1.491 -2.113 -.848 -2.113 C -.482 -2.113 -.125 -1.934 .018 -1.547 L 1.437 -1.547 C 1.151 -2.737 .169 -3.253 -.866 -3.253 C -2.375 -3.253 -3.401 -2.242 -3.401 -.516 C -3.401 1.061 -2.267 2.192 -.901 2.192 C .759 2.192 1.589 .803 1.518 -.942 Z " fill="#231f20"></path>
			<path xmlns="http://www.w3.org/2000/svg" transform="matrix(1,0,0,-1,144.8037,175.99939)" d="M 0 0 C 0 -.268 .098 -.446 .25 -.575 C .393 -.694 .598 -.753 .813 -.753 C 1.098 -.753 1.526 -.605 1.526 -.208 C 1.526 .199 1.044 .258 .786 .337 C -.169 .605 -1.366 .635 -1.366 2.023 C -1.366 3.253 -.161 3.601 .75 3.601 C 1.759 3.601 2.839 3.273 2.883 1.934 L 1.482 1.934 C 1.482 2.143 1.419 2.292 1.286 2.38 C 1.169 2.47 1.009 2.51 .804 2.51 C .554 2.51 .152 2.48 .152 2.123 C .152 1.646 1.169 1.538 1.866 1.379 C 2.794 1.17 3.044 .417 3.044 -.01 C 3.044 -1.388 1.866 -1.845 .821 -1.845 C -.286 -1.845 -1.401 -1.438 -1.446 0 Z " fill="#231f20"></path>
			<path xmlns="http://www.w3.org/2000/svg" transform="matrix(1,0,0,-1,153.1963,177.69519)" d="M 0 0 L -1.473 0 L -1.473 .704 L -1.491 .704 C -1.776 .179 -2.366 -.149 -2.901 -.149 C -4.231 -.149 -4.615 .704 -4.615 2.053 L -4.615 5.147 L -3.098 5.147 L -3.098 2.162 C -3.098 1.478 -2.839 1.24 -2.348 1.24 C -2.026 1.24 -1.518 1.478 -1.518 2.39 L -1.518 5.147 L 0 5.147 Z " fill="#231f20"></path>
			<path xmlns="http://www.w3.org/2000/svg" transform="matrix(1,0,0,-1,0,841.89)" d="M 154.269 671.276 L 155.787 671.276 L 155.787 664.19406 L 154.269 664.19406 Z " fill="#231f20"></path>
			<path xmlns="http://www.w3.org/2000/svg" transform="matrix(1,0,0,-1,159.6523,173.63849)" d="M 0 0 L -.938 0 L -.938 -2.341 C -.938 -2.748 -.723 -2.837 -.393 -2.837 C -.259 -2.837 -.134 -2.817 0 -2.817 L 0 -4.057 C -.277 -4.066 -.553 -4.106 -.83 -4.106 C -2.125 -4.106 -2.455 -3.68 -2.455 -2.291 L -2.455 0 L -3.223 0 L -3.223 1.091 L -2.455 1.091 L -2.455 2.648 L -.938 2.648 L -.938 1.091 L 0 1.091 Z " fill="#231f20"></path>
		</g>
		<g name="Desirable">
			<path xmlns="http://www.w3.org/2000/svg" transform="matrix(1,0,0,-1,197.3159,176.5716)" d="M 0 0 L 1.073 0 C 1.77 0 2.436 .476 2.436 1.819 C 2.436 3.042 2.045 3.824 .858 3.824 L 0 3.824 Z M -1.203 4.946 L 1.157 4.946 C 2.574 4.946 3.639 3.952 3.639 1.946 C 3.639 .187 2.827 -1.122 1.157 -1.122 L -1.203 -1.122 Z " fill="#231f20"></path>
			<path xmlns="http://www.w3.org/2000/svg" transform="matrix(1,0,0,-1,204.3354,175.02484)" d="M 0 0 C -.1 .612 -.337 .935 -.865 .935 C -1.57 .935 -1.746 .34 -1.769 0 Z M -1.769 -.765 C -1.739 -1.539 -1.409 -1.878 -.796 -1.878 C -.36 -1.878 -.007 -1.581 .062 -1.309 L 1.019 -1.309 C .712 -2.354 .062 -2.788 -.835 -2.788 C -2.083 -2.788 -2.857 -1.836 -2.857 -.476 C -2.857 .841 -2.038 1.844 -.835 1.844 C .513 1.844 1.172 .586 1.088 -.765 Z " fill="#231f20"></path>
			<path xmlns="http://www.w3.org/2000/svg" transform="matrix(1,0,0,-1,206.9058,176.26599)" d="M 0 0 C 0 -.519 .414 -.739 .835 -.739 C 1.141 -.739 1.547 -.604 1.547 -.178 C 1.547 .187 1.087 .323 .314 .501 C -.322 .663 -.942 .893 -.942 1.674 C -.942 2.796 -.069 3.085 .781 3.085 C 1.639 3.085 2.443 2.762 2.528 1.683 L 1.494 1.683 C 1.463 2.15 1.141 2.278 .75 2.278 C .505 2.278 .146 2.235 .146 1.87 C .146 1.437 .766 1.377 1.378 1.215 C 2.015 1.054 2.635 .799 2.635 -.017 C 2.635 -1.173 1.723 -1.547 .827 -1.547 C -.092 -1.547 -.996 -1.164 -1.034 0 Z " fill="#231f20"></path>
			<path xmlns="http://www.w3.org/2000/svg" transform="matrix(1,0,0,-1,0,841.89)" d="M 210.204 668.59 L 211.291 668.59 L 211.291 664.19607 L 210.204 664.19607 Z M 211.291 669.271 L 210.204 669.271 L 210.204 670.265 L 211.291 670.265 Z " fill="#231f20"></path>
			<path xmlns="http://www.w3.org/2000/svg" transform="matrix(1,0,0,-1,212.1475,173.29975)" d="M 0 0 L 1.034 0 L 1.034 -.816 L 1.049 -.816 C 1.256 -.264 1.77 .119 2.313 .119 C 2.397 .119 2.474 .102 2.551 .077 L 2.551 -1.045 C 2.451 -1.02 2.291 -1.003 2.16 -1.003 C 1.356 -1.003 1.088 -1.632 1.088 -2.414 L 1.088 -4.394 L 0 -4.394 Z " fill="#231f20"></path>
			<path xmlns="http://www.w3.org/2000/svg" transform="matrix(1,0,0,-1,217.5908,175.54334)" d="M 0 0 C -.184 -.179 -.566 -.187 -.904 -.255 C -1.241 -.323 -1.547 -.459 -1.547 -.901 C -1.547 -1.343 -1.233 -1.462 -.881 -1.462 C -.03 -1.462 0 -.723 0 -.451 Z M -2.512 .892 C -2.451 2.014 -1.54 2.363 -.651 2.363 C .138 2.363 1.088 2.167 1.088 1.113 L 1.088 -1.173 C 1.088 -1.572 1.126 -1.972 1.226 -2.15 L .123 -2.15 C .084 -2.015 .054 -1.87 .046 -1.726 C -.298 -2.125 -.796 -2.27 -1.287 -2.27 C -2.045 -2.27 -2.635 -1.853 -2.635 -.952 C -2.62 1.045 .046 -.025 0 .96 C 0 1.47 -.321 1.555 -.705 1.555 C -1.126 1.555 -1.386 1.368 -1.424 .892 Z " fill="#231f20"></path>
			<path xmlns="http://www.w3.org/2000/svg" transform="matrix(1,0,0,-1,221.4941,174.09021)" d="M 0 0 C -.644 0 -.927 -.663 -.927 -1.411 C -.927 -2.142 -.644 -2.813 0 -2.813 C .643 -2.813 .927 -2.142 .927 -1.411 C .927 -.663 .643 0 0 0 M -1.977 2.465 L -.889 2.465 L -.889 .255 L -.874 .255 C -.605 .706 -.115 .91 .375 .91 C 1.164 .91 2.014 .204 2.014 -1.402 C 2.014 -3.009 1.164 -3.723 .375 -3.723 C -.207 -3.723 -.689 -3.527 -.927 -3.042 L -.942 -3.042 L -.942 -3.604 L -1.977 -3.604 Z " fill="#231f20"></path>
			<path xmlns="http://www.w3.org/2000/svg" transform="matrix(1,0,0,-1,0,841.89)" d="M 224.225 670.265 L 225.313 670.265 L 225.313 664.197 L 224.225 664.197 Z " fill="#231f20"></path>
			<path xmlns="http://www.w3.org/2000/svg" transform="matrix(1,0,0,-1,228.834,175.02484)" d="M 0 0 C -.1 .612 -.337 .935 -.865 .935 C -1.57 .935 -1.746 .34 -1.769 0 Z M -1.769 -.765 C -1.739 -1.539 -1.409 -1.878 -.796 -1.878 C -.36 -1.878 -.007 -1.581 .062 -1.309 L 1.019 -1.309 C .712 -2.354 .062 -2.788 -.835 -2.788 C -2.083 -2.788 -2.857 -1.836 -2.857 -.476 C -2.857 .841 -2.037 1.844 -.835 1.844 C .513 1.844 1.172 .586 1.088 -.765 Z " fill="#231f20"></path>
		</g>
		<g name="target">
			<path xmlns="http://www.w3.org/2000/svg" transform="matrix(1,0,0,-1,261.918,172.74744)" d="M 0 0 L -1.639 0 L -1.639 1.122 L 2.842 1.122 L 2.842 0 L 1.203 0 L 1.203 -4.946 L 0 -4.946 Z " fill="#231f20"></path>
			<path xmlns="http://www.w3.org/2000/svg" transform="matrix(1,0,0,-1,266.8857,175.54334)" d="M 0 0 C -.184 -.179 -.566 -.187 -.904 -.255 C -1.241 -.323 -1.547 -.459 -1.547 -.901 C -1.547 -1.343 -1.233 -1.462 -.881 -1.462 C -.03 -1.462 0 -.723 0 -.451 Z M -2.512 .892 C -2.451 2.014 -1.54 2.363 -.651 2.363 C .138 2.363 1.088 2.167 1.088 1.113 L 1.088 -1.173 C 1.088 -1.572 1.126 -1.972 1.226 -2.15 L .123 -2.15 C .084 -2.015 .054 -1.87 .046 -1.726 C -.298 -2.125 -.796 -2.27 -1.287 -2.27 C -2.045 -2.27 -2.635 -1.853 -2.635 -.952 C -2.62 1.045 .046 -.025 0 .96 C 0 1.47 -.321 1.555 -.705 1.555 C -1.126 1.555 -1.386 1.368 -1.424 .892 Z " fill="#231f20"></path>
			<path xmlns="http://www.w3.org/2000/svg" transform="matrix(1,0,0,-1,268.8125,173.29975)" d="M 0 0 L 1.034 0 L 1.034 -.816 L 1.049 -.816 C 1.256 -.264 1.77 .119 2.313 .119 C 2.397 .119 2.474 .102 2.551 .077 L 2.551 -1.045 C 2.451 -1.02 2.291 -1.003 2.16 -1.003 C 1.356 -1.003 1.088 -1.632 1.088 -2.414 L 1.088 -4.394 L 0 -4.394 Z " fill="#231f20"></path>
			<path xmlns="http://www.w3.org/2000/svg" transform="matrix(1,0,0,-1,274.5625,175.44129)" d="M 0 0 C 0 .714 -.222 1.351 -.927 1.351 C -1.54 1.351 -1.808 .756 -1.808 .102 C -1.808 -.527 -1.601 -1.215 -.927 -1.215 C -.307 -1.215 0 -.629 0 0 M 1.034 -1.972 C 1.034 -2.694 .797 -3.918 -1.019 -3.918 C -1.8 -3.918 -2.704 -3.502 -2.765 -2.507 L -1.685 -2.507 C -1.585 -2.958 -1.264 -3.111 -.873 -3.111 C -.268 -3.111 .008 -2.661 0 -2.023 L 0 -1.445 L -.015 -1.445 C -.253 -1.913 -.72 -2.125 -1.203 -2.125 C -2.397 -2.125 -2.896 -1.122 -2.896 .085 C -2.896 1.224 -2.298 2.261 -1.195 2.261 C -.674 2.261 -.283 2.065 -.015 1.555 L 0 1.555 L 0 2.142 L 1.034 2.142 Z " fill="#231f20"></path>
			<path xmlns="http://www.w3.org/2000/svg" transform="matrix(1,0,0,-1,279.1313,175.02484)" d="M 0 0 C -.1 .612 -.337 .935 -.865 .935 C -1.57 .935 -1.746 .34 -1.769 0 Z M -1.769 -.765 C -1.739 -1.539 -1.409 -1.878 -.796 -1.878 C -.36 -1.878 -.007 -1.581 .062 -1.309 L 1.019 -1.309 C .712 -2.354 .062 -2.788 -.835 -2.788 C -2.083 -2.788 -2.857 -1.836 -2.857 -.476 C -2.857 .841 -2.038 1.844 -.835 1.844 C .513 1.844 1.172 .586 1.088 -.765 Z " fill="#231f20"></path>
			<path xmlns="http://www.w3.org/2000/svg" transform="matrix(1,0,0,-1,282.2378,173.29975)" d="M 0 0 L .796 0 L .796 -.808 L 0 -.808 L 0 -2.983 C 0 -3.391 .092 -3.493 .459 -3.493 C .582 -3.493 .697 -3.485 .796 -3.459 L .796 -4.402 C .613 -4.437 .375 -4.445 .161 -4.445 C -.513 -4.445 -1.088 -4.284 -1.088 -3.399 L -1.088 -.808 L -1.747 -.808 L -1.747 0 L -1.088 0 L -1.088 1.317 L 0 1.317 Z " fill="#231f20"></path>
		</g>
	</g>
	<!-- rows -->
	<g name="">
		<!-- Body Weight -->
		<g>
			<!-- icon -->
			<g>
				<path xmlns="http://www.w3.org/2000/svg" transform="matrix(1,0,0,-1,64.7529,193.07361)" d="M 0 0 C 0 -4.697 -3.807 -8.504 -8.504 -8.504 C -13.201 -8.504 -17.008 -4.697 -17.008 0 C -17.008 4.696 -13.201 8.504 -8.504 8.504 C -3.807 8.504 0 4.696 0 0 " fill="#ffffff"></path>
				<path xmlns="http://www.w3.org/2000/svg" transform="matrix(1,0,0,-1,64.7529,193.07361)" stroke-width=".4" stroke-linecap="butt" stroke-miterlimit="4" stroke-linejoin="miter" fill="none" stroke="#231f20" d="M 0 0 C 0 -4.697 -3.807 -8.504 -8.504 -8.504 C -13.201 -8.504 -17.008 -4.697 -17.008 0 C -17.008 4.696 -13.201 8.504 -8.504 8.504 C -3.807 8.504 0 4.696 0 0 Z "></path>
				<path xmlns="http://www.w3.org/2000/svg" transform="matrix(1,0,0,-1,58.9844,197.87244)" d="M 0 0 L -7.701 .688 L -5.472 8.273 L -1.95 7.977 Z " fill="#ffffff"></path>
				<path xmlns="http://www.w3.org/2000/svg" transform="matrix(1,0,0,-1,58.9844,197.87244)" stroke-width=".567" stroke-linecap="butt" stroke-linejoin="round" fill="none" stroke="#231f20" d="M 0 0 L -7.701 .688 L -5.472 8.273 L -1.95 7.977 L 0 0 Z "></path>
				<path xmlns="http://www.w3.org/2000/svg" transform="matrix(1,0,0,-1,59.585,188.69184)" d="M 0 0 L -3.585 .301 L -6.116 -.903 L -2.551 -1.204 Z " fill="#ffffff"></path>
				<path xmlns="http://www.w3.org/2000/svg" transform="matrix(1,0,0,-1,59.585,188.69184)" stroke-width=".567" stroke-linecap="butt" stroke-linejoin="round" fill="none" stroke="#231f20" d="M 0 0 L -3.585 .301 L -6.116 -.903 L -2.551 -1.204 L 0 0 Z "></path>
				<path xmlns="http://www.w3.org/2000/svg" transform="matrix(1,0,0,-1,61.2837,195.13465)" d="M 0 0 L -2.299 -2.738 L -4.25 5.239 L -1.699 6.443 Z " fill="#231f20"></path>
				<path xmlns="http://www.w3.org/2000/svg" transform="matrix(1,0,0,-1,61.2837,195.13465)" stroke-width=".567" stroke-linecap="butt" stroke-linejoin="round" fill="none" stroke="#231f20" d="M 0 0 L -2.299 -2.738 L -4.25 5.239 L -1.699 6.443 L 0 0 Z "></path>
				<path xmlns="http://www.w3.org/2000/svg" transform="matrix(1,0,0,-1,57.5005,188.12293)" d="M 0 0 C -.042 -.497 -.483 -.862 -.98 -.818 C -1.477 -.772 -1.843 -.335 -1.799 .163 C -1.754 .659 -1.314 1.028 -.819 .982 C -.32 .938 .046 .497 0 0 " fill="#ffffff"></path>
				<path xmlns="http://www.w3.org/2000/svg" transform="matrix(1,0,0,-1,57.5005,188.12293)" stroke-width=".567" stroke-linecap="butt" stroke-linejoin="round" fill="none" stroke="#231f20" d="M 0 0 C -.042 -.497 -.483 -.862 -.98 -.818 C -1.477 -.772 -1.843 -.335 -1.799 .163 C -1.754 .659 -1.314 1.028 -.819 .982 C -.32 .938 .046 .497 0 0 Z "></path>
			</g>
			<!-- text -->
			<g>
				<path xmlns="http://www.w3.org/2000/svg" transform="matrix(1,0,0,-1,70.1724,192.5614)" d="M 0 0 L 1.271 0 C 1.678 0 2.028 .246 2.028 .746 C 2.028 1.182 1.8 1.325 1.436 1.325 L .25 1.325 Z M -.457 -2.404 L .95 -2.404 C 1.464 -2.404 1.828 -2.095 1.828 -1.492 C 1.828 -.896 1.343 -.849 .943 -.849 L -.157 -.849 Z M -.65 2.293 L 1.493 2.293 C 2.521 2.293 3.149 2.047 3.149 .968 C 3.149 .326 2.792 -.262 2.192 -.349 L 2.192 -.365 C 2.678 -.516 2.949 -.968 2.949 -1.515 C 2.949 -2.745 2.021 -3.372 1 -3.372 L -1.721 -3.372 Z " fill="#231f20"></path>
				<path xmlns="http://www.w3.org/2000/svg" transform="matrix(1,0,0,-1,74.6514,194.27533)" d="M 0 0 C 0 -.484 .25 -.92 .729 -.92 C 1.485 -.92 1.814 .103 1.814 .801 C 1.814 1.349 1.607 1.706 1.071 1.706 C .329 1.706 0 .69 0 0 M -1.014 0 C -1.014 1.396 -.207 2.555 1.107 2.555 C 2.121 2.555 2.828 1.992 2.828 .817 C 2.828 -.619 2.021 -1.769 .678 -1.769 C -.35 -1.769 -1.014 -1.174 -1.014 0 " fill="#231f20"></path>
				<path xmlns="http://www.w3.org/2000/svg" transform="matrix(1,0,0,-1,79.9229,192.56922)" d="M 0 0 C -.771 0 -1.107 -.992 -1.107 -1.714 C -1.107 -2.206 -.864 -2.626 -.386 -2.626 C .371 -2.626 .728 -1.595 .728 -.889 C .728 -.357 .493 0 0 0 M .407 -2.856 L .393 -2.84 C .164 -3.285 -.257 -3.475 -.714 -3.475 C -1.607 -3.475 -2.121 -2.849 -2.121 -1.857 C -2.121 -.508 -1.479 .849 -.107 .849 C .314 .849 .771 .643 .928 .19 L .942 .19 L 1.35 2.301 L 2.364 2.301 L 1.285 -3.364 L .307 -3.364 Z " fill="#231f20"></path>
				<path xmlns="http://www.w3.org/2000/svg" transform="matrix(1,0,0,-1,83.5518,196.51264)" d="M 0 0 C -.35 -.707 -.679 -.865 -1.436 -.865 C -1.614 -.865 -1.8 -.833 -1.978 -.825 L -1.807 .111 C -1.671 .111 -1.528 .063 -1.393 .063 C -.914 .063 -.857 .405 -.721 .619 L -1.378 4.681 L -.336 4.681 L -.015 1.746 L 0 1.746 L 1.278 4.681 L 2.349 4.681 Z " fill="#231f20"></path>
				<path xmlns="http://www.w3.org/2000/svg" transform="matrix(1,0,0,-1,92.4155,195.93354)" d="M 0 0 L -1.114 0 L -1.243 4.046 L -1.257 4.046 L -2.842 0 L -3.971 0 L -4.32 5.666 L -3.199 5.666 L -3.128 1.516 L -3.114 1.516 L -1.5 5.666 L -.429 5.666 L -.3 1.531 L -.286 1.531 L 1.271 5.666 L 2.392 5.666 Z " fill="#231f20"></path>
				<path xmlns="http://www.w3.org/2000/svg" transform="matrix(1,0,0,-1,96.8306,193.44184)" d="M 0 0 C 0 .42 -.093 .873 -.686 .873 C -1.264 .873 -1.542 .468 -1.692 0 Z M -1.8 -.714 C -1.807 -.77 -1.807 -.81 -1.807 -.849 L -1.807 -.952 C -1.807 -1.429 -1.542 -1.754 -.993 -1.754 C -.585 -1.754 -.393 -1.452 -.236 -1.19 L .778 -1.19 C .457 -2.111 -.071 -2.603 -1.135 -2.603 C -2.128 -2.603 -2.778 -1.984 -2.778 -.81 C -2.778 .5 -2 1.722 -.743 1.722 C .286 1.722 .979 1.119 .979 -.072 C .979 -.286 .957 -.5 .921 -.714 Z " fill="#231f20"></path>
				<path xmlns="http://www.w3.org/2000/svg" transform="matrix(1,0,0,-1,99.8452,191.1966)" d="M 0 0 L -1.021 0 L -.835 .929 L .186 .929 Z M -1.135 -.635 L -.114 -.635 L -.9 -4.737 L -1.921 -4.737 Z " fill="#231f20"></path>
				<path xmlns="http://www.w3.org/2000/svg" transform="matrix(1,0,0,-1,101.9595,192.56922)" d="M 0 0 C -.678 0 -1.036 -.889 -1.036 -1.547 C -1.036 -2.031 -.828 -2.452 -.35 -2.452 C .372 -2.452 .729 -1.587 .729 -.889 C .729 -.373 .493 0 0 0 M 1.307 -3.15 C 1.064 -4.388 .486 -4.919 -.729 -4.919 C -1.471 -4.919 -2.307 -4.563 -2.307 -3.579 L -1.292 -3.579 C -1.314 -3.999 -.95 -4.166 -.628 -4.166 C .021 -4.166 .193 -3.539 .4 -2.737 L .386 -2.722 C .122 -3.11 -.214 -3.301 -.628 -3.301 C -1.507 -3.301 -2.049 -2.634 -2.049 -1.626 C -2.049 -.428 -1.364 .849 -.186 .849 C .329 .849 .735 .651 .943 .111 L .957 .111 L 1.071 .738 L 2.042 .738 Z " fill="#231f20"></path>
				<path xmlns="http://www.w3.org/2000/svg" transform="matrix(1,0,0,-1,105.0601,190.26795)" d="M 0 0 L 1.014 0 L .635 -2.04 L .65 -2.04 C .807 -1.801 1.207 -1.452 1.871 -1.452 C 2.578 -1.452 2.949 -1.833 2.949 -2.555 C 2.949 -2.729 2.863 -3.119 2.842 -3.261 L 2.385 -5.666 L 1.371 -5.666 L 1.821 -3.261 C 1.842 -3.134 1.885 -2.873 1.885 -2.762 C 1.885 -2.516 1.635 -2.341 1.399 -2.341 C .786 -2.341 .479 -2.912 .364 -3.483 L -.05 -5.666 L -1.064 -5.666 Z " fill="#231f20"></path>
				<path xmlns="http://www.w3.org/2000/svg" transform="matrix(1,0,0,-1,110.3599,191.83142)" d="M 0 0 L .729 0 L .571 -.754 L -.15 -.754 L -.528 -2.793 C -.55 -2.88 -.557 -2.952 -.557 -2.983 C -.557 -3.277 -.364 -3.285 -.214 -3.285 C -.093 -3.285 .029 -3.277 .15 -3.261 L -.021 -4.134 C -.229 -4.158 -.436 -4.173 -.657 -4.173 C -1.128 -4.173 -1.643 -4.007 -1.621 -3.34 C -1.621 -3.237 -1.6 -3.103 -1.571 -2.952 L -1.157 -.754 L -1.821 -.754 L -1.664 0 L -1.014 0 L -.786 1.246 L .229 1.246 Z " fill="#231f20"></path>
			</g>
		</g>
		<!-- Fat % -->
		<g>
			<!-- icon -->
			<g>
				<path xmlns="http://www.w3.org/2000/svg" transform="matrix(1,0,0,-1,64.7529,214.97064)" d="M 0 0 C 0 -4.697 -3.807 -8.504 -8.504 -8.504 C -13.201 -8.504 -17.008 -4.697 -17.008 0 C -17.008 4.696 -13.201 8.504 -8.504 8.504 C -3.807 8.504 0 4.696 0 0 " fill="#ffffff"></path>
				<path xmlns="http://www.w3.org/2000/svg" transform="matrix(1,0,0,-1,64.7529,214.97064)" stroke-width=".4" stroke-linecap="butt" stroke-miterlimit="4" stroke-linejoin="miter" fill="none" stroke="#231f20" d="M 0 0 C 0 -4.697 -3.807 -8.504 -8.504 -8.504 C -13.201 -8.504 -17.008 -4.697 -17.008 0 C -17.008 4.696 -13.201 8.504 -8.504 8.504 C -3.807 8.504 0 4.696 0 0 Z "></path>
				<path xmlns="http://www.w3.org/2000/svg" transform="matrix(1,0,0,-1,58.5552,211.70154)" d="M 0 0 L -4.613 0 C -5.846 0 -6.855 -.998 -6.855 -2.229 L -6.855 -7.631 C -6.855 -8.052 -6.452 -8.395 -6.031 -8.395 C -5.608 -8.395 -5.194 -8.052 -5.194 -7.631 L -5.194 -2.762 L -4.941 -2.762 L -4.941 -11.354 C -4.648 -11.45 -4.349 -11.531 -4.044 -11.595 C -4.025 -11.597 -4.006 -11.602 -3.988 -11.604 C -3.892 -11.625 -3.797 -11.641 -3.7 -11.657 C -3.671 -11.662 -3.643 -11.667 -3.613 -11.672 C -3.288 -11.718 -2.887 -11.751 -2.568 -11.763 L -2.509 -11.763 L -2.509 -7.785 L -2.104 -7.785 L -2.104 -11.763 C -1.727 -11.751 -1.324 -11.718 -.997 -11.671 C -.965 -11.667 -.933 -11.66 -.9 -11.655 C -.812 -11.64 -.723 -11.625 -.635 -11.606 C -.611 -11.603 -.587 -11.597 -.562 -11.593 C -.259 -11.529 .038 -11.449 .329 -11.354 L .329 -2.762 L .582 -2.762 L .582 -7.631 C .582 -8.052 .997 -8.395 1.417 -8.395 C 1.838 -8.395 2.241 -8.052 2.241 -7.631 L 2.241 -2.229 C 2.241 -.998 1.233 0 0 0 " fill="#231f20"></path>
				<path xmlns="http://www.w3.org/2000/svg" transform="matrix(1,0,0,-1,56.2271,211.32654)" d="M 0 0 C .961 0 1.741 .78 1.741 1.741 C 1.741 2.705 .961 3.484 0 3.484 C -.963 3.484 -1.742 2.705 -1.742 1.741 C -1.742 .78 -.963 0 0 0 " fill="#231f20"></path>
				<path xmlns="http://www.w3.org/2000/svg" transform="matrix(1,0,0,-1,57.041,216.58191)" d="M 0 0 C 0 -.523 .036 -.805 .426 -.805 C .792 -.805 .835 -.501 .835 0 C .835 .558 .776 .805 .418 .805 C .028 .805 0 .466 0 0 M 1.194 0 C 1.194 -.822 1.064 -1.3 .438 -1.3 C -.114 -1.3 -.358 -1.059 -.358 0 C -.358 .895 -.196 1.3 .418 1.3 C .985 1.3 1.194 .979 1.194 0 M .294 3.187 L -1.46 -1.255 L -1.834 -1.255 L -.077 3.187 Z M -2.375 1.925 C -2.375 1.396 -2.337 1.12 -1.95 1.12 C -1.583 1.12 -1.541 1.418 -1.541 1.925 C -1.541 2.488 -1.6 2.736 -1.958 2.736 C -2.348 2.736 -2.375 2.398 -2.375 1.925 M -1.182 1.925 C -1.182 1.12 -1.304 .625 -1.938 .625 C -2.486 .625 -2.734 .867 -2.734 1.925 C -2.734 2.837 -2.569 3.231 -1.958 3.231 C -1.391 3.231 -1.182 2.911 -1.182 1.925 " fill="#ffffff"></path>
			</g>
			<!-- text -->
			<g>
				<path xmlns="http://www.w3.org/2000/svg" transform="matrix(1,0,0,-1,69.5298,212.19574)" d="M 0 0 L 3.627 0 L 3.42 -1.047 L .921 -1.047 L .671 -2.356 L 2.856 -2.356 L 2.671 -3.324 L .493 -3.324 L .043 -5.665 L -1.078 -5.665 Z " fill="#231f20"></path>
				<path xmlns="http://www.w3.org/2000/svg" transform="matrix(1,0,0,-1,75.2153,215.89295)" d="M 0 0 C -.257 -.167 -.564 -.175 -.857 -.198 C -1.235 -.238 -1.607 -.357 -1.607 -.865 C -1.607 -1.174 -1.343 -1.325 -1.05 -1.325 C -.421 -1.325 -.214 -.841 -.1 -.396 Z M -2.143 .889 C -2.007 1.92 -1.229 2.246 -.393 2.246 C .264 2.246 1.164 2.087 1.143 1.167 C 1.143 .984 1.114 .73 1.064 .476 L .735 -1.174 C .7 -1.325 .686 -1.571 .686 -1.729 C .686 -1.809 .7 -1.889 .721 -1.968 L -.293 -1.968 L -.293 -1.563 C -.571 -1.912 -1 -2.079 -1.421 -2.079 C -2.221 -2.079 -2.621 -1.571 -2.621 -1 C -2.621 -.206 -2.092 .278 -1.207 .396 C -.257 .523 .2 .46 .2 .992 C .2 1.404 -.186 1.492 -.443 1.492 C -.807 1.492 -1.128 1.301 -1.192 .889 Z " fill="#231f20"></path>
				<path xmlns="http://www.w3.org/2000/svg" transform="matrix(1,0,0,-1,78.6582,213.75873)" d="M 0 0 L .728 0 L .571 -.753 L -.15 -.753 L -.529 -2.793 C -.55 -2.88 -.557 -2.952 -.557 -2.983 C -.557 -3.277 -.364 -3.285 -.214 -3.285 C -.093 -3.285 .028 -3.277 .15 -3.261 L -.021 -4.134 C -.229 -4.158 -.436 -4.173 -.657 -4.173 C -1.128 -4.173 -1.643 -4.007 -1.621 -3.34 C -1.621 -3.237 -1.6 -3.102 -1.571 -2.952 L -1.157 -.753 L -1.821 -.753 L -1.664 0 L -1.014 0 L -.786 1.246 L .229 1.246 Z " fill="#231f20"></path>
				<path xmlns="http://www.w3.org/2000/svg" transform="matrix(1,0,0,-1,85.915,216.78943)" d="M 0 0 C 0 -.222 .05 -.516 .314 -.516 C .8 -.516 .921 .476 .921 .849 C .921 1.095 .843 1.285 .607 1.285 C .165 1.285 0 .325 0 0 M -.821 .079 C -.821 1.055 -.307 1.912 .636 1.912 C 1.321 1.912 1.743 1.476 1.743 .714 C 1.743 -.238 1.221 -1.143 .25 -1.143 C -.436 -1.143 -.821 -.675 -.821 .079 M -3.428 2.618 C -3.428 2.396 -3.377 2.103 -3.113 2.103 C -2.628 2.103 -2.506 3.094 -2.506 3.467 C -2.506 3.713 -2.585 3.904 -2.821 3.904 C -3.263 3.904 -3.428 2.943 -3.428 2.618 M -2.707 -1.286 L -3.463 -1.286 L .186 4.673 L .943 4.673 Z M -4.249 2.698 C -4.249 3.674 -3.735 4.53 -2.792 4.53 C -2.106 4.53 -1.685 4.094 -1.685 3.333 C -1.685 2.38 -2.207 1.476 -3.178 1.476 C -3.863 1.476 -4.249 1.944 -4.249 2.698 " fill="#231f20"></path>
			</g>
		</g>
		<!-- Fat Mass -->
		<g>
			<!-- text -->
			<g>
				<path xmlns="http://www.w3.org/2000/svg" transform="matrix(1,0,0,-1,69.5298,234.50519)" d="M 0 0 L 3.627 0 L 3.42 -1.047 L .921 -1.047 L .671 -2.356 L 2.856 -2.356 L 2.671 -3.324 L .493 -3.324 L .043 -5.665 L -1.079 -5.665 Z " fill="#231f20"></path>
				<path xmlns="http://www.w3.org/2000/svg" transform="matrix(1,0,0,-1,75.2153,238.20252)" d="M 0 0 C -.257 -.167 -.564 -.175 -.857 -.198 C -1.235 -.238 -1.607 -.357 -1.607 -.865 C -1.607 -1.174 -1.343 -1.325 -1.05 -1.325 C -.421 -1.325 -.214 -.841 -.1 -.396 Z M -2.143 .889 C -2.007 1.92 -1.229 2.246 -.393 2.246 C .264 2.246 1.164 2.087 1.143 1.167 C 1.143 .984 1.114 .73 1.064 .476 L .735 -1.174 C .7 -1.325 .686 -1.571 .686 -1.729 C .686 -1.809 .7 -1.889 .721 -1.968 L -.293 -1.968 L -.293 -1.563 C -.571 -1.912 -1 -2.079 -1.421 -2.079 C -2.221 -2.079 -2.621 -1.571 -2.621 -1 C -2.621 -.206 -2.092 .278 -1.207 .396 C -.257 .523 .2 .46 .2 .992 C .2 1.404 -.186 1.492 -.443 1.492 C -.807 1.492 -1.128 1.301 -1.193 .889 Z " fill="#231f20"></path>
				<path xmlns="http://www.w3.org/2000/svg" transform="matrix(1,0,0,-1,78.6582,236.06824)" d="M 0 0 L .729 0 L .571 -.753 L -.15 -.753 L -.528 -2.793 C -.55 -2.88 -.557 -2.952 -.557 -2.983 C -.557 -3.277 -.364 -3.285 -.214 -3.285 C -.093 -3.285 .029 -3.277 .15 -3.261 L -.021 -4.134 C -.229 -4.158 -.436 -4.173 -.657 -4.173 C -1.128 -4.173 -1.642 -4.007 -1.621 -3.34 C -1.621 -3.237 -1.6 -3.102 -1.571 -2.952 L -1.157 -.753 L -1.821 -.753 L -1.664 0 L -1.014 0 L -.785 1.246 L .229 1.246 Z " fill="#231f20"></path>
				<path xmlns="http://www.w3.org/2000/svg" transform="matrix(1,0,0,-1,82.209,234.50519)" d="M 0 0 L 1.549 0 L 1.942 -4.102 L 1.957 -4.102 L 3.92 0 L 5.484 0 L 4.406 -5.665 L 3.356 -5.665 L 4.285 -1.158 L 4.271 -1.158 L 2.114 -5.665 L 1.257 -5.665 L .764 -1.158 L .75 -1.158 L -.015 -5.665 L -1.079 -5.665 Z " fill="#231f20"></path>
				<path xmlns="http://www.w3.org/2000/svg" transform="matrix(1,0,0,-1,90.1372,238.20252)" d="M 0 0 C -.257 -.167 -.564 -.175 -.857 -.198 C -1.235 -.238 -1.606 -.357 -1.606 -.865 C -1.606 -1.174 -1.342 -1.325 -1.049 -1.325 C -.421 -1.325 -.214 -.841 -.1 -.396 Z M -2.142 .889 C -2.006 1.92 -1.228 2.246 -.393 2.246 C .265 2.246 1.164 2.087 1.143 1.167 C 1.143 .984 1.114 .73 1.064 .476 L .736 -1.174 C .7 -1.325 .686 -1.571 .686 -1.729 C .686 -1.809 .7 -1.889 .722 -1.968 L -.292 -1.968 L -.292 -1.563 C -.571 -1.912 -1 -2.079 -1.421 -2.079 C -2.221 -2.079 -2.621 -1.571 -2.621 -1 C -2.621 -.206 -2.092 .278 -1.207 .396 C -.257 .523 .2 .46 .2 .992 C .2 1.404 -.186 1.492 -.442 1.492 C -.807 1.492 -1.128 1.301 -1.192 .889 Z " fill="#231f20"></path>
				<path xmlns="http://www.w3.org/2000/svg" transform="matrix(1,0,0,-1,94.1089,237.26599)" d="M 0 0 C -.007 .349 -.178 .555 -.571 .555 C -.936 .555 -1.192 .444 -1.192 .15 C -1.192 -.032 -1.071 -.143 -.728 -.262 L -.221 -.444 C .321 -.635 .75 -.937 .75 -1.619 C .75 -2.635 -.15 -3.016 -1.007 -3.016 C -1.728 -3.016 -2.578 -2.698 -2.578 -1.738 L -2.578 -1.571 L -1.635 -1.571 L -1.635 -1.706 C -1.635 -2.079 -1.257 -2.262 -.907 -2.262 C -.6 -2.262 -.264 -2.143 -.264 -1.77 C -.264 -1.484 -.407 -1.405 -.628 -1.317 L -1.407 -1.04 C -1.914 -.849 -2.207 -.643 -2.207 .008 C -2.207 .976 -1.285 1.309 -.571 1.309 C .229 1.309 .964 1.055 .943 0 Z " fill="#231f20"></path>
				<path xmlns="http://www.w3.org/2000/svg" transform="matrix(1,0,0,-1,97.7451,237.26599)" d="M 0 0 C -.007 .349 -.179 .555 -.571 .555 C -.936 .555 -1.193 .444 -1.193 .15 C -1.193 -.032 -1.071 -.143 -.729 -.262 L -.222 -.444 C .321 -.635 .75 -.937 .75 -1.619 C .75 -2.635 -.15 -3.016 -1.007 -3.016 C -1.729 -3.016 -2.578 -2.698 -2.578 -1.738 L -2.578 -1.571 L -1.635 -1.571 L -1.635 -1.706 C -1.635 -2.079 -1.257 -2.262 -.907 -2.262 C -.6 -2.262 -.264 -2.143 -.264 -1.77 C -.264 -1.484 -.407 -1.405 -.628 -1.317 L -1.407 -1.04 C -1.914 -.849 -2.207 -.643 -2.207 .008 C -2.207 .976 -1.286 1.309 -.571 1.309 C .229 1.309 .964 1.055 .942 0 Z " fill="#231f20"></path>
			</g>
		</g>
		<!-- Muscle Mass -->
		<g>
			<!-- icon -->
			<g>
				<path xmlns="http://www.w3.org/2000/svg" transform="matrix(1,0,0,-1,64.7227,259.1156)" d="M 0 0 C -.017 -4.697 -3.837 -8.49 -8.533 -8.473 C -13.231 -8.456 -17.025 -4.637 -17.008 .061 C -16.991 4.757 -13.171 8.551 -8.474 8.535 C -3.777 8.518 .017 4.695 0 0 " fill="#ffffff"></path>
				<path xmlns="http://www.w3.org/2000/svg" transform="matrix(1,0,0,-1,64.7227,259.1156)" stroke-width=".4" stroke-linecap="butt" stroke-miterlimit="4" stroke-linejoin="miter" fill="none" stroke="#231f20" d="M 0 0 C -.017 -4.697 -3.837 -8.49 -8.533 -8.473 C -13.231 -8.456 -17.025 -4.637 -17.008 .061 C -16.991 4.757 -13.171 8.551 -8.474 8.535 C -3.777 8.518 .017 4.695 0 0 Z "></path>
				<path xmlns="http://www.w3.org/2000/svg" transform="matrix(1,0,0,-1,56.2324,255.4159)" d="M 0 0 C .96 0 1.742 .778 1.742 1.74 C 1.743 2.702 .964 3.483 .003 3.484 C -.959 3.485 -1.741 2.706 -1.742 1.743 C -1.742 .781 -.961 0 0 0 " fill="#231f20"></path>
				<path xmlns="http://www.w3.org/2000/svg" transform="matrix(1,0,0,-1,60.0112,260.45594)" d="M 0 0 L -1.205 1.9 L -1.317 1.9 L -1.324 -6.767 C -2.063 -6.96 -2.726 -7.075 -3.592 -7.099 L -3.589 -3.12 L -3.991 -3.119 L -3.994 -7.099 C -4.861 -7.071 -5.522 -6.956 -6.259 -6.761 L -6.253 1.904 L -6.388 1.907 C -6.675 1.349 -8.439 -1.996 -8.632 -2.371 C -8.825 -2.744 -9.276 -2.896 -9.649 -2.703 C -10.025 -2.51 -10.173 -2.051 -9.98 -1.676 C -9.755 -1.24 -7.246 3.566 -7.246 3.566 C -6.914 4.221 -6.259 4.671 -5.471 4.669 L -2.088 4.664 C -1.301 4.663 -.67 4.214 -.339 3.556 L .643 1.795 C .643 1.795 1.36 3.21 1.471 3.408 C 1.672 3.771 2.034 3.873 2.396 3.674 C 2.756 3.475 2.852 3.053 2.652 2.691 L 1.196 0 C .855 -.427 .214 -.342 0 0 " fill="#231f20"></path>
				<path xmlns="http://www.w3.org/2000/svg" transform="matrix(1,0,0,-1,60.0698,255.9115)" stroke-width=".513" stroke-linecap="round" stroke-miterlimit="4" stroke-linejoin="miter" fill="none" stroke="#231f20" d="M 0 0 L 4.201 -2.688 "></path>
				<path xmlns="http://www.w3.org/2000/svg" transform="matrix(1,0,0,-1,64.4448,258.1234)" d="M 0 0 C -.001 -.501 -.41 -.908 -.911 -.908 C -1.412 -.907 -1.818 -.499 -1.817 .002 C -1.817 .503 -1.41 .91 -.909 .91 C -.407 .909 0 .502 0 0 " fill="#231f20"></path>
				<path xmlns="http://www.w3.org/2000/svg" transform="matrix(1,0,0,-1,61.7021,256.3822)" d="M 0 0 C 0 -.5 -.407 -.907 -.908 -.907 C -1.411 -.906 -1.816 -.499 -1.816 .001 C -1.815 .503 -1.409 .91 -.907 .91 C -.406 .91 .001 .503 0 0 " fill="#231f20"></path>
				<path xmlns="http://www.w3.org/2000/svg" transform="matrix(1,0,0,-1,48.6128,261.1595)" stroke-width=".513" stroke-linecap="round" stroke-miterlimit="4" stroke-linejoin="miter" fill="none" stroke="#231f20" d="M 0 0 L 4.2 -2.688 "></path>
				<path xmlns="http://www.w3.org/2000/svg" transform="matrix(1,0,0,-1,52.9863,263.37104)" d="M 0 0 C 0 -.502 -.406 -.909 -.909 -.909 C -1.41 -.908 -1.817 -.5 -1.816 .001 C -1.815 .502 -1.408 .909 -.907 .909 C -.405 .908 .001 .5 0 0 " fill="#231f20"></path>
				<path xmlns="http://www.w3.org/2000/svg" transform="matrix(1,0,0,-1,50.2456,261.6302)" d="M 0 0 C 0 -.501 -.408 -.908 -.909 -.907 C -1.411 -.907 -1.817 -.499 -1.816 .002 C -1.817 .503 -1.409 .91 -.907 .91 C -.406 .91 0 .501 0 0 " fill="#231f20"></path>
			</g>
			<!-- text -->
			<g>
				<path xmlns="http://www.w3.org/2000/svg" transform="matrix(1,0,0,-1,69.5298,256.3714)" d="M 0 0 L 1.549 0 L 1.942 -4.102 L 1.957 -4.102 L 3.92 0 L 5.484 0 L 4.406 -5.665 L 3.356 -5.665 L 4.285 -1.158 L 4.271 -1.158 L 2.114 -5.665 L 1.257 -5.665 L .764 -1.158 L .75 -1.158 L -.014 -5.665 L -1.079 -5.665 Z " fill="#231f20"></path>
				<path xmlns="http://www.w3.org/2000/svg" transform="matrix(1,0,0,-1,78.3008,262.0365)" d="M 0 0 L -.971 0 L -.857 .571 L -.871 .571 C -1.2 .119 -1.628 -.111 -2.164 -.111 C -2.871 -.111 -3.242 .27 -3.242 .992 C -3.242 1.158 -3.17 1.555 -3.135 1.698 L -2.678 4.102 L -1.664 4.102 L -2.114 1.698 C -2.149 1.579 -2.178 1.309 -2.178 1.198 C -2.178 .952 -1.928 .777 -1.692 .777 C -1.078 .777 -.771 1.349 -.657 1.92 L -.243 4.102 L .771 4.102 Z " fill="#231f20"></path>
				<path xmlns="http://www.w3.org/2000/svg" transform="matrix(1,0,0,-1,81.6943,259.1322)" d="M 0 0 C -.007 .349 -.179 .555 -.571 .555 C -.936 .555 -1.193 .444 -1.193 .15 C -1.193 -.032 -1.071 -.143 -.729 -.262 L -.222 -.444 C .321 -.635 .75 -.937 .75 -1.619 C .75 -2.635 -.15 -3.016 -1.007 -3.016 C -1.728 -3.016 -2.578 -2.698 -2.578 -1.738 L -2.578 -1.571 L -1.635 -1.571 L -1.635 -1.706 C -1.635 -2.079 -1.257 -2.262 -.907 -2.262 C -.6 -2.262 -.264 -2.143 -.264 -1.77 C -.264 -1.484 -.407 -1.405 -.628 -1.317 L -1.407 -1.04 C -1.914 -.849 -2.207 -.643 -2.207 .008 C -2.207 .976 -1.286 1.309 -.571 1.309 C .229 1.309 .964 1.055 .942 0 Z " fill="#231f20"></path>
				<path xmlns="http://www.w3.org/2000/svg" transform="matrix(1,0,0,-1,85.6157,259.3548)" d="M 0 0 C 0 .484 -.229 .683 -.678 .683 C -1.45 .683 -1.714 -.349 -1.714 -1.055 C -1.714 -1.539 -1.528 -1.944 -1.014 -1.944 C -.557 -1.944 -.307 -1.587 -.193 -1.182 L .821 -1.182 C .514 -2.206 -.121 -2.793 -1.085 -2.793 C -2.121 -2.793 -2.728 -2.237 -2.728 -1.031 C -2.728 .365 -1.971 1.532 -.643 1.532 C .257 1.532 .993 1.087 1.014 0 Z " fill="#231f20"></path>
				<path xmlns="http://www.w3.org/2000/svg" transform="matrix(1,0,0,-1,87.7163,256.3714)" d="M 0 0 L 1.014 0 L -.071 -5.665 L -1.085 -5.665 Z " fill="#231f20"></path>
				<path xmlns="http://www.w3.org/2000/svg" transform="matrix(1,0,0,-1,91.3447,259.5453)" d="M 0 0 C 0 .421 -.093 .873 -.686 .873 C -1.264 .873 -1.542 .468 -1.692 0 Z M -1.8 -.714 C -1.807 -.77 -1.807 -.809 -1.807 -.849 L -1.807 -.952 C -1.807 -1.428 -1.542 -1.753 -.993 -1.753 C -.585 -1.753 -.393 -1.452 -.236 -1.19 L .778 -1.19 C .457 -2.11 -.071 -2.603 -1.136 -2.603 C -2.128 -2.603 -2.778 -1.983 -2.778 -.809 C -2.778 .5 -2 1.722 -.743 1.722 C .286 1.722 .978 1.119 .978 -.071 C .978 -.285 .957 -.5 .921 -.714 Z " fill="#231f20"></path>
				<path xmlns="http://www.w3.org/2000/svg" transform="matrix(1,0,0,-1,95.4883,256.3714)" d="M 0 0 L 1.549 0 L 1.942 -4.102 L 1.957 -4.102 L 3.92 0 L 5.484 0 L 4.406 -5.665 L 3.356 -5.665 L 4.285 -1.158 L 4.271 -1.158 L 2.114 -5.665 L 1.257 -5.665 L .764 -1.158 L .75 -1.158 L -.014 -5.665 L -1.079 -5.665 Z " fill="#231f20"></path>
				<path xmlns="http://www.w3.org/2000/svg" transform="matrix(1,0,0,-1,103.417,260.06874)" d="M 0 0 C -.257 -.167 -.564 -.175 -.857 -.198 C -1.236 -.238 -1.607 -.357 -1.607 -.865 C -1.607 -1.174 -1.343 -1.325 -1.05 -1.325 C -.421 -1.325 -.214 -.841 -.1 -.396 Z M -2.143 .889 C -2.007 1.92 -1.229 2.246 -.393 2.246 C .264 2.246 1.164 2.087 1.143 1.167 C 1.143 .984 1.114 .73 1.064 .476 L .735 -1.174 C .7 -1.325 .686 -1.571 .686 -1.729 C .686 -1.809 .7 -1.889 .721 -1.968 L -.293 -1.968 L -.293 -1.563 C -.571 -1.912 -1 -2.079 -1.421 -2.079 C -2.221 -2.079 -2.621 -1.571 -2.621 -1 C -2.621 -.206 -2.093 .278 -1.207 .396 C -.257 .523 .2 .46 .2 .992 C .2 1.404 -.186 1.492 -.443 1.492 C -.807 1.492 -1.128 1.301 -1.193 .889 Z " fill="#231f20"></path>
				<path xmlns="http://www.w3.org/2000/svg" transform="matrix(1,0,0,-1,107.3882,259.1322)" d="M 0 0 C -.007 .349 -.178 .555 -.571 .555 C -.935 .555 -1.192 .444 -1.192 .15 C -1.192 -.032 -1.071 -.143 -.728 -.262 L -.221 -.444 C .322 -.635 .75 -.937 .75 -1.619 C .75 -2.635 -.15 -3.016 -1.007 -3.016 C -1.728 -3.016 -2.578 -2.698 -2.578 -1.738 L -2.578 -1.571 L -1.635 -1.571 L -1.635 -1.706 C -1.635 -2.079 -1.257 -2.262 -.907 -2.262 C -.6 -2.262 -.264 -2.143 -.264 -1.77 C -.264 -1.484 -.407 -1.405 -.628 -1.317 L -1.407 -1.04 C -1.914 -.849 -2.207 -.643 -2.207 .008 C -2.207 .976 -1.285 1.309 -.571 1.309 C .229 1.309 .964 1.055 .943 0 Z " fill="#231f20"></path>
				<path xmlns="http://www.w3.org/2000/svg" transform="matrix(1,0,0,-1,111.0244,259.1322)" d="M 0 0 C -.007 .349 -.179 .555 -.571 .555 C -.936 .555 -1.193 .444 -1.193 .15 C -1.193 -.032 -1.071 -.143 -.729 -.262 L -.222 -.444 C .321 -.635 .75 -.937 .75 -1.619 C .75 -2.635 -.15 -3.016 -1.007 -3.016 C -1.728 -3.016 -2.578 -2.698 -2.578 -1.738 L -2.578 -1.571 L -1.635 -1.571 L -1.635 -1.706 C -1.635 -2.079 -1.257 -2.262 -.907 -2.262 C -.6 -2.262 -.264 -2.143 -.264 -1.77 C -.264 -1.484 -.407 -1.405 -.628 -1.317 L -1.407 -1.04 C -1.914 -.849 -2.207 -.643 -2.207 .008 C -2.207 .976 -1.286 1.309 -.571 1.309 C .229 1.309 .964 1.055 .942 0 Z " fill="#231f20"></path>
			</g>
		</g>
		<!-- Bone Mass -->
		<g>
			<!-- icon -->
			<g>
				<path xmlns="http://www.w3.org/2000/svg" transform="matrix(1,0,0,-1,64.7524,280.97254)" d="M 0 0 C 0 -4.695 -3.808 -8.503 -8.504 -8.503 C -13.199 -8.503 -17.008 -4.695 -17.008 0 C -17.008 4.696 -13.199 8.504 -8.504 8.504 C -3.808 8.504 0 4.696 0 0 " fill="#ffffff"></path>
				<path xmlns="http://www.w3.org/2000/svg" transform="matrix(1,0,0,-1,64.7524,280.97254)" stroke-width=".4" stroke-linecap="butt" stroke-miterlimit="4" stroke-linejoin="miter" fill="none" stroke="#231f20" d="M 0 0 C 0 -4.695 -3.808 -8.503 -8.504 -8.503 C -13.199 -8.503 -17.008 -4.695 -17.008 0 C -17.008 4.696 -13.199 8.504 -8.504 8.504 C -3.808 8.504 0 4.696 0 0 Z "></path>
				<path xmlns="http://www.w3.org/2000/svg" transform="matrix(1,0,0,-1,58.5566,277.7035)" d="M 0 0 L -4.614 0 C -5.846 0 -6.856 -.999 -6.856 -2.23 L -6.856 -7.631 C -6.856 -8.052 -6.451 -8.396 -6.031 -8.396 C -5.609 -8.396 -5.195 -8.052 -5.195 -7.631 L -5.195 -2.763 L -4.941 -2.763 L -4.941 -11.356 C -4.649 -11.45 -4.35 -11.531 -4.044 -11.595 C -4.025 -11.598 -4.006 -11.603 -3.988 -11.606 C -3.894 -11.625 -3.797 -11.643 -3.701 -11.657 C -3.672 -11.662 -3.643 -11.668 -3.613 -11.672 C -3.288 -11.719 -2.887 -11.751 -2.569 -11.764 L -2.51 -11.764 L -2.51 -7.786 L -2.105 -7.786 L -2.105 -11.764 C -1.727 -11.751 -1.324 -11.719 -.998 -11.672 C -.966 -11.667 -.933 -11.661 -.9 -11.655 C -.813 -11.64 -.724 -11.625 -.636 -11.607 C -.612 -11.604 -.587 -11.598 -.563 -11.593 C -.26 -11.53 .037 -11.45 .328 -11.355 L .328 -2.763 L .581 -2.763 L .581 -7.631 C .581 -8.052 .994 -8.396 1.417 -8.396 C 1.838 -8.396 2.241 -8.052 2.241 -7.631 L 2.241 -2.23 C 2.241 -.999 1.234 0 0 0 " fill="#231f20"></path>
				<path xmlns="http://www.w3.org/2000/svg" transform="matrix(1,0,0,-1,56.2271,277.32954)" d="M 0 0 C .962 0 1.743 .78 1.743 1.742 C 1.743 2.705 .962 3.484 0 3.484 C -.963 3.484 -1.743 2.705 -1.743 1.742 C -1.743 .78 -.963 0 0 0 " fill="#231f20"></path>
				<path xmlns="http://www.w3.org/2000/svg" transform="matrix(1,0,0,-1,55.0386,284.96815)" d="M 0 0 C .102 .029 .089 .089 .191 .016 C .292 -.062 .369 -.182 .292 -.438 C .216 -.695 .166 -.651 .102 -.862 C .039 -1.074 .043 -1.144 .031 -1.536 C .019 -1.929 .01 -2.434 .06 -3.098 C .111 -3.764 .111 -3.643 .15 -3.748 C .188 -3.854 .315 -3.899 .163 -3.975 C .01 -4.051 -.104 -4.005 -.182 -3.989 C -.258 -3.975 -.371 -4.034 -.423 -3.989 C -.473 -3.945 -.411 -3.733 -.384 -3.598 C -.361 -3.46 -.309 -3.219 -.295 -2.658 C -.283 -2.1 -.258 -2.307 -.295 -1.536 C -.334 -.765 -.347 -1.27 -.473 -.772 C -.601 -.271 -.537 -.182 -.449 -.046 C -.361 .089 -.283 .029 -.193 .029 C -.104 .029 0 0 0 0 " fill="#ffffff"></path>
				<path xmlns="http://www.w3.org/2000/svg" transform="matrix(1,0,0,-1,57.4946,284.96815)" d="M 0 0 C -.102 .029 -.09 .089 -.19 .016 C -.292 -.062 -.369 -.182 -.292 -.438 C -.216 -.695 -.166 -.651 -.102 -.862 C -.038 -1.074 -.043 -1.144 -.031 -1.536 C -.019 -1.929 -.009 -2.434 -.06 -3.098 C -.111 -3.764 -.111 -3.643 -.15 -3.748 C -.188 -3.854 -.314 -3.899 -.162 -3.975 C -.009 -4.051 .105 -4.005 .181 -3.989 C .258 -3.975 .373 -4.034 .424 -3.989 C .474 -3.945 .41 -3.733 .384 -3.598 C .359 -3.46 .308 -3.219 .295 -2.658 C .284 -2.1 .258 -2.307 .295 -1.536 C .334 -.765 .347 -1.27 .474 -.772 C .601 -.271 .537 -.182 .448 -.046 C .359 .089 .284 .029 .194 .029 C .105 .029 0 0 0 0 " fill="#ffffff"></path>
				<path xmlns="http://www.w3.org/2000/svg" transform="matrix(1,0,0,-1,55.5649,278.6131)" d="M 0 0 C .087 -.009 .225 -.144 .177 -.263 C .129 -.384 .099 -.442 .07 -.501 C .039 -.56 -.078 -.612 -.169 -.512 C -.261 -.413 -.445 -.24 -.619 -.225 C -.792 -.21 -1.975 -.108 -2.074 -.1 C -2.174 -.091 -2.291 -.143 -2.355 -.183 C -2.422 -.223 -2.668 -.032 -2.487 .029 C -2.308 .091 -1.69 .046 -1.453 .057 C -1.214 .067 -.124 .01 0 0 " fill="#ffffff"></path>
				<path xmlns="http://www.w3.org/2000/svg" transform="matrix(1,0,0,-1,56.9277,278.6131)" d="M 0 0 C -.086 -.009 -.225 -.144 -.176 -.264 C -.128 -.383 -.098 -.442 -.069 -.501 C -.038 -.56 .078 -.612 .169 -.512 C .26 -.413 .445 -.24 .619 -.225 C .792 -.21 1.975 -.108 2.075 -.1 C 2.174 -.091 2.291 -.143 2.357 -.183 C 2.422 -.223 2.668 -.032 2.488 .029 C 2.307 .091 1.691 .046 1.453 .057 C 1.214 .067 .124 .011 0 0 " fill="#ffffff"></path>
				<path xmlns="http://www.w3.org/2000/svg" transform="matrix(1,0,0,-1,55.9883,278.71815)" d="M 0 0 C 0 0 .154 .037 .262 .037 C .368 .037 .532 -.012 .532 -.012 L .651 -.308 C .651 -.308 .432 -1.006 .432 -1.231 C .432 -1.35 .461 -2.19 .487 -3.308 C .511 -4.307 .432 -4.443 .432 -4.443 L .091 -4.443 C .091 -4.443 .012 -4.295 .034 -3.308 C .063 -2.182 .091 -1.349 .091 -1.242 C .091 -1.044 -.131 -.314 -.131 -.314 L 0 0 " fill="#ffffff"></path>
				<path xmlns="http://www.w3.org/2000/svg" transform="matrix(1,0,0,-1,56.8179,283.62495)" d="M 0 0 C .162 .015 .262 .097 .343 .163 L .489 .257 C .674 .317 .811 .284 .894 .157 C .94 .084 .967 -.013 .967 -.115 C .967 -.242 .927 -.375 .836 -.475 C .634 -.698 .495 -.728 .36 -.739 C .234 -.751 .07 -.823 -.187 -.942 C -.298 -.993 -.465 -1.07 -.516 -1.08 L -.622 -1.08 C -.674 -1.069 -.84 -.993 -.951 -.942 C -1.209 -.823 -1.373 -.751 -1.498 -.739 C -1.634 -.728 -1.772 -.698 -1.975 -.475 C -2.064 -.375 -2.105 -.242 -2.105 -.115 C -2.105 -.013 -2.079 .084 -2.033 .157 C -1.95 .284 -1.814 .317 -1.628 .257 L -1.481 .163 C -1.4 .097 -1.3 .015 -1.139 0 C -.913 -.022 -.717 .144 -.612 .233 C -.612 .233 -.603 .241 -.594 .248 L -.547 .248 L -.544 .246 C -.445 .159 -.234 -.023 0 0 M .36 .646 C .36 .645 .085 .481 .085 .481 C .021 .429 -.005 .411 -.04 .407 C -.061 .405 -.122 .422 -.277 .557 L -.363 .624 L -.354 .616 C -.457 .674 -.668 .677 -.778 .619 C -.778 .62 -.878 .546 -.878 .546 C -.99 .451 -1.064 .405 -1.099 .407 C -1.133 .411 -1.16 .429 -1.223 .481 L -1.498 .645 C -1.863 .766 -2.191 .667 -2.377 .38 C -2.595 .044 -2.55 -.451 -2.278 -.751 C -1.992 -1.067 -1.75 -1.129 -1.535 -1.148 C -1.472 -1.153 -1.253 -1.255 -1.124 -1.314 C -.834 -1.448 -.7 -1.507 -.584 -1.487 L -.62 -1.49 L -.521 -1.49 L -.554 -1.487 C -.438 -1.507 -.305 -1.448 -.015 -1.314 C .115 -1.255 .334 -1.153 .398 -1.148 C .612 -1.129 .852 -1.067 1.14 -.751 C 1.413 -.451 1.456 .044 1.238 .38 C 1.052 .666 .724 .766 .36 .646 " fill="#ffffff"></path>
				<path xmlns="http://www.w3.org/2000/svg" transform="matrix(1,0,0,-1,60.0317,279.3192)" d="M 0 0 L .116 -2.11 L .086 -5.09 C .086 -5.164 .035 -5.552 -.03 -5.552 L -.097 -5.552 C -.162 -5.552 -.12 -5.493 -.12 -5.421 L -.139 -2.841 L -.22 -2.148 L -.393 -.264 L -.593 .182 C -.593 .254 -.542 .313 -.478 .313 L -.316 .39 C -.252 .39 -.135 .275 -.056 .217 L 0 0 " fill="#ffffff"></path>
				<path xmlns="http://www.w3.org/2000/svg" transform="matrix(1,0,0,-1,52.4209,279.3192)" d="M 0 0 L -.116 -2.11 L -.087 -5.09 C -.087 -5.164 -.035 -5.552 .029 -5.552 L .098 -5.552 C .161 -5.552 .12 -5.493 .12 -5.421 L .139 -2.841 L .219 -2.148 L .393 -.264 L .593 .182 C .593 .254 .541 .313 .477 .313 L .316 .39 C .251 .39 .135 .275 .056 .217 L 0 0 " fill="#ffffff"></path>
			</g>
			<!-- text -->
			<g>
				<path xmlns="http://www.w3.org/2000/svg" transform="matrix(1,0,0,-1,70.1724,280.5824)" d="M 0 0 L 1.271 0 C 1.678 0 2.028 .246 2.028 .746 C 2.028 1.183 1.8 1.325 1.436 1.325 L .25 1.325 Z M -.457 -2.404 L .95 -2.404 C 1.464 -2.404 1.828 -2.095 1.828 -1.492 C 1.828 -.896 1.343 -.849 .943 -.849 L -.157 -.849 Z M -.65 2.293 L 1.493 2.293 C 2.521 2.293 3.149 2.047 3.149 .968 C 3.149 .325 2.792 -.262 2.192 -.349 L 2.192 -.365 C 2.678 -.516 2.949 -.968 2.949 -1.516 C 2.949 -2.745 2.021 -3.372 1 -3.372 L -1.721 -3.372 Z " fill="#231f20"></path>
				<path xmlns="http://www.w3.org/2000/svg" transform="matrix(1,0,0,-1,74.6514,282.2962)" d="M 0 0 C 0 -.484 .25 -.92 .729 -.92 C 1.485 -.92 1.814 .104 1.814 .802 C 1.814 1.349 1.607 1.706 1.071 1.706 C .329 1.706 0 .69 0 0 M -1.014 0 C -1.014 1.396 -.207 2.555 1.107 2.555 C 2.121 2.555 2.828 1.992 2.828 .817 C 2.828 -.619 2.021 -1.77 .678 -1.77 C -.35 -1.77 -1.014 -1.174 -1.014 0 " fill="#231f20"></path>
				<path xmlns="http://www.w3.org/2000/svg" transform="matrix(1,0,0,-1,78.416,279.85243)" d="M 0 0 L .971 0 L .857 -.571 L .871 -.571 C 1.2 -.119 1.628 .111 2.164 .111 C 2.871 .111 3.242 -.27 3.242 -.992 C 3.242 -1.167 3.156 -1.555 3.135 -1.698 L 2.678 -4.102 L 1.664 -4.102 L 2.114 -1.698 C 2.135 -1.571 2.178 -1.309 2.178 -1.198 C 2.178 -.952 1.928 -.777 1.692 -.777 C 1.078 -.777 .771 -1.349 .657 -1.92 L .243 -4.102 L -.771 -4.102 Z " fill="#231f20"></path>
				<path xmlns="http://www.w3.org/2000/svg" transform="matrix(1,0,0,-1,84.8726,281.4632)" d="M 0 0 C 0 .421 -.093 .873 -.686 .873 C -1.264 .873 -1.542 .468 -1.692 0 Z M -1.799 -.714 C -1.807 -.77 -1.807 -.809 -1.807 -.849 L -1.807 -.952 C -1.807 -1.428 -1.542 -1.753 -.993 -1.753 C -.585 -1.753 -.393 -1.452 -.235 -1.19 L .778 -1.19 C .457 -2.11 -.071 -2.603 -1.135 -2.603 C -2.128 -2.603 -2.778 -1.983 -2.778 -.809 C -2.778 .5 -2 1.722 -.743 1.722 C .286 1.722 .979 1.119 .979 -.071 C .979 -.285 .957 -.5 .921 -.714 Z " fill="#231f20"></path>
				<path xmlns="http://www.w3.org/2000/svg" transform="matrix(1,0,0,-1,89.0161,278.28944)" d="M 0 0 L 1.55 0 L 1.942 -4.102 L 1.957 -4.102 L 3.921 0 L 5.484 0 L 4.406 -5.665 L 3.356 -5.665 L 4.285 -1.158 L 4.271 -1.158 L 2.114 -5.665 L 1.257 -5.665 L .764 -1.158 L .75 -1.158 L -.014 -5.665 L -1.078 -5.665 Z " fill="#231f20"></path>
				<path xmlns="http://www.w3.org/2000/svg" transform="matrix(1,0,0,-1,96.9448,281.9867)" d="M 0 0 C -.257 -.167 -.564 -.175 -.857 -.198 C -1.235 -.238 -1.606 -.357 -1.606 -.865 C -1.606 -1.174 -1.342 -1.325 -1.05 -1.325 C -.421 -1.325 -.214 -.841 -.1 -.396 Z M -2.142 .889 C -2.006 1.92 -1.228 2.246 -.393 2.246 C .264 2.246 1.164 2.087 1.143 1.167 C 1.143 .984 1.114 .73 1.064 .476 L .736 -1.174 C .7 -1.325 .686 -1.571 .686 -1.729 C .686 -1.809 .7 -1.889 .721 -1.968 L -.292 -1.968 L -.292 -1.563 C -.571 -1.912 -1 -2.079 -1.421 -2.079 C -2.221 -2.079 -2.621 -1.571 -2.621 -1 C -2.621 -.206 -2.092 .278 -1.207 .396 C -.257 .523 .2 .46 .2 .992 C .2 1.404 -.186 1.492 -.443 1.492 C -.807 1.492 -1.128 1.301 -1.192 .889 Z " fill="#231f20"></path>
				<path xmlns="http://www.w3.org/2000/svg" transform="matrix(1,0,0,-1,100.9165,281.05024)" d="M 0 0 C -.007 .349 -.179 .555 -.571 .555 C -.936 .555 -1.192 .444 -1.192 .15 C -1.192 -.032 -1.071 -.143 -.729 -.262 L -.221 -.444 C .321 -.635 .75 -.937 .75 -1.619 C .75 -2.635 -.15 -3.016 -1.007 -3.016 C -1.728 -3.016 -2.578 -2.698 -2.578 -1.738 L -2.578 -1.571 L -1.635 -1.571 L -1.635 -1.706 C -1.635 -2.079 -1.257 -2.262 -.907 -2.262 C -.6 -2.262 -.264 -2.143 -.264 -1.77 C -.264 -1.484 -.407 -1.405 -.628 -1.317 L -1.407 -1.04 C -1.914 -.849 -2.207 -.643 -2.207 .008 C -2.207 .976 -1.285 1.309 -.571 1.309 C .229 1.309 .964 1.055 .943 0 Z " fill="#231f20"></path>
				<path xmlns="http://www.w3.org/2000/svg" transform="matrix(1,0,0,-1,104.5522,281.05024)" d="M 0 0 C -.007 .349 -.178 .555 -.571 .555 C -.935 .555 -1.192 .444 -1.192 .15 C -1.192 -.032 -1.071 -.143 -.728 -.262 L -.221 -.444 C .322 -.635 .75 -.937 .75 -1.619 C .75 -2.635 -.15 -3.016 -1.007 -3.016 C -1.728 -3.016 -2.578 -2.698 -2.578 -1.738 L -2.578 -1.571 L -1.635 -1.571 L -1.635 -1.706 C -1.635 -2.079 -1.257 -2.262 -.907 -2.262 C -.6 -2.262 -.264 -2.143 -.264 -1.77 C -.264 -1.484 -.407 -1.405 -.628 -1.317 L -1.407 -1.04 C -1.914 -.849 -2.207 -.643 -2.207 .008 C -2.207 .976 -1.285 1.309 -.571 1.309 C .229 1.309 .964 1.055 .943 0 Z " fill="#231f20"></path>
			</g>
		</g>
		<!-- BMI -->
		<g>
			<!-- icon -->
			<g>
				<path xmlns="http://www.w3.org/2000/svg" transform="matrix(1,0,0,-1,64.7529,303.0326)" d="M 0 0 C 0 -4.697 -3.807 -8.504 -8.504 -8.504 C -13.201 -8.504 -17.008 -4.697 -17.008 0 C -17.008 4.695 -13.201 8.504 -8.504 8.504 C -3.807 8.504 0 4.695 0 0 " fill="#ffffff"></path>
				<path xmlns="http://www.w3.org/2000/svg" transform="matrix(1,0,0,-1,64.7529,303.0326)" stroke-width=".4" stroke-linecap="butt" stroke-miterlimit="4" stroke-linejoin="miter" fill="none" stroke="#231f20" d="M 0 0 C 0 -4.697 -3.807 -8.504 -8.504 -8.504 C -13.201 -8.504 -17.008 -4.697 -17.008 0 C -17.008 4.695 -13.201 8.504 -8.504 8.504 C -3.807 8.504 0 4.695 0 0 Z "></path>
				<path xmlns="http://www.w3.org/2000/svg" transform="matrix(1,0,0,-1,58.5566,299.76405)" d="M 0 0 L -4.613 0 C -5.846 0 -6.855 -.998 -6.855 -2.229 L -6.855 -7.632 C -6.855 -8.052 -6.452 -8.395 -6.031 -8.395 C -5.608 -8.395 -5.194 -8.052 -5.194 -7.632 L -5.194 -7.085 L -4.941 -7.085 L -4.941 -11.354 C -4.648 -11.449 -4.35 -11.53 -4.044 -11.595 C -4.025 -11.597 -4.006 -11.602 -3.988 -11.604 C -3.893 -11.624 -3.797 -11.641 -3.701 -11.656 C -3.671 -11.662 -3.643 -11.667 -3.614 -11.672 C -3.289 -11.718 -2.887 -11.751 -2.568 -11.763 L -2.509 -11.763 L -2.509 -7.785 L -2.104 -7.785 L -2.104 -11.763 C -1.727 -11.751 -1.324 -11.718 -.998 -11.671 C -.965 -11.667 -.933 -11.659 -.901 -11.655 C -.812 -11.64 -.723 -11.624 -.636 -11.606 C -.612 -11.603 -.587 -11.597 -.563 -11.593 C -.26 -11.529 .037 -11.448 .329 -11.354 L .329 -7.085 L .582 -7.085 L .582 -7.632 C .582 -8.052 .996 -8.395 1.417 -8.395 C 1.838 -8.395 2.24 -8.052 2.24 -7.632 L 2.24 -2.229 C 2.24 -.998 1.233 0 0 0 " fill="#231f20"></path>
				<path xmlns="http://www.w3.org/2000/svg" transform="matrix(1,0,0,-1,56.2495,299.38905)" d="M 0 0 C .961 0 1.741 .78 1.741 1.741 C 1.741 2.704 .961 3.484 0 3.484 C -.963 3.484 -1.742 2.704 -1.742 1.741 C -1.742 .78 -.963 0 0 0 " fill="#231f20"></path>
				<path xmlns="http://www.w3.org/2000/svg" transform="matrix(1,0,0,-1,53.6045,304.5121)" d="M 0 0 L .662 0 C .925 0 1.076 .154 1.076 .504 C 1.076 .806 .882 .922 .688 .922 L 0 .922 Z M 0 1.502 L .633 1.502 C .846 1.502 1.015 1.612 1.015 1.886 C 1.015 2.169 .864 2.256 .619 2.256 L 0 2.256 Z M -.518 2.851 L .738 2.851 C 1.371 2.851 1.533 2.322 1.533 1.968 C 1.533 1.473 1.324 1.334 1.216 1.262 C 1.533 1.104 1.616 .768 1.616 .427 C 1.616 .154 1.529 -.105 1.393 -.282 C 1.245 -.475 1.105 -.595 .576 -.595 L -.518 -.595 Z " fill="#ffffff"></path>
				<path xmlns="http://www.w3.org/2000/svg" transform="matrix(1,0,0,-1,58.2002,305.1068)" d="M 0 0 L -.504 0 L -.504 2.879 L -.511 2.879 L -.994 0 L -1.522 0 L -1.994 2.879 L -2.001 2.879 L -2.001 0 L -2.505 0 L -2.505 3.445 L -1.717 3.445 L -1.249 .729 L -1.242 .729 L -.781 3.445 L 0 3.445 Z " fill="#ffffff"></path>
				<path xmlns="http://www.w3.org/2000/svg" transform="matrix(1,0,0,-1,0,841.89)" d="M 59.431 536.783 L 58.891 536.783 L 58.891 540.228 L 59.431 540.228 Z " fill="#ffffff"></path>
			</g>
			<!-- text -->
			<g>
				<path xmlns="http://www.w3.org/2000/svg" transform="matrix(1,0,0,-1,70.1724,302.67323)" d="M 0 0 L 1.271 0 C 1.678 0 2.028 .246 2.028 .746 C 2.028 1.183 1.8 1.325 1.436 1.325 L .25 1.325 Z M -.457 -2.404 L .95 -2.404 C 1.464 -2.404 1.828 -2.095 1.828 -1.492 C 1.828 -.896 1.343 -.849 .943 -.849 L -.157 -.849 Z M -.65 2.293 L 1.493 2.293 C 2.521 2.293 3.149 2.047 3.149 .968 C 3.149 .325 2.792 -.262 2.192 -.349 L 2.192 -.365 C 2.678 -.516 2.949 -.968 2.949 -1.516 C 2.949 -2.745 2.021 -3.372 1 -3.372 L -1.721 -3.372 Z " fill="#231f20"></path>
				<path xmlns="http://www.w3.org/2000/svg" transform="matrix(1,0,0,-1,74.6157,300.3802)" d="M 0 0 L 1.55 0 L 1.942 -4.102 L 1.957 -4.102 L 3.92 0 L 5.484 0 L 4.406 -5.665 L 3.356 -5.665 L 4.285 -1.158 L 4.271 -1.158 L 2.114 -5.665 L 1.257 -5.665 L .764 -1.158 L .75 -1.158 L -.014 -5.665 L -1.078 -5.665 Z " fill="#231f20"></path>
				<path xmlns="http://www.w3.org/2000/svg" transform="matrix(1,0,0,-1,81.0229,300.3802)" d="M 0 0 L 1.128 0 L .05 -5.665 L -1.078 -5.665 Z " fill="#231f20"></path>
			</g>
		</g>
		<!-- Metabolic Age -->
		<g>
			<!-- text -->
			<g>
				<path xmlns="http://www.w3.org/2000/svg" transform="matrix(1,0,0,-1,69.4131,322.53944)" d="M 0 0 L 1.377 0 L 1.727 -4.102 L 1.739 -4.102 L 3.485 0 L 4.875 0 L 3.917 -5.665 L 2.983 -5.665 L 3.809 -1.158 L 3.796 -1.158 L 1.879 -5.665 L 1.117 -5.665 L .679 -1.158 L .667 -1.158 L -.013 -5.665 L -.958 -5.665 Z " fill="#231f20"></path>
				<path xmlns="http://www.w3.org/2000/svg" transform="matrix(1,0,0,-1,76.7085,325.7132)" d="M 0 0 C 0 .421 -.083 .873 -.609 .873 C -1.124 .873 -1.371 .468 -1.504 0 Z M -1.6 -.714 C -1.606 -.77 -1.606 -.809 -1.606 -.849 L -1.606 -.952 C -1.606 -1.428 -1.371 -1.753 -.882 -1.753 C -.521 -1.753 -.349 -1.452 -.209 -1.19 L .692 -1.19 C .406 -2.11 -.063 -2.603 -1.009 -2.603 C -1.892 -2.603 -2.469 -1.983 -2.469 -.809 C -2.469 .5 -1.777 1.722 -.66 1.722 C .254 1.722 .87 1.119 .87 -.071 C .87 -.285 .851 -.5 .819 -.714 Z " fill="#231f20"></path>
				<path xmlns="http://www.w3.org/2000/svg" transform="matrix(1,0,0,-1,79.5215,324.10243)" d="M 0 0 L .647 0 L .508 -.753 L -.133 -.753 L -.47 -2.793 C -.489 -2.88 -.495 -2.952 -.495 -2.983 C -.495 -3.277 -.324 -3.285 -.19 -3.285 C -.083 -3.285 .025 -3.277 .133 -3.261 L -.019 -4.134 C -.203 -4.158 -.387 -4.173 -.584 -4.173 C -1.003 -4.173 -1.46 -4.007 -1.441 -3.34 C -1.441 -3.237 -1.422 -3.102 -1.396 -2.952 L -1.028 -.753 L -1.619 -.753 L -1.479 0 L -.901 0 L -.698 1.246 L .203 1.246 Z " fill="#231f20"></path>
				<path xmlns="http://www.w3.org/2000/svg" transform="matrix(1,0,0,-1,82.3276,326.2367)" d="M 0 0 C -.229 -.167 -.501 -.175 -.762 -.198 C -1.098 -.238 -1.428 -.357 -1.428 -.865 C -1.428 -1.174 -1.193 -1.325 -.933 -1.325 C -.375 -1.325 -.19 -.841 -.089 -.396 Z M -1.904 .889 C -1.784 1.92 -1.092 2.246 -.349 2.246 C .235 2.246 1.035 2.087 1.016 1.167 C 1.016 .984 .99 .73 .946 .476 L .654 -1.174 C .622 -1.325 .609 -1.571 .609 -1.729 C .609 -1.809 .622 -1.889 .641 -1.968 L -.26 -1.968 L -.26 -1.563 C -.508 -1.912 -.889 -2.079 -1.263 -2.079 C -1.974 -2.079 -2.33 -1.571 -2.33 -1 C -2.33 -.206 -1.86 .278 -1.073 .396 C -.229 .523 .178 .46 .178 .992 C .178 1.404 -.165 1.492 -.394 1.492 C -.717 1.492 -1.003 1.301 -1.06 .889 Z " fill="#231f20"></path>
				<path xmlns="http://www.w3.org/2000/svg" transform="matrix(1,0,0,-1,85.6865,324.8402)" d="M 0 0 C -.705 0 -.978 -1.04 -.978 -1.762 C -.978 -2.27 -.736 -2.626 -.324 -2.626 C .362 -2.626 .641 -1.619 .641 -.913 C .641 -.396 .463 0 0 0 M -1.187 2.301 L -.286 2.301 L -.622 .302 L -.609 .302 C -.33 .683 -.07 .849 .362 .849 C 1.2 .849 1.542 .056 1.542 -.896 C 1.542 -2.166 .958 -3.476 -.159 -3.476 C -.616 -3.476 -1.028 -3.293 -1.187 -2.722 L -1.2 -2.722 L -1.308 -3.364 L -2.139 -3.364 Z " fill="#231f20"></path>
				<path xmlns="http://www.w3.org/2000/svg" transform="matrix(1,0,0,-1,88.4043,326.5462)" d="M 0 0 C 0 -.484 .222 -.92 .647 -.92 C 1.32 -.92 1.612 .104 1.612 .802 C 1.612 1.349 1.428 1.706 .952 1.706 C .292 1.706 0 .69 0 0 M -.901 0 C -.901 1.396 -.184 2.555 .984 2.555 C 1.885 2.555 2.514 1.992 2.514 .817 C 2.514 -.619 1.796 -1.77 .603 -1.77 C -.311 -1.77 -.901 -1.174 -.901 0 " fill="#231f20"></path>
				<path xmlns="http://www.w3.org/2000/svg" transform="matrix(1,0,0,-1,92.0303,322.53944)" d="M 0 0 L .901 0 L -.063 -5.665 L -.965 -5.665 Z " fill="#231f20"></path>
				<path xmlns="http://www.w3.org/2000/svg" transform="matrix(1,0,0,-1,94.3535,323.4676)" d="M 0 0 L -.908 0 L -.743 .928 L .165 .928 Z M -1.009 -.635 L -.102 -.635 L -.8 -4.737 L -1.708 -4.737 Z " fill="#231f20"></path>
				<path xmlns="http://www.w3.org/2000/svg" transform="matrix(1,0,0,-1,96.7915,325.52284)" d="M 0 0 C 0 .484 -.203 .683 -.603 .683 C -1.289 .683 -1.523 -.349 -1.523 -1.055 C -1.523 -1.539 -1.358 -1.944 -.901 -1.944 C -.495 -1.944 -.273 -1.587 -.171 -1.182 L .73 -1.182 C .457 -2.206 -.108 -2.793 -.965 -2.793 C -1.885 -2.793 -2.425 -2.237 -2.425 -1.031 C -2.425 .365 -1.752 1.532 -.571 1.532 C .229 1.532 .882 1.087 .901 0 Z " fill="#231f20"></path>
				<path xmlns="http://www.w3.org/2000/svg" transform="matrix(1,0,0,-1,101.0015,326.01454)" d="M 0 0 L 1.212 0 L .99 2.253 L .978 2.253 Z M .66 3.475 L 1.682 3.475 L 2.438 -2.19 L 1.447 -2.19 L 1.301 -.928 L -.394 -.928 L -.965 -2.19 L -2.019 -2.19 Z " fill="#231f20"></path>
				<path xmlns="http://www.w3.org/2000/svg" transform="matrix(1,0,0,-1,105.6875,324.8402)" d="M 0 0 C -.603 0 -.92 -.889 -.92 -1.547 C -.92 -2.031 -.736 -2.452 -.311 -2.452 C .33 -2.452 .647 -1.587 .647 -.889 C .647 -.373 .438 0 0 0 M 1.162 -3.15 C .946 -4.388 .432 -4.919 -.647 -4.919 C -1.308 -4.919 -2.05 -4.563 -2.05 -3.579 L -1.149 -3.579 C -1.168 -3.999 -.844 -4.166 -.559 -4.166 C .019 -4.166 .171 -3.539 .355 -2.737 L .343 -2.722 C .108 -3.11 -.19 -3.301 -.559 -3.301 C -1.339 -3.301 -1.822 -2.634 -1.822 -1.626 C -1.822 -.429 -1.212 .849 -.165 .849 C .292 .849 .654 .65 .838 .111 L .851 .111 L .952 .738 L 1.815 .738 Z " fill="#231f20"></path>
				<path xmlns="http://www.w3.org/2000/svg" transform="matrix(1,0,0,-1,110.1064,325.7132)" d="M 0 0 C 0 .421 -.083 .873 -.609 .873 C -1.124 .873 -1.371 .468 -1.504 0 Z M -1.6 -.714 C -1.606 -.77 -1.606 -.809 -1.606 -.849 L -1.606 -.952 C -1.606 -1.428 -1.371 -1.753 -.882 -1.753 C -.521 -1.753 -.349 -1.452 -.209 -1.19 L .692 -1.19 C .406 -2.11 -.063 -2.603 -1.009 -2.603 C -1.892 -2.603 -2.469 -1.983 -2.469 -.809 C -2.469 .5 -1.777 1.722 -.66 1.722 C .254 1.722 .87 1.119 .87 -.071 C .87 -.285 .851 -.5 .819 -.714 Z " fill="#231f20"></path>
			</g>
		</g>
	</g>
	<!-- units -->
	<g>
		<!-- kg 11 -->
		<g>
			<path xmlns="http://www.w3.org/2000/svg" transform="matrix(1,0,0,-1,159.082,191.17914)" d="M 0 0 L 1.268 0 L 1.268 -3.799 L 2.865 -1.954 L 4.365 -1.954 L 2.625 -3.838 L 4.562 -7.082 L 3.026 -7.082 L 1.758 -4.791 L 1.268 -5.316 L 1.268 -7.082 L 0 -7.082 Z " fill="#8a73b4"></path>
			<path xmlns="http://www.w3.org/2000/svg" transform="matrix(1,0,0,-1,167.2334,195.6322)" d="M 0 0 C 0 .833 -.259 1.577 -1.08 1.577 C -1.794 1.577 -2.107 .883 -2.107 .119 C -2.107 -.615 -1.866 -1.418 -1.08 -1.418 C -.357 -1.418 0 -.734 0 0 M 1.205 -2.301 C 1.205 -3.144 .928 -4.572 -1.188 -4.572 C -2.098 -4.572 -3.151 -4.086 -3.223 -2.926 L -1.964 -2.926 C -1.848 -3.452 -1.473 -3.63 -1.018 -3.63 C -.313 -3.63 .009 -3.104 0 -2.361 L 0 -1.686 L -.018 -1.686 C -.294 -2.231 -.839 -2.479 -1.401 -2.479 C -2.794 -2.479 -3.374 -1.309 -3.374 .099 C -3.374 1.428 -2.678 2.638 -1.393 2.638 C -.786 2.638 -.331 2.41 -.018 1.815 L 0 1.815 L 0 2.5 L 1.205 2.5 Z " fill="#8a73b4"></path>
		</g>
		<!-- kg 12 -->
		<g>
			<path xmlns="http://www.w3.org/2000/svg" transform="matrix(1,0,0,-1,234.0376,192.12293)" d="M 0 0 L 1.087 0 L 1.087 -3.255 L 2.458 -1.674 L 3.746 -1.674 L 2.252 -3.289 L 3.914 -6.068 L 2.597 -6.068 L 1.509 -4.105 L 1.087 -4.556 L 1.087 -6.068 L 0 -6.068 Z " fill="#8a73b4"></path>
			<path xmlns="http://www.w3.org/2000/svg" transform="matrix(1,0,0,-1,241.0273,195.93885)" d="M 0 0 C 0 .714 -.222 1.351 -.927 1.351 C -1.54 1.351 -1.808 .756 -1.808 .102 C -1.808 -.527 -1.601 -1.215 -.927 -1.215 C -.307 -1.215 0 -.629 0 0 M 1.034 -1.972 C 1.034 -2.694 .796 -3.918 -1.019 -3.918 C -1.8 -3.918 -2.704 -3.502 -2.765 -2.507 L -1.685 -2.507 C -1.585 -2.958 -1.264 -3.111 -.873 -3.111 C -.268 -3.111 .008 -2.66 0 -2.023 L 0 -1.445 L -.015 -1.445 C -.253 -1.913 -.72 -2.125 -1.203 -2.125 C -2.397 -2.125 -2.896 -1.122 -2.896 .085 C -2.896 1.224 -2.298 2.261 -1.195 2.261 C -.674 2.261 -.283 2.065 -.015 1.555 L 0 1.555 L 0 2.142 L 1.034 2.142 Z " fill="#8a73b4"></path>
		</g>
		<!-- kg 13 -->
		<g>
			<path xmlns="http://www.w3.org/2000/svg" transform="matrix(1,0,0,-1,283.7046,192.12293)" d="M 0 0 L 1.087 0 L 1.087 -3.255 L 2.458 -1.674 L 3.746 -1.674 L 2.252 -3.289 L 3.914 -6.068 L 2.597 -6.068 L 1.509 -4.105 L 1.087 -4.556 L 1.087 -6.068 L 0 -6.068 Z " fill="#8a73b4"></path>
			<path xmlns="http://www.w3.org/2000/svg" transform="matrix(1,0,0,-1,290.6943,195.93885)" d="M 0 0 C 0 .714 -.222 1.351 -.927 1.351 C -1.54 1.351 -1.808 .756 -1.808 .102 C -1.808 -.527 -1.601 -1.215 -.927 -1.215 C -.307 -1.215 0 -.629 0 0 M 1.034 -1.972 C 1.034 -2.694 .796 -3.918 -1.019 -3.918 C -1.8 -3.918 -2.704 -3.502 -2.765 -2.507 L -1.685 -2.507 C -1.585 -2.958 -1.264 -3.111 -.873 -3.111 C -.268 -3.111 .008 -2.66 0 -2.023 L 0 -1.445 L -.015 -1.445 C -.253 -1.913 -.72 -2.125 -1.203 -2.125 C -2.397 -2.125 -2.896 -1.122 -2.896 .085 C -2.896 1.224 -2.298 2.261 -1.195 2.261 C -.674 2.261 -.283 2.065 -.015 1.555 L 0 1.555 L 0 2.142 L 1.034 2.142 Z " fill="#8a73b4"></path>
		</g>
		<!-- kg 14 -->
		<g>
			<path xmlns="http://www.w3.org/2000/svg" transform="matrix(1,0,0,-1,333.8711,192.12293)" d="M 0 0 L 1.088 0 L 1.088 -3.255 L 2.459 -1.674 L 3.745 -1.674 L 2.252 -3.289 L 3.914 -6.068 L 2.597 -6.068 L 1.509 -4.105 L 1.088 -4.556 L 1.088 -6.068 L 0 -6.068 Z " fill="#8a73b4"></path>
			<path xmlns="http://www.w3.org/2000/svg" transform="matrix(1,0,0,-1,340.8604,195.93885)" d="M 0 0 C 0 .714 -.222 1.351 -.927 1.351 C -1.539 1.351 -1.808 .756 -1.808 .102 C -1.808 -.527 -1.601 -1.215 -.927 -1.215 C -.306 -1.215 0 -.629 0 0 M 1.034 -1.972 C 1.034 -2.694 .797 -3.918 -1.019 -3.918 C -1.8 -3.918 -2.703 -3.502 -2.765 -2.507 L -1.685 -2.507 C -1.585 -2.958 -1.264 -3.111 -.873 -3.111 C -.268 -3.111 .008 -2.66 0 -2.023 L 0 -1.445 L -.015 -1.445 C -.252 -1.913 -.72 -2.125 -1.202 -2.125 C -2.397 -2.125 -2.895 -1.122 -2.895 .085 C -2.895 1.224 -2.298 2.261 -1.194 2.261 C -.674 2.261 -.283 2.065 -.015 1.555 L 0 1.555 L 0 2.142 L 1.034 2.142 Z " fill="#8a73b4"></path>
		</g>
		<!-- % 21 -->
		<g>
			<path xmlns="http://www.w3.org/2000/svg" transform="matrix(1,0,0,-1,166.5112,221.61225)" d="M 0 0 C .633 0 .673 .884 .673 1.361 C .673 1.803 .643 2.721 .041 2.721 C -.613 2.721 -.653 1.894 -.653 1.372 C -.653 .884 -.653 0 0 0 M .041 3.571 C 1.307 3.571 1.715 2.574 1.715 1.338 C 1.715 .114 1.184 -.85 -.01 -.85 C -1.266 -.85 -1.695 .147 -1.695 1.383 C -1.695 2.608 -1.154 3.571 .041 3.571 M -.909 7.494 L -.041 7.494 L -4.247 -.941 L -5.135 -.941 Z M -5.268 3.832 C -4.635 3.832 -4.594 4.648 -4.594 5.125 C -4.594 5.578 -4.625 6.553 -5.227 6.553 C -5.88 6.553 -5.921 5.658 -5.921 5.136 C -5.921 4.648 -5.921 3.832 -5.268 3.832 M -5.227 7.403 C -3.961 7.403 -3.553 6.36 -3.553 5.113 C -3.553 3.877 -4.083 2.982 -5.278 2.982 C -6.533 2.982 -6.962 3.912 -6.962 5.159 C -6.962 6.395 -6.421 7.403 -5.227 7.403 " fill="#8a73b4"></path>
		</g>
		<!-- % 22 -->
		<g>
			<path xmlns="http://www.w3.org/2000/svg" transform="matrix(1,0,0,-1,240.3579,220.9173)" d="M 0 0 C .553 0 .589 .773 .589 1.19 C .589 1.577 .563 2.38 .036 2.38 C -.536 2.38 -.571 1.656 -.571 1.2 C -.571 .773 -.571 0 0 0 M .036 3.124 C 1.143 3.124 1.5 2.251 1.5 1.17 C 1.5 .099 1.036 -.744 -.009 -.744 C -1.107 -.744 -1.482 .129 -1.482 1.21 C -1.482 2.281 -1.009 3.124 .036 3.124 M -.794 6.556 L -.036 6.556 L -3.713 -.823 L -4.49 -.823 Z M -4.606 3.353 C -4.053 3.353 -4.017 4.066 -4.017 4.483 C -4.017 4.88 -4.044 5.733 -4.57 5.733 C -5.142 5.733 -5.177 4.949 -5.177 4.493 C -5.177 4.066 -5.177 3.353 -4.606 3.353 M -4.57 6.477 C -3.463 6.477 -3.106 5.564 -3.106 4.473 C -3.106 3.392 -3.571 2.608 -4.615 2.608 C -5.713 2.608 -6.088 3.422 -6.088 4.513 C -6.088 5.594 -5.615 6.477 -4.57 6.477 " fill="#8a73b4"></path>
		</g>
		<!-- % 23 -->
		<g>
			<path xmlns="http://www.w3.org/2000/svg" transform="matrix(1,0,0,-1,290.0249,220.9173)" d="M 0 0 C .553 0 .589 .773 .589 1.19 C .589 1.577 .563 2.38 .036 2.38 C -.536 2.38 -.571 1.656 -.571 1.2 C -.571 .773 -.571 0 0 0 M .036 3.124 C 1.143 3.124 1.5 2.251 1.5 1.17 C 1.5 .099 1.036 -.744 -.009 -.744 C -1.107 -.744 -1.482 .129 -1.482 1.21 C -1.482 2.281 -1.009 3.124 .036 3.124 M -.794 6.556 L -.036 6.556 L -3.713 -.823 L -4.49 -.823 Z M -4.606 3.353 C -4.053 3.353 -4.017 4.066 -4.017 4.483 C -4.017 4.88 -4.044 5.733 -4.57 5.733 C -5.142 5.733 -5.177 4.949 -5.177 4.493 C -5.177 4.066 -5.177 3.353 -4.606 3.353 M -4.57 6.477 C -3.463 6.477 -3.106 5.564 -3.106 4.473 C -3.106 3.392 -3.571 2.608 -4.615 2.608 C -5.713 2.608 -6.088 3.422 -6.088 4.513 C -6.088 5.594 -5.615 6.477 -4.57 6.477 " fill="#8a73b4"></path>
		</g>
		<!-- % 24 -->
		<g>
			<path xmlns="http://www.w3.org/2000/svg" transform="matrix(1,0,0,-1,340.1914,220.9173)" d="M 0 0 C .554 0 .589 .773 .589 1.19 C .589 1.577 .563 2.38 .036 2.38 C -.535 2.38 -.571 1.656 -.571 1.2 C -.571 .773 -.571 0 0 0 M .036 3.124 C 1.143 3.124 1.5 2.251 1.5 1.17 C 1.5 .099 1.035 -.744 -.009 -.744 C -1.106 -.744 -1.481 .129 -1.481 1.21 C -1.481 2.281 -1.009 3.124 .036 3.124 M -.795 6.556 L -.036 6.556 L -3.714 -.823 L -4.49 -.823 Z M -4.606 3.353 C -4.053 3.353 -4.017 4.066 -4.017 4.483 C -4.017 4.88 -4.044 5.733 -4.57 5.733 C -5.142 5.733 -5.178 4.949 -5.178 4.493 C -5.178 4.066 -5.178 3.353 -4.606 3.353 M -4.57 6.477 C -3.464 6.477 -3.106 5.564 -3.106 4.473 C -3.106 3.392 -3.57 2.608 -4.615 2.608 C -5.713 2.608 -6.088 3.422 -6.088 4.513 C -6.088 5.594 -5.615 6.477 -4.57 6.477 " fill="#8a73b4"></path>
		</g>
		<!-- kg 31 -->
		<g>
			<path xmlns="http://www.w3.org/2000/svg" transform="matrix(1,0,0,-1,159.082,236.83582)" d="M 0 0 L 1.268 0 L 1.268 -3.799 L 2.865 -1.954 L 4.365 -1.954 L 2.625 -3.838 L 4.562 -7.082 L 3.026 -7.082 L 1.758 -4.791 L 1.268 -5.316 L 1.268 -7.082 L 0 -7.082 Z " fill="#8a73b4"></path>
			<path xmlns="http://www.w3.org/2000/svg" transform="matrix(1,0,0,-1,167.2334,241.28894)" d="M 0 0 C 0 .833 -.259 1.577 -1.08 1.577 C -1.794 1.577 -2.107 .883 -2.107 .119 C -2.107 -.615 -1.866 -1.418 -1.08 -1.418 C -.357 -1.418 0 -.734 0 0 M 1.205 -2.301 C 1.205 -3.144 .928 -4.572 -1.188 -4.572 C -2.098 -4.572 -3.151 -4.086 -3.223 -2.926 L -1.964 -2.926 C -1.848 -3.452 -1.473 -3.63 -1.018 -3.63 C -.313 -3.63 .009 -3.104 0 -2.361 L 0 -1.686 L -.018 -1.686 C -.294 -2.232 -.839 -2.479 -1.401 -2.479 C -2.794 -2.479 -3.374 -1.309 -3.374 .099 C -3.374 1.428 -2.678 2.638 -1.393 2.638 C -.786 2.638 -.331 2.41 -.018 1.815 L 0 1.815 L 0 2.5 L 1.205 2.5 Z " fill="#8a73b4"></path>
		</g>
		<!-- kg 32 -->
		<g>
			<path xmlns="http://www.w3.org/2000/svg" transform="matrix(1,0,0,-1,234.0376,237.8783)" d="M 0 0 L 1.087 0 L 1.087 -3.255 L 2.458 -1.674 L 3.746 -1.674 L 2.252 -3.289 L 3.914 -6.068 L 2.597 -6.068 L 1.509 -4.105 L 1.087 -4.556 L 1.087 -6.068 L 0 -6.068 Z " fill="#8a73b4"></path>
			<path xmlns="http://www.w3.org/2000/svg" transform="matrix(1,0,0,-1,241.0273,241.69422)" d="M 0 0 C 0 .714 -.222 1.351 -.927 1.351 C -1.54 1.351 -1.808 .756 -1.808 .102 C -1.808 -.527 -1.601 -1.215 -.927 -1.215 C -.307 -1.215 0 -.629 0 0 M 1.034 -1.972 C 1.034 -2.694 .796 -3.918 -1.019 -3.918 C -1.8 -3.918 -2.704 -3.502 -2.765 -2.507 L -1.685 -2.507 C -1.585 -2.958 -1.264 -3.111 -.873 -3.111 C -.268 -3.111 .008 -2.661 0 -2.023 L 0 -1.445 L -.015 -1.445 C -.253 -1.913 -.72 -2.125 -1.203 -2.125 C -2.397 -2.125 -2.896 -1.122 -2.896 .085 C -2.896 1.224 -2.298 2.261 -1.195 2.261 C -.674 2.261 -.283 2.065 -.015 1.555 L 0 1.555 L 0 2.142 L 1.034 2.142 Z " fill="#8a73b4"></path>
		</g>
		<!-- kg 33 -->
		<g>
			<path xmlns="http://www.w3.org/2000/svg" transform="matrix(1,0,0,-1,283.7046,237.8783)" d="M 0 0 L 1.087 0 L 1.087 -3.255 L 2.458 -1.674 L 3.746 -1.674 L 2.252 -3.289 L 3.914 -6.068 L 2.597 -6.068 L 1.509 -4.105 L 1.087 -4.556 L 1.087 -6.068 L 0 -6.068 Z " fill="#8a73b4"></path>
			<path xmlns="http://www.w3.org/2000/svg" transform="matrix(1,0,0,-1,290.6943,241.69422)" d="M 0 0 C 0 .714 -.222 1.351 -.927 1.351 C -1.54 1.351 -1.808 .756 -1.808 .102 C -1.808 -.527 -1.601 -1.215 -.927 -1.215 C -.307 -1.215 0 -.629 0 0 M 1.034 -1.972 C 1.034 -2.694 .796 -3.918 -1.019 -3.918 C -1.8 -3.918 -2.704 -3.502 -2.765 -2.507 L -1.685 -2.507 C -1.585 -2.958 -1.264 -3.111 -.873 -3.111 C -.268 -3.111 .008 -2.661 0 -2.023 L 0 -1.445 L -.015 -1.445 C -.253 -1.913 -.72 -2.125 -1.203 -2.125 C -2.397 -2.125 -2.896 -1.122 -2.896 .085 C -2.896 1.224 -2.298 2.261 -1.195 2.261 C -.674 2.261 -.283 2.065 -.015 1.555 L 0 1.555 L 0 2.142 L 1.034 2.142 Z " fill="#8a73b4"></path>
		</g>
		<!-- kg 34 -->
		<g>
			<path xmlns="http://www.w3.org/2000/svg" transform="matrix(1,0,0,-1,333.8711,237.8783)" d="M 0 0 L 1.088 0 L 1.088 -3.255 L 2.459 -1.674 L 3.745 -1.674 L 2.252 -3.289 L 3.914 -6.068 L 2.597 -6.068 L 1.509 -4.105 L 1.088 -4.556 L 1.088 -6.068 L 0 -6.068 Z " fill="#8a73b4"></path>
			<path xmlns="http://www.w3.org/2000/svg" transform="matrix(1,0,0,-1,340.8604,241.69422)" d="M 0 0 C 0 .714 -.222 1.351 -.927 1.351 C -1.539 1.351 -1.808 .756 -1.808 .102 C -1.808 -.527 -1.601 -1.215 -.927 -1.215 C -.306 -1.215 0 -.629 0 0 M 1.034 -1.972 C 1.034 -2.694 .797 -3.918 -1.019 -3.918 C -1.8 -3.918 -2.703 -3.502 -2.765 -2.507 L -1.685 -2.507 C -1.585 -2.958 -1.264 -3.111 -.873 -3.111 C -.268 -3.111 .008 -2.661 0 -2.023 L 0 -1.445 L -.015 -1.445 C -.252 -1.913 -.72 -2.125 -1.202 -2.125 C -2.397 -2.125 -2.895 -1.122 -2.895 .085 C -2.895 1.224 -2.298 2.261 -1.194 2.261 C -.674 2.261 -.283 2.065 -.015 1.555 L 0 1.555 L 0 2.142 L 1.034 2.142 Z " fill="#8a73b4"></path>
		</g>
		<!-- kg 41 -->
		<g>
			<path xmlns="http://www.w3.org/2000/svg" transform="matrix(1,0,0,-1,159.082,259.66395)" d="M 0 0 L 1.268 0 L 1.268 -3.799 L 2.865 -1.954 L 4.365 -1.954 L 2.625 -3.838 L 4.562 -7.082 L 3.026 -7.082 L 1.758 -4.791 L 1.268 -5.316 L 1.268 -7.082 L 0 -7.082 Z " fill="#8a73b4"></path>
			<path xmlns="http://www.w3.org/2000/svg" transform="matrix(1,0,0,-1,167.2334,264.11714)" d="M 0 0 C 0 .833 -.259 1.577 -1.08 1.577 C -1.794 1.577 -2.107 .883 -2.107 .119 C -2.107 -.615 -1.866 -1.418 -1.08 -1.418 C -.357 -1.418 0 -.734 0 0 M 1.205 -2.301 C 1.205 -3.144 .928 -4.572 -1.188 -4.572 C -2.098 -4.572 -3.151 -4.086 -3.223 -2.926 L -1.964 -2.926 C -1.848 -3.452 -1.473 -3.63 -1.018 -3.63 C -.313 -3.63 .009 -3.104 0 -2.361 L 0 -1.686 L -.018 -1.686 C -.294 -2.232 -.839 -2.479 -1.401 -2.479 C -2.794 -2.479 -3.374 -1.309 -3.374 .099 C -3.374 1.428 -2.678 2.638 -1.393 2.638 C -.786 2.638 -.331 2.41 -.018 1.815 L 0 1.815 L 0 2.5 L 1.205 2.5 Z " fill="#8a73b4"></path>
		</g>
		<!-- kg 42 -->
		<g>
			<path xmlns="http://www.w3.org/2000/svg" transform="matrix(1,0,0,-1,234.0376,260.75624)" d="M 0 0 L 1.087 0 L 1.087 -3.255 L 2.458 -1.674 L 3.746 -1.674 L 2.252 -3.289 L 3.914 -6.068 L 2.597 -6.068 L 1.509 -4.105 L 1.087 -4.556 L 1.087 -6.068 L 0 -6.068 Z " fill="#8a73b4"></path>
			<path xmlns="http://www.w3.org/2000/svg" transform="matrix(1,0,0,-1,241.0273,264.57215)" d="M 0 0 C 0 .714 -.222 1.351 -.927 1.351 C -1.54 1.351 -1.808 .756 -1.808 .102 C -1.808 -.527 -1.601 -1.215 -.927 -1.215 C -.307 -1.215 0 -.629 0 0 M 1.034 -1.972 C 1.034 -2.694 .796 -3.918 -1.019 -3.918 C -1.8 -3.918 -2.704 -3.502 -2.765 -2.507 L -1.685 -2.507 C -1.585 -2.958 -1.264 -3.111 -.873 -3.111 C -.268 -3.111 .008 -2.661 0 -2.023 L 0 -1.445 L -.015 -1.445 C -.253 -1.913 -.72 -2.125 -1.203 -2.125 C -2.397 -2.125 -2.896 -1.122 -2.896 .085 C -2.896 1.224 -2.298 2.261 -1.195 2.261 C -.674 2.261 -.283 2.065 -.015 1.555 L 0 1.555 L 0 2.142 L 1.034 2.142 Z " fill="#8a73b4"></path>
		</g>
		<!-- kg 51 -->
		<g>
			<path xmlns="http://www.w3.org/2000/svg" transform="matrix(1,0,0,-1,159.082,282.4925)" d="M 0 0 L 1.268 0 L 1.268 -3.799 L 2.865 -1.954 L 4.365 -1.954 L 2.625 -3.838 L 4.562 -7.082 L 3.026 -7.082 L 1.758 -4.791 L 1.268 -5.316 L 1.268 -7.082 L 0 -7.082 Z " fill="#8a73b4"></path>
			<path xmlns="http://www.w3.org/2000/svg" transform="matrix(1,0,0,-1,167.2334,286.94575)" d="M 0 0 C 0 .833 -.259 1.577 -1.08 1.577 C -1.794 1.577 -2.107 .883 -2.107 .119 C -2.107 -.615 -1.866 -1.418 -1.08 -1.418 C -.357 -1.418 0 -.734 0 0 M 1.205 -2.301 C 1.205 -3.144 .928 -4.572 -1.188 -4.572 C -2.098 -4.572 -3.151 -4.086 -3.223 -2.926 L -1.964 -2.926 C -1.848 -3.452 -1.473 -3.63 -1.018 -3.63 C -.313 -3.63 .009 -3.104 0 -2.361 L 0 -1.686 L -.018 -1.686 C -.294 -2.231 -.839 -2.479 -1.401 -2.479 C -2.794 -2.479 -3.374 -1.309 -3.374 .099 C -3.374 1.428 -2.678 2.638 -1.393 2.638 C -.786 2.638 -.331 2.41 -.018 1.815 L 0 1.815 L 0 2.5 L 1.205 2.5 Z " fill="#8a73b4"></path>
		</g>
	</g>
</svg>