<svg xmlns="http://www.w3.org/2000/svg" xmlns:xlink="http://www.w3.org/1999/xlink" version="1.1" viewBox="306.98 457.4 258.8 189.36">
  <!-- table -->
  <g>
    <path xmlns="http://www.w3.org/2000/svg" transform="matrix(1,0,0,-1,315.4844,457.3959)" d="M 0 0 C -4.677 0 -8.504 -3.827 -8.504 -8.504 L -8.504 -180.853 C -8.504 -185.529 -4.677 -189.356 0 -189.356 L 241.794 -189.356 C 246.471 -189.356 250.298 -185.529 250.298 -180.853 L 250.298 -8.504 C 250.298 -3.827 246.471 0 241.794 0 Z " fill="#81c452"></path>
    <path xmlns="http://www.w3.org/2000/svg" transform="matrix(1,0,0,-1,315.4834,645.6185)" d="M 0 0 C -4.054 0 -7.37 3.316 -7.37 7.37 L -7.37 179.719 C -7.37 183.772 -4.054 187.089 0 187.089 L 241.795 187.089 C 245.849 187.089 249.165 183.772 249.165 179.719 L 249.165 7.37 C 249.165 3.316 245.849 0 241.795 0 Z " fill="#ffffff"></path>
    <path xmlns="http://www.w3.org/2000/svg" transform="matrix(1,0,0,-1,564.6484,481.20643)" d="M 0 0 L 0 15.307 C 0 19.36 -3.316 22.677 -7.37 22.677 L -249.165 22.677 C -253.219 22.677 -256.535 19.36 -256.535 15.307 L -256.535 0 " fill="#cee5ba"></path>
    <path xmlns="http://www.w3.org/2000/svg" transform="matrix(1,0,0,-1,316.8213,520.681)" stroke-width="1.021" stroke-linecap="butt" stroke-miterlimit="4" stroke-linejoin="miter" fill="none" stroke="#231f20" d="M 0 0 L 0 17.857 C 0 19.261 1.147 20.408 2.551 20.408 L 32.601 20.408 C 34.003 20.408 35.554 19.334 36.047 18.019 L 42.806 0 "></path>
    <path xmlns="http://www.w3.org/2000/svg" transform="matrix(1,0,0,-1,403.8457,535.9906)" stroke-width="1.021" stroke-linecap="round" stroke-miterlimit="4" stroke-linejoin="miter" fill="none" stroke="#231f20" d="M 0 0 L -3.893 11.678 C -4.559 13.675 -6.826 15.308 -8.93 15.308 L -87.024 15.308 L -87.024 -39.161 C -87.024 -41.266 -85.303 -42.988 -83.197 -42.988 L -25.514 -42.988 C -24.809 -42.988 -24.236 -43.559 -24.236 -44.264 C -24.236 -44.967 -24.809 -45.539 -25.514 -45.539 L -83.197 -45.539 C -85.303 -45.539 -87.024 -47.262 -87.024 -49.365 L -87.024 -99.636 C -87.024 -101.741 -85.303 -103.464 -83.197 -103.464 L -8.93 -103.464 C -6.826 -103.464 -4.559 -101.829 -3.893 -99.831 L 0 -88.156 "></path>
    <path xmlns="http://www.w3.org/2000/svg" transform="matrix(1,0,0,-1,513.1211,520.681)" stroke-width="1.021" stroke-linecap="butt" stroke-miterlimit="4" stroke-linejoin="miter" fill="none" stroke="#231f20" d="M 0 0 L 6.758 18.019 C 7.25 19.334 8.801 20.408 10.204 20.408 L 40.252 20.408 C 41.655 20.408 42.803 19.261 42.803 17.857 L 42.803 0 "></path>
    <path xmlns="http://www.w3.org/2000/svg" transform="matrix(1,0,0,-1,468.9004,535.9906)" stroke-width="1.021" stroke-linecap="round" stroke-miterlimit="4" stroke-linejoin="miter" fill="none" stroke="#231f20" d="M 0 0 L 3.891 11.678 C 4.557 13.675 6.822 15.308 8.928 15.308 L 87.023 15.308 L 87.023 -39.161 C 87.023 -41.266 85.301 -42.988 83.197 -42.988 L 25.512 -42.988 C 24.809 -42.988 24.237 -43.559 24.237 -44.264 C 24.237 -44.967 24.809 -45.539 25.512 -45.539 L 83.197 -45.539 C 85.301 -45.539 87.023 -47.262 87.023 -49.365 L 87.023 -99.636 C 87.023 -101.741 85.301 -103.464 83.197 -103.464 L 11.48 -103.464 C 9.376 -103.464 7.108 -101.829 6.443 -99.831 L 2.551 -88.156 "></path>
    <path xmlns="http://www.w3.org/2000/svg" transform="matrix(1,0,0,-1,371.9219,500.27574)" stroke-width="1.021" stroke-linecap="round" stroke-miterlimit="4" stroke-linejoin="miter" fill="none" stroke="#231f20" d="M 0 0 L 37.941 0 C 39.732 0 41.266 -1.106 41.893 -2.674 L 42.707 -4.763 C 43.342 -6.314 44.865 -7.407 46.645 -7.407 L 86.117 -7.407 "></path>
  </g>
  <!-- graph -->
  <g>
    <path xmlns="http://www.w3.org/2000/svg" transform="matrix(1,0,0,-1,448.6113,587.75436)" d="M 0 0 L -8.508 -6.182 L -15.842 -6.182 L -24.35 .002 L -26.613 6.973 L -23.365 16.977 L -17.432 21.281 L -6.913 21.287 L -.982 16.975 L 2.266 6.973 Z M 9.879 22.133 L -5.368 33.209 L -18.979 33.209 L -34.229 22.133 L -38.433 9.187 L -32.609 -8.736 L -21.598 -16.738 L -2.75 -16.738 L 8.262 -8.736 L 14.086 9.187 Z " fill="#56c9eb"></path>
    <path xmlns="http://www.w3.org/2000/svg" transform="matrix(1,0,0,-1,457.624,597.28756)" d="M 0 0 L -11.243 -8.164 L -31.134 -8.164 L -42.374 .002 L -48.519 18.922 L -44.226 32.135 L -28.132 43.824 L -14.237 43.824 L 1.856 32.133 L 6.147 18.92 Z M -1.795 -9.344 L -1.901 -9.344 L -1.76 -9.24 Z M 12.714 37.293 L -12.693 55.752 L -29.683 55.752 L -55.089 37.291 L -60.339 21.131 L -50.632 -8.734 L -36.888 -18.721 L -5.484 -18.721 L 8.262 -8.734 L 17.966 21.131 Z " fill="#92cd8c"></path>
    <path xmlns="http://www.w3.org/2000/svg" transform="matrix(1,0,0,-1,466.6387,606.81777)" d="M 0 0 L -13.975 -10.151 L -46.428 -10.151 L -60.398 0 L -70.43 30.864 L -65.092 47.29 L -38.838 66.366 L -21.567 66.366 L 4.691 47.294 L 10.027 30.867 Z M 15.555 52.448 L -20.018 78.293 L -40.385 78.293 L -75.955 52.45 L -82.248 33.079 L -68.664 -8.736 L -52.186 -20.708 L -8.219 -20.708 L 8.262 -8.739 L 21.848 33.077 Z " fill="#fcc69d"></path>
    <path xmlns="http://www.w3.org/2000/svg" transform="matrix(1,0,0,-1,446.3193,529.84609)" stroke-width="1.276" stroke-linecap="butt" stroke-miterlimit="4" stroke-linejoin="miter" fill="none" stroke="#231f20" d="M 0 0 C -1.132 .251 -2.71 .668 -4.187 1.068 C -6.401 1.675 -8.077 2.908 -6.089 4.932 C -3.956 7.212 -3.253 8.188 -3.253 11.119 C -3.253 15.883 -6.198 18.346 -9.827 18.346 C -13.456 18.346 -16.4 15.883 -16.4 11.119 C -16.4 8.188 -15.698 7.212 -13.563 4.932 C -11.579 2.908 -13.252 1.675 -15.472 1.068 C -16.945 .668 -18.524 .251 -19.659 0 C -23.64 -.883 -22.799 -5.264 -21.776 -9.459 C -19.053 -20.611 -18.208 -29.426 -19.341 -36.419 C -18.11 -41.427 -14.673 -46.598 -10.647 -49.594 L -9.007 -49.594 C -4.981 -46.598 -1.544 -41.427 -.314 -36.419 C -1.448 -29.426 -.604 -20.611 2.118 -9.459 C 3.144 -5.264 3.981 -.883 0 0 Z "></path>
    <path xmlns="http://www.w3.org/2000/svg" transform="matrix(1,0,0,-1,422.627,558.48086)" stroke-width="1.276" stroke-linecap="butt" stroke-miterlimit="4" stroke-linejoin="miter" fill="none" stroke="#231f20" d="M 0 0 C .309 1.834 .533 3.656 .908 5.482 C 2.143 11.459 -1.055 17.756 -1.479 23.711 C -3.569 17.545 -3.582 11.066 -5.527 4.909 C -6.12 3.033 -6.812 1.306 -6.996 -.646 C -7.271 -3.578 -7.4 -6.516 -7.755 -9.439 C -8.014 -11.6 -8.744 -13.701 -9.756 -15.695 C -10.861 -17.879 -12.371 -19.597 -11.697 -22.066 C -11.401 -23.148 -11.057 -25.867 -9.453 -26.143 C -6.866 -26.591 -6.62 -25.082 -5.973 -23.424 C -5.324 -21.762 -4.613 -20.063 -4.624 -18.293 C -4.633 -17.305 -4.966 -16.588 -4.702 -15.6 C -4.391 -14.426 -4.049 -13.26 -3.699 -12.094 C -2.487 -8.092 -.734 -4.086 0 0 "></path>
    <path xmlns="http://www.w3.org/2000/svg" transform="matrix(1,0,0,-1,425.502,571.1957)" stroke-width="1.276" stroke-linecap="butt" stroke-miterlimit="4" stroke-linejoin="miter" fill="none" stroke="#231f20" d="M 0 0 C -1.041 -8.465 -2.436 -18.818 -2.467 -24.391 C -2.489 -27.145 -2.846 -29.568 -3.748 -33.053 C -5.273 -38.957 -4.146 -49.18 -4.047 -52.967 C -3.969 -55.561 -3.91 -57.795 -4.355 -59.816 C -4.599 -61.547 -5.904 -63.147 -8.026 -65.375 C -9.679 -67.104 -10.186 -69.115 -5.75 -68.983 C -3.926 -68.928 -1.953 -68.996 -.426 -68.953 C 3.15 -68.845 1.51 -65.244 1.037 -63.9 C .717 -62.991 .135 -60.036 1.066 -56.329 C 1.838 -53.253 4.232 -41.594 4.643 -35.535 C 4.786 -33.393 5.393 -29.663 6.3 -25.189 C 7.212 -20.699 8.655 -16.061 8.901 -10.795 C 5.082 -8.422 2.229 -3.836 0 0 Z "></path>
    <path xmlns="http://www.w3.org/2000/svg" transform="matrix(1,0,0,-1,450.3594,558.48086)" stroke-width="1.276" stroke-linecap="butt" stroke-miterlimit="4" stroke-linejoin="miter" fill="none" stroke="#231f20" d="M 0 0 C -.305 1.836 -.527 3.658 -.914 5.482 C -2.172 11.446 1.059 17.764 1.477 23.711 C 3.564 17.545 3.579 11.066 5.527 4.909 C 6.121 3.033 6.805 1.306 6.994 -.646 C 7.277 -3.576 7.397 -6.516 7.752 -9.439 C 8.014 -11.599 8.744 -13.701 9.756 -15.695 C 10.858 -17.875 12.373 -19.598 11.697 -22.066 C 11.398 -23.148 11.055 -25.867 9.451 -26.143 C 6.865 -26.591 6.619 -25.082 5.971 -23.424 C 5.324 -21.764 4.61 -20.061 4.621 -18.293 C 4.629 -17.301 4.963 -16.591 4.699 -15.6 C 4.389 -14.426 4.048 -13.26 3.695 -12.094 C 2.488 -8.101 .691 -4.084 0 0 "></path>
    <path xmlns="http://www.w3.org/2000/svg" transform="matrix(1,0,0,-1,447.4814,571.1957)" stroke-width="1.276" stroke-linecap="butt" stroke-miterlimit="4" stroke-linejoin="miter" fill="none" stroke="#231f20" d="M 0 0 C 1.04 -8.465 2.435 -18.818 2.47 -24.391 C 2.491 -27.145 2.846 -29.568 3.747 -33.053 C 5.274 -38.957 4.148 -49.18 4.048 -52.967 C 3.973 -55.561 3.911 -57.795 4.357 -59.816 C 4.603 -61.547 5.906 -63.147 8.028 -65.375 C 9.679 -67.104 10.187 -69.115 5.755 -68.983 C 3.931 -68.928 1.954 -68.996 .429 -68.953 C -3.149 -68.845 -1.509 -65.244 -1.037 -63.9 C -.716 -62.991 -.134 -60.036 -1.065 -56.329 C -1.839 -53.253 -4.233 -41.594 -4.64 -35.535 C -4.784 -33.393 -5.394 -29.663 -6.3 -25.189 C -7.212 -20.699 -8.653 -16.061 -8.899 -10.795 C -5.082 -8.422 -2.229 -3.836 0 0 Z "></path>
  </g>
  <!-- banner -->
  <g>
    <!-- icon -->
    <g>
      <path xmlns="http://www.w3.org/2000/svg" transform="matrix(1,0,0,-1,434.4492,469.81584)" d="M 0 0 C 0 -4.697 -3.807 -8.504 -8.504 -8.504 C -13.201 -8.504 -17.008 -4.697 -17.008 0 C -17.008 4.695 -13.201 8.504 -8.504 8.504 C -3.807 8.504 0 4.695 0 0 " fill="#ffffff"></path>
      <path xmlns="http://www.w3.org/2000/svg" transform="matrix(1,0,0,-1,434.4492,469.81584)" stroke-width=".4" stroke-linecap="butt" stroke-miterlimit="4" stroke-linejoin="miter" fill="none" stroke="#231f20" d="M 0 0 C 0 -4.697 -3.807 -8.504 -8.504 -8.504 C -13.201 -8.504 -17.008 -4.697 -17.008 0 C -17.008 4.695 -13.201 8.504 -8.504 8.504 C -3.807 8.504 0 4.695 0 0 Z "></path>
      <path xmlns="http://www.w3.org/2000/svg" transform="matrix(1,0,0,-1,428.252,466.5462)" d="M 0 0 L -4.613 0 C -5.846 0 -6.855 -.998 -6.855 -2.23 L -6.855 -7.632 C -6.855 -8.053 -6.452 -8.395 -6.031 -8.395 C -5.608 -8.395 -5.195 -8.053 -5.195 -7.632 L -5.195 -2.763 L -4.941 -2.763 L -4.941 -11.355 C -4.648 -11.45 -4.35 -11.531 -4.045 -11.596 C -4.025 -11.598 -4.006 -11.603 -3.988 -11.605 C -3.893 -11.625 -3.797 -11.642 -3.701 -11.657 C -3.672 -11.662 -3.643 -11.668 -3.613 -11.673 C -3.289 -11.719 -2.887 -11.752 -2.568 -11.764 L -2.51 -11.764 L -2.51 -7.785 L -2.104 -7.785 L -2.104 -11.764 C -1.727 -11.752 -1.324 -11.719 -.998 -11.672 C -.966 -11.668 -.934 -11.66 -.9 -11.656 C -.813 -11.641 -.723 -11.625 -.636 -11.607 C -.611 -11.604 -.588 -11.598 -.563 -11.594 C -.26 -11.529 .037 -11.449 .328 -11.354 L .328 -2.763 L .582 -2.763 L .582 -7.632 C .582 -8.053 .996 -8.395 1.416 -8.395 C 1.838 -8.395 2.24 -8.053 2.24 -7.632 L 2.24 -2.23 C 2.24 -.998 1.232 0 0 0 " fill="#231f20"></path>
      <path xmlns="http://www.w3.org/2000/svg" transform="matrix(1,0,0,-1,425.9238,466.1712)" d="M 0 0 C .961 0 1.74 .779 1.74 1.74 C 1.74 2.704 .961 3.483 0 3.483 C -.963 3.483 -1.742 2.704 -1.742 1.74 C -1.742 .779 -.963 0 0 0 " fill="#231f20"></path>
      <path xmlns="http://www.w3.org/2000/svg" transform="matrix(1,0,0,-1,426.7373,471.42713)" d="M 0 0 C 0 -.523 .036 -.805 .426 -.805 C .792 -.805 .835 -.501 .835 0 C .835 .558 .776 .805 .418 .805 C .028 .805 0 .467 0 0 M 1.194 0 C 1.194 -.822 1.063 -1.301 .438 -1.301 C -.114 -1.301 -.358 -1.059 -.358 0 C -.358 .895 -.196 1.301 .418 1.301 C .985 1.301 1.194 .979 1.194 0 M .294 3.187 L -1.46 -1.255 L -1.834 -1.255 L -.077 3.187 Z M -2.375 1.926 C -2.375 1.396 -2.337 1.12 -1.95 1.12 C -1.583 1.12 -1.54 1.418 -1.54 1.926 C -1.54 2.488 -1.6 2.736 -1.958 2.736 C -2.348 2.736 -2.375 2.398 -2.375 1.926 M -1.182 1.926 C -1.182 1.12 -1.304 .625 -1.938 .625 C -2.485 .625 -2.734 .867 -2.734 1.926 C -2.734 2.838 -2.569 3.23 -1.958 3.23 C -1.391 3.23 -1.182 2.91 -1.182 1.926 " fill="#ffffff"></path>
    </g>
    <!-- text -->
    <g>
      <path xmlns="http://www.w3.org/2000/svg" transform="matrix(1,0,0,-1,441.2275,465.9613)" d="M 0 0 L 5.187 0 L 4.89 -1.496 L 1.317 -1.496 L .96 -3.367 L 4.083 -3.367 L 3.817 -4.75 L .704 -4.75 L .062 -8.095 L -1.542 -8.095 Z " fill="#231f20"></path>
      <path xmlns="http://www.w3.org/2000/svg" transform="matrix(1,0,0,-1,449.3516,471.2445)" d="M 0 0 C -.367 -.238 -.807 -.25 -1.225 -.283 C -1.767 -.34 -2.297 -.51 -2.297 -1.236 C -2.297 -1.678 -1.92 -1.893 -1.501 -1.893 C -.603 -1.893 -.307 -1.201 -.143 -.566 Z M -3.063 1.27 C -2.869 2.744 -1.756 3.209 -.563 3.209 C .377 3.209 1.664 2.982 1.633 1.666 C 1.633 1.406 1.592 1.043 1.521 .68 L 1.051 -1.678 C 1 -1.893 .979 -2.244 .979 -2.471 C .979 -2.585 1 -2.698 1.031 -2.812 L -.419 -2.812 L -.419 -2.233 C -.816 -2.732 -1.43 -2.971 -2.031 -2.971 C -3.176 -2.971 -3.746 -2.244 -3.746 -1.428 C -3.746 -.295 -2.991 .396 -1.726 .566 C -.367 .748 .285 .658 .285 1.418 C .285 2.007 -.266 2.131 -.633 2.131 C -1.154 2.131 -1.613 1.859 -1.705 1.27 Z " fill="#231f20"></path>
      <path xmlns="http://www.w3.org/2000/svg" transform="matrix(1,0,0,-1,454.2695,468.1947)" d="M 0 0 L 1.041 0 L .816 -1.077 L -.215 -1.077 L -.756 -3.991 C -.786 -4.115 -.797 -4.218 -.797 -4.263 C -.797 -4.683 -.521 -4.693 -.307 -4.693 C -.133 -4.693 .041 -4.683 .215 -4.659 L -.031 -5.907 C -.326 -5.94 -.623 -5.964 -.939 -5.964 C -1.613 -5.964 -2.348 -5.726 -2.317 -4.772 C -2.317 -4.626 -2.287 -4.433 -2.246 -4.218 L -1.654 -1.077 L -2.604 -1.077 L -2.379 0 L -1.449 0 L -1.123 1.78 L .326 1.78 Z " fill="#231f20"></path>
    </g>
  </g>
  <!-- text -->
  <g>
    <!-- L -->
    <g>
      <path xmlns="http://www.w3.org/2000/svg" transform="matrix(1.2,0,0,-1.2,332.8438,515)" d="M 0 0 L 0 8.609 L 2.25 8.609 L 2.25 1.262 L 6.428 1.262 L 6.428 0 Z " fill="#231f20"></path>
    </g>
    <!-- R -->
    <g>
      <path xmlns="http://www.w3.org/2000/svg" transform="matrix(1.2,0,0,-1.2,535,509)" d="M 0 0 L 1.451 0 C 2.059 .034 2.535 .378 2.535 1.239 C 2.535 2.204 2.072 2.364 1.373 2.376 L 0 2.376 Z M 0 -1.264 L 0 -4.972 L -1.849 -4.972 L -1.849 3.639 L 1.65 3.639 C 3.247 3.639 4.462 3.157 4.462 1.573 C 4.462 .632 4.186 -.356 2.943 -.507 L 2.943 -.528 C 4.04 -.653 4.369 -1.264 4.369 -2.09 C 4.369 -2.444 4.316 -4.558 4.766 -4.812 L 4.766 -4.972 L 2.732 -4.972 C 2.508 -4.421 2.548 -3.364 2.535 -2.79 C 2.521 -2.263 2.535 -1.538 1.9 -1.378 C 1.398 -1.251 .857 -1.264 .33 -1.264 Z " fill="#231f20"></path>
    </g>
    <!-- trunk -->
    <g>
      <path xmlns="http://www.w3.org/2000/svg" transform="matrix(1,0,0,-1,371.7754,488.07164)" d="M 0 0 L 6.553 0 L 6.553 -1.404 L 4.266 -1.404 L 4.266 -9.567 L 2.301 -9.567 L 2.301 -1.404 L 0 -1.404 Z " fill="#231f20"></path>
      <path xmlns="http://www.w3.org/2000/svg" transform="matrix(1,0,0,-1,381.4414,492.1156)" d="M 0 0 L 1.545 0 C 2.189 .038 2.695 .422 2.695 1.377 C 2.695 2.449 2.203 2.627 1.461 2.64 L 0 2.64 Z M 0 -1.403 L 0 -5.523 L -1.963 -5.523 L -1.963 4.044 L 1.754 4.044 C 3.453 4.044 4.744 3.508 4.744 1.748 C 4.744 .701 4.449 -.396 3.129 -.562 L 3.129 -.588 C 4.295 -.727 4.645 -1.403 4.645 -2.32 C 4.645 -2.717 4.59 -5.064 5.066 -5.346 L 5.066 -5.523 L 2.904 -5.523 C 2.668 -4.912 2.709 -3.738 2.695 -3.1 C 2.682 -2.513 2.695 -1.709 2.021 -1.531 C 1.488 -1.391 .914 -1.403 .352 -1.403 Z " fill="#231f20"></path>
      <path xmlns="http://www.w3.org/2000/svg" transform="matrix(1,0,0,-1,392.793,488.07164)" d="M 0 0 L 1.965 0 L 1.965 -6.673 C 1.965 -8.789 1.207 -9.797 -1.359 -9.797 C -3.955 -9.797 -4.715 -8.789 -4.715 -6.673 L -4.715 0 L -2.75 0 L -2.75 -6.52 C -2.75 -7.437 -2.68 -8.355 -1.346 -8.355 C -.07 -8.355 0 -7.437 0 -6.52 Z " fill="#231f20"></path>
      <path xmlns="http://www.w3.org/2000/svg" transform="matrix(1,0,0,-1,401.3535,488.07164)" d="M 0 0 L 1.963 0 L 1.963 -9.567 L -.084 -9.567 L -1.613 -6.161 C -2.133 -5.025 -2.555 -3.865 -3.018 -2.36 L -3.045 -2.36 C -2.977 -3.151 -2.891 -4.12 -2.836 -5.091 C -2.779 -6.047 -2.736 -7.003 -2.736 -7.77 L -2.736 -9.567 L -4.701 -9.567 L -4.701 0 L -2.666 0 L -1.137 -3.481 C -.633 -4.593 -.211 -5.729 .266 -7.284 L .293 -7.284 C .223 -6.416 .154 -5.485 .098 -4.567 C .041 -3.649 0 -2.729 0 -1.876 Z " fill="#231f20"></path>
      <path xmlns="http://www.w3.org/2000/svg" transform="matrix(1,0,0,-1,405.2246,497.639)" d="M 0 0 L 0 9.567 L 1.965 9.567 L 1.965 5.318 L 1.994 5.318 C 2.301 6.071 2.809 6.915 3.229 7.616 L 4.379 9.567 L 6.596 9.567 L 4 5.459 L 6.723 0 L 4.504 0 L 2.652 3.775 L 1.965 2.742 L 1.965 0 Z " fill="#231f20"></path>
    </g>
    <!-- arm l -->
    <g>
      <path xmlns="http://www.w3.org/2000/svg" transform="matrix(1,0,0,-1,334.6289,571.5482)" d="M 0 0 L 1.584 0 L 1.082 2.444 C .989 2.848 .949 3.237 .896 3.64 C .884 3.835 .857 4.03 .831 4.214 L .805 4.214 C .778 4.03 .752 3.835 .738 3.64 C .686 3.237 .646 2.848 .554 2.444 Z M -2.76 -3.444 L -.396 5.166 L 2.099 5.166 L 4.343 -3.444 L 2.363 -3.444 L 1.874 -1.263 L -.291 -1.263 L -.779 -3.444 Z " fill="#231f20"></path>
      <path xmlns="http://www.w3.org/2000/svg" transform="matrix(1,0,0,-1,342.1406,570.0209)" d="M 0 0 L 1.452 0 C 2.059 .034 2.535 .378 2.535 1.239 C 2.535 2.204 2.072 2.364 1.373 2.376 L 0 2.376 Z M 0 -1.264 L 0 -4.972 L -1.848 -4.972 L -1.848 3.639 L 1.65 3.639 C 3.248 3.639 4.463 3.157 4.463 1.573 C 4.463 .632 4.186 -.356 2.943 -.507 L 2.943 -.528 C 4.04 -.653 4.37 -1.264 4.37 -2.09 C 4.37 -2.444 4.316 -4.558 4.766 -4.812 L 4.766 -4.972 L 2.732 -4.972 C 2.508 -4.421 2.548 -3.364 2.535 -2.79 C 2.521 -2.263 2.535 -1.538 1.9 -1.378 C 1.399 -1.251 .857 -1.264 .33 -1.264 Z " fill="#231f20"></path>
      <path xmlns="http://www.w3.org/2000/svg" transform="matrix(1,0,0,-1,350.5498,574.99258)" d="M 0 0 L -1.848 0 L -1.848 8.61 L 1.097 8.61 L 2.087 4.615 C 2.245 3.961 2.351 3.295 2.43 2.629 L 2.456 2.629 C 2.549 3.479 2.614 4.053 2.747 4.615 L 3.737 8.61 L 6.667 8.61 L 6.667 0 L 4.819 0 L 4.819 2.709 C 4.819 4.42 4.858 6.131 4.978 7.842 L 4.951 7.842 L 2.971 0 L 1.849 0 L -.093 7.842 L -.158 7.842 C -.04 6.131 0 4.42 0 2.709 Z " fill="#231f20"></path>
    </g>
    <!-- arm r -->
    <g>
      <path xmlns="http://www.w3.org/2000/svg" transform="matrix(1,0,0,-1,511.1621,571.5482)" d="M 0 0 L 1.583 0 L 1.082 2.444 C .99 2.848 .949 3.237 .896 3.64 C .884 3.835 .857 4.03 .831 4.214 L .805 4.214 C .778 4.03 .752 3.835 .738 3.64 C .686 3.237 .646 2.848 .555 2.444 Z M -2.76 -3.444 L -.396 5.166 L 2.098 5.166 L 4.343 -3.444 L 2.363 -3.444 L 1.874 -1.263 L -.291 -1.263 L -.779 -3.444 Z " fill="#231f20"></path>
      <path xmlns="http://www.w3.org/2000/svg" transform="matrix(1,0,0,-1,518.6738,570.0209)" d="M 0 0 L 1.451 0 C 2.059 .034 2.535 .378 2.535 1.239 C 2.535 2.204 2.072 2.364 1.373 2.376 L 0 2.376 Z M 0 -1.264 L 0 -4.972 L -1.849 -4.972 L -1.849 3.639 L 1.65 3.639 C 3.247 3.639 4.462 3.157 4.462 1.573 C 4.462 .632 4.186 -.356 2.943 -.507 L 2.943 -.528 C 4.04 -.653 4.369 -1.264 4.369 -2.09 C 4.369 -2.444 4.316 -4.558 4.766 -4.812 L 4.766 -4.972 L 2.732 -4.972 C 2.508 -4.421 2.548 -3.364 2.535 -2.79 C 2.521 -2.263 2.535 -1.538 1.9 -1.378 C 1.398 -1.251 .857 -1.264 .33 -1.264 Z " fill="#231f20"></path>
      <path xmlns="http://www.w3.org/2000/svg" transform="matrix(1,0,0,-1,527.084,574.99258)" d="M 0 0 L -1.849 0 L -1.849 8.61 L 1.095 8.61 L 2.086 4.615 C 2.244 3.961 2.35 3.295 2.428 2.629 L 2.455 2.629 C 2.548 3.479 2.613 4.053 2.746 4.615 L 3.736 8.61 L 6.666 8.61 L 6.666 0 L 4.818 0 L 4.818 2.709 C 4.818 4.42 4.857 6.131 4.977 7.842 L 4.951 7.842 L 2.97 0 L 1.848 0 L -.094 7.842 L -.159 7.842 C -.041 6.131 0 4.42 0 2.709 Z " fill="#231f20"></path>
    </g>
    <!-- leg l -->
    <g>
      <path xmlns="http://www.w3.org/2000/svg" transform="matrix(1,0,0,-1,332.8438,594.1254)" d="M 0 0 L 0 8.609 L 2.25 8.609 L 2.25 1.262 L 6.428 1.262 L 6.428 0 Z " fill="#231f20"></path>
      <path xmlns="http://www.w3.org/2000/svg" transform="matrix(1,0,0,-1,341.2168,594.1254)" d="M 0 0 L 0 8.609 L 6.332 8.609 L 6.332 7.348 L 2.25 7.348 L 2.25 5.176 L 6.011 5.176 L 6.011 3.914 L 2.25 3.914 L 2.25 1.262 L 6.332 1.262 L 6.332 0 Z " fill="#231f20"></path>
      <path xmlns="http://www.w3.org/2000/svg" transform="matrix(1,0,0,-1,349.5098,589.1312)" d="M 0 0 C .097 2.191 .338 3.822 3.938 3.822 C 5.867 3.811 7.201 3.455 7.715 1.963 C 7.828 1.619 7.812 1.262 7.828 .917 L 5.578 .917 C 5.545 1.791 5.465 2.48 3.938 2.525 C 2.17 2.525 2.314 1.021 2.314 .354 L 2.314 -2.033 C 2.314 -2.744 2.395 -3.904 3.938 -3.904 C 5.224 -3.904 5.642 -2.93 5.594 -1.632 L 4.035 -1.632 L 4.035 -.367 L 7.779 -.367 L 7.779 -4.994 L 6.092 -4.994 L 6.092 -4.006 L 6.06 -4.006 C 5.609 -4.902 4.758 -5.156 3.938 -5.201 C .242 -5.201 0 -3.525 0 -1.229 Z " fill="#231f20"></path>
    </g>
    <!-- leg r -->
    <g>
      <path xmlns="http://www.w3.org/2000/svg" transform="matrix(1,0,0,-1,509.0186,594.1254)" d="M 0 0 L 0 8.609 L 2.25 8.609 L 2.25 1.262 L 6.429 1.262 L 6.429 0 Z " fill="#231f20"></path>
      <path xmlns="http://www.w3.org/2000/svg" transform="matrix(1,0,0,-1,517.3926,594.1254)" d="M 0 0 L 0 8.609 L 6.332 8.609 L 6.332 7.348 L 2.25 7.348 L 2.25 5.176 L 6.012 5.176 L 6.012 3.914 L 2.25 3.914 L 2.25 1.262 L 6.332 1.262 L 6.332 0 Z " fill="#231f20"></path>
      <path xmlns="http://www.w3.org/2000/svg" transform="matrix(1,0,0,-1,525.6855,589.1312)" d="M 0 0 C .097 2.191 .338 3.822 3.938 3.822 C 5.867 3.811 7.201 3.455 7.715 1.963 C 7.828 1.619 7.812 1.262 7.828 .917 L 5.578 .917 C 5.545 1.791 5.465 2.48 3.938 2.525 C 2.17 2.525 2.314 1.021 2.314 .354 L 2.314 -2.033 C 2.314 -2.744 2.395 -3.904 3.938 -3.904 C 5.225 -3.904 5.642 -2.93 5.594 -1.632 L 4.034 -1.632 L 4.034 -.367 L 7.779 -.367 L 7.779 -4.994 L 6.092 -4.994 L 6.092 -4.006 L 6.059 -4.006 C 5.609 -4.902 4.758 -5.156 3.938 -5.201 C .242 -5.201 0 -3.525 0 -1.229 Z " fill="#231f20"></path>
    </g>
  </g>
  <!-- unit -->
  <g>
    <!-- unit % trunk -->
    <g>
      <path xmlns="http://www.w3.org/2000/svg" transform="matrix(1,0,0,-1,465.3506,503.34803)" d="M 0 0 C .533 0 .963 .552 .963 1.234 C .963 1.92 .533 2.472 0 2.472 C -.533 2.472 -.962 1.92 -.962 1.234 C -.962 .552 -.533 0 0 0 M 0 3.958 C 1.171 3.958 2.122 2.738 2.122 1.234 C 2.122 -.269 1.171 -1.488 0 -1.488 C -1.17 -1.488 -2.121 -.269 -2.121 1.234 C -2.121 2.738 -1.17 3.958 0 3.958 M -5.494 -1.563 L -.857 9.243 L .047 9.243 L -4.59 -1.563 Z M -5.507 5.224 C -4.974 5.224 -4.545 5.775 -4.545 6.46 C -4.545 7.144 -4.974 7.694 -5.507 7.694 C -6.04 7.694 -6.469 7.144 -6.469 6.46 C -6.469 5.775 -6.04 5.224 -5.507 5.224 M -5.507 9.182 C -4.336 9.182 -3.384 7.961 -3.384 6.46 C -3.384 4.957 -4.336 3.736 -5.507 3.736 C -6.678 3.736 -7.627 4.957 -7.627 6.46 C -7.627 7.961 -6.678 9.182 -5.507 9.182 " fill="#231f20"></path>
    </g>
    <!-- unit % arm l -->
    <g>
      <path xmlns="http://www.w3.org/2000/svg" transform="matrix(1,0,0,-1,382.9941,543.5453)" d="M 0 0 C .533 0 .963 .552 .963 1.234 C .963 1.92 .533 2.472 0 2.472 C -.533 2.472 -.962 1.92 -.962 1.234 C -.962 .552 -.533 0 0 0 M 0 3.958 C 1.171 3.958 2.122 2.738 2.122 1.234 C 2.122 -.269 1.171 -1.488 0 -1.488 C -1.17 -1.488 -2.121 -.269 -2.121 1.234 C -2.121 2.738 -1.17 3.958 0 3.958 M -5.494 -1.563 L -.857 9.243 L .047 9.243 L -4.59 -1.563 Z M -5.507 5.224 C -4.974 5.224 -4.545 5.775 -4.545 6.46 C -4.545 7.144 -4.974 7.694 -5.507 7.694 C -6.04 7.694 -6.469 7.144 -6.469 6.46 C -6.469 5.775 -6.04 5.224 -5.507 5.224 M -5.507 9.182 C -4.336 9.182 -3.384 7.961 -3.384 6.46 C -3.384 4.957 -4.336 3.736 -5.507 3.736 C -6.678 3.736 -7.627 4.957 -7.627 6.46 C -7.627 7.961 -6.678 9.182 -5.507 9.182 " fill="#231f20"></path>
    </g>
    <!-- unit % arm r -->
    <g>
      <path xmlns="http://www.w3.org/2000/svg" transform="matrix(1,0,0,-1,541.8936,543.5453)" d="M 0 0 C .533 0 .963 .552 .963 1.234 C .963 1.92 .533 2.472 0 2.472 C -.533 2.472 -.962 1.92 -.962 1.234 C -.962 .552 -.533 0 0 0 M 0 3.958 C 1.171 3.958 2.122 2.738 2.122 1.234 C 2.122 -.269 1.171 -1.488 0 -1.488 C -1.17 -1.488 -2.121 -.269 -2.121 1.234 C -2.121 2.738 -1.17 3.958 0 3.958 M -5.494 -1.563 L -.857 9.243 L .047 9.243 L -4.59 -1.563 Z M -5.507 5.224 C -4.974 5.224 -4.545 5.775 -4.545 6.46 C -4.545 7.144 -4.974 7.694 -5.507 7.694 C -6.04 7.694 -6.469 7.144 -6.469 6.46 C -6.469 5.775 -6.04 5.224 -5.507 5.224 M -5.507 9.182 C -4.336 9.182 -3.384 7.961 -3.384 6.46 C -3.384 4.957 -4.336 3.736 -5.507 3.736 C -6.678 3.736 -7.627 4.957 -7.627 6.46 C -7.627 7.961 -6.678 9.182 -5.507 9.182 " fill="#231f20"></path>
    </g>
    <!-- unit % leg l -->
    <g>
      <path xmlns="http://www.w3.org/2000/svg" transform="matrix(1,0,0,-1,382.3564,633.3754)" d="M 0 0 C .533 0 .963 .552 .963 1.234 C .963 1.92 .533 2.472 0 2.472 C -.533 2.472 -.962 1.92 -.962 1.234 C -.962 .552 -.533 0 0 0 M 0 3.958 C 1.171 3.958 2.122 2.738 2.122 1.234 C 2.122 -.269 1.171 -1.488 0 -1.488 C -1.17 -1.488 -2.121 -.269 -2.121 1.234 C -2.121 2.738 -1.17 3.958 0 3.958 M -5.494 -1.563 L -.857 9.243 L .047 9.243 L -4.59 -1.563 Z M -5.507 5.224 C -4.974 5.224 -4.545 5.775 -4.545 6.46 C -4.545 7.144 -4.974 7.694 -5.507 7.694 C -6.04 7.694 -6.469 7.144 -6.469 6.46 C -6.469 5.775 -6.04 5.224 -5.507 5.224 M -5.507 9.182 C -4.336 9.182 -3.384 7.961 -3.384 6.46 C -3.384 4.957 -4.336 3.736 -5.507 3.736 C -6.678 3.736 -7.627 4.957 -7.627 6.46 C -7.627 7.961 -6.678 9.182 -5.507 9.182 " fill="#231f20"></path>
    </g>
    <!-- unit % leg r -->
    <g>
      <path xmlns="http://www.w3.org/2000/svg" transform="matrix(1,0,0,-1,541.8936,633.3754)" d="M 0 0 C .533 0 .963 .552 .963 1.234 C .963 1.92 .533 2.472 0 2.472 C -.533 2.472 -.962 1.92 -.962 1.234 C -.962 .552 -.533 0 0 0 M 0 3.958 C 1.171 3.958 2.122 2.738 2.122 1.234 C 2.122 -.269 1.171 -1.488 0 -1.488 C -1.17 -1.488 -2.121 -.269 -2.121 1.234 C -2.121 2.738 -1.17 3.958 0 3.958 M -5.494 -1.563 L -.857 9.243 L .047 9.243 L -4.59 -1.563 Z M -5.507 5.224 C -4.974 5.224 -4.545 5.775 -4.545 6.46 C -4.545 7.144 -4.974 7.694 -5.507 7.694 C -6.04 7.694 -6.469 7.144 -6.469 6.46 C -6.469 5.775 -6.04 5.224 -5.507 5.224 M -5.507 9.182 C -4.336 9.182 -3.384 7.961 -3.384 6.46 C -3.384 4.957 -4.336 3.736 -5.507 3.736 C -6.678 3.736 -7.627 4.957 -7.627 6.46 C -7.627 7.961 -6.678 9.182 -5.507 9.182 " fill="#231f20"></path>
    </g>
  </g>
</svg>