<svg xmlns="http://www.w3.org/2000/svg" xmlns:xlink="http://www.w3.org/1999/xlink" version="1.1" viewBox="42.52 397.87 252.28 34.02">
  <!-- table -->
  <g>
    <path xmlns="http://www.w3.org/2000/svg" transform="matrix(1,0,0,-1,46.7715,397.86613)" d="M 0 0 C -2.339 0 -4.252 -1.913 -4.252 -4.252 L -4.252 -29.764 C -4.252 -32.102 -2.339 -34.017 0 -34.017 L 243.778 -34.017 C 246.119 -34.017 248.031 -32.102 248.031 -29.764 L 248.031 -4.252 C 248.031 -1.913 246.119 0 243.778 0 Z " fill="#5894cf"></path>
    <path xmlns="http://www.w3.org/2000/svg" transform="matrix(1,0,0,-1,43.6523,402.11714)" d="M 0 0 L 0 -25.513 C 0 -27.234 1.399 -28.633 3.117 -28.633 L 111.706 -28.633 L 111.706 3.118 L 3.117 3.118 C 1.399 3.118 0 1.719 0 0 " fill="#c7d6ee"></path>
    <path xmlns="http://www.w3.org/2000/svg" transform="matrix(1,0,0,-1,290.5498,398.9989)" d="M 0 0 L -135.191 0 L -135.191 -31.751 L 0 -31.751 C 1.719 -31.751 3.118 -30.352 3.118 -28.631 L 3.118 -3.118 C 3.118 -1.399 1.719 0 0 0 " fill="#ffffff"></path>
    <path xmlns="http://www.w3.org/2000/svg" transform="matrix(1,0,0,-1,151.4678,420.55943)" d="M 0 0 C 0 -.78 -.638 -1.418 -1.417 -1.418 L -55.274 -1.418 C -56.055 -1.418 -56.692 -.78 -56.692 0 L -56.692 11.338 C -56.692 12.117 -56.055 12.756 -55.274 12.756 L -1.417 12.756 C -.638 12.756 0 12.117 0 11.338 Z " fill="#ffffff"></path>
  </g>
  <!-- gauge -->
  <g>
    <!-- gauge bar -->
    <g>
      <path xmlns="http://www.w3.org/2000/svg" transform="matrix(1,0,0,-1,159.207,418.2294)" stroke-width=".425" stroke-linecap="butt" stroke-miterlimit="4" stroke-linejoin="miter" fill="none" stroke="#58595b" d="M 0 0 L 130.675 0 "></path>
      <path xmlns="http://www.w3.org/2000/svg" transform="matrix(1,0,0,-1,185.1338,421.85243)" d="M 0 0 L -3.402 0 L -1.7 3.4 Z " fill="#58595b"></path>
      <path xmlns="http://www.w3.org/2000/svg" transform="matrix(1,0,0,-1,226.2373,421.85243)" d="M 0 0 L -3.402 0 L -1.7 3.4 Z " fill="#58595b"></path>
      <path xmlns="http://www.w3.org/2000/svg" transform="matrix(1,0,0,-1,267.3408,421.85243)" d="M 0 0 L -3.402 0 L -1.7 3.4 Z " fill="#58595b"></path>
    </g>
    <!-- 35% -->
    <g>
      <path xmlns="http://www.w3.org/2000/svg" transform="matrix(1,0,0,-1,180.7549,426.1517)" d="M 0 0 C .389 -.036 .951 .05 .951 .616 C .951 1.04 .651 1.274 .319 1.274 C -.14 1.274 -.376 .899 -.37 .39 L -1.231 .39 C -1.199 1.409 -.612 2.103 .313 2.103 C 1.027 2.103 1.812 1.614 1.812 .729 C 1.812 .255 1.601 -.149 1.187 -.283 L 1.187 -.298 C 1.678 -.418 1.978 -.864 1.978 -1.423 C 1.978 -2.464 1.187 -3.052 .319 -3.052 C -.682 -3.052 -1.358 -2.386 -1.339 -1.246 L -.478 -1.246 C -.459 -1.784 -.217 -2.224 .306 -2.224 C .714 -2.224 1.033 -1.919 1.033 -1.444 C 1.033 -.694 .44 -.708 0 -.708 Z " fill="#58595b"></path>
      <path xmlns="http://www.w3.org/2000/svg" transform="matrix(1,0,0,-1,186.0356,424.97694)" d="M 0 0 L -1.843 0 L -2.022 -1.125 L -2.009 -1.14 C -1.76 -.863 -1.492 -.758 -1.135 -.758 C -.255 -.758 .243 -1.515 .243 -2.442 C .243 -3.462 -.523 -4.248 -1.416 -4.227 C -2.283 -4.227 -3.055 -3.695 -3.074 -2.654 L -2.168 -2.654 C -2.124 -3.101 -1.837 -3.398 -1.435 -3.398 C -.963 -3.398 -.663 -2.938 -.663 -2.442 C -.663 -1.926 -.95 -1.515 -1.435 -1.515 C -1.76 -1.515 -1.939 -1.635 -2.117 -1.911 L -2.934 -1.911 L -2.494 .828 L 0 .828 Z " fill="#58595b"></path>
      <path xmlns="http://www.w3.org/2000/svg" transform="matrix(1,0,0,-1,191.2207,428.6722)" d="M 0 0 C .396 0 .421 .552 .421 .85 C .421 1.125 .402 1.699 .026 1.699 C -.382 1.699 -.408 1.182 -.408 .856 C -.408 .552 -.408 0 0 0 M .026 2.23 C .816 2.23 1.072 1.607 1.072 .835 C 1.072 .07 .74 -.531 -.006 -.531 C -.791 -.531 -1.059 .092 -1.059 .863 C -1.059 1.628 -.721 2.23 .026 2.23 M -.567 4.68 L -.025 4.68 L -2.653 -.588 L -3.208 -.588 Z M -3.291 2.393 C -2.896 2.393 -2.87 2.902 -2.87 3.2 C -2.87 3.483 -2.889 4.092 -3.266 4.092 C -3.674 4.092 -3.699 3.533 -3.699 3.207 C -3.699 2.902 -3.699 2.393 -3.291 2.393 M -3.266 4.623 C -2.475 4.623 -2.219 3.972 -2.219 3.193 C -2.219 2.421 -2.551 1.861 -3.297 1.861 C -4.082 1.861 -4.35 2.442 -4.35 3.221 C -4.35 3.993 -4.012 4.623 -3.266 4.623 " fill="#58595b"></path>
    </g>
    <!-- 40% -->
    <g>
      <path xmlns="http://www.w3.org/2000/svg" transform="matrix(1,0,0,-1,222.3301,425.4086)" d="M 0 0 L -.019 0 L -1.173 -1.721 L 0 -1.721 Z M 0 -2.549 L -1.888 -2.549 L -1.888 -1.629 L .051 1.26 L .861 1.26 L .861 -1.721 L 1.455 -1.721 L 1.455 -2.549 L .861 -2.549 L .861 -3.695 L 0 -3.695 Z " fill="#58595b"></path>
      <path xmlns="http://www.w3.org/2000/svg" transform="matrix(1,0,0,-1,225.6528,428.37544)" d="M 0 0 C .74 0 .74 1.211 .74 1.771 C .74 2.287 .74 3.498 0 3.498 C -.733 3.498 -.727 2.287 -.727 1.771 C -.727 1.211 -.727 0 0 0 M 0 4.326 C .893 4.326 1.646 3.703 1.646 1.771 C 1.646 -.205 .893 -.828 0 -.828 C -.886 -.828 -1.633 -.205 -1.633 1.771 C -1.633 3.703 -.886 4.326 0 4.326 " fill="#58595b"></path>
      <path xmlns="http://www.w3.org/2000/svg" transform="matrix(1,0,0,-1,232.2603,428.6722)" d="M 0 0 C .396 0 .421 .552 .421 .85 C .421 1.125 .402 1.699 .026 1.699 C -.382 1.699 -.408 1.182 -.408 .856 C -.408 .552 -.408 0 0 0 M .026 2.23 C .816 2.23 1.072 1.607 1.072 .835 C 1.072 .07 .74 -.531 -.006 -.531 C -.791 -.531 -1.059 .092 -1.059 .863 C -1.059 1.628 -.721 2.23 .026 2.23 M -.567 4.68 L -.025 4.68 L -2.653 -.588 L -3.208 -.588 Z M -3.291 2.393 C -2.896 2.393 -2.87 2.902 -2.87 3.2 C -2.87 3.483 -2.889 4.092 -3.266 4.092 C -3.674 4.092 -3.699 3.533 -3.699 3.207 C -3.699 2.902 -3.699 2.393 -3.291 2.393 M -3.266 4.623 C -2.475 4.623 -2.219 3.972 -2.219 3.193 C -2.219 2.421 -2.551 1.861 -3.297 1.861 C -4.082 1.861 -4.35 2.442 -4.35 3.221 C -4.35 3.993 -4.012 4.623 -3.266 4.623 " fill="#58595b"></path>
    </g>
    <!-- 45% -->
    <g>
      <path xmlns="http://www.w3.org/2000/svg" transform="matrix(1,0,0,-1,263.3438,425.4086)" d="M 0 0 L -.02 0 L -1.174 -1.721 L 0 -1.721 Z M 0 -2.549 L -1.888 -2.549 L -1.888 -1.629 L .051 1.26 L .861 1.26 L .861 -1.721 L 1.454 -1.721 L 1.454 -2.549 L .861 -2.549 L .861 -3.695 L 0 -3.695 Z " fill="#58595b"></path>
      <path xmlns="http://www.w3.org/2000/svg" transform="matrix(1,0,0,-1,268.0884,424.97694)" d="M 0 0 L -1.843 0 L -2.022 -1.125 L -2.009 -1.14 C -1.76 -.863 -1.492 -.758 -1.135 -.758 C -.255 -.758 .243 -1.515 .243 -2.442 C .243 -3.462 -.523 -4.248 -1.416 -4.227 C -2.283 -4.227 -3.055 -3.695 -3.074 -2.654 L -2.168 -2.654 C -2.124 -3.101 -1.837 -3.398 -1.435 -3.398 C -.963 -3.398 -.663 -2.938 -.663 -2.442 C -.663 -1.926 -.95 -1.515 -1.435 -1.515 C -1.76 -1.515 -1.939 -1.635 -2.118 -1.911 L -2.934 -1.911 L -2.494 .828 L 0 .828 Z " fill="#58595b"></path>
      <path xmlns="http://www.w3.org/2000/svg" transform="matrix(1,0,0,-1,273.2734,428.6722)" d="M 0 0 C .396 0 .421 .552 .421 .85 C .421 1.125 .402 1.699 .026 1.699 C -.382 1.699 -.408 1.182 -.408 .856 C -.408 .552 -.408 0 0 0 M .026 2.23 C .816 2.23 1.072 1.607 1.072 .835 C 1.072 .07 .74 -.531 -.006 -.531 C -.791 -.531 -1.059 .092 -1.059 .863 C -1.059 1.628 -.721 2.23 .026 2.23 M -.567 4.68 L -.025 4.68 L -2.653 -.588 L -3.208 -.588 Z M -3.291 2.393 C -2.896 2.393 -2.87 2.902 -2.87 3.2 C -2.87 3.483 -2.889 4.092 -3.266 4.092 C -3.674 4.092 -3.699 3.533 -3.699 3.207 C -3.699 2.902 -3.699 2.393 -3.291 2.393 M -3.266 4.623 C -2.475 4.623 -2.219 3.972 -2.219 3.193 C -2.219 2.421 -2.551 1.861 -3.297 1.861 C -4.082 1.861 -4.35 2.442 -4.35 3.221 C -4.35 3.993 -4.012 4.623 -3.266 4.623 " fill="#58595b"></path>
    </g>
  </g>
  <!-- text -->
  <g>
    <path xmlns="http://www.w3.org/2000/svg" transform="matrix(1,0,0,-1,51.2329,412.11613)" d="M 0 0 L 4.175 0 L 3.968 -1.122 L .996 -1.122 L .751 -2.422 L 3.5 -2.422 L 3.302 -3.459 L .552 -3.459 L .268 -4.946 L 3.286 -4.946 L 3.072 -6.068 L -1.149 -6.068 Z " fill="#231f20"></path>
    <path xmlns="http://www.w3.org/2000/svg" transform="matrix(1,0,0,-1,59.4785,414.22404)" d="M 0 0 C 0 .748 -.398 1.13 -.98 1.13 C -2.214 1.13 -2.773 -.255 -2.773 -1.419 C -2.773 -2.252 -2.405 -2.983 -1.532 -2.983 C -.873 -2.983 -.353 -2.422 -.245 -1.776 L .958 -1.776 C .467 -3.467 -.36 -4.105 -1.547 -4.105 C -3.087 -4.105 -3.976 -3.145 -3.976 -1.419 C -3.976 .544 -2.834 2.252 -.988 2.252 C .283 2.252 1.226 1.471 1.203 0 Z " fill="#231f20"></path>
    <path xmlns="http://www.w3.org/2000/svg" transform="matrix(1,0,0,-1,66.084,418.18443)" d="M 0 0 L -1.195 0 L -1.333 4.334 L -1.348 4.334 L -3.048 0 L -4.259 0 L -4.634 6.068 L -3.432 6.068 L -3.355 1.624 L -3.339 1.624 L -1.608 6.068 L -.459 6.068 L -.321 1.64 L -.306 1.64 L 1.364 6.068 L 2.566 6.068 Z " fill="#231f20"></path>
    <path xmlns="http://www.w3.org/2000/svg" transform="matrix(1,0,0,-1,70.2373,411.97154)" d="M 0 0 L .874 0 L -1.264 -6.357 L -2.137 -6.357 Z " fill="#231f20"></path>
    <path xmlns="http://www.w3.org/2000/svg" transform="matrix(1,0,0,-1,73.2222,413.23814)" d="M 0 0 L -1.716 0 L -1.501 1.122 L 3.064 1.122 L 2.85 0 L 1.21 0 L .276 -4.946 L -.935 -4.946 Z " fill="#231f20"></path>
    <path xmlns="http://www.w3.org/2000/svg" transform="matrix(1,0,0,-1,77.5845,414.5721)" d="M 0 0 L 1.363 0 C 1.8 0 2.175 .263 2.175 .799 C 2.175 1.266 1.93 1.419 1.54 1.419 L .268 1.419 Z M -.49 -2.575 L 1.019 -2.575 C 1.57 -2.575 1.961 -2.244 1.961 -1.598 C 1.961 -.96 1.44 -.91 1.011 -.91 L -.168 -.91 Z M -.697 2.456 L 1.601 2.456 C 2.704 2.456 3.378 2.192 3.378 1.037 C 3.378 .348 2.995 -.281 2.352 -.374 L 2.352 -.391 C 2.873 -.553 3.164 -1.037 3.164 -1.624 C 3.164 -2.941 2.167 -3.612 1.072 -3.612 L -1.846 -3.612 Z " fill="#231f20"></path>
    <path xmlns="http://www.w3.org/2000/svg" transform="matrix(1,0,0,-1,86.4883,418.18443)" d="M 0 0 L -1.195 0 L -1.333 4.334 L -1.348 4.334 L -3.049 0 L -4.259 0 L -4.634 6.068 L -3.432 6.068 L -3.355 1.624 L -3.34 1.624 L -1.609 6.068 L -.46 6.068 L -.322 1.64 L -.307 1.64 L 1.363 6.068 L 2.566 6.068 Z " fill="#231f20"></path>
  </g>
  <!-- unit -->
  <g>
    <path xmlns="http://www.w3.org/2000/svg" transform="matrix(1,0,0,-1,147.562,418.67274)" d="M 0 0 C .586 0 .624 .817 .624 1.258 C .624 1.667 .595 2.516 .038 2.516 C -.566 2.516 -.604 1.75 -.604 1.268 C -.604 .817 -.604 0 0 0 M .038 3.302 C 1.209 3.302 1.587 2.379 1.587 1.237 C 1.587 .104 1.096 -.787 -.009 -.787 C -1.171 -.787 -1.568 .136 -1.568 1.279 C -1.568 2.411 -1.067 3.302 .038 3.302 M -.84 6.929 L -.038 6.929 L -3.929 -.87 L -4.751 -.87 Z M -4.874 3.543 C -4.288 3.543 -4.25 4.298 -4.25 4.738 C -4.25 5.157 -4.278 6.059 -4.836 6.059 C -5.44 6.059 -5.478 5.231 -5.478 4.749 C -5.478 4.298 -5.478 3.543 -4.874 3.543 M -4.836 6.845 C -3.665 6.845 -3.287 5.881 -3.287 4.728 C -3.287 3.585 -3.778 2.757 -4.883 2.757 C -6.045 2.757 -6.441 3.616 -6.441 4.77 C -6.441 5.912 -5.941 6.845 -4.836 6.845 " fill="#808285"></path>
  </g>
</svg>