<svg xmlns="http://www.w3.org/2000/svg" xmlns:xlink="http://www.w3.org/1999/xlink" version="1.1" viewBox="352.84 166.84 212.96 170.08">
  <!-- table -->
  <g>
    <!-- base -->
    <g>
      <path xmlns="http://www.w3.org/2000/svg" transform="matrix(1,0,0,-1,357.0947,166.8421)" d="M 0 0 C -2.339 0 -4.252 -1.913 -4.252 -4.252 L -4.252 -165.827 C -4.252 -168.165 -2.339 -170.079 0 -170.079 L 204.46 -170.079 C 206.799 -170.079 208.712 -168.165 208.712 -165.827 L 208.712 -4.252 C 208.712 -1.913 206.799 0 204.46 0 Z " fill="#ffcb04"></path>
      <path xmlns="http://www.w3.org/2000/svg" transform="matrix(1,0,0,-1,357.0947,167.97589)" d="M 0 0 C -1.72 0 -3.118 -1.398 -3.118 -3.118 L -3.118 -164.693 C -3.118 -166.412 -1.72 -167.812 0 -167.812 L 204.46 -167.812 C 206.18 -167.812 207.578 -166.412 207.578 -164.693 L 207.578 -3.118 C 207.578 -1.398 206.18 0 204.46 0 Z " fill="#ffffff"></path>
      <path xmlns="http://www.w3.org/2000/svg" transform="matrix(1,0,0,-1,564.6729,180.73181)" d="M 0 0 L 0 9.638 C 0 11.357 -1.398 12.756 -3.119 12.756 L -207.578 12.756 C -209.297 12.756 -210.696 11.357 -210.696 9.638 L -210.696 0 Z " fill="#fff9ae"></path>
      
      <path xmlns="http://www.w3.org/2000/svg" transform="matrix(1,0,0,-1,0,841.89)" d="M 404.739 615.996 L 366.25404 615.996 L 366.25404 615.289 L 404.739 615.289 Z " fill="#b7da9b"></path>
      <path xmlns="http://www.w3.org/2000/svg" transform="matrix(1,0,0,-1,0,841.89)" d="M 406.17 615.289 L 456.53703 615.289 L 456.53703 615.996 L 406.17 615.996 Z " fill="#b7da9b"></path>
      <path xmlns="http://www.w3.org/2000/svg" transform="matrix(1,0,0,-1,0,841.89)" d="M 457.949 615.289 L 508.99 615.289 L 508.99 615.996 L 457.949 615.996 Z " fill="#b7da9b"></path>
      <path xmlns="http://www.w3.org/2000/svg" transform="matrix(1,0,0,-1,0,841.89)" d="M 510.418 615.289 L 560.28 615.289 L 560.28 615.996 L 510.418 615.996 Z " fill="#b7da9b"></path>
      <path xmlns="http://www.w3.org/2000/svg" transform="matrix(1,0,0,-1,0,841.89)" d="M 404.74 573.024 L 366.254 573.024 L 366.254 572.317 L 404.74 572.317 Z " fill="#b7da9b"></path>
      <path xmlns="http://www.w3.org/2000/svg" transform="matrix(1,0,0,-1,0,841.89)" d="M 406.165 572.315 L 456.53703 572.315 L 456.53703 573.024 L 406.165 573.024 Z " fill="#b7da9b"></path>
      <path xmlns="http://www.w3.org/2000/svg" transform="matrix(1,0,0,-1,0,841.89)" d="M 457.949 572.315 L 508.99 572.315 L 508.99 573.024 L 457.949 573.024 Z " fill="#b7da9b"></path>
      <path xmlns="http://www.w3.org/2000/svg" transform="matrix(1,0,0,-1,0,841.89)" d="M 510.418 572.315 L 560.28 572.315 L 560.28 573.024 L 510.418 573.024 Z " fill="#b7da9b"></path>
      <path xmlns="http://www.w3.org/2000/svg" transform="matrix(1,0,0,-1,0,841.89)" d="M 406.165 530.041 L 456.53703 530.041 L 456.53703 530.75 L 406.165 530.75 Z " fill="#b7da9b"></path>
      <path xmlns="http://www.w3.org/2000/svg" transform="matrix(1,0,0,-1,0,841.89)" d="M 457.949 530.041 L 508.99 530.041 L 508.99 530.75 L 457.949 530.75 Z " fill="#b7da9b"></path>
      <path xmlns="http://www.w3.org/2000/svg" transform="matrix(1,0,0,-1,0,841.89)" d="M 510.418 530.041 L 560.28 530.041 L 560.28 530.75 L 510.418 530.75 Z " fill="#b7da9b"></path>
      <path xmlns="http://www.w3.org/2000/svg" transform="matrix(1,0,0,-1,367.6768,183.62732)" d="M 0 0 L -8.174 0 C -9.737 0 -11.009 -1.271 -11.009 -2.834 L -11.009 -125.377 C -11.009 -126.939 -9.737 -128.213 -8.174 -128.213 L 0 -128.213 Z " fill="#cee5ba"></path>
      <path xmlns="http://www.w3.org/2000/svg" transform="matrix(1,0,0,-1,359.5029,310.9886)" d="M 0 0 C -1.096 0 -1.984 .891 -1.984 1.986 L -1.984 124.527 C -1.984 125.622 -1.096 126.511 0 126.511 L 200.786 126.511 L 200.786 127.361 L 0 127.361 C -1.563 127.361 -2.835 126.09 -2.835 124.527 L -2.835 1.984 C -2.835 .422 -1.563 -.852 0 -.852 L 44.894 -.852 L 44.894 0 Z " fill="#81c452"></path>
      <path xmlns="http://www.w3.org/2000/svg" transform="matrix(1,0,0,-1,0,841.89)" d="M 405.111 531.112 L 405.82 531.112 L 405.82 571.966 L 405.111 571.966 Z " fill="#8dd8f8"></path>
      <path xmlns="http://www.w3.org/2000/svg" transform="matrix(1,0,0,-1,0,841.89)" d="M 405.111 573.389 L 405.82 573.389 L 405.82 612.104 L 405.111 612.104 Z " fill="#8dd8f8"></path>
      <path xmlns="http://www.w3.org/2000/svg" transform="matrix(1,0,0,-1,0,841.89)" d="M 405.111 616.361 L 405.82 616.361 L 405.82 656.71408 L 405.111 656.71408 Z " fill="#8dd8f8"></path>
      <path xmlns="http://www.w3.org/2000/svg" transform="matrix(1,0,0,-1,0,841.89)" d="M 457.59 516.525 L 456.88099 516.525 L 456.88099 529.687 L 457.59 529.687 Z " fill="#8dd8f8"></path>
      <path xmlns="http://www.w3.org/2000/svg" transform="matrix(1,0,0,-1,0,841.89)" d="M 456.881 531.112 L 457.59004 531.112 L 457.59004 571.971 L 456.881 571.971 Z " fill="#8dd8f8"></path>
      <path xmlns="http://www.w3.org/2000/svg" transform="matrix(1,0,0,-1,0,841.89)" d="M 456.881 573.383 L 457.59004 573.383 L 457.59004 612.126 L 456.881 612.126 Z " fill="#8dd8f8"></path>
      <path xmlns="http://www.w3.org/2000/svg" transform="matrix(1,0,0,-1,0,841.89)" d="M 456.881 616.355 L 457.59004 616.355 L 457.59004 656.714 L 456.881 656.714 Z " fill="#8dd8f8"></path>
      <path xmlns="http://www.w3.org/2000/svg" transform="matrix(1,0,0,-1,0,841.89)" d="M 510.074 516.525 L 509.365 516.525 L 509.365 529.687 L 510.074 529.687 Z " fill="#8dd8f8"></path>
      <path xmlns="http://www.w3.org/2000/svg" transform="matrix(1,0,0,-1,0,841.89)" d="M 509.365 531.112 L 510.074 531.112 L 510.074 571.971 L 509.365 571.971 Z " fill="#8dd8f8"></path>
      <path xmlns="http://www.w3.org/2000/svg" transform="matrix(1,0,0,-1,0,841.89)" d="M 509.365 573.383 L 510.074 573.383 L 510.074 612.126 L 509.365 612.126 Z " fill="#8dd8f8"></path>
      <path xmlns="http://www.w3.org/2000/svg" transform="matrix(1,0,0,-1,0,841.89)" d="M 509.365 616.355 L 510.074 616.355 L 510.074 656.714 L 509.365 656.714 Z " fill="#8dd8f8"></path>
      <path xmlns="http://www.w3.org/2000/svg" transform="matrix(1,0,0,-1,405.1055,322.66395)" d="M 0 0 L 0 -7.6 C 0 -9.164 1.271 -10.436 2.835 -10.436 L 153.908 -10.436 C 155.473 -10.436 156.744 -9.164 156.744 -7.6 L 156.744 0 Z " fill="#c7eafb"></path>
      <path xmlns="http://www.w3.org/2000/svg" transform="matrix(1,0,0,-1,560.998,185.182)" d="M 0 0 L 0 -145.083 C 0 -146.177 -.89 -147.066 -1.984 -147.066 L -153.058 -147.066 C -154.152 -147.066 -155.042 -146.177 -155.042 -145.083 L -155.042 -127.365 L -155.893 -127.365 L -155.893 -145.082 C -155.893 -146.646 -154.621 -147.917 -153.058 -147.917 L -1.984 -147.917 C -.42 -147.917 .852 -146.646 .852 -145.082 L .852 0 Z " fill="#00bdf2"></path>
    </g>
    <!-- dash-line -->
    <g>
      <line x1="395.8623" y1="187.24604" x2="395.8623" y2="308.8246" stroke-dasharray="1 2.5" stroke="#b7da9b"></line>
      <line x1="370.4043" y1="205.18793" x2="396.2871" y2="205.18793" stroke-dasharray="1 2.5" stroke="#b7da9b"></line>
      <line x1="423.2285" y1="187.48859" x2="423.2285" y2="308.8089" stroke-dasharray="1 2.5" stroke="#808285"></line>
      <line x1="438.7588" y1="187.48859" x2="438.7588" y2="308.8089" stroke-dasharray="1 2.5" stroke="#808285"></line>
      <line x1="475.7129" y1="187.48859" x2="475.7129" y2="308.8089" stroke-dasharray="1 2.5" stroke="#808285"></line>
      <line x1="491.2432" y1="187.48859" x2="491.2432" y2="308.8089" stroke-dasharray="1 2.5" stroke="#808285"></line>
      <line x1="528.1973" y1="187.48859" x2="528.1973" y2="308.8089" stroke-dasharray="1 2.5" stroke="#808285"></line>
      <line x1="543.7275" y1="187.48859" x2="543.7275" y2="308.8089" stroke-dasharray="1 2.5" stroke="#808285"></line>
      <line x1="408.1221" y1="205.18592" x2="557.0938" y2="205.18592" stroke-dasharray="1 2.5" stroke="#808285"></line>
      <line x1="408.1221" y1="247.73279" x2="557.0938" y2="247.73279" stroke-dasharray="1 2.5" stroke="#808285"></line>
    </g>
    <!-- text -->
    <g>
      <!-- physique rating -->
      <g>
        <path xmlns="http://www.w3.org/2000/svg" transform="matrix(1,0,0,-1,427.957,173.52625)" d="M 0 0 L 1.36 0 C 2.04 0 2.457 .34 2.457 1.062 C 2.457 1.674 1.98 1.819 1.514 1.819 L .374 1.819 Z M -.747 2.855 L 1.684 2.855 C 2.907 2.855 3.791 2.422 3.791 1.088 C 3.791 -.247 2.687 -1.037 1.429 -1.037 L -.221 -1.037 L -.68 -3.213 L -2.014 -3.213 Z " fill="#231f20"></path>
        <path xmlns="http://www.w3.org/2000/svg" transform="matrix(1,0,0,-1,432.8135,170.67084)" d="M 0 0 L 1.207 0 L .757 -2.184 L .773 -2.184 C .961 -1.929 1.437 -1.555 2.227 -1.555 C 3.068 -1.555 3.511 -1.963 3.511 -2.737 C 3.511 -2.924 3.408 -3.34 3.383 -3.493 L 2.839 -6.068 L 1.632 -6.068 L 2.167 -3.493 C 2.193 -3.357 2.244 -3.077 2.244 -2.958 C 2.244 -2.694 1.946 -2.507 1.666 -2.507 C .936 -2.507 .569 -3.119 .434 -3.731 L -.06 -6.068 L -1.267 -6.068 Z " fill="#231f20"></path>
        <path xmlns="http://www.w3.org/2000/svg" transform="matrix(1,0,0,-1,438.6641,177.35974)" d="M 0 0 C -.417 -.756 -.808 -.926 -1.708 -.926 C -1.921 -.926 -2.142 -.892 -2.354 -.884 L -2.15 .119 C -1.989 .119 -1.819 .068 -1.657 .068 C -1.088 .068 -1.021 .434 -.858 .663 L -1.641 5.015 L -.399 5.015 L -.018 1.87 L 0 1.87 L 1.521 5.015 L 2.796 5.015 Z " fill="#231f20"></path>
        <path xmlns="http://www.w3.org/2000/svg" transform="matrix(1,0,0,-1,444.25,173.6283)" d="M 0 0 C -.008 .374 -.212 .595 -.68 .595 C -1.113 .595 -1.419 .476 -1.419 .161 C -1.419 -.034 -1.274 -.153 -.866 -.281 L -.263 -.476 C .383 -.68 .893 -1.003 .893 -1.734 C .893 -2.822 -.178 -3.23 -1.198 -3.23 C -2.057 -3.23 -3.068 -2.89 -3.068 -1.861 L -3.068 -1.683 L -1.946 -1.683 L -1.946 -1.828 C -1.946 -2.227 -1.495 -2.422 -1.079 -2.422 C -.714 -2.422 -.314 -2.295 -.314 -1.896 C -.314 -1.589 -.484 -1.504 -.748 -1.411 L -1.674 -1.114 C -2.277 -.91 -2.626 -.688 -2.626 .008 C -2.626 1.045 -1.529 1.402 -.68 1.402 C .272 1.402 1.147 1.13 1.122 0 Z " fill="#231f20"></path>
        <path xmlns="http://www.w3.org/2000/svg" transform="matrix(1,0,0,-1,447.8564,171.66492)" d="M 0 0 L -1.216 0 L -.994 .994 L .221 .994 Z M -1.352 -.68 L -.136 -.68 L -1.071 -5.074 L -2.286 -5.074 Z " fill="#231f20"></path>
        <path xmlns="http://www.w3.org/2000/svg" transform="matrix(1,0,0,-1,450.4922,173.13562)" d="M 0 0 C -.943 0 -1.326 -1.079 -1.326 -1.835 C -1.326 -2.379 -1.088 -2.813 -.434 -2.813 C .434 -2.813 .875 -1.717 .875 -.926 C .875 -.382 .553 0 0 0 M 1.147 -5.15 L -.06 -5.15 L .34 -3.255 L .323 -3.255 C .06 -3.536 -.306 -3.723 -.918 -3.723 C -2.048 -3.723 -2.532 -2.873 -2.532 -1.853 C -2.532 -.493 -1.751 .91 -.255 .91 C .357 .91 .909 .714 1.122 .102 L 1.139 .102 L 1.283 .791 L 2.396 .791 Z " fill="#231f20"></path>
        <path xmlns="http://www.w3.org/2000/svg" transform="matrix(1,0,0,-1,457.1328,176.73914)" d="M 0 0 L -1.155 0 L -1.02 .612 L -1.037 .612 C -1.428 .127 -1.938 -.119 -2.575 -.119 C -3.417 -.119 -3.858 .289 -3.858 1.063 C -3.858 1.241 -3.773 1.666 -3.731 1.819 L -3.188 4.394 L -1.98 4.394 L -2.516 1.819 C -2.559 1.691 -2.592 1.402 -2.592 1.283 C -2.592 1.02 -2.295 .833 -2.015 .833 C -1.283 .833 -.918 1.445 -.782 2.057 L -.289 4.394 L .918 4.394 Z " fill="#231f20"></path>
        <path xmlns="http://www.w3.org/2000/svg" transform="matrix(1,0,0,-1,461.6572,174.07019)" d="M 0 0 C 0 .45 -.11 .935 -.815 .935 C -1.504 .935 -1.836 .501 -2.015 0 Z M -2.142 -.765 C -2.15 -.825 -2.15 -.867 -2.15 -.91 L -2.15 -1.02 C -2.15 -1.53 -1.836 -1.878 -1.182 -1.878 C -.697 -1.878 -.468 -1.556 -.28 -1.275 L .927 -1.275 C .544 -2.261 -.085 -2.788 -1.352 -2.788 C -2.532 -2.788 -3.306 -2.125 -3.306 -.867 C -3.306 .535 -2.38 1.844 -.884 1.844 C .34 1.844 1.164 1.198 1.164 -.077 C 1.164 -.306 1.139 -.536 1.097 -.765 Z " fill="#231f20"></path>
        <path xmlns="http://www.w3.org/2000/svg" transform="matrix(1,0,0,-1,467.5176,173.4159)" d="M 0 0 L 1.232 0 C 1.946 0 2.609 .28 2.609 .96 C 2.609 1.615 2.142 1.708 1.623 1.708 L .356 1.708 Z M -.766 2.745 L 2.133 2.745 C 3.229 2.771 3.943 2.329 3.943 1.156 C 3.943 .332 3.365 -.366 2.55 -.476 L 2.55 -.493 C 3.051 -.654 3.179 -1.08 3.179 -1.564 C 3.179 -1.836 3.136 -2.244 3.136 -2.618 C 3.136 -2.89 3.153 -3.145 3.221 -3.323 L 1.921 -3.323 C 1.887 -3.179 1.861 -3.051 1.861 -2.916 C 1.861 -2.507 1.929 -2.091 1.929 -1.683 C 1.929 -1.097 1.572 -.952 1.054 -.952 L -.204 -.952 L -.706 -3.323 L -2.04 -3.323 Z " fill="#231f20"></path>
        <path xmlns="http://www.w3.org/2000/svg" transform="matrix(1,0,0,-1,474.7109,174.63123)" d="M 0 0 C -.306 -.179 -.672 -.187 -1.02 -.212 C -1.471 -.255 -1.912 -.383 -1.912 -.927 C -1.912 -1.258 -1.598 -1.419 -1.249 -1.419 C -.502 -1.419 -.255 -.901 -.119 -.425 Z M -2.55 .952 C -2.389 2.057 -1.462 2.405 -.468 2.405 C .314 2.405 1.386 2.235 1.359 1.249 C 1.359 1.054 1.326 .782 1.267 .51 L .875 -1.258 C .833 -1.419 .815 -1.683 .815 -1.853 C .815 -1.938 .833 -2.023 .858 -2.108 L -.349 -2.108 L -.349 -1.674 C -.68 -2.048 -1.19 -2.227 -1.691 -2.227 C -2.644 -2.227 -3.119 -1.683 -3.119 -1.071 C -3.119 -.221 -2.49 .297 -1.437 .425 C -.306 .561 .238 .493 .238 1.063 C .238 1.504 -.221 1.598 -.527 1.598 C -.961 1.598 -1.343 1.394 -1.42 .952 Z " fill="#231f20"></path>
        <path xmlns="http://www.w3.org/2000/svg" transform="matrix(1,0,0,-1,478.8955,172.3451)" d="M 0 0 L .866 0 L .68 -.808 L -.179 -.808 L -.629 -2.992 C -.655 -3.085 -.663 -3.162 -.663 -3.196 C -.663 -3.51 -.434 -3.519 -.256 -3.519 C -.111 -3.519 .033 -3.51 .178 -3.493 L -.026 -4.428 C -.272 -4.454 -.519 -4.471 -.782 -4.471 C -1.344 -4.471 -1.955 -4.292 -1.93 -3.578 C -1.93 -3.468 -1.904 -3.323 -1.87 -3.162 L -1.377 -.808 L -2.168 -.808 L -1.98 0 L -1.207 0 L -.936 1.334 L .271 1.334 Z " fill="#231f20"></path>
        <path xmlns="http://www.w3.org/2000/svg" transform="matrix(1,0,0,-1,481.8633,171.66492)" d="M 0 0 L -1.216 0 L -.995 .994 L .221 .994 Z M -1.352 -.68 L -.137 -.68 L -1.071 -5.074 L -2.286 -5.074 Z " fill="#231f20"></path>
        <path xmlns="http://www.w3.org/2000/svg" transform="matrix(1,0,0,-1,482.6973,172.3451)" d="M 0 0 L 1.155 0 L 1.02 -.612 L 1.037 -.612 C 1.428 -.127 1.938 .119 2.575 .119 C 3.416 .119 3.858 -.289 3.858 -1.063 C 3.858 -1.25 3.757 -1.666 3.73 -1.819 L 3.187 -4.394 L 1.98 -4.394 L 2.516 -1.819 C 2.541 -1.683 2.592 -1.402 2.592 -1.283 C 2.592 -1.02 2.295 -.833 2.014 -.833 C 1.283 -.833 .918 -1.445 .781 -2.057 L .289 -4.394 L -.918 -4.394 Z " fill="#231f20"></path>
        <path xmlns="http://www.w3.org/2000/svg" transform="matrix(1,0,0,-1,489.6611,173.13562)" d="M 0 0 C -.808 0 -1.232 -.952 -1.232 -1.657 C -1.232 -2.176 -.986 -2.626 -.417 -2.626 C .441 -2.626 .866 -1.7 .866 -.952 C .866 -.399 .586 0 0 0 M 1.555 -3.374 C 1.266 -4.7 .577 -5.27 -.867 -5.27 C -1.751 -5.27 -2.746 -4.887 -2.746 -3.833 L -1.539 -3.833 C -1.564 -4.284 -1.131 -4.462 -.748 -4.462 C .025 -4.462 .229 -3.791 .476 -2.932 L .459 -2.915 C .145 -3.332 -.256 -3.536 -.748 -3.536 C -1.794 -3.536 -2.439 -2.822 -2.439 -1.742 C -2.439 -.459 -1.624 .91 -.222 .91 C .391 .91 .875 .697 1.121 .119 L 1.139 .119 L 1.274 .791 L 2.431 .791 Z " fill="#231f20"></path>
      </g>
      <!-- fat -->
      <g>
        <path xmlns="http://www.w3.org/2000/svg" transform="matrix(1,0,0,-1,359.8174,252.89984)" d="M 0 0 L 0 3.846 L 1.065 3.846 L 1.065 1.203 L 2.397 1.203 L 2.397 3.493 L 3.382 3.493 L 3.382 1.203 L 5.763 1.203 L 5.763 0 Z " fill="#231f20"></path>
        <path xmlns="http://www.w3.org/2000/svg" transform="matrix(1,0,0,-1,363.5391,246.01013)" d="M 0 0 C .169 -.184 .177 -.566 .242 -.903 C .307 -1.24 .436 -1.547 .855 -1.547 C 1.275 -1.547 1.388 -1.233 1.388 -.881 C 1.388 -.03 .686 0 .428 0 Z M -.848 -2.512 C -1.914 -2.451 -2.244 -1.539 -2.244 -.65 C -2.244 .138 -2.059 1.088 -1.059 1.088 L 1.113 1.088 C 1.492 1.088 1.872 1.126 2.041 1.226 L 2.041 .123 C 1.912 .085 1.775 .054 1.638 .046 C 2.018 -.299 2.154 -.797 2.154 -1.287 C 2.154 -2.045 1.759 -2.635 .903 -2.635 C -.994 -2.619 .023 .046 -.912 0 C -1.396 0 -1.479 -.321 -1.479 -.704 C -1.479 -1.126 -1.301 -1.386 -.848 -1.425 Z " fill="#231f20"></path>
        <path xmlns="http://www.w3.org/2000/svg" transform="matrix(1,0,0,-1,361.4072,242.70545)" d="M 0 0 L 0 .797 L .767 .797 L .767 0 L 2.833 0 C 3.221 0 3.317 .093 3.317 .46 C 3.317 .583 3.31 .697 3.286 .797 L 4.182 .797 C 4.214 .613 4.222 .376 4.222 .161 C 4.222 -.513 4.068 -1.087 3.229 -1.087 L .767 -1.087 L .767 -1.746 L 0 -1.746 L 0 -1.087 L -1.251 -1.087 L -1.251 0 Z " fill="#231f20"></path>
      </g>
      <!-- muscle mass -->
      <g>
        <path xmlns="http://www.w3.org/2000/svg" transform="matrix(1,0,0,-1,459.9717,324.7201)" d="M 0 0 L 1.693 0 L 2.973 -3.963 L 2.987 -3.963 L 4.198 0 L 5.891 0 L 5.891 -5.763 L 4.765 -5.763 L 4.765 -1.679 L 4.75 -1.679 L 3.409 -5.763 L 2.482 -5.763 L 1.142 -1.719 L 1.126 -1.719 L 1.126 -5.763 L 0 -5.763 Z " fill="#231f20"></path>
        <path xmlns="http://www.w3.org/2000/svg" transform="matrix(1,0,0,-1,470.5137,330.4833)" d="M 0 0 L -1.034 0 L -1.034 .581 L -1.057 .581 C -1.332 .105 -1.808 -.113 -2.267 -.113 C -3.424 -.113 -3.715 .573 -3.715 1.606 L -3.715 4.173 L -2.627 4.173 L -2.627 1.816 C -2.627 1.13 -2.443 .791 -1.93 .791 C -1.34 .791 -1.087 1.138 -1.087 1.986 L -1.087 4.173 L 0 4.173 Z " fill="#231f20"></path>
        <path xmlns="http://www.w3.org/2000/svg" transform="matrix(1,0,0,-1,472.1797,329.12733)" d="M 0 0 C 0 -.492 .414 -.702 .835 -.702 C 1.142 -.702 1.548 -.573 1.548 -.169 C 1.548 .178 1.088 .307 .314 .477 C -.321 .63 -.942 .848 -.942 1.59 C -.942 2.656 -.068 2.93 .781 2.93 C 1.64 2.93 2.443 2.624 2.528 1.598 L 1.494 1.598 C 1.463 2.042 1.142 2.164 .751 2.164 C .506 2.164 .146 2.123 .146 1.776 C .146 1.364 .767 1.308 1.379 1.154 C 2.015 1.001 2.636 .759 2.636 -.016 C 2.636 -1.114 1.724 -1.469 .827 -1.469 C -.092 -1.469 -.995 -1.106 -1.034 0 Z " fill="#231f20"></path>
        <path xmlns="http://www.w3.org/2000/svg" transform="matrix(1,0,0,-1,478.1436,327.77925)" d="M 0 0 C -.069 .476 -.337 .718 -.805 .718 C -1.501 .718 -1.731 -.024 -1.731 -.638 C -1.731 -1.243 -1.509 -1.954 -.827 -1.954 C -.314 -1.954 -.03 -1.623 .038 -1.106 L 1.088 -1.106 C .942 -2.212 .229 -2.817 -.819 -2.817 C -2.015 -2.817 -2.819 -1.929 -2.819 -.678 C -2.819 .622 -2.084 1.582 -.797 1.582 C .138 1.582 1.003 1.065 1.064 0 Z " fill="#231f20"></path>
        <path xmlns="http://www.w3.org/2000/svg" transform="matrix(1,0,0,-1,0,841.89)" d="M 479.871 517.17 L 480.959 517.17 L 480.959 511.40699 L 479.871 511.40699 Z " fill="#231f20"></path>
        <path xmlns="http://www.w3.org/2000/svg" transform="matrix(1,0,0,-1,484.4805,327.9486)" d="M 0 0 C -.1 .581 -.337 .888 -.865 .888 C -1.57 .888 -1.746 .323 -1.77 0 Z M -1.77 -.727 C -1.739 -1.461 -1.409 -1.784 -.797 -1.784 C -.36 -1.784 -.008 -1.501 .062 -1.243 L 1.019 -1.243 C .712 -2.236 .062 -2.647 -.835 -2.647 C -2.084 -2.647 -2.857 -1.744 -2.857 -.452 C -2.857 .799 -2.037 1.751 -.835 1.751 C .514 1.751 1.172 .557 1.088 -.727 Z " fill="#231f20"></path>
        <path xmlns="http://www.w3.org/2000/svg" transform="matrix(1,0,0,-1,488.4502,324.7201)" d="M 0 0 L 1.693 0 L 2.973 -3.963 L 2.987 -3.963 L 4.198 0 L 5.891 0 L 5.891 -5.763 L 4.765 -5.763 L 4.765 -1.679 L 4.749 -1.679 L 3.409 -5.763 L 2.482 -5.763 L 1.142 -1.719 L 1.126 -1.719 L 1.126 -5.763 L 0 -5.763 Z " fill="#231f20"></path>
        <path xmlns="http://www.w3.org/2000/svg" transform="matrix(1,0,0,-1,497.7441,328.44129)" d="M 0 0 C -.185 -.169 -.567 -.177 -.904 -.242 C -1.241 -.307 -1.548 -.436 -1.548 -.855 C -1.548 -1.275 -1.233 -1.388 -.881 -1.388 C -.031 -1.388 0 -.686 0 -.428 Z M -2.513 .848 C -2.451 1.913 -1.54 2.244 -.651 2.244 C .138 2.244 1.087 2.059 1.087 1.058 L 1.087 -1.114 C 1.087 -1.493 1.126 -1.873 1.226 -2.042 L .122 -2.042 C .084 -1.913 .053 -1.775 .046 -1.638 C -.299 -2.018 -.797 -2.155 -1.287 -2.155 C -2.046 -2.155 -2.636 -1.759 -2.636 -.904 C -2.62 .993 .046 -.024 0 .912 C 0 1.396 -.322 1.478 -.705 1.478 C -1.126 1.478 -1.387 1.3 -1.425 .848 Z " fill="#231f20"></path>
        <path xmlns="http://www.w3.org/2000/svg" transform="matrix(1,0,0,-1,500.5127,329.12733)" d="M 0 0 C 0 -.492 .414 -.702 .835 -.702 C 1.142 -.702 1.548 -.573 1.548 -.169 C 1.548 .178 1.088 .307 .314 .477 C -.321 .63 -.942 .848 -.942 1.59 C -.942 2.656 -.068 2.93 .781 2.93 C 1.64 2.93 2.443 2.624 2.528 1.598 L 1.494 1.598 C 1.463 2.042 1.142 2.164 .751 2.164 C .506 2.164 .146 2.123 .146 1.776 C .146 1.364 .767 1.308 1.379 1.154 C 2.015 1.001 2.635 .759 2.635 -.016 C 2.635 -1.114 1.724 -1.469 .827 -1.469 C -.092 -1.469 -.996 -1.106 -1.034 0 Z " fill="#231f20"></path>
        <path xmlns="http://www.w3.org/2000/svg" transform="matrix(1,0,0,-1,504.623,329.12733)" d="M 0 0 C 0 -.492 .413 -.702 .835 -.702 C 1.141 -.702 1.547 -.573 1.547 -.169 C 1.547 .178 1.087 .307 .313 .477 C -.322 .63 -.942 .848 -.942 1.59 C -.942 2.656 -.069 2.93 .781 2.93 C 1.639 2.93 2.443 2.624 2.527 1.598 L 1.493 1.598 C 1.463 2.042 1.141 2.164 .75 2.164 C .505 2.164 .146 2.123 .146 1.776 C .146 1.364 .766 1.308 1.379 1.154 C 2.015 1.001 2.635 .759 2.635 -.016 C 2.635 -1.114 1.724 -1.469 .827 -1.469 C -.092 -1.469 -.996 -1.106 -1.034 0 Z " fill="#231f20"></path>
      </g>
      <!-- obese -->
      <g>
        <path xmlns="http://www.w3.org/2000/svg" transform="matrix(1,0,0,-1,375.7637,196.28314)" d="M 0 0 C .719 0 .988 .681 .988 1.356 C .988 2.066 .719 2.747 0 2.747 C -.719 2.747 -.989 2.066 -.989 1.356 C -.989 .681 -.719 0 0 0 M 0 3.497 C 1.121 3.497 1.788 2.56 1.788 1.356 C 1.788 .187 1.121 -.75 0 -.75 C -1.121 -.75 -1.789 .187 -1.789 1.356 C -1.789 2.56 -1.121 3.497 0 3.497 " fill="#231f20"></path>
        <path xmlns="http://www.w3.org/2000/svg" transform="matrix(1,0,0,-1,379.3408,194.52924)" d="M 0 0 C -.429 0 -.617 -.443 -.617 -.942 C -.617 -1.43 -.429 -1.879 0 -1.879 C .428 -1.879 .616 -1.43 .616 -.942 C .616 -.443 .428 0 0 0 M -1.315 1.646 L -.592 1.646 L -.592 .17 L -.581 .17 C -.403 .471 -.077 .607 .249 .607 C .774 .607 1.34 .136 1.34 -.937 C 1.34 -2.009 .774 -2.486 .249 -2.486 C -.138 -2.486 -.459 -2.355 -.617 -2.032 L -.627 -2.032 L -.627 -2.407 L -1.315 -2.407 Z " fill="#231f20"></path>
        <path xmlns="http://www.w3.org/2000/svg" transform="matrix(1,0,0,-1,382.917,195.15369)" d="M 0 0 C -.066 .409 -.225 .625 -.576 .625 C -1.045 .625 -1.162 .227 -1.178 0 Z M -1.178 -.511 C -1.157 -1.027 -.938 -1.254 -.53 -1.254 C -.24 -1.254 -.005 -1.056 .04 -.874 L .678 -.874 C .474 -1.572 .04 -1.862 -.556 -1.862 C -1.387 -1.862 -1.901 -1.226 -1.901 -.318 C -1.901 .562 -1.355 1.232 -.556 1.232 C .341 1.232 .779 .392 .724 -.511 Z " fill="#231f20"></path>
        <path xmlns="http://www.w3.org/2000/svg" transform="matrix(1,0,0,-1,384.6328,195.9823)" d="M 0 0 C 0 -.346 .274 -.494 .555 -.494 C .759 -.494 1.029 -.403 1.029 -.119 C 1.029 .125 .724 .216 .209 .335 C -.215 .443 -.627 .596 -.627 1.118 C -.627 1.868 -.046 2.061 .52 2.061 C 1.09 2.061 1.625 1.845 1.682 1.124 L .993 1.124 C .973 1.436 .759 1.521 .499 1.521 C .336 1.521 .097 1.493 .097 1.249 C .097 .959 .51 .919 .917 .812 C 1.34 .704 1.753 .534 1.753 -.011 C 1.753 -.783 1.146 -1.033 .55 -1.033 C -.062 -1.033 -.663 -.778 -.688 0 Z " fill="#231f20"></path>
        <path xmlns="http://www.w3.org/2000/svg" transform="matrix(1,0,0,-1,388.585,195.15369)" d="M 0 0 C -.065 .409 -.224 .625 -.575 .625 C -1.044 .625 -1.162 .227 -1.177 0 Z M -1.177 -.511 C -1.156 -1.027 -.938 -1.254 -.529 -1.254 C -.239 -1.254 -.005 -1.056 .041 -.874 L .678 -.874 C .475 -1.572 .041 -1.862 -.555 -1.862 C -1.386 -1.862 -1.9 -1.226 -1.9 -.318 C -1.9 .562 -1.355 1.232 -.555 1.232 C .342 1.232 .78 .392 .724 -.511 Z " fill="#231f20"></path>
      </g>
      <!-- over fat -->
      <g>
        <path xmlns="http://www.w3.org/2000/svg" transform="matrix(1,0,0,-1,373.2529,216.94422)" d="M 0 0 C .719 0 .989 .681 .989 1.356 C .989 2.066 .719 2.747 0 2.747 C -.719 2.747 -.988 2.066 -.988 1.356 C -.988 .681 -.719 0 0 0 M 0 3.497 C 1.121 3.497 1.789 2.56 1.789 1.356 C 1.789 .187 1.121 -.75 0 -.75 C -1.121 -.75 -1.789 .187 -1.789 1.356 C -1.789 2.56 -1.121 3.497 0 3.497 " fill="#231f20"></path>
        <path xmlns="http://www.w3.org/2000/svg" transform="matrix(1,0,0,-1,376.9727,217.59699)" d="M 0 0 L -.805 0 L -1.707 2.935 L -.947 2.935 L -.393 .931 L -.382 .931 L .174 2.935 L .893 2.935 Z " fill="#231f20"></path>
        <path xmlns="http://www.w3.org/2000/svg" transform="matrix(1,0,0,-1,379.9424,215.81482)" d="M 0 0 C -.066 .409 -.225 .625 -.576 .625 C -1.045 .625 -1.162 .227 -1.178 0 Z M -1.178 -.511 C -1.157 -1.027 -.938 -1.254 -.53 -1.254 C -.24 -1.254 -.005 -1.056 .04 -.874 L .678 -.874 C .474 -1.572 .04 -1.862 -.556 -1.862 C -1.387 -1.862 -1.901 -1.226 -1.901 -.318 C -1.901 .562 -1.355 1.232 -.556 1.232 C .341 1.232 .779 .392 .724 -.511 Z " fill="#231f20"></path>
        <path xmlns="http://www.w3.org/2000/svg" transform="matrix(1,0,0,-1,381.0977,214.66254)" d="M 0 0 L .688 0 L .688 -.545 L .698 -.545 C .835 -.176 1.177 .08 1.539 .08 C 1.595 .08 1.646 .068 1.696 .051 L 1.696 -.698 C 1.631 -.681 1.523 -.67 1.437 -.67 C .901 -.67 .724 -1.09 .724 -1.612 L .724 -2.935 L 0 -2.935 Z " fill="#231f20"></path>
        <path xmlns="http://www.w3.org/2000/svg" transform="matrix(1,0,0,-1,384.5771,213.54431)" d="M 0 0 L 2.559 0 L 2.559 -.749 L .8 -.749 L .8 -1.686 L 2.324 -1.686 L 2.324 -2.378 L .8 -2.378 L .8 -4.053 L 0 -4.053 Z " fill="#231f20"></path>
        <path xmlns="http://www.w3.org/2000/svg" transform="matrix(1,0,0,-1,389.167,216.16101)" d="M 0 0 C -.122 -.119 -.377 -.125 -.602 -.17 C -.825 -.216 -1.029 -.307 -1.029 -.602 C -1.029 -.897 -.82 -.976 -.586 -.976 C -.021 -.976 0 -.482 0 -.301 Z M -1.672 .596 C -1.631 1.345 -1.024 1.578 -.433 1.578 C .092 1.578 .724 1.448 .724 .744 L .724 -.783 C .724 -1.05 .749 -1.317 .815 -1.436 L .082 -1.436 C .057 -1.345 .036 -1.249 .03 -1.152 C -.198 -1.419 -.53 -1.516 -.856 -1.516 C -1.36 -1.516 -1.753 -1.237 -1.753 -.636 C -1.743 .698 .03 -.017 0 .642 C 0 .982 -.214 1.039 -.469 1.039 C -.749 1.039 -.922 .914 -.948 .596 Z " fill="#231f20"></path>
        <path xmlns="http://www.w3.org/2000/svg" transform="matrix(1,0,0,-1,391.3721,214.66254)" d="M 0 0 L .53 0 L .53 -.539 L 0 -.539 L 0 -1.992 C 0 -2.265 .062 -2.333 .306 -2.333 C .388 -2.333 .464 -2.327 .53 -2.31 L .53 -2.94 C .408 -2.963 .25 -2.969 .107 -2.969 C -.342 -2.969 -.724 -2.861 -.724 -2.271 L -.724 -.539 L -1.162 -.539 L -1.162 0 L -.724 0 L -.724 .88 L 0 .88 Z " fill="#231f20"></path>
      </g>
      <!-- healthy -->
      <g>
        <path xmlns="http://www.w3.org/2000/svg" transform="matrix(1,0,0,-1,372.749,245.41254)" d="M 0 0 L .8 0 L .8 -1.555 L 2.272 -1.555 L 2.272 0 L 3.073 0 L 3.073 -4.053 L 2.272 -4.053 L 2.272 -2.305 L .8 -2.305 L .8 -4.053 L 0 -4.053 Z " fill="#231f20"></path>
        <path xmlns="http://www.w3.org/2000/svg" transform="matrix(1,0,0,-1,378.2266,247.68305)" d="M 0 0 C -.066 .409 -.224 .625 -.575 .625 C -1.045 .625 -1.162 .227 -1.177 0 Z M -1.177 -.511 C -1.156 -1.027 -.938 -1.254 -.529 -1.254 C -.239 -1.254 -.005 -1.056 .041 -.874 L .678 -.874 C .475 -1.572 .041 -1.862 -.556 -1.862 C -1.386 -1.862 -1.9 -1.226 -1.9 -.318 C -1.9 .562 -1.355 1.232 -.556 1.232 C .342 1.232 .78 .392 .724 -.511 Z " fill="#231f20"></path>
        <path xmlns="http://www.w3.org/2000/svg" transform="matrix(1,0,0,-1,381.0234,248.02924)" d="M 0 0 C -.123 -.119 -.378 -.125 -.602 -.17 C -.826 -.216 -1.03 -.307 -1.03 -.602 C -1.03 -.897 -.821 -.976 -.587 -.976 C -.021 -.976 0 -.482 0 -.301 Z M -1.672 .596 C -1.631 1.345 -1.024 1.578 -.434 1.578 C .092 1.578 .724 1.448 .724 .744 L .724 -.783 C .724 -1.05 .749 -1.317 .815 -1.436 L .081 -1.436 C .056 -1.345 .035 -1.249 .03 -1.152 C -.199 -1.419 -.53 -1.516 -.856 -1.516 C -1.361 -1.516 -1.754 -1.237 -1.754 -.636 C -1.743 .698 .03 -.017 0 .642 C 0 .982 -.215 1.039 -.47 1.039 C -.75 1.039 -.923 .914 -.948 .596 Z " fill="#231f20"></path>
        <path xmlns="http://www.w3.org/2000/svg" transform="matrix(1,0,0,-1,0,841.89)" d="M 382.331 596.478 L 383.055 596.478 L 383.055 592.42507 L 382.331 592.42507 Z " fill="#231f20"></path>
        <path xmlns="http://www.w3.org/2000/svg" transform="matrix(1,0,0,-1,384.5439,246.53064)" d="M 0 0 L .53 0 L .53 -.539 L 0 -.539 L 0 -1.992 C 0 -2.265 .062 -2.333 .307 -2.333 C .388 -2.333 .464 -2.327 .53 -2.31 L .53 -2.94 C .408 -2.963 .25 -2.969 .107 -2.969 C -.341 -2.969 -.724 -2.861 -.724 -2.271 L -.724 -.539 L -1.161 -.539 L -1.161 0 L -.724 0 L -.724 .88 L 0 .88 Z " fill="#231f20"></path>
        <path xmlns="http://www.w3.org/2000/svg" transform="matrix(1,0,0,-1,385.4229,245.41254)" d="M 0 0 L .724 0 L .724 -1.527 L .739 -1.527 C .923 -1.192 1.238 -1.039 1.509 -1.039 C 2.278 -1.039 2.472 -1.521 2.472 -2.248 L 2.472 -4.053 L 1.748 -4.053 L 1.748 -2.396 C 1.748 -1.913 1.626 -1.674 1.284 -1.674 C .892 -1.674 .724 -1.918 .724 -2.515 L .724 -4.053 L 0 -4.053 Z " fill="#231f20"></path>
        <path xmlns="http://www.w3.org/2000/svg" transform="matrix(1,0,0,-1,389.748,249.83429)" d="M 0 0 C -.158 -.471 -.413 -.664 -.907 -.664 C -1.055 -.664 -1.202 -.652 -1.351 -.636 L -1.351 .028 C -1.213 .012 -1.07 -.005 -.928 0 C -.739 .023 -.647 .188 -.647 .369 C -.647 .432 -.657 .494 -.678 .551 L -1.605 3.304 L -.83 3.304 L -.234 1.294 L -.224 1.294 L .352 3.304 L 1.101 3.304 Z " fill="#231f20"></path>
      </g>
      <!-- under fat -->
      <g>
        <path xmlns="http://www.w3.org/2000/svg" transform="matrix(1,0,0,-1,373.0605,290.805)" d="M 0 0 C 0 -1.096 -.581 -1.629 -1.555 -1.629 C -2.538 -1.629 -3.104 -1.107 -3.104 0 L -3.104 2.52 L -2.304 2.52 L -2.304 0 C -2.304 -.443 -2.202 -.88 -1.555 -.88 C -.984 -.88 -.801 -.607 -.801 0 L -.801 2.52 L 0 2.52 Z " fill="#231f20"></path>
        <path xmlns="http://www.w3.org/2000/svg" transform="matrix(1,0,0,-1,373.6758,289.4032)" d="M 0 0 L .688 0 L .688 -.409 L .703 -.409 C .887 -.074 1.203 .08 1.509 .08 C 2.278 .08 2.472 -.403 2.472 -1.129 L 2.472 -2.935 L 1.748 -2.935 L 1.748 -1.277 C 1.748 -.794 1.626 -.556 1.284 -.556 C .893 -.556 .724 -.8 .724 -1.396 L .724 -2.935 L 0 -2.935 Z " fill="#231f20"></path>
        <path xmlns="http://www.w3.org/2000/svg" transform="matrix(1,0,0,-1,377.9502,289.93104)" d="M 0 0 C -.474 0 -.637 -.46 -.637 -.937 C -.637 -1.396 -.448 -1.879 0 -1.879 C .474 -1.879 .622 -1.414 .622 -.931 C .622 -.454 .469 0 0 0 M .632 -2.032 L .622 -2.032 C .454 -2.35 .163 -2.486 -.179 -2.486 C -.974 -2.486 -1.36 -1.731 -1.36 -.914 C -1.36 -.125 -.969 .607 -.193 .607 C .117 .607 .423 .46 .586 .17 L .597 .17 L .597 1.646 L 1.32 1.646 L 1.32 -2.407 L .632 -2.407 Z " fill="#231f20"></path>
        <path xmlns="http://www.w3.org/2000/svg" transform="matrix(1,0,0,-1,381.5928,290.55555)" d="M 0 0 C -.066 .409 -.225 .625 -.576 .625 C -1.045 .625 -1.162 .227 -1.178 0 Z M -1.178 -.511 C -1.157 -1.027 -.938 -1.254 -.53 -1.254 C -.239 -1.254 -.005 -1.056 .041 -.874 L .678 -.874 C .474 -1.572 .041 -1.862 -.556 -1.862 C -1.387 -1.862 -1.901 -1.226 -1.901 -.318 C -1.901 .562 -1.355 1.232 -.556 1.232 C .342 1.232 .779 .392 .724 -.511 Z " fill="#231f20"></path>
        <path xmlns="http://www.w3.org/2000/svg" transform="matrix(1,0,0,-1,382.748,289.4032)" d="M 0 0 L .688 0 L .688 -.545 L .698 -.545 C .836 -.176 1.177 .08 1.539 .08 C 1.595 .08 1.646 .068 1.697 .051 L 1.697 -.698 C 1.631 -.681 1.523 -.67 1.437 -.67 C .901 -.67 .724 -1.09 .724 -1.612 L .724 -2.935 L 0 -2.935 Z " fill="#231f20"></path>
        <path xmlns="http://www.w3.org/2000/svg" transform="matrix(1,0,0,-1,386.2275,288.28504)" d="M 0 0 L 2.559 0 L 2.559 -.749 L .8 -.749 L .8 -1.686 L 2.324 -1.686 L 2.324 -2.378 L .8 -2.378 L .8 -4.053 L 0 -4.053 Z " fill="#231f20"></path>
        <path xmlns="http://www.w3.org/2000/svg" transform="matrix(1,0,0,-1,390.8174,290.90174)" d="M 0 0 C -.122 -.119 -.377 -.125 -.601 -.17 C -.825 -.216 -1.029 -.307 -1.029 -.602 C -1.029 -.897 -.82 -.976 -.586 -.976 C -.021 -.976 0 -.482 0 -.301 Z M -1.671 .596 C -1.631 1.345 -1.024 1.578 -.433 1.578 C .092 1.578 .724 1.447 .724 .744 L .724 -.783 C .724 -1.05 .749 -1.317 .815 -1.436 L .082 -1.436 C .057 -1.345 .036 -1.249 .031 -1.152 C -.198 -1.419 -.529 -1.516 -.855 -1.516 C -1.36 -1.516 -1.753 -1.237 -1.753 -.636 C -1.742 .698 .031 -.017 0 .642 C 0 .982 -.214 1.039 -.469 1.039 C -.749 1.039 -.922 .914 -.947 .596 Z " fill="#231f20"></path>
        <path xmlns="http://www.w3.org/2000/svg" transform="matrix(1,0,0,-1,393.0225,289.4032)" d="M 0 0 L .53 0 L .53 -.539 L 0 -.539 L 0 -1.992 C 0 -2.265 .062 -2.333 .306 -2.333 C .388 -2.333 .464 -2.327 .53 -2.31 L .53 -2.94 C .408 -2.963 .25 -2.969 .107 -2.969 C -.341 -2.969 -.724 -2.861 -.724 -2.271 L -.724 -.539 L -1.162 -.539 L -1.162 0 L -.724 0 L -.724 .88 L 0 .88 Z " fill="#231f20"></path>
      </g>
      <!-- hidden obese -->
      <g>
        <path xmlns="http://www.w3.org/2000/svg" transform="matrix(1,0,0,-1,0,841.89)" d="M 440.669 622.025 L 406.959 622.025 L 406.959 617.65206 L 440.669 617.65206 Z " fill="#ffffff"></path>
        <path xmlns="http://www.w3.org/2000/svg" transform="matrix(1,0,0,-1,408.3037,220.09699)" d="M 0 0 L .8 0 L .8 -1.555 L 2.273 -1.555 L 2.273 0 L 3.073 0 L 3.073 -4.053 L 2.273 -4.053 L 2.273 -2.305 L .8 -2.305 L .8 -4.053 L 0 -4.053 Z " fill="#231f20"></path>
        <path xmlns="http://www.w3.org/2000/svg" transform="matrix(1,0,0,-1,0,841.89)" d="M 412.028 620.675 L 412.752 620.675 L 412.752 617.74 L 412.028 617.74 Z M 412.752 621.129 L 412.028 621.129 L 412.028 621.793 L 412.752 621.793 Z " fill="#231f20"></path>
        <path xmlns="http://www.w3.org/2000/svg" transform="matrix(1,0,0,-1,414.5732,221.74304)" d="M 0 0 C -.474 0 -.637 -.46 -.637 -.937 C -.637 -1.396 -.448 -1.879 0 -1.879 C .474 -1.879 .622 -1.414 .622 -.931 C .622 -.454 .469 0 0 0 M .632 -2.032 L .622 -2.032 C .453 -2.35 .163 -2.486 -.179 -2.486 C -.974 -2.486 -1.36 -1.731 -1.36 -.914 C -1.36 -.125 -.969 .607 -.193 .607 C .117 .607 .423 .46 .586 .17 L .597 .17 L .597 1.646 L 1.32 1.646 L 1.32 -2.407 L .632 -2.407 Z " fill="#231f20"></path>
        <path xmlns="http://www.w3.org/2000/svg" transform="matrix(1,0,0,-1,417.6904,221.74304)" d="M 0 0 C -.474 0 -.637 -.46 -.637 -.937 C -.637 -1.396 -.448 -1.879 0 -1.879 C .475 -1.879 .622 -1.414 .622 -.931 C .622 -.454 .469 0 0 0 M .632 -2.032 L .622 -2.032 C .454 -2.35 .163 -2.486 -.178 -2.486 C -.974 -2.486 -1.36 -1.731 -1.36 -.914 C -1.36 -.125 -.968 .607 -.193 .607 C .117 .607 .423 .46 .586 .17 L .597 .17 L .597 1.646 L 1.32 1.646 L 1.32 -2.407 L .632 -2.407 Z " fill="#231f20"></path>
        <path xmlns="http://www.w3.org/2000/svg" transform="matrix(1,0,0,-1,421.333,222.3675)" d="M 0 0 C -.066 .409 -.225 .625 -.576 .625 C -1.045 .625 -1.162 .227 -1.177 0 Z M -1.177 -.511 C -1.157 -1.027 -.938 -1.254 -.53 -1.254 C -.239 -1.254 -.005 -1.056 .041 -.874 L .678 -.874 C .474 -1.572 .041 -1.862 -.556 -1.862 C -1.386 -1.862 -1.901 -1.226 -1.901 -.318 C -1.901 .562 -1.355 1.232 -.556 1.232 C .342 1.232 .78 .392 .724 -.511 Z " fill="#231f20"></path>
        <path xmlns="http://www.w3.org/2000/svg" transform="matrix(1,0,0,-1,422.4883,221.21521)" d="M 0 0 L .688 0 L .688 -.409 L .703 -.409 C .887 -.074 1.203 .08 1.509 .08 C 2.278 .08 2.472 -.403 2.472 -1.129 L 2.472 -2.935 L 1.748 -2.935 L 1.748 -1.277 C 1.748 -.794 1.626 -.556 1.284 -.556 C .892 -.556 .724 -.8 .724 -1.396 L .724 -2.935 L 0 -2.935 Z " fill="#231f20"></path>
        <path xmlns="http://www.w3.org/2000/svg" transform="matrix(1,0,0,-1,428.2119,223.62189)" d="M 0 0 C .494 0 .642 .465 .642 .937 C .642 1.408 .494 1.879 0 1.879 C -.489 1.879 -.638 1.408 -.638 .937 C -.638 .465 -.489 0 0 0 M 0 2.486 C .83 2.486 1.365 1.873 1.365 .937 C 1.365 .006 .83 -.607 0 -.607 C -.826 -.607 -1.361 .006 -1.361 .937 C -1.361 1.873 -.826 2.486 0 2.486 " fill="#231f20"></path>
        <path xmlns="http://www.w3.org/2000/svg" transform="matrix(1,0,0,-1,431.3643,221.74304)" d="M 0 0 C -.428 0 -.616 -.443 -.616 -.942 C -.616 -1.43 -.428 -1.879 0 -1.879 C .429 -1.879 .617 -1.43 .617 -.942 C .617 -.443 .429 0 0 0 M -1.314 1.646 L -.591 1.646 L -.591 .17 L -.581 .17 C -.402 .471 -.076 .607 .25 .607 C .775 .607 1.341 .136 1.341 -.937 C 1.341 -2.009 .775 -2.486 .25 -2.486 C -.137 -2.486 -.458 -2.355 -.616 -2.032 L -.626 -2.032 L -.626 -2.407 L -1.314 -2.407 Z " fill="#231f20"></path>
        <path xmlns="http://www.w3.org/2000/svg" transform="matrix(1,0,0,-1,434.9404,222.3675)" d="M 0 0 C -.065 .409 -.224 .625 -.575 .625 C -1.044 .625 -1.161 .227 -1.177 0 Z M -1.177 -.511 C -1.156 -1.027 -.938 -1.254 -.529 -1.254 C -.239 -1.254 -.005 -1.056 .041 -.874 L .679 -.874 C .475 -1.572 .041 -1.862 -.555 -1.862 C -1.386 -1.862 -1.9 -1.226 -1.9 -.318 C -1.9 .562 -1.355 1.232 -.555 1.232 C .342 1.232 .78 .392 .724 -.511 Z " fill="#231f20"></path>
        <path xmlns="http://www.w3.org/2000/svg" transform="matrix(1,0,0,-1,436.6563,223.19623)" d="M 0 0 C 0 -.346 .275 -.494 .556 -.494 C .76 -.494 1.03 -.403 1.03 -.119 C 1.03 .125 .724 .216 .209 .335 C -.214 .443 -.627 .596 -.627 1.118 C -.627 1.868 -.046 2.061 .521 2.061 C 1.091 2.061 1.626 1.845 1.683 1.124 L .994 1.124 C .974 1.436 .76 1.521 .5 1.521 C .337 1.521 .098 1.493 .098 1.249 C .098 .959 .51 .919 .918 .812 C 1.341 .704 1.754 .534 1.754 -.011 C 1.754 -.783 1.147 -1.033 .551 -1.033 C -.061 -1.033 -.662 -.778 -.688 0 Z " fill="#231f20"></path>
        <path xmlns="http://www.w3.org/2000/svg" transform="matrix(1,0,0,-1,440.6094,222.3675)" d="M 0 0 C -.066 .409 -.225 .625 -.576 .625 C -1.045 .625 -1.162 .227 -1.177 0 Z M -1.177 -.511 C -1.157 -1.027 -.938 -1.254 -.53 -1.254 C -.239 -1.254 -.005 -1.056 .041 -.874 L .678 -.874 C .474 -1.572 .041 -1.862 -.556 -1.862 C -1.386 -1.862 -1.901 -1.226 -1.901 -.318 C -1.901 .562 -1.355 1.232 -.556 1.232 C .342 1.232 .78 .392 .724 -.511 Z " fill="#231f20"></path>
      </g>
      <!-- obese -->
      <g>
        <path xmlns="http://www.w3.org/2000/svg" transform="matrix(1,0,0,-1,0,841.89)" d="M 486.688 622.317 L 460.36799 622.317 L 460.36799 617.65206 L 486.688 617.65206 Z " fill="#ffffff"></path>
        <path xmlns="http://www.w3.org/2000/svg" transform="matrix(1,0,0,-1,462.5811,223.49689)" d="M 0 0 C .719 0 .989 .681 .989 1.356 C .989 2.066 .719 2.747 0 2.747 C -.719 2.747 -.988 2.066 -.988 1.356 C -.988 .681 -.719 0 0 0 M 0 3.497 C 1.121 3.497 1.789 2.56 1.789 1.356 C 1.789 .187 1.121 -.75 0 -.75 C -1.121 -.75 -1.789 .187 -1.789 1.356 C -1.789 2.56 -1.121 3.497 0 3.497 " fill="#231f20"></path>
        <path xmlns="http://www.w3.org/2000/svg" transform="matrix(1,0,0,-1,466.1582,221.74304)" d="M 0 0 C -.428 0 -.616 -.443 -.616 -.942 C -.616 -1.43 -.428 -1.879 0 -1.879 C .429 -1.879 .617 -1.43 .617 -.942 C .617 -.443 .429 0 0 0 M -1.314 1.646 L -.591 1.646 L -.591 .17 L -.581 .17 C -.402 .471 -.076 .607 .25 .607 C .774 .607 1.341 .136 1.341 -.937 C 1.341 -2.009 .774 -2.486 .25 -2.486 C -.138 -2.486 -.459 -2.355 -.616 -2.032 L -.627 -2.032 L -.627 -2.407 L -1.314 -2.407 Z " fill="#231f20"></path>
        <path xmlns="http://www.w3.org/2000/svg" transform="matrix(1,0,0,-1,469.7344,222.3675)" d="M 0 0 C -.066 .409 -.224 .625 -.576 .625 C -1.045 .625 -1.162 .227 -1.177 0 Z M -1.177 -.511 C -1.157 -1.027 -.938 -1.254 -.53 -1.254 C -.239 -1.254 -.005 -1.056 .041 -.874 L .678 -.874 C .474 -1.572 .041 -1.862 -.556 -1.862 C -1.386 -1.862 -1.9 -1.226 -1.9 -.318 C -1.9 .562 -1.355 1.232 -.556 1.232 C .342 1.232 .78 .392 .724 -.511 Z " fill="#231f20"></path>
        <path xmlns="http://www.w3.org/2000/svg" transform="matrix(1,0,0,-1,471.4502,223.19623)" d="M 0 0 C 0 -.346 .275 -.494 .556 -.494 C .76 -.494 1.029 -.403 1.029 -.119 C 1.029 .125 .724 .216 .209 .335 C -.214 .443 -.627 .596 -.627 1.118 C -.627 1.868 -.046 2.061 .52 2.061 C 1.091 2.061 1.626 1.845 1.682 1.124 L .994 1.124 C .974 1.436 .76 1.521 .499 1.521 C .337 1.521 .097 1.493 .097 1.249 C .097 .959 .51 .919 .917 .812 C 1.341 .704 1.753 .534 1.753 -.011 C 1.753 -.783 1.146 -1.033 .551 -1.033 C -.062 -1.033 -.662 -.778 -.688 0 Z " fill="#231f20"></path>
        <path xmlns="http://www.w3.org/2000/svg" transform="matrix(1,0,0,-1,475.4033,222.3675)" d="M 0 0 C -.066 .409 -.225 .625 -.576 .625 C -1.045 .625 -1.162 .227 -1.178 0 Z M -1.178 -.511 C -1.157 -1.027 -.938 -1.254 -.53 -1.254 C -.239 -1.254 -.005 -1.056 .041 -.874 L .678 -.874 C .474 -1.572 .041 -1.862 -.556 -1.862 C -1.387 -1.862 -1.901 -1.226 -1.901 -.318 C -1.901 .562 -1.355 1.232 -.556 1.232 C .341 1.232 .779 .392 .724 -.511 Z " fill="#231f20"></path>
      </g>
      <!-- solidly-build -->
      <g>
        <symbol xmlns="http://www.w3.org/2000/svg" id="font_b_3">
          <path d="M 0 .044 C .036 .020000002 .107 0 .17200002 0 C .33100004 0 .40700004 .091000009 .40700004 .19500003 C .40700004 .29400004 .35000003 .34900005 .23600003 .39300005 C .143 .42900003 .102000009 .46000005 .102000009 .523 C .102000009 .569 .137 .624 .22900003 .624 C .29000003 .624 .335 .605 .35600005 .592 L .38000003 .663 C .351 .68 .3 .69600006 .23200003 .69600006 C .101 .69600006 .013999999 .61800006 .013999999 .513 C .013999999 .41900004 .082 .36100004 .192 .321 C .28300003 .28700004 .31900005 .25 .31900005 .18800001 C .31900005 .120000008 .26700003 .07300001 .178 .07300001 C .11800001 .07300001 .062 .092 .023000002 .117000009 L 0 .044 Z "/>
        </symbol>
        <symbol xmlns="http://www.w3.org/2000/svg" id="font_b_7">
          <path d="M .24000003 .505 C .10700001 .505 0 .41000004 0 .24900002 C 0 .096 .102 0 .23200001 0 C .348 0 .47300006 .078 .47300006 .257 C .47300006 .404 .379 .505 .24000003 .505 M .23800002 .43900005 C .342 .43900005 .38300003 .33600004 .38300003 .254 C .38300003 .14500001 .32 .06600001 .23600002 .06600001 C .15 .06600001 .09 .14600002 .09 .252 C .09 .34300003 .135 .43900005 .23800002 .43900005 Z "/>
        </symbol>
        <symbol xmlns="http://www.w3.org/2000/svg" id="font_b_6">
          <path d="M 0 0 L .08800001 0 L .08800001 .71000006 L 0 .71000006 L 0 0 Z "/>
        </symbol>
        <symbol xmlns="http://www.w3.org/2000/svg" id="font_b_5">
          <path d="M .09900001 0 L .09900001 .48400004 L .011000004 .48400004 L .011000004 0 L .09900001 0 M .055000005 .675 C .022000004 .675 0 .65000006 0 .62 C 0 .59000006 .021000002 .56600007 .053 .56600007 C .088 .56600007 .109 .59000006 .109 .62 C .109 .651 .087 .675 .055000005 .675 Z "/>
        </symbol>
        <symbol xmlns="http://www.w3.org/2000/svg" id="font_b_4">
          <path d="M .36600004 .721 L .36600004 .43200005 L .36400003 .43200005 C .342 .47000004 .293 .505 .21800003 .505 C .10100001 .505 0 .40700004 .001000002 .24600002 C .001000002 .09900001 .09200001 0 .209 0 C .28800003 0 .34600003 .041 .372 .095000009 L .37500004 .095000009 L .379 .011000001 L .45700003 .011000001 C .455 .044 .453 .093 .453 .136 L .453 .721 L .36600004 .721 M .36600004 .21400002 C .36600004 .20000002 .365 .18800001 .36200003 .17600002 C .34600003 .111 .29200004 .071 .23300001 .071 C .13900002 .071 .09 .15200001 .09 .25 C .09 .35600005 .14400001 .43600003 .23500002 .43600003 C .30100004 .43600003 .349 .39000003 .36200003 .335 C .365 .32400004 .36600004 .30900003 .36600004 .298 L .36600004 .21400002 Z "/>
        </symbol>
        <symbol xmlns="http://www.w3.org/2000/svg" id="font_b_9">
          <path d="M 0 .70400008 L .178 .25800003 C .183 .24700001 .185 .24000001 .185 .23500002 C .185 .23000002 .18200001 .22300002 .178 .21400002 C .157 .16900002 .128 .13500002 .104 .11600001 C .078 .09400001 .049000004 .08000001 .027000003 .073000017 L .049000004 0 C .071 .004000008 .113000009 .019000009 .157 .05600001 C .21700001 .109000008 .26000003 .19300002 .323 .35900004 L .455 .70400008 L .36200003 .70400008 L .266 .42000003 C .254 .38500003 .24400002 .34800003 .23500002 .319 L .23300001 .319 C .22500001 .34800003 .21300002 .38600005 .201 .41800005 L .096 .70400008 L 0 .70400008 Z "/>
        </symbol>
        <symbol xmlns="http://www.w3.org/2000/svg" id="font_b_1">
          <path d="M 0 .06400001 L 0 0 L .24700001 0 L .24700001 .06400001 L 0 .06400001 Z "/>
        </symbol>
        <symbol xmlns="http://www.w3.org/2000/svg" id="font_b_2">
          <path d="M 0 .008 C .029 .0039999999 .075 0 .135 0 C .245 0 .321 .02 .367 .063 C .402 .095 .42500005 .14 .42500005 .198 C .42500005 .29800005 .35000003 .35100005 .286 .36600004 L .286 .36900003 C .356 .39400003 .4 .45100004 .4 .517 C .4 .57 .37800003 .61 .34300003 .63600006 C .30200003 .67 .24600002 .685 .15900001 .685 C .09900001 .685 .038000004 .679 0 .67 L 0 .008 M .087 .612 C .100999999 .615 .124 .61800006 .164 .61800006 C .252 .61800006 .31100003 .586 .31100003 .508 C .31100003 .44300003 .257 .39400003 .16600001 .39400003 L .087 .39400003 L .087 .612 M .087 .32900004 L .15900001 .32900004 C .254 .32900004 .333 .29000003 .333 .199 C .333 .101 .25 .068 .16000001 .068 C .12900001 .068 .105000007 .069 .087 .072 L .087 .32900004 Z "/>
        </symbol>
        <symbol xmlns="http://www.w3.org/2000/svg" id="font_b_8">
          <path d="M .40800003 .49500004 L .32000003 .49500004 L .32000003 .19900002 C .32000003 .18200001 .31700004 .16600001 .31200005 .15400002 C .29600004 .11400001 .25500003 .07300001 .19600001 .07300001 C .117000009 .07300001 .08800001 .136 .08800001 .22800002 L .08800001 .49500004 L 0 .49500004 L 0 .21200001 C 0 .043 .09100001 0 .16700003 0 C .25300003 0 .30500005 .051000004 .32700003 .09 L .32900004 .09 L .33400003 .011000001 L .41200004 .011000001 C .40900005 .049000004 .40800003 .093 .40800003 .14400001 L .40800003 .49500004 Z "/>
        </symbol>

        <path xmlns="http://www.w3.org/2000/svg" transform="matrix(1,0,0,-1,0,841.89)" d="M 542.812 622.19 L 525.469 622.19 L 525.469 619.702 L 542.812 619.702 Z " fill="#ffffff"></path>
        <use xmlns="http://www.w3.org/2000/svg" xmlns:xlink="http://www.w3.org/1999/xlink" xlink:href="#font_b_3" transform="matrix(5.1024,0,0,-5.6693,512.5327,224.2122)" fill="#231f20"></use>
        <use xmlns="http://www.w3.org/2000/svg" xmlns:xlink="http://www.w3.org/1999/xlink" xlink:href="#font_b_7" transform="matrix(5.1024,0,0,-5.6693,515.02786,224.2122)" fill="#231f20"></use>
        <use xmlns="http://www.w3.org/2000/svg" xmlns:xlink="http://www.w3.org/1999/xlink" xlink:href="#font_b_6" transform="matrix(5.1024,0,0,-5.6693,518.0076,224.14984)" fill="#231f20"></use>
        <use xmlns="http://www.w3.org/2000/svg" xmlns:xlink="http://www.w3.org/1999/xlink" xlink:href="#font_b_5" transform="matrix(5.1024,0,0,-5.6693,519.15567,224.14984)" fill="#231f20"></use>
        <use xmlns="http://www.w3.org/2000/svg" xmlns:xlink="http://www.w3.org/1999/xlink" xlink:href="#font_b_4" transform="matrix(5.1024,0,0,-5.6693,520.22207,224.2122)" fill="#231f20"></use>
        <use xmlns="http://www.w3.org/2000/svg" xmlns:xlink="http://www.w3.org/1999/xlink" xlink:href="#font_b_6" transform="matrix(5.1024,0,0,-5.6693,523.2835,224.14984)" fill="#231f20"></use>
        <use xmlns="http://www.w3.org/2000/svg" xmlns:xlink="http://www.w3.org/1999/xlink" xlink:href="#font_b_9" transform="matrix(5.1024,0,0,-5.6693,524.1611,225.3971)" fill="#231f20"></use>
        <use xmlns="http://www.w3.org/2000/svg" xmlns:xlink="http://www.w3.org/1999/xlink" xlink:href="#font_b_1" transform="matrix(5.1024,0,0,-5.6693,526.6715,222.80055)" fill="#231f20"></use>
        <use xmlns="http://www.w3.org/2000/svg" xmlns:xlink="http://www.w3.org/1999/xlink" xlink:href="#font_b_2" transform="matrix(5.1024,0,0,-5.6693,528.4726,224.18386)" fill="#231f20"></use>
        <use xmlns="http://www.w3.org/2000/svg" xmlns:xlink="http://www.w3.org/1999/xlink" xlink:href="#font_b_8" transform="matrix(5.1024,0,0,-5.6693,531.2075,224.2122)" fill="#231f20"></use>
        <use xmlns="http://www.w3.org/2000/svg" xmlns:xlink="http://www.w3.org/1999/xlink" xlink:href="#font_b_5" transform="matrix(5.1024,0,0,-5.6693,533.9781,224.14984)" fill="#231f20"></use>
        <use xmlns="http://www.w3.org/2000/svg" xmlns:xlink="http://www.w3.org/1999/xlink" xlink:href="#font_b_6" transform="matrix(5.1024,0,0,-5.6693,535.2282,224.14984)" fill="#231f20"></use>
        <use xmlns="http://www.w3.org/2000/svg" xmlns:xlink="http://www.w3.org/1999/xlink" xlink:href="#font_b_4" transform="matrix(5.1024,0,0,-5.6693,536.24868,224.2122)" fill="#231f20"></use>
      </g>
      <!-- under exercised -->
      <g>
        <path xmlns="http://www.w3.org/2000/svg" transform="matrix(1,0,0,-1,0,841.89)" d="M 440.267 579.467 L 421.914 579.467 L 421.914 575.563 L 440.267 575.563 Z " fill="#ffffff"></path>
        <path xmlns="http://www.w3.org/2000/svg" transform="matrix(1,0,0,-1,411.3926,265.80995)" d="M 0 0 C 0 -1.096 -.581 -1.629 -1.555 -1.629 C -2.538 -1.629 -3.104 -1.107 -3.104 0 L -3.104 2.52 L -2.304 2.52 L -2.304 0 C -2.304 -.443 -2.202 -.88 -1.555 -.88 C -.984 -.88 -.801 -.607 -.801 0 L -.801 2.52 L 0 2.52 Z " fill="#231f20"></path>
        <path xmlns="http://www.w3.org/2000/svg" transform="matrix(1,0,0,-1,412.0078,264.40815)" d="M 0 0 L .688 0 L .688 -.409 L .704 -.409 C .887 -.074 1.203 .08 1.509 .08 C 2.278 .08 2.472 -.403 2.472 -1.129 L 2.472 -2.935 L 1.748 -2.935 L 1.748 -1.277 C 1.748 -.794 1.626 -.556 1.285 -.556 C .893 -.556 .724 -.8 .724 -1.396 L .724 -2.935 L 0 -2.935 Z " fill="#231f20"></path>
        <path xmlns="http://www.w3.org/2000/svg" transform="matrix(1,0,0,-1,416.2822,264.9359)" d="M 0 0 C -.474 0 -.637 -.46 -.637 -.937 C -.637 -1.396 -.448 -1.879 0 -1.879 C .475 -1.879 .622 -1.414 .622 -.931 C .622 -.454 .469 0 0 0 M .632 -2.032 L .622 -2.032 C .454 -2.35 .163 -2.486 -.178 -2.486 C -.974 -2.486 -1.36 -1.731 -1.36 -.914 C -1.36 -.125 -.968 .607 -.193 .607 C .117 .607 .423 .46 .586 .17 L .597 .17 L .597 1.646 L 1.32 1.646 L 1.32 -2.407 L .632 -2.407 Z " fill="#231f20"></path>
        <path xmlns="http://www.w3.org/2000/svg" transform="matrix(1,0,0,-1,419.9248,265.56044)" d="M 0 0 C -.066 .409 -.225 .625 -.576 .625 C -1.045 .625 -1.162 .227 -1.177 0 Z M -1.177 -.511 C -1.157 -1.027 -.938 -1.254 -.53 -1.254 C -.239 -1.254 -.005 -1.056 .041 -.874 L .678 -.874 C .474 -1.572 .041 -1.862 -.556 -1.862 C -1.386 -1.862 -1.901 -1.226 -1.901 -.318 C -1.901 .562 -1.355 1.232 -.556 1.232 C .342 1.232 .78 .392 .724 -.511 Z " fill="#231f20"></path>
        <path xmlns="http://www.w3.org/2000/svg" transform="matrix(1,0,0,-1,421.0801,264.40815)" d="M 0 0 L .688 0 L .688 -.545 L .698 -.545 C .836 -.176 1.177 .08 1.539 .08 C 1.595 .08 1.646 .068 1.697 .051 L 1.697 -.698 C 1.631 -.681 1.523 -.67 1.438 -.67 C .902 -.67 .724 -1.09 .724 -1.612 L .724 -2.935 L 0 -2.935 Z " fill="#231f20"></path>
        <path xmlns="http://www.w3.org/2000/svg" transform="matrix(1,0,0,-1,424.5596,263.28993)" d="M 0 0 L 2.722 0 L 2.722 -.749 L .8 -.749 L .8 -1.618 L 2.563 -1.618 L 2.563 -2.31 L .8 -2.31 L .8 -3.303 L 2.763 -3.303 L 2.763 -4.053 L 0 -4.053 Z " fill="#231f20"></path>
        <path xmlns="http://www.w3.org/2000/svg" transform="matrix(1,0,0,-1,428.4619,265.7987)" d="M 0 0 L -.866 1.391 L -.04 1.391 L .423 .625 L .882 1.391 L 1.683 1.391 L .815 .017 L 1.789 -1.544 L .964 -1.544 L .413 -.619 L -.138 -1.544 L -.947 -1.544 Z " fill="#231f20"></path>
        <path xmlns="http://www.w3.org/2000/svg" transform="matrix(1,0,0,-1,432.3027,265.56044)" d="M 0 0 C -.066 .409 -.224 .625 -.576 .625 C -1.045 .625 -1.162 .227 -1.177 0 Z M -1.177 -.511 C -1.156 -1.027 -.938 -1.254 -.53 -1.254 C -.239 -1.254 -.005 -1.056 .041 -.874 L .678 -.874 C .475 -1.572 .041 -1.862 -.556 -1.862 C -1.386 -1.862 -1.9 -1.226 -1.9 -.318 C -1.9 .562 -1.355 1.232 -.556 1.232 C .342 1.232 .78 .392 .724 -.511 Z " fill="#231f20"></path>
        <path xmlns="http://www.w3.org/2000/svg" transform="matrix(1,0,0,-1,433.458,264.40815)" d="M 0 0 L .688 0 L .688 -.545 L .698 -.545 C .836 -.176 1.178 .08 1.539 .08 C 1.596 .08 1.646 .068 1.697 .051 L 1.697 -.698 C 1.631 -.681 1.523 -.67 1.438 -.67 C .902 -.67 .724 -1.09 .724 -1.612 L .724 -2.935 L 0 -2.935 Z " fill="#231f20"></path>
        <path xmlns="http://www.w3.org/2000/svg" transform="matrix(1,0,0,-1,437.2363,265.44129)" d="M 0 0 C -.045 .335 -.224 .505 -.534 .505 C -.998 .505 -1.151 -.017 -1.151 -.448 C -1.151 -.874 -1.004 -1.374 -.55 -1.374 C -.208 -1.374 -.02 -1.141 .026 -.777 L .725 -.777 C .627 -1.555 .153 -1.981 -.545 -1.981 C -1.34 -1.981 -1.875 -1.356 -1.875 -.477 C -1.875 .437 -1.386 1.113 -.529 1.113 C .092 1.113 .668 .75 .709 0 Z " fill="#231f20"></path>
        <path xmlns="http://www.w3.org/2000/svg" transform="matrix(1,0,0,-1,0,841.89)" d="M 438.392 577.482 L 439.116 577.482 L 439.116 574.547 L 438.392 574.547 Z M 439.115 577.936 L 438.391 577.936 L 438.391 578.6 L 439.115 578.6 Z " fill="#231f20"></path>
        <path xmlns="http://www.w3.org/2000/svg" transform="matrix(1,0,0,-1,440.248,266.38905)" d="M 0 0 C 0 -.346 .275 -.494 .556 -.494 C .76 -.494 1.03 -.403 1.03 -.119 C 1.03 .125 .725 .216 .209 .335 C -.214 .443 -.626 .596 -.626 1.118 C -.626 1.868 -.045 2.061 .521 2.061 C 1.091 2.061 1.626 1.845 1.683 1.124 L .994 1.124 C .974 1.436 .76 1.521 .5 1.521 C .337 1.521 .098 1.493 .098 1.249 C .098 .959 .51 .919 .918 .812 C 1.341 .704 1.754 .534 1.754 -.011 C 1.754 -.783 1.147 -1.033 .551 -1.033 C -.061 -1.033 -.662 -.778 -.688 0 Z " fill="#231f20"></path>
        <path xmlns="http://www.w3.org/2000/svg" transform="matrix(1,0,0,-1,444.2012,265.56044)" d="M 0 0 C -.066 .409 -.224 .625 -.576 .625 C -1.045 .625 -1.162 .227 -1.177 0 Z M -1.177 -.511 C -1.156 -1.027 -.938 -1.254 -.53 -1.254 C -.239 -1.254 -.005 -1.056 .041 -.874 L .678 -.874 C .475 -1.572 .041 -1.862 -.556 -1.862 C -1.386 -1.862 -1.9 -1.226 -1.9 -.318 C -1.9 .562 -1.355 1.232 -.556 1.232 C .342 1.232 .78 .392 .724 -.511 Z " fill="#231f20"></path>
        <path xmlns="http://www.w3.org/2000/svg" transform="matrix(1,0,0,-1,446.6055,264.9359)" d="M 0 0 C -.475 0 -.638 -.46 -.638 -.937 C -.638 -1.396 -.449 -1.879 0 -1.879 C .474 -1.879 .621 -1.414 .621 -.931 C .621 -.454 .469 0 0 0 M .632 -2.032 L .621 -2.032 C .453 -2.35 .163 -2.486 -.179 -2.486 C -.974 -2.486 -1.361 -1.731 -1.361 -.914 C -1.361 -.125 -.969 .607 -.194 .607 C .117 .607 .423 .46 .586 .17 L .596 .17 L .596 1.646 L 1.319 1.646 L 1.319 -2.407 L .632 -2.407 Z " fill="#231f20"></path>
      </g>
      <!-- standard -->
      <g>
        <path xmlns="http://www.w3.org/2000/svg" transform="matrix(1,0,0,-1,0,841.89)" d="M 480.812 575.039 L 469.74003 575.039 L 469.74003 579.741 L 480.812 579.741 Z " fill="#ffffff"></path>
        <path xmlns="http://www.w3.org/2000/svg" transform="matrix(1,0,0,-1,461.5176,265.99745)" d="M 0 0 C 0 -.539 .377 -.749 .805 -.749 C 1.085 -.749 1.513 -.658 1.513 -.244 C 1.513 .199 .963 .261 .433 .426 C -.107 .573 -.652 .829 -.652 1.578 C -.652 2.413 .051 2.804 .708 2.804 C 1.467 2.804 2.165 2.435 2.165 1.499 L 1.391 1.499 C 1.365 1.981 1.06 2.112 .672 2.112 C .417 2.112 .122 1.992 .122 1.652 C .122 1.34 .295 1.294 1.207 1.039 C 1.478 .971 2.288 .772 2.288 -.142 C 2.288 -.885 1.768 -1.442 .774 -1.442 C -.031 -1.442 -.79 -.999 -.775 0 Z " fill="#231f20"></path>
        <path xmlns="http://www.w3.org/2000/svg" transform="matrix(1,0,0,-1,465.124,264.40815)" d="M 0 0 L .53 0 L .53 -.539 L 0 -.539 L 0 -1.992 C 0 -2.265 .062 -2.333 .306 -2.333 C .388 -2.333 .464 -2.327 .53 -2.31 L .53 -2.94 C .408 -2.963 .25 -2.969 .107 -2.969 C -.342 -2.969 -.724 -2.861 -.724 -2.271 L -.724 -.539 L -1.162 -.539 L -1.162 0 L -.724 0 L -.724 .88 L 0 .88 Z " fill="#231f20"></path>
        <path xmlns="http://www.w3.org/2000/svg" transform="matrix(1,0,0,-1,467.6436,265.90663)" d="M 0 0 C -.122 -.119 -.377 -.125 -.602 -.17 C -.825 -.216 -1.029 -.307 -1.029 -.602 C -1.029 -.897 -.82 -.976 -.586 -.976 C -.021 -.976 0 -.482 0 -.301 Z M -1.672 .596 C -1.631 1.345 -1.024 1.578 -.433 1.578 C .092 1.578 .724 1.447 .724 .744 L .724 -.783 C .724 -1.05 .749 -1.317 .815 -1.436 L .082 -1.436 C .057 -1.345 .036 -1.249 .03 -1.152 C -.198 -1.419 -.53 -1.516 -.856 -1.516 C -1.36 -1.516 -1.753 -1.237 -1.753 -.636 C -1.743 .698 .03 -.017 0 .642 C 0 .982 -.214 1.039 -.469 1.039 C -.749 1.039 -.922 .914 -.948 .596 Z " fill="#231f20"></path>
        <path xmlns="http://www.w3.org/2000/svg" transform="matrix(1,0,0,-1,468.9316,264.40815)" d="M 0 0 L .688 0 L .688 -.409 L .703 -.409 C .887 -.074 1.202 .08 1.508 .08 C 2.277 .08 2.472 -.403 2.472 -1.129 L 2.472 -2.935 L 1.748 -2.935 L 1.748 -1.277 C 1.748 -.794 1.625 -.556 1.284 -.556 C .892 -.556 .724 -.8 .724 -1.396 L .724 -2.935 L 0 -2.935 Z " fill="#231f20"></path>
        <path xmlns="http://www.w3.org/2000/svg" transform="matrix(1,0,0,-1,473.2061,264.9359)" d="M 0 0 C -.475 0 -.638 -.46 -.638 -.937 C -.638 -1.396 -.449 -1.879 0 -1.879 C .474 -1.879 .621 -1.414 .621 -.931 C .621 -.454 .469 0 0 0 M .632 -2.032 L .621 -2.032 C .453 -2.35 .163 -2.486 -.179 -2.486 C -.974 -2.486 -1.361 -1.731 -1.361 -.914 C -1.361 -.125 -.969 .607 -.194 .607 C .117 .607 .423 .46 .586 .17 L .596 .17 L .596 1.646 L 1.319 1.646 L 1.319 -2.407 L .632 -2.407 Z " fill="#231f20"></path>
        <path xmlns="http://www.w3.org/2000/svg" transform="matrix(1,0,0,-1,476.7158,265.90663)" d="M 0 0 C -.123 -.119 -.378 -.125 -.602 -.17 C -.826 -.216 -1.03 -.307 -1.03 -.602 C -1.03 -.897 -.821 -.976 -.586 -.976 C -.021 -.976 0 -.482 0 -.301 Z M -1.672 .596 C -1.631 1.345 -1.024 1.578 -.434 1.578 C .092 1.578 .724 1.447 .724 .744 L .724 -.783 C .724 -1.05 .749 -1.317 .815 -1.436 L .081 -1.436 C .056 -1.345 .035 -1.249 .03 -1.152 C -.199 -1.419 -.53 -1.516 -.856 -1.516 C -1.361 -1.516 -1.754 -1.237 -1.754 -.636 C -1.743 .698 .03 -.017 0 .642 C 0 .982 -.214 1.039 -.469 1.039 C -.749 1.039 -.923 .914 -.948 .596 Z " fill="#231f20"></path>
        <path xmlns="http://www.w3.org/2000/svg" transform="matrix(1,0,0,-1,478.0029,264.40815)" d="M 0 0 L .688 0 L .688 -.545 L .698 -.545 C .836 -.176 1.178 .08 1.539 .08 C 1.596 .08 1.646 .068 1.697 .051 L 1.697 -.698 C 1.631 -.681 1.524 -.67 1.438 -.67 C .902 -.67 .724 -1.09 .724 -1.612 L .724 -2.935 L 0 -2.935 Z " fill="#231f20"></path>
        <path xmlns="http://www.w3.org/2000/svg" transform="matrix(1,0,0,-1,481.2363,264.9359)" d="M 0 0 C -.474 0 -.637 -.46 -.637 -.937 C -.637 -1.396 -.448 -1.879 0 -1.879 C .475 -1.879 .622 -1.414 .622 -.931 C .622 -.454 .469 0 0 0 M .632 -2.032 L .622 -2.032 C .454 -2.35 .163 -2.486 -.178 -2.486 C -.974 -2.486 -1.36 -1.731 -1.36 -.914 C -1.36 -.125 -.968 .607 -.193 .607 C .117 .607 .423 .46 .586 .17 L .597 .17 L .597 1.646 L 1.32 1.646 L 1.32 -2.407 L .632 -2.407 Z " fill="#231f20"></path>
      </g>
      <!-- standard muscular -->
      <g>
        <path xmlns="http://www.w3.org/2000/svg" transform="matrix(1,0,0,-1,0,841.89)" d="M 546.75 574.219 L 527.029 574.219 L 527.029 579.184 L 546.75 579.184 Z " fill="#ffffff"></path>
        <path xmlns="http://www.w3.org/2000/svg" transform="matrix(1,0,0,-1,513.2148,265.7406)" d="M 0 0 C 0 -.539 .378 -.749 .806 -.749 C 1.086 -.749 1.514 -.658 1.514 -.244 C 1.514 .199 .964 .261 .434 .426 C -.106 .573 -.652 .829 -.652 1.578 C -.652 2.413 .052 2.804 .709 2.804 C 1.469 2.804 2.166 2.435 2.166 1.499 L 1.392 1.499 C 1.366 1.981 1.061 2.112 .673 2.112 C .418 2.112 .123 1.992 .123 1.652 C .123 1.34 .296 1.294 1.208 1.039 C 1.479 .971 2.289 .772 2.289 -.142 C 2.289 -.885 1.769 -1.442 .775 -1.442 C -.03 -1.442 -.789 -.999 -.774 0 Z " fill="#231f20"></path>
        <path xmlns="http://www.w3.org/2000/svg" transform="matrix(1,0,0,-1,516.8223,264.15126)" d="M 0 0 L .53 0 L .53 -.539 L 0 -.539 L 0 -1.992 C 0 -2.265 .062 -2.333 .306 -2.333 C .388 -2.333 .464 -2.327 .53 -2.31 L .53 -2.94 C .408 -2.963 .25 -2.969 .107 -2.969 C -.342 -2.969 -.724 -2.861 -.724 -2.271 L -.724 -.539 L -1.162 -.539 L -1.162 0 L -.724 0 L -.724 .88 L 0 .88 Z " fill="#231f20"></path>
        <path xmlns="http://www.w3.org/2000/svg" transform="matrix(1,0,0,-1,519.3418,265.64985)" d="M 0 0 C -.122 -.119 -.377 -.125 -.602 -.17 C -.825 -.216 -1.029 -.307 -1.029 -.602 C -1.029 -.897 -.82 -.976 -.586 -.976 C -.021 -.976 0 -.482 0 -.301 Z M -1.672 .596 C -1.631 1.345 -1.024 1.578 -.433 1.578 C .092 1.578 .724 1.447 .724 .744 L .724 -.783 C .724 -1.05 .749 -1.317 .815 -1.436 L .082 -1.436 C .057 -1.345 .036 -1.249 .03 -1.152 C -.198 -1.419 -.53 -1.516 -.856 -1.516 C -1.36 -1.516 -1.753 -1.237 -1.753 -.636 C -1.743 .698 .03 -.017 0 .642 C 0 .982 -.214 1.039 -.469 1.039 C -.749 1.039 -.922 .914 -.948 .596 Z " fill="#231f20"></path>
        <path xmlns="http://www.w3.org/2000/svg" transform="matrix(1,0,0,-1,520.6299,264.15126)" d="M 0 0 L .688 0 L .688 -.409 L .703 -.409 C .887 -.074 1.202 .08 1.508 .08 C 2.277 .08 2.472 -.403 2.472 -1.129 L 2.472 -2.935 L 1.748 -2.935 L 1.748 -1.277 C 1.748 -.794 1.625 -.556 1.284 -.556 C .892 -.556 .724 -.8 .724 -1.396 L .724 -2.935 L 0 -2.935 Z " fill="#231f20"></path>
        <path xmlns="http://www.w3.org/2000/svg" transform="matrix(1,0,0,-1,524.9043,264.67915)" d="M 0 0 C -.475 0 -.638 -.46 -.638 -.937 C -.638 -1.396 -.449 -1.879 0 -1.879 C .474 -1.879 .621 -1.414 .621 -.931 C .621 -.454 .469 0 0 0 M .632 -2.032 L .621 -2.032 C .453 -2.35 .163 -2.486 -.179 -2.486 C -.974 -2.486 -1.361 -1.731 -1.361 -.914 C -1.361 -.125 -.969 .607 -.194 .607 C .117 .607 .423 .46 .586 .17 L .596 .17 L .596 1.646 L 1.319 1.646 L 1.319 -2.407 L .632 -2.407 Z " fill="#231f20"></path>
        <path xmlns="http://www.w3.org/2000/svg" transform="matrix(1,0,0,-1,528.4141,265.64985)" d="M 0 0 C -.123 -.119 -.377 -.125 -.602 -.17 C -.826 -.216 -1.029 -.307 -1.029 -.602 C -1.029 -.897 -.821 -.976 -.586 -.976 C -.021 -.976 0 -.482 0 -.301 Z M -1.672 .596 C -1.631 1.345 -1.024 1.578 -.434 1.578 C .092 1.578 .724 1.447 .724 .744 L .724 -.783 C .724 -1.05 .749 -1.317 .815 -1.436 L .081 -1.436 C .056 -1.345 .035 -1.249 .03 -1.152 C -.199 -1.419 -.53 -1.516 -.856 -1.516 C -1.361 -1.516 -1.754 -1.237 -1.754 -.636 C -1.743 .698 .03 -.017 0 .642 C 0 .982 -.215 1.039 -.469 1.039 C -.749 1.039 -.923 .914 -.948 .596 Z " fill="#231f20"></path>
        <path xmlns="http://www.w3.org/2000/svg" transform="matrix(1,0,0,-1,529.7012,264.15126)" d="M 0 0 L .688 0 L .688 -.545 L .698 -.545 C .836 -.176 1.178 .08 1.539 .08 C 1.596 .08 1.646 .068 1.697 .051 L 1.697 -.698 C 1.631 -.681 1.524 -.67 1.438 -.67 C .902 -.67 .724 -1.09 .724 -1.612 L .724 -2.935 L 0 -2.935 Z " fill="#231f20"></path>
        <path xmlns="http://www.w3.org/2000/svg" transform="matrix(1,0,0,-1,532.9346,264.67915)" d="M 0 0 C -.474 0 -.637 -.46 -.637 -.937 C -.637 -1.396 -.448 -1.879 0 -1.879 C .475 -1.879 .622 -1.414 .622 -.931 C .622 -.454 .469 0 0 0 M .632 -2.032 L .622 -2.032 C .454 -2.35 .163 -2.486 -.178 -2.486 C -.974 -2.486 -1.36 -1.731 -1.36 -.914 C -1.36 -.125 -.968 .607 -.193 .607 C .117 .607 .423 .46 .586 .17 L .597 .17 L .597 1.646 L 1.32 1.646 L 1.32 -2.407 L .632 -2.407 Z " fill="#231f20"></path>
        <path xmlns="http://www.w3.org/2000/svg" transform="matrix(1,0,0,-1,536.2988,263.03315)" d="M 0 0 L 1.126 0 L 1.978 -2.787 L 1.987 -2.787 L 2.793 0 L 3.919 0 L 3.919 -4.053 L 3.17 -4.053 L 3.17 -1.181 L 3.159 -1.181 L 2.268 -4.053 L 1.651 -4.053 L .759 -1.209 L .749 -1.209 L .749 -4.053 L 0 -4.053 Z " fill="#231f20"></path>
        <path xmlns="http://www.w3.org/2000/svg" transform="matrix(1,0,0,-1,543.3213,267.08583)" d="M 0 0 L -.688 0 L -.688 .409 L -.703 .409 C -.887 .074 -1.202 -.08 -1.508 -.08 C -2.277 -.08 -2.472 .403 -2.472 1.129 L -2.472 2.935 L -1.748 2.935 L -1.748 1.277 C -1.748 .794 -1.625 .556 -1.284 .556 C -.892 .556 -.724 .8 -.724 1.396 L -.724 2.935 L 0 2.935 Z " fill="#231f20"></path>
        <path xmlns="http://www.w3.org/2000/svg" transform="matrix(1,0,0,-1,544.4365,266.1322)" d="M 0 0 C 0 -.346 .274 -.494 .555 -.494 C .759 -.494 1.029 -.403 1.029 -.119 C 1.029 .125 .724 .216 .209 .335 C -.215 .443 -.627 .596 -.627 1.118 C -.627 1.868 -.046 2.061 .52 2.061 C 1.09 2.061 1.625 1.845 1.682 1.124 L .993 1.124 C .973 1.436 .759 1.521 .499 1.521 C .336 1.521 .097 1.493 .097 1.249 C .097 .959 .509 .919 .917 .812 C 1.34 .704 1.753 .534 1.753 -.011 C 1.753 -.783 1.146 -1.033 .55 -1.033 C -.062 -1.033 -.663 -.778 -.688 0 Z " fill="#231f20"></path>
        <path xmlns="http://www.w3.org/2000/svg" transform="matrix(1,0,0,-1,548.4092,265.1844)" d="M 0 0 C -.046 .335 -.224 .505 -.535 .505 C -.999 .505 -1.151 -.017 -1.151 -.448 C -1.151 -.874 -1.004 -1.374 -.55 -1.374 C -.209 -1.374 -.021 -1.141 .025 -.777 L .724 -.777 C .627 -1.555 .153 -1.981 -.545 -1.981 C -1.34 -1.981 -1.875 -1.356 -1.875 -.477 C -1.875 .437 -1.386 1.113 -.53 1.113 C .092 1.113 .668 .75 .709 0 Z " fill="#231f20"></path>
        <path xmlns="http://www.w3.org/2000/svg" transform="matrix(1,0,0,-1,552.0156,267.08583)" d="M 0 0 L -.688 0 L -.688 .409 L -.703 .409 C -.887 .074 -1.202 -.08 -1.508 -.08 C -2.277 -.08 -2.472 .403 -2.472 1.129 L -2.472 2.935 L -1.748 2.935 L -1.748 1.277 C -1.748 .794 -1.625 .556 -1.284 .556 C -.892 .556 -.724 .8 -.724 1.396 L -.724 2.935 L 0 2.935 Z " fill="#231f20"></path>
        <path xmlns="http://www.w3.org/2000/svg" transform="matrix(1,0,0,-1,0,841.89)" d="M 552.59 578.857 L 553.314 578.857 L 553.314 574.804 L 552.59 574.804 Z " fill="#231f20"></path>
        <path xmlns="http://www.w3.org/2000/svg" transform="matrix(1,0,0,-1,555.5273,265.64985)" d="M 0 0 C -.122 -.119 -.377 -.125 -.602 -.17 C -.826 -.216 -1.029 -.307 -1.029 -.602 C -1.029 -.897 -.82 -.976 -.586 -.976 C -.021 -.976 0 -.482 0 -.301 Z M -1.672 .596 C -1.631 1.345 -1.024 1.578 -.434 1.578 C .092 1.578 .724 1.447 .724 .744 L .724 -.783 C .724 -1.05 .749 -1.317 .815 -1.436 L .081 -1.436 C .056 -1.345 .035 -1.249 .03 -1.152 C -.199 -1.419 -.53 -1.516 -.856 -1.516 C -1.361 -1.516 -1.753 -1.237 -1.753 -.636 C -1.743 .698 .03 -.017 0 .642 C 0 .982 -.214 1.039 -.469 1.039 C -.749 1.039 -.923 .914 -.948 .596 Z " fill="#231f20"></path>
        <path xmlns="http://www.w3.org/2000/svg" transform="matrix(1,0,0,-1,556.8145,264.15126)" d="M 0 0 L .688 0 L .688 -.545 L .698 -.545 C .836 -.176 1.178 .08 1.539 .08 C 1.596 .08 1.646 .068 1.697 .051 L 1.697 -.698 C 1.631 -.681 1.524 -.67 1.438 -.67 C .902 -.67 .724 -1.09 .724 -1.612 L .724 -2.935 L 0 -2.935 Z " fill="#231f20"></path>
      </g>
      <!-- thin -->
      <g>
        <path xmlns="http://www.w3.org/2000/svg" transform="matrix(1,0,0,-1,409.1094,306.37245)" d="M 0 0 L -1.091 0 L -1.091 .749 L 1.891 .749 L 1.891 0 L .8 0 L .8 -3.304 L 0 -3.304 Z " fill="#231f20"></path>
        <path xmlns="http://www.w3.org/2000/svg" transform="matrix(1,0,0,-1,411.3447,305.6234)" d="M 0 0 L .724 0 L .724 -1.527 L .739 -1.527 C .923 -1.192 1.238 -1.039 1.509 -1.039 C 2.278 -1.039 2.472 -1.521 2.472 -2.248 L 2.472 -4.053 L 1.748 -4.053 L 1.748 -2.396 C 1.748 -1.913 1.626 -1.674 1.284 -1.674 C .892 -1.674 .724 -1.918 .724 -2.515 L .724 -4.053 L 0 -4.053 Z " fill="#231f20"></path>
        <path xmlns="http://www.w3.org/2000/svg" transform="matrix(1,0,0,-1,0,841.89)" d="M 414.391 535.148 L 415.115 535.148 L 415.115 532.213 L 414.391 532.213 Z M 415.114 535.603 L 414.39 535.603 L 414.39 536.267 L 415.114 536.267 Z " fill="#231f20"></path>
        <path xmlns="http://www.w3.org/2000/svg" transform="matrix(1,0,0,-1,415.6865,306.74165)" d="M 0 0 L .688 0 L .688 -.409 L .704 -.409 C .887 -.074 1.203 .08 1.509 .08 C 2.278 .08 2.472 -.403 2.472 -1.129 L 2.472 -2.935 L 1.748 -2.935 L 1.748 -1.277 C 1.748 -.794 1.626 -.556 1.284 -.556 C .893 -.556 .724 -.8 .724 -1.396 L .724 -2.935 L 0 -2.935 Z " fill="#231f20"></path>
      </g>
      <!-- thin and muscular -->
      <g>
        <path xmlns="http://www.w3.org/2000/svg" transform="matrix(1,0,0,-1,0,841.89)" d="M 492.479 536.762 L 475.116 536.762 L 475.116 531.276 L 492.479 531.276 Z " fill="#ffffff"></path>
        <path xmlns="http://www.w3.org/2000/svg" transform="matrix(1,0,0,-1,461.7529,306.37245)" d="M 0 0 L -1.091 0 L -1.091 .749 L 1.891 .749 L 1.891 0 L .8 0 L .8 -3.304 L 0 -3.304 Z " fill="#231f20"></path>
        <path xmlns="http://www.w3.org/2000/svg" transform="matrix(1,0,0,-1,463.9883,305.6234)" d="M 0 0 L .724 0 L .724 -1.527 L .739 -1.527 C .923 -1.192 1.238 -1.039 1.509 -1.039 C 2.278 -1.039 2.472 -1.521 2.472 -2.248 L 2.472 -4.053 L 1.748 -4.053 L 1.748 -2.396 C 1.748 -1.913 1.626 -1.674 1.284 -1.674 C .892 -1.674 .724 -1.918 .724 -2.515 L .724 -4.053 L 0 -4.053 Z " fill="#231f20"></path>
        <path xmlns="http://www.w3.org/2000/svg" transform="matrix(1,0,0,-1,0,841.89)" d="M 467.034 535.148 L 467.758 535.148 L 467.758 532.213 L 467.034 532.213 Z M 467.758 535.603 L 467.034 535.603 L 467.034 536.267 L 467.758 536.267 Z " fill="#231f20"></path>
        <path xmlns="http://www.w3.org/2000/svg" transform="matrix(1,0,0,-1,468.3301,306.74165)" d="M 0 0 L .688 0 L .688 -.409 L .704 -.409 C .887 -.074 1.203 .08 1.509 .08 C 2.278 .08 2.472 -.403 2.472 -1.129 L 2.472 -2.935 L 1.748 -2.935 L 1.748 -1.277 C 1.748 -.794 1.626 -.556 1.284 -.556 C .893 -.556 .724 -.8 .724 -1.396 L .724 -2.935 L 0 -2.935 Z " fill="#231f20"></path>
        <path xmlns="http://www.w3.org/2000/svg" transform="matrix(1,0,0,-1,474.415,308.2401)" d="M 0 0 C -.122 -.119 -.377 -.125 -.601 -.17 C -.825 -.216 -1.029 -.307 -1.029 -.602 C -1.029 -.897 -.82 -.976 -.586 -.976 C -.02 -.976 0 -.482 0 -.301 Z M -1.671 .596 C -1.631 1.345 -1.023 1.578 -.433 1.578 C .092 1.578 .725 1.448 .725 .744 L .725 -.783 C .725 -1.05 .75 -1.317 .815 -1.436 L .082 -1.436 C .057 -1.345 .036 -1.249 .031 -1.152 C -.198 -1.419 -.529 -1.516 -.855 -1.516 C -1.36 -1.516 -1.753 -1.237 -1.753 -.636 C -1.742 .698 .031 -.017 0 .642 C 0 .982 -.214 1.039 -.469 1.039 C -.749 1.039 -.922 .914 -.947 .596 Z " fill="#231f20"></path>
        <path xmlns="http://www.w3.org/2000/svg" transform="matrix(1,0,0,-1,475.7031,306.74165)" d="M 0 0 L .688 0 L .688 -.409 L .703 -.409 C .887 -.074 1.203 .08 1.509 .08 C 2.278 .08 2.472 -.403 2.472 -1.129 L 2.472 -2.935 L 1.748 -2.935 L 1.748 -1.277 C 1.748 -.794 1.626 -.556 1.284 -.556 C .892 -.556 .724 -.8 .724 -1.396 L .724 -2.935 L 0 -2.935 Z " fill="#231f20"></path>
        <path xmlns="http://www.w3.org/2000/svg" transform="matrix(1,0,0,-1,479.9775,307.2694)" d="M 0 0 C -.474 0 -.637 -.46 -.637 -.937 C -.637 -1.396 -.448 -1.879 0 -1.879 C .474 -1.879 .622 -1.414 .622 -.931 C .622 -.454 .469 0 0 0 M .632 -2.032 L .622 -2.032 C .453 -2.35 .163 -2.486 -.179 -2.486 C -.974 -2.486 -1.361 -1.731 -1.361 -.914 C -1.361 -.125 -.969 .607 -.193 .607 C .117 .607 .423 .46 .586 .17 L .596 .17 L .596 1.646 L 1.32 1.646 L 1.32 -2.407 L .632 -2.407 Z " fill="#231f20"></path>
        <path xmlns="http://www.w3.org/2000/svg" transform="matrix(1,0,0,-1,483.3408,305.6234)" d="M 0 0 L 1.127 0 L 1.978 -2.787 L 1.988 -2.787 L 2.793 0 L 3.92 0 L 3.92 -4.053 L 3.17 -4.053 L 3.17 -1.181 L 3.16 -1.181 L 2.269 -4.053 L 1.651 -4.053 L .76 -1.209 L .749 -1.209 L .749 -4.053 L 0 -4.053 Z " fill="#231f20"></path>
        <path xmlns="http://www.w3.org/2000/svg" transform="matrix(1,0,0,-1,490.3643,309.6761)" d="M 0 0 L -.688 0 L -.688 .409 L -.703 .409 C -.887 .074 -1.203 -.08 -1.509 -.08 C -2.278 -.08 -2.472 .403 -2.472 1.129 L -2.472 2.935 L -1.748 2.935 L -1.748 1.277 C -1.748 .795 -1.626 .556 -1.284 .556 C -.892 .556 -.724 .8 -.724 1.396 L -.724 2.935 L 0 2.935 Z " fill="#231f20"></path>
        <path xmlns="http://www.w3.org/2000/svg" transform="matrix(1,0,0,-1,491.4785,308.72254)" d="M 0 0 C 0 -.346 .275 -.494 .556 -.494 C .76 -.494 1.029 -.403 1.029 -.119 C 1.029 .125 .724 .216 .209 .335 C -.214 .443 -.627 .596 -.627 1.118 C -.627 1.868 -.046 2.061 .521 2.061 C 1.091 2.061 1.626 1.845 1.682 1.124 L .994 1.124 C .974 1.436 .76 1.521 .5 1.521 C .337 1.521 .097 1.493 .097 1.249 C .097 .959 .51 .919 .918 .812 C 1.341 .704 1.754 .534 1.754 -.011 C 1.754 -.783 1.146 -1.033 .551 -1.033 C -.061 -1.033 -.662 -.778 -.688 0 Z " fill="#231f20"></path>
        <path xmlns="http://www.w3.org/2000/svg" transform="matrix(1,0,0,-1,495.4521,307.77485)" d="M 0 0 C -.046 .335 -.225 .505 -.535 .505 C -.999 .505 -1.152 -.017 -1.152 -.448 C -1.152 -.874 -1.004 -1.374 -.551 -1.374 C -.209 -1.374 -.021 -1.141 .025 -.777 L .724 -.777 C .627 -1.555 .152 -1.981 -.546 -1.981 C -1.341 -1.981 -1.876 -1.356 -1.876 -.477 C -1.876 .438 -1.387 1.113 -.53 1.113 C .092 1.113 .667 .75 .708 0 Z " fill="#231f20"></path>
        <path xmlns="http://www.w3.org/2000/svg" transform="matrix(1,0,0,-1,499.0586,309.6761)" d="M 0 0 L -.688 0 L -.688 .409 L -.703 .409 C -.887 .074 -1.203 -.08 -1.509 -.08 C -2.278 -.08 -2.472 .403 -2.472 1.129 L -2.472 2.935 L -1.748 2.935 L -1.748 1.277 C -1.748 .795 -1.626 .556 -1.284 .556 C -.892 .556 -.724 .8 -.724 1.396 L -.724 2.935 L 0 2.935 Z " fill="#231f20"></path>
        <path xmlns="http://www.w3.org/2000/svg" transform="matrix(1,0,0,-1,0,841.89)" d="M 499.633 536.267 L 500.357 536.267 L 500.357 532.21408 L 499.633 532.21408 Z " fill="#231f20"></path>
        <path xmlns="http://www.w3.org/2000/svg" transform="matrix(1,0,0,-1,502.5693,308.2401)" d="M 0 0 C -.122 -.119 -.377 -.125 -.601 -.17 C -.825 -.216 -1.029 -.307 -1.029 -.602 C -1.029 -.897 -.82 -.976 -.586 -.976 C -.02 -.976 0 -.482 0 -.301 Z M -1.671 .596 C -1.631 1.345 -1.024 1.578 -.433 1.578 C .092 1.578 .725 1.448 .725 .744 L .725 -.783 C .725 -1.05 .75 -1.317 .815 -1.436 L .082 -1.436 C .057 -1.345 .036 -1.249 .031 -1.152 C -.198 -1.419 -.529 -1.516 -.855 -1.516 C -1.36 -1.516 -1.753 -1.237 -1.753 -.636 C -1.742 .698 .031 -.017 0 .642 C 0 .982 -.214 1.039 -.469 1.039 C -.749 1.039 -.922 .914 -.947 .596 Z " fill="#231f20"></path>
        <path xmlns="http://www.w3.org/2000/svg" transform="matrix(1,0,0,-1,503.8574,306.74165)" d="M 0 0 L .688 0 L .688 -.545 L .698 -.545 C .836 -.176 1.178 .08 1.539 .08 C 1.595 .08 1.646 .068 1.697 .051 L 1.697 -.698 C 1.631 -.681 1.523 -.67 1.438 -.67 C .902 -.67 .724 -1.09 .724 -1.612 L .724 -2.935 L 0 -2.935 Z " fill="#231f20"></path>
      </g>
      <!-- very muscular -->
      <g>
        <path xmlns="http://www.w3.org/2000/svg" transform="matrix(1,0,0,-1,0,841.89)" d="M 545.673 536.824 L 525.72097 536.824 L 525.72097 531.33798 L 545.673 531.33798 Z " fill="#ffffff"></path>
        <path xmlns="http://www.w3.org/2000/svg" transform="matrix(1,0,0,-1,514.3398,309.6507)" d="M 0 0 L -.902 0 L -2.086 4.053 L -1.26 4.053 L -.449 1.203 L -.439 1.203 L .381 4.053 L 1.207 4.053 Z " fill="#231f20"></path>
        <path xmlns="http://www.w3.org/2000/svg" transform="matrix(1,0,0,-1,517.5586,307.86854)" d="M 0 0 C -.066 .409 -.225 .625 -.576 .625 C -1.045 .625 -1.162 .227 -1.178 0 Z M -1.178 -.511 C -1.156 -1.027 -.938 -1.254 -.529 -1.254 C -.238 -1.254 -.004 -1.056 .041 -.874 L .678 -.874 C .475 -1.572 .041 -1.862 -.555 -1.862 C -1.387 -1.862 -1.9 -1.226 -1.9 -.318 C -1.9 .562 -1.355 1.232 -.555 1.232 C .342 1.232 .779 .392 .725 -.511 Z " fill="#231f20"></path>
        <path xmlns="http://www.w3.org/2000/svg" transform="matrix(1,0,0,-1,518.7148,306.7162)" d="M 0 0 L .688 0 L .688 -.545 L .697 -.545 C .836 -.176 1.176 .08 1.539 .08 C 1.594 .08 1.645 .068 1.697 .051 L 1.697 -.698 C 1.631 -.681 1.523 -.67 1.436 -.67 C .902 -.67 .723 -1.09 .723 -1.612 L .723 -2.935 L 0 -2.935 Z " fill="#231f20"></path>
        <path xmlns="http://www.w3.org/2000/svg" transform="matrix(1,0,0,-1,522.3047,310.0199)" d="M 0 0 C -.158 -.471 -.414 -.664 -.908 -.664 C -1.057 -.664 -1.203 -.652 -1.352 -.636 L -1.352 .028 C -1.213 .012 -1.07 -.005 -.928 0 C -.74 .023 -.648 .188 -.648 .369 C -.648 .432 -.658 .494 -.68 .551 L -1.605 3.304 L -.832 3.304 L -.234 1.294 L -.225 1.294 L .352 3.304 L 1.1 3.304 Z " fill="#231f20"></path>
        <path xmlns="http://www.w3.org/2000/svg" transform="matrix(1,0,0,-1,525.1465,305.59803)" d="M 0 0 L 1.127 0 L 1.979 -2.787 L 1.988 -2.787 L 2.793 0 L 3.92 0 L 3.92 -4.053 L 3.17 -4.053 L 3.17 -1.181 L 3.16 -1.181 L 2.268 -4.053 L 1.652 -4.053 L .76 -1.209 L .75 -1.209 L .75 -4.053 L 0 -4.053 Z " fill="#231f20"></path>
        <path xmlns="http://www.w3.org/2000/svg" transform="matrix(1,0,0,-1,532.1699,309.6507)" d="M 0 0 L -.688 0 L -.688 .409 L -.703 .409 C -.887 .074 -1.203 -.08 -1.508 -.08 C -2.277 -.08 -2.471 .403 -2.471 1.129 L -2.471 2.935 L -1.748 2.935 L -1.748 1.277 C -1.748 .795 -1.625 .556 -1.283 .556 C -.891 .556 -.723 .8 -.723 1.396 L -.723 2.935 L 0 2.935 Z " fill="#231f20"></path>
        <path xmlns="http://www.w3.org/2000/svg" transform="matrix(1,0,0,-1,533.2852,308.69715)" d="M 0 0 C 0 -.346 .275 -.494 .555 -.494 C .758 -.494 1.029 -.403 1.029 -.119 C 1.029 .125 .723 .216 .209 .335 C -.215 .443 -.627 .596 -.627 1.118 C -.627 1.868 -.047 2.061 .52 2.061 C 1.09 2.061 1.625 1.845 1.682 1.124 L .994 1.124 C .973 1.436 .758 1.521 .498 1.521 C .336 1.521 .096 1.493 .096 1.249 C .096 .959 .51 .919 .916 .812 C 1.34 .704 1.752 .534 1.752 -.011 C 1.752 -.783 1.146 -1.033 .549 -1.033 C -.063 -1.033 -.664 -.778 -.689 0 Z " fill="#231f20"></path>
        <path xmlns="http://www.w3.org/2000/svg" transform="matrix(1,0,0,-1,537.2578,307.7494)" d="M 0 0 C -.045 .335 -.225 .505 -.535 .505 C -.998 .505 -1.152 -.017 -1.152 -.448 C -1.152 -.874 -1.004 -1.374 -.551 -1.374 C -.209 -1.374 -.02 -1.141 .025 -.777 L .725 -.777 C .627 -1.555 .152 -1.981 -.545 -1.981 C -1.34 -1.981 -1.875 -1.356 -1.875 -.477 C -1.875 .438 -1.387 1.113 -.529 1.113 C .092 1.113 .668 .75 .709 0 Z " fill="#231f20"></path>
        <path xmlns="http://www.w3.org/2000/svg" transform="matrix(1,0,0,-1,540.8652,309.6507)" d="M 0 0 L -.689 0 L -.689 .409 L -.703 .409 C -.887 .074 -1.203 -.08 -1.51 -.08 C -2.279 -.08 -2.473 .403 -2.473 1.129 L -2.473 2.935 L -1.748 2.935 L -1.748 1.277 C -1.748 .795 -1.627 .556 -1.285 .556 C -.893 .556 -.725 .8 -.725 1.396 L -.725 2.935 L 0 2.935 Z " fill="#231f20"></path>
        <path xmlns="http://www.w3.org/2000/svg" transform="matrix(1,0,0,-1,0,841.89)" d="M 541.439 536.292 L 542.16207 536.292 L 542.16207 532.239 L 541.439 532.239 Z " fill="#231f20"></path>
        <path xmlns="http://www.w3.org/2000/svg" transform="matrix(1,0,0,-1,544.375,308.21473)" d="M 0 0 C -.121 -.119 -.377 -.125 -.602 -.17 C -.824 -.216 -1.029 -.307 -1.029 -.602 C -1.029 -.897 -.82 -.976 -.586 -.976 C -.02 -.976 0 -.482 0 -.301 Z M -1.672 .596 C -1.631 1.345 -1.023 1.578 -.432 1.578 C .092 1.578 .725 1.448 .725 .744 L .725 -.783 C .725 -1.05 .75 -1.317 .816 -1.436 L .082 -1.436 C .057 -1.345 .037 -1.249 .031 -1.152 C -.197 -1.419 -.529 -1.516 -.855 -1.516 C -1.359 -1.516 -1.752 -1.237 -1.752 -.636 C -1.742 .698 .031 -.017 0 .642 C 0 .982 -.213 1.039 -.469 1.039 C -.748 1.039 -.922 .914 -.947 .596 Z " fill="#231f20"></path>
        <path xmlns="http://www.w3.org/2000/svg" transform="matrix(1,0,0,-1,545.6641,306.7162)" d="M 0 0 L .688 0 L .688 -.545 L .697 -.545 C .836 -.176 1.176 .08 1.539 .08 C 1.594 .08 1.645 .068 1.697 .051 L 1.697 -.698 C 1.631 -.681 1.523 -.67 1.436 -.67 C .902 -.67 .723 -1.09 .723 -1.612 L .723 -2.935 L 0 -2.935 Z " fill="#231f20"></path>
      </g>
    </g>
    <!-- icon -->
    <g>
      <!-- y + -->
      <g>
        <path xmlns="http://www.w3.org/2000/svg" transform="matrix(1,0,0,-1,401.2686,202.30109)" d="M 0 0 L 0 -2.336 L 2.336 -2.336 L 2.336 -3.401 L 0 -3.401 L 0 -5.737 L -1.066 -5.737 L -1.066 -3.401 L -3.401 -3.401 L -3.401 -2.336 L -1.066 -2.336 L -1.066 0 Z " fill="#808285"></path>
      </g>
      <!-- y o -->
      <g>
        <path xmlns="http://www.w3.org/2000/svg" transform="matrix(1,0,0,-1,403.1445,247.74353)" stroke-width=".964" stroke-linecap="butt" stroke-miterlimit="4" stroke-linejoin="miter" fill="none" stroke="#808285" d="M 0 0 C 0 -1.331 -1.079 -2.409 -2.41 -2.409 C -3.739 -2.409 -4.818 -1.331 -4.818 0 C -4.818 1.33 -3.739 2.41 -2.41 2.41 C -1.079 2.41 0 1.33 0 0 Z "></path>
      </g>
      <!-- y - -->
      <g>
        <path xmlns="http://www.w3.org/2000/svg" transform="matrix(1,0,0,-1,0,841.89)" d="M 403.559 551.012 L 397.913 551.012 L 397.913 552.26 L 403.559 552.26 Z " fill="#808285"></path>
      </g>
      <!-- x + -->
      <g>
        <path xmlns="http://www.w3.org/2000/svg" transform="matrix(1,0,0,-1,536.7266,314.536)" d="M 0 0 L 0 -2.336 L 2.336 -2.336 L 2.336 -3.401 L 0 -3.401 L 0 -5.737 L -1.066 -5.737 L -1.066 -3.401 L -3.401 -3.401 L -3.401 -2.336 L -1.066 -2.336 L -1.066 0 Z " fill="#808285"></path>
      </g>
      <!-- x o -->
      <g>
        <path xmlns="http://www.w3.org/2000/svg" transform="matrix(1,0,0,-1,485.8936,317.5077)" stroke-width=".964" stroke-linecap="butt" stroke-miterlimit="4" stroke-linejoin="miter" fill="none" stroke="#808285" d="M 0 0 C 0 -1.331 -1.079 -2.409 -2.41 -2.409 C -3.739 -2.409 -4.818 -1.331 -4.818 0 C -4.818 1.33 -3.739 2.41 -2.41 2.41 C -1.079 2.41 0 1.33 0 0 Z "></path>
      </g>
      <!-- x - -->
      <g>
        <path xmlns="http://www.w3.org/2000/svg" transform="matrix(1,0,0,-1,0,841.89)" d="M 434.568 523.591 L 428.922 523.591 L 428.922 524.839 L 434.568 524.839 Z " fill="#808285"></path>
      </g>
      <!-- hidden obese -->
      <g>
        <path xmlns="http://www.w3.org/2000/svg" transform="matrix(1,0,0,-1,450.4619,200.61072)" d="M 0 0 C -.125 2.586 -.574 4.122 -1.272 5.273 C -1.644 5.887 -2.191 5.634 -2.581 5.634 C -2.972 5.634 -3.519 5.887 -3.889 5.273 C -4.588 4.122 -5.038 2.586 -5.163 0 C -5.372 -4.28 -4.008 -5.893 -2.581 -5.893 C -1.154 -5.893 .21 -4.28 0 0 " fill="#81c452"></path>
        <path xmlns="http://www.w3.org/2000/svg" transform="matrix(1,0,0,-1,449.6045,192.78553)" d="M 0 0 C 0 -.942 -.763 -1.705 -1.706 -1.705 C -2.65 -1.705 -3.412 -.942 -3.412 0 C -3.412 .942 -2.65 1.705 -1.706 1.705 C -.763 1.705 0 .942 0 0 " fill="#81c452"></path>
        <path xmlns="http://www.w3.org/2000/svg" transform="matrix(1,0,0,-1,445.1846,207.12342)" d="M 0 0 C -.396 -3.236 .013 -8.726 .761 -12.271 C 1.017 -13.477 2.012 -13.456 1.805 -12.016 C 1.27 -8.304 1.192 -3.494 1.584 -.512 C 1.635 -.14 1.444 .33 .961 .594 C .449 .87 .097 .776 0 0 " fill="#81c452"></path>
        <path xmlns="http://www.w3.org/2000/svg" transform="matrix(1,0,0,-1,450.5771,207.12342)" d="M 0 0 C .396 -3.236 -.014 -8.726 -.76 -12.271 C -1.016 -13.477 -2.012 -13.456 -1.803 -12.016 C -1.274 -8.304 -1.192 -3.494 -1.586 -.512 C -1.633 -.14 -1.443 .33 -.96 .594 C -.451 .87 -.099 .776 0 0 " fill="#81c452"></path>
        <path xmlns="http://www.w3.org/2000/svg" transform="matrix(1,0,0,-1,444.1074,195.9212)" d="M 0 0 C -1.265 -2.238 -1.558 -6.951 -1.476 -10.544 C -1.447 -11.693 -.581 -11.786 -.534 -10.568 C -.322 -4.854 .35 -2.389 1.478 -.27 C 1.654 .063 1.992 .808 1.662 .993 C 1.333 1.178 .35 .616 0 0 " fill="#81c452"></path>
        <path xmlns="http://www.w3.org/2000/svg" transform="matrix(1,0,0,-1,451.6533,195.9212)" d="M 0 0 C 1.266 -2.238 1.559 -6.951 1.474 -10.544 C 1.448 -11.693 .581 -11.786 .537 -10.568 C .322 -4.854 -.349 -2.389 -1.478 -.27 C -1.653 .063 -1.992 .808 -1.664 .993 C -1.332 1.178 -.349 .616 0 0 " fill="#81c452"></path>
      </g>
      <!-- solidly-build -->
      <g>
        <path xmlns="http://www.w3.org/2000/svg" transform="matrix(1,0,0,-1,553.3193,203.31385)" d="M 0 0 C -.25 1.3 -.473 2.643 -.333 3.644 C .118 6.843 .563 7.516 -3.701 7.516 C -7.966 7.516 -7.52 6.843 -7.068 3.644 C -6.927 2.643 -7.152 1.3 -7.399 0 C -7.823 -2.204 -6.789 -3.699 -3.701 -3.699 C -.612 -3.699 .419 -2.204 0 0 " fill="#01b49d"></path>
        <path xmlns="http://www.w3.org/2000/svg" transform="matrix(1,0,0,-1,545.8428,207.9046)" d="M 0 0 C 0 -1.124 .266 -3.358 .932 -4.757 C 1.171 -5.258 1.079 -5.616 1.065 -6.04 C 1.058 -6.225 1.028 -6.418 1.031 -6.611 C 1.065 -9.086 2.02 -10.882 2.73 -12.395 C 2.9 -12.749 3.464 -13.076 3.464 -12.188 L 3.464 -.612 C 3.464 -.159 3.448 .354 2.666 .548 C 2.271 .646 1.627 .784 .924 1.132 C .384 1.398 0 .985 0 0 " fill="#01b49d"></path>
        <path xmlns="http://www.w3.org/2000/svg" transform="matrix(1,0,0,-1,552.4707,206.77283)" d="M 0 0 C -.704 -.348 -1.349 -.485 -1.74 -.584 C -2.524 -.777 -2.544 -1.291 -2.544 -1.744 L -2.544 -13.32 C -2.544 -14.208 -1.977 -13.881 -1.808 -13.526 C -1.096 -12.014 -.143 -10.218 -.107 -7.743 C -.105 -7.55 -.135 -7.356 -.14 -7.172 C -.153 -6.748 -.247 -6.39 -.009 -5.889 C .657 -4.49 .926 -2.256 .926 -1.132 C .926 -.146 .542 .267 0 0 " fill="#01b49d"></path>
        <path xmlns="http://www.w3.org/2000/svg" transform="matrix(1,0,0,-1,551.6133,193.23963)" d="M 0 0 C 0 -1.103 -.894 -1.994 -1.995 -1.994 C -3.096 -1.994 -3.99 -1.103 -3.99 0 C -3.99 1.104 -3.096 1.998 -1.995 1.998 C -.894 1.998 0 1.104 0 0 " fill="#01b49d"></path>
        <path xmlns="http://www.w3.org/2000/svg" transform="matrix(1,0,0,-1,542.1064,196.1341)" d="M 0 0 C -.612 -.317 -1.936 -1.028 -1.936 -1.028 C -2.752 -1.433 -2.924 -2.444 -2.199 -3.284 L 1.808 -7.944 C 2.567 -8.773 3.178 -8.166 2.673 -7.323 C 2.673 -7.323 1.077 -4.668 .32 -3.407 C .224 -3.246 .253 -2.971 .519 -2.887 C 1.55 -2.629 3.143 -2.236 3.143 -2.236 C 3.382 -2.172 3.545 -1.957 3.545 -1.714 C 3.545 -1.69 3.545 -1.669 3.543 -1.646 L 3.416 -.689 C 3.39 -.479 3.242 -.307 3.04 -.244 C 3.04 -.244 2.643 -.113 1.921 .082 C 1.195 .275 .61 .316 0 0 " fill="#01b49d"></path>
        <path xmlns="http://www.w3.org/2000/svg" transform="matrix(1,0,0,-1,555.21,196.05213)" d="M 0 0 C -.722 -.195 -1.119 -.326 -1.119 -.326 C -1.321 -.389 -1.469 -.561 -1.495 -.771 L -1.622 -1.728 C -1.624 -1.751 -1.624 -1.772 -1.624 -1.796 C -1.624 -2.039 -1.461 -2.254 -1.222 -2.318 C -1.222 -2.318 .37 -2.711 1.401 -2.969 C 1.668 -3.053 1.697 -3.328 1.601 -3.489 C .843 -4.75 -.752 -7.405 -.752 -7.405 C -1.257 -8.248 -.646 -8.855 .112 -8.026 L 4.119 -3.366 C 4.845 -2.526 4.673 -1.515 3.856 -1.11 C 3.856 -1.11 2.533 -.399 1.921 -.082 C 1.311 .234 .725 .193 0 0 " fill="#01b49d"></path>
      </g>
      <!-- standard -->
      <g>
        <path xmlns="http://www.w3.org/2000/svg" transform="matrix(1,0,0,-1,502.1855,240.73474)" d="M 0 0 C .622 2.229 .531 3.217 -1.853 3.217 C -4.238 3.217 -4.33 2.229 -3.707 0 C -3.264 -1.588 -3.446 -2.38 -3.872 -4.299 C -4.341 -6.417 -3.307 -7.998 -1.853 -7.998 C -.403 -7.998 .639 -6.417 .164 -4.299 C -.26 -2.38 -.441 -1.588 0 0 " fill="#01b49d"></path>
        <path xmlns="http://www.w3.org/2000/svg" transform="matrix(1,0,0,-1,501.7217,235.39783)" d="M 0 0 C -.189 -1.074 -.969 -1.837 -1.731 -1.699 C -2.501 -1.564 -2.972 -.582 -2.78 .492 C -2.591 1.566 -1.814 2.327 -1.046 2.193 C -.278 2.059 .189 1.076 0 0 " fill="#01b49d"></path>
        <path xmlns="http://www.w3.org/2000/svg" transform="matrix(1,0,0,-1,498.54,249.20545)" d="M 0 0 C 0 -1.225 .1 -2.825 .449 -5.477 C .473 -5.668 .514 -6.445 .508 -6.631 C .443 -9.673 .812 -12.167 .901 -12.652 C .994 -13.17 1.482 -13.273 1.482 -12.607 L 1.482 -.333 C 1.482 -.164 1.435 -.052 1.212 .043 C 1.051 .111 .648 .322 .54 .391 C .156 .631 0 .419 0 0 " fill="#01b49d"></path>
        <path xmlns="http://www.w3.org/2000/svg" transform="matrix(1,0,0,-1,502.126,249.20545)" d="M 0 0 C 0 -1.225 -.104 -2.825 -.446 -5.477 C -.473 -5.668 -.514 -6.445 -.511 -6.631 C -.446 -9.673 -.813 -12.167 -.904 -12.652 C -.999 -13.17 -1.482 -13.273 -1.482 -12.607 L -1.482 -.333 C -1.482 -.164 -1.438 -.052 -1.214 .043 C -1.053 .111 -.65 .322 -.54 .391 C -.159 .631 0 .419 0 0 " fill="#01b49d"></path>
        <path xmlns="http://www.w3.org/2000/svg" transform="matrix(1,0,0,-1,497.1777,238.26599)" d="M 0 0 C -.293 -.238 -.368 -.557 -.421 -1.235 C -.475 -1.916 -1.227 -9.739 -1.227 -9.739 C -1.332 -10.843 -.883 -10.923 -.72 -9.842 L .624 -.333 C .711 .118 .624 .518 0 0 " fill="#01b49d"></path>
        <path xmlns="http://www.w3.org/2000/svg" transform="matrix(1,0,0,-1,503.4873,238.26599)" d="M 0 0 C .29 -.238 .365 -.557 .416 -1.235 C .473 -1.916 1.225 -9.739 1.225 -9.739 C 1.332 -10.843 .881 -10.923 .72 -9.842 L -.629 -.333 C -.713 .118 -.626 .518 0 0 " fill="#01b49d"></path>
      </g>
      <!-- thin -->
      <g>
        <path xmlns="http://www.w3.org/2000/svg" transform="matrix(1,0,0,-1,449.04,284.2367)" d="M 0 0 C .255 2.165 .129 3.37 -.975 3.37 C -2.076 3.37 -2.202 2.165 -1.946 0 C -1.786 -1.38 -1.832 -2.438 -1.944 -3.588 C -2.224 -6.443 -1.374 -7.786 -.975 -7.786 C -.575 -7.786 .277 -6.443 0 -3.588 C -.113 -2.438 -.161 -1.38 0 0 " fill="#01b49d"></path>
        <path xmlns="http://www.w3.org/2000/svg" transform="matrix(1,0,0,-1,446.9375,292.07655)" d="M 0 0 C -.479 -4.839 -.317 -8.04 .165 -11.408 C .193 -11.628 .319 -12.199 .492 -12.24 C .703 -12.289 .631 -11.915 .602 -11.698 C .109 -8.016 .037 -3.992 .523 -.727 C .564 -.459 .582 -.243 .445 -.039 C .195 .339 .021 .22 0 0 " fill="#01b49d"></path>
        <path xmlns="http://www.w3.org/2000/svg" transform="matrix(1,0,0,-1,449.1982,292.07655)" d="M 0 0 C .479 -4.839 .314 -8.04 -.164 -11.408 C -.196 -11.628 -.322 -12.199 -.494 -12.24 C -.706 -12.289 -.634 -11.915 -.604 -11.698 C -.11 -8.016 -.04 -3.992 -.523 -.727 C -.566 -.459 -.585 -.243 -.448 -.039 C -.196 .339 -.021 .22 0 0 " fill="#01b49d"></path>
        <path xmlns="http://www.w3.org/2000/svg" transform="matrix(1,0,0,-1,445.9082,282.05024)" d="M 0 0 C -1.15 -2.648 -1.414 -5.366 -1.27 -8.368 C -1.259 -8.589 -1.176 -9.185 -1.053 -9.296 C -.832 -9.485 -.835 -8.809 -.846 -8.589 C -.986 -5.563 -.725 -2.941 .44 -.339 C .529 -.138 .862 .445 .786 .649 C .669 .952 .314 .72 0 0 " fill="#01b49d"></path>
        <path xmlns="http://www.w3.org/2000/svg" transform="matrix(1,0,0,-1,450.2246,282.05024)" d="M 0 0 C 1.151 -2.648 1.415 -5.366 1.272 -8.368 C 1.262 -8.589 1.176 -9.185 1.053 -9.296 C .833 -9.485 .838 -8.809 .849 -8.589 C .988 -5.563 .722 -2.941 -.438 -.339 C -.529 -.138 -.862 .445 -.782 .649 C -.666 .952 -.312 .72 0 0 " fill="#01b49d"></path>
        <path xmlns="http://www.w3.org/2000/svg" transform="matrix(1,0,0,-1,449.4561,278.74555)" d="M 0 0 C -.189 -1.076 -.966 -1.833 -1.734 -1.699 C -2.5 -1.564 -2.97 -.585 -2.779 .491 C -2.589 1.567 -1.813 2.326 -1.046 2.191 C -.278 2.061 .19 1.074 0 0 " fill="#01b49d"></path>
      </g>
      <!-- very muscular -->
      <g>
        <path xmlns="http://www.w3.org/2000/svg" transform="matrix(1,0,0,-1,549.6182,280.23963)" d="M 0 0 C 2.971 0 3.658 -.813 2.77 -3.869 C 2.415 -5.092 1.942 -6.176 2.38 -7.396 C 3.132 -9.501 3.024 -11.214 0 -11.214 C -3.021 -11.214 -3.128 -9.501 -2.376 -7.396 C -1.938 -6.176 -2.408 -5.092 -2.766 -3.869 C -3.652 -.813 -2.967 0 0 0 " fill="#00bdf2"></path>
        <path xmlns="http://www.w3.org/2000/svg" transform="matrix(1,0,0,-1,546.8447,292.0287)" d="M 0 0 C 0 -.932 .23 -3.261 1.004 -5.175 C 1.133 -5.512 1.101 -5.827 1.039 -6.029 C .899 -6.493 .818 -6.961 .818 -7.391 C .818 -9.875 1.796 -12.501 1.85 -12.651 C 2.017 -13.156 2.508 -13.42 2.508 -12.498 L 2.508 -.516 C 2.508 -.202 2.446 .143 2.024 .207 C 1.484 .282 .937 .473 .614 .658 C .346 .813 0 .832 0 0 " fill="#00bdf2"></path>
        <path xmlns="http://www.w3.org/2000/svg" transform="matrix(1,0,0,-1,551.3291,277.68)" d="M 0 0 C 0 -1.102 -.766 -1.995 -1.711 -1.995 C -2.656 -1.995 -3.419 -1.102 -3.419 0 C -3.419 1.102 -2.656 1.993 -1.711 1.993 C -.766 1.993 0 1.102 0 0 " fill="#00bdf2"></path>
        <path xmlns="http://www.w3.org/2000/svg" transform="matrix(1,0,0,-1,542.8291,276.92524)" d="M 0 0 L -1.042 -4.737 C -1.162 -5.224 -.849 -5.57 -.502 -5.57 L 2.89 -5.57 C 3.097 -5.572 3.285 -5.406 3.339 -5.172 L 3.473 -4.576 C 3.521 -4.337 3.436 -4.096 3.253 -3.975 C 3.253 -3.975 2.466 -3.435 2.229 -3.27 C 1.993 -3.107 1.642 -3.088 1.432 -3.186 C 1.266 -3.26 1.163 -3.31 .881 -3.435 C .701 -3.523 .653 -3.39 .669 -3.241 C .747 -2.237 .83 -1.146 .897 -.177 C .98 .895 .164 .944 0 0 " fill="#00bdf2"></path>
        <path xmlns="http://www.w3.org/2000/svg" transform="matrix(1,0,0,-1,551.7822,291.37055)" d="M 0 0 C -.322 -.186 -.87 -.376 -1.409 -.451 C -1.832 -.516 -1.893 -.86 -1.893 -1.174 L -1.893 -13.156 C -1.893 -14.078 -1.402 -13.814 -1.235 -13.31 C -1.182 -13.159 -.204 -10.533 -.204 -8.049 C -.204 -7.619 -.285 -7.151 -.425 -6.688 C -.485 -6.485 -.518 -6.17 -.389 -5.833 C .385 -3.919 .614 -1.59 .614 -.658 C .614 .174 .269 .155 0 0 " fill="#00bdf2"></path>
        <path xmlns="http://www.w3.org/2000/svg" transform="matrix(1,0,0,-1,555.5146,277.10194)" d="M 0 0 C .068 -.97 .15 -2.061 .229 -3.064 C .244 -3.213 .197 -3.347 .017 -3.258 C -.265 -3.133 -.368 -3.083 -.533 -3.009 C -.744 -2.911 -1.096 -2.931 -1.332 -3.093 C -1.568 -3.258 -2.355 -3.798 -2.355 -3.798 C -2.538 -3.919 -2.624 -4.16 -2.574 -4.399 L -2.441 -4.995 C -2.388 -5.229 -2.198 -5.396 -1.992 -5.394 L 1.4 -5.394 C 1.746 -5.394 2.06 -5.047 1.939 -4.561 L .897 .177 C .734 1.121 -.082 1.071 0 0 " fill="#00bdf2"></path>
      </g>
    </g>
  </g></svg>