<svg xmlns="http://www.w3.org/2000/svg" xmlns:xlink="http://www.w3.org/1999/xlink" version="1.1" viewBox="300.47 397.87 265.33 34.02">
  <!-- table -->
  <g>
    <path xmlns="http://www.w3.org/2000/svg" transform="matrix(1,0,0,-1,304.7246,397.8651)" d="M 0 0 C -2.339 0 -4.253 -1.913 -4.253 -4.252 L -4.253 -29.763 C -4.253 -32.102 -2.339 -34.016 0 -34.016 L 256.82 -34.016 C 259.159 -34.016 261.072 -32.102 261.072 -29.763 L 261.072 -4.252 C 261.072 -1.913 259.159 0 256.82 0 Z " fill="#81c452"></path>
    <path xmlns="http://www.w3.org/2000/svg" transform="matrix(1,0,0,-1,561.5449,398.99794)" d="M 0 0 L -135.191 0 L -135.191 -31.75 L 0 -31.75 C 1.719 -31.75 3.117 -30.35 3.117 -28.629 L 3.117 -3.117 C 3.117 -1.398 1.719 0 0 0 " fill="#ffffff"></path>
    <path xmlns="http://www.w3.org/2000/svg" transform="matrix(1,0,0,-1,301.6045,402.1151)" d="M 0 0 L 0 -25.512 C 0 -27.233 1.4 -28.633 3.118 -28.633 L 124.749 -28.633 L 124.749 3.117 L 3.118 3.117 C 1.4 3.117 0 1.719 0 0 " fill="#cee5ba"></path>
  </g>
  <!-- value box -->
  <g>
    <path xmlns="http://www.w3.org/2000/svg" transform="matrix(1,0,0,-1,394.1221,426.182)" d="M 0 0 C 13.723 -2.749 19.092 2.219 19.092 10.2 C 19.092 18.182 8.109 25.157 0 21.292 C -8.107 25.157 -19.09 18.182 -19.09 10.2 C -19.09 2.219 -13.719 -2.749 0 0 " fill="#ffdd00"></path>
    <path xmlns="http://www.w3.org/2000/svg" transform="matrix(1,0,0,-1,394.1221,426.182)" stroke-width="1.28" stroke-linecap="butt" stroke-miterlimit="4" stroke-linejoin="miter" fill="none" stroke="#f7941d" d="M 0 0 C 13.723 -2.749 19.092 2.219 19.092 10.2 C 19.092 18.182 8.109 25.157 0 21.292 C -8.107 25.157 -19.09 18.182 -19.09 10.2 C -19.09 2.219 -13.719 -2.749 0 0 Z "></path>
    <path xmlns="http://www.w3.org/2000/svg" transform="matrix(1,0,0,-1,390.1904,407.16783)" stroke-width="1.921" stroke-linecap="round" stroke-miterlimit="4" stroke-linejoin="miter" fill="none" stroke="#f49ac1" d="M 0 0 C -6.93 .07 -11.674 -5.086 -11.813 -8.85 "></path>
    <path xmlns="http://www.w3.org/2000/svg" transform="matrix(1,0,0,-1,398.0635,407.16783)" stroke-width="1.921" stroke-linecap="round" stroke-miterlimit="4" stroke-linejoin="miter" fill="none" stroke="#f49ac1" d="M 0 0 C 6.932 .07 11.676 -5.086 11.814 -8.85 "></path>
    <path xmlns="http://www.w3.org/2000/svg" transform="matrix(1,0,0,-1,406.667,416.92564)" d="M 0 0 C 0 -3.883 -4.252 -7.028 -12.541 -7.028 C -20.836 -7.028 -25.088 -3.883 -25.088 0 C -25.088 3.883 -20.836 7.027 -12.541 7.027 C -4.252 7.027 0 3.883 0 0 " fill="#ffffff"></path>
  </g>
  <!-- gauge -->
  <g>
    <!-- gauge bar -->
    <g>
      <path xmlns="http://www.w3.org/2000/svg" transform="matrix(1,0,0,-1,479.0947,429.25624)" stroke-width=".567" stroke-linecap="butt" stroke-miterlimit="4" stroke-linejoin="miter" fill="none" stroke="#58595b" d="M 0 0 L 0 7.889 "></path>
      <path xmlns="http://www.w3.org/2000/svg" transform="matrix(1,0,0,-1,511.9756,421.3514)" stroke-width=".567" stroke-linecap="butt" stroke-miterlimit="4" stroke-linejoin="miter" fill="none" stroke="#58595b" d="M 0 0 L 0 -7.911 "></path>
      <path xmlns="http://www.w3.org/2000/svg" transform="matrix(1,0,0,-1,430.2021,421.3172)" stroke-width=".567" stroke-linecap="butt" stroke-miterlimit="4" stroke-linejoin="miter" fill="none" stroke="#58595b" d="M 0 0 L 130.674 0 "></path>
      <path xmlns="http://www.w3.org/2000/svg" transform="matrix(1,0,0,-1,478.6748,418.4823)" d="M 0 0 C 0 -.471 -.381 -.851 -.852 -.851 L -47.623 -.851 C -48.092 -.851 -48.473 -.471 -48.473 0 C -48.473 .469 -48.092 .85 -47.623 .85 L -.852 .85 C -.381 .85 0 .469 0 0 " fill="#4fb848"></path>
      <path xmlns="http://www.w3.org/2000/svg" transform="matrix(1,0,0,-1,511.5547,418.4823)" d="M 0 0 C 0 -.471 -.38 -.851 -.851 -.851 L -31.181 -.851 C -31.65 -.851 -32.031 -.471 -32.031 0 C -32.031 .469 -31.65 .85 -31.181 .85 L -.851 .85 C -.38 .85 0 .469 0 0 " fill="#ffdd00"></path>
      <path xmlns="http://www.w3.org/2000/svg" transform="matrix(1,0,0,-1,560.877,418.4823)" d="M 0 0 C 0 -.471 -.381 -.851 -.851 -.851 L -47.622 -.851 C -48.093 -.851 -48.473 -.471 -48.473 0 C -48.473 .469 -48.093 .85 -47.622 .85 L -.851 .85 C -.381 .85 0 .469 0 0 " fill="#ed1c24"></path>
    </g>
    <!-- 13 -->
    <g>
      <path xmlns="http://www.w3.org/2000/svg" transform="matrix(1,0,0,-1,481.4629,404.45454)" d="M 0 0 L -.652 0 L -.652 2.314 L -1.461 2.314 L -1.461 2.859 C -1.006 2.844 -.592 3.022 -.52 3.567 L 0 3.567 Z " fill="#231f20"></path>
      <path xmlns="http://www.w3.org/2000/svg" transform="matrix(1,0,0,-1,483.2168,402.32954)" d="M 0 0 C .28 -.025 .685 .036 .685 .443 C .685 .75 .469 .917 .23 .917 C -.101 .917 -.271 .647 -.266 .28 L -.887 .28 C -.863 1.015 -.44 1.514 .226 1.514 C .74 1.514 1.305 1.162 1.305 .525 C 1.305 .184 1.153 -.107 .854 -.204 L .854 -.214 C 1.208 -.3 1.424 -.622 1.424 -1.024 C 1.424 -1.773 .854 -2.196 .23 -2.196 C -.491 -2.196 -.979 -1.717 -.965 -.897 L -.344 -.897 C -.33 -1.284 -.156 -1.6 .221 -1.6 C .515 -1.6 .744 -1.381 .744 -1.04 C .744 -.499 .317 -.509 0 -.509 Z " fill="#231f20"></path>
    </g>
    <!-- 18 -->
    <g>
      <path xmlns="http://www.w3.org/2000/svg" transform="matrix(1,0,0,-1,514.1631,404.453)" d="M 0 0 L -.651 0 L -.651 2.314 L -1.46 2.314 L -1.46 2.859 C -1.006 2.844 -.593 3.022 -.519 3.567 L 0 3.567 Z " fill="#231f20"></path>
      <path xmlns="http://www.w3.org/2000/svg" transform="matrix(1,0,0,-1,516.1514,402.3226)" d="M 0 0 C .271 0 .482 .163 .482 .469 C .482 .652 .404 .963 0 .963 C -.262 .963 -.491 .79 -.491 .469 C -.491 .163 -.262 0 0 0 M .005 -1.656 C .317 -1.656 .556 -1.412 .556 -1.055 C .556 -.713 .308 -.484 .005 -.484 C -.312 -.484 -.565 -.683 -.565 -1.05 C -.565 -1.417 -.308 -1.656 .005 -1.656 M 0 1.508 C .8 1.508 1.075 .897 1.075 .55 C 1.075 .199 .914 -.082 .606 -.199 L .606 -.209 C .992 -.306 1.208 -.632 1.208 -1.081 C 1.208 -1.835 .606 -2.202 .005 -2.202 C -.615 -2.202 -1.217 -1.855 -1.217 -1.085 C -1.217 -.632 -.991 -.311 -.61 -.209 L -.61 -.199 C -.923 -.102 -1.084 .184 -1.084 .535 C -1.084 1.177 -.523 1.508 0 1.508 " fill="#231f20"></path>
    </g>
    <!-- average -->
    <g>
      <path xmlns="http://www.w3.org/2000/svg" transform="matrix(1,0,0,-1,443.5684,426.50044)" d="M 0 0 L 1.18 0 L .605 1.855 L .594 1.855 Z M .096 3.102 L 1.123 3.102 L 2.826 -1.953 L 1.786 -1.953 L 1.441 -.828 L -.262 -.828 L -.619 -1.953 L -1.633 -1.953 Z " fill="#231f20"></path>
      <path xmlns="http://www.w3.org/2000/svg" transform="matrix(1,0,0,-1,448.4023,428.45353)" d="M 0 0 L -1.008 0 L -2.137 3.66 L -1.186 3.66 L -.49 1.16 L -.478 1.16 L .217 3.66 L 1.117 3.66 Z " fill="#231f20"></path>
      <path xmlns="http://www.w3.org/2000/svg" transform="matrix(1,0,0,-1,452.1152,426.2308)" d="M 0 0 C -.084 .51 -.281 .779 -.721 .779 C -1.309 .779 -1.455 .283 -1.474 0 Z M -1.474 -.637 C -1.448 -1.281 -1.174 -1.564 -.664 -1.564 C -.301 -1.564 -.007 -1.316 .051 -1.09 L .848 -1.09 C .593 -1.961 .051 -2.322 -.695 -2.322 C -1.735 -2.322 -2.379 -1.529 -2.379 -.396 C -2.379 .701 -1.697 1.536 -.695 1.536 C .427 1.536 .976 .488 .905 -.637 Z " fill="#231f20"></path>
      <path xmlns="http://www.w3.org/2000/svg" transform="matrix(1,0,0,-1,453.5557,424.7933)" d="M 0 0 L .861 0 L .861 -.68 L .874 -.68 C 1.046 -.22 1.474 .099 1.927 .099 C 1.997 .099 2.061 .085 2.124 .063 L 2.124 -.871 C 2.041 -.85 1.907 -.836 1.799 -.836 C 1.129 -.836 .905 -1.359 .905 -2.011 L .905 -3.66 L 0 -3.66 Z " fill="#231f20"></path>
      <path xmlns="http://www.w3.org/2000/svg" transform="matrix(1,0,0,-1,458.0898,426.6625)" d="M 0 0 C -.152 -.148 -.471 -.156 -.752 -.213 C -1.033 -.27 -1.287 -.383 -1.287 -.751 C -1.287 -1.119 -1.026 -1.218 -.732 -1.218 C -.025 -1.218 0 -.602 0 -.375 Z M -2.092 .743 C -2.041 1.678 -1.281 1.968 -.541 1.968 C .115 1.968 .906 1.805 .906 .928 L .906 -.978 C .906 -1.311 .938 -1.643 1.021 -1.791 L .104 -1.791 C .07 -1.678 .045 -1.558 .039 -1.438 C -.248 -1.771 -.662 -1.891 -1.07 -1.891 C -1.702 -1.891 -2.193 -1.544 -2.193 -.793 C -2.181 .871 .039 -.021 0 .8 C 0 1.225 -.268 1.295 -.586 1.295 C -.938 1.295 -1.154 1.14 -1.186 .743 Z " fill="#231f20"></path>
      <path xmlns="http://www.w3.org/2000/svg" transform="matrix(1,0,0,-1,462.0059,426.5775)" d="M 0 0 C 0 .595 -.185 1.126 -.771 1.126 C -1.281 1.126 -1.505 .63 -1.505 .085 C -1.505 -.439 -1.332 -1.013 -.771 -1.013 C -.254 -1.013 0 -.524 0 0 M .861 -1.643 C .861 -2.245 .664 -3.265 -.848 -3.265 C -1.498 -3.265 -2.251 -2.917 -2.303 -2.089 L -1.402 -2.089 C -1.32 -2.464 -1.052 -2.592 -.727 -2.592 C -.223 -2.592 .007 -2.216 0 -1.686 L 0 -1.204 L -.012 -1.204 C -.21 -1.593 -.6 -1.771 -1.001 -1.771 C -1.996 -1.771 -2.41 -.935 -2.41 .07 C -2.41 1.02 -1.913 1.883 -.994 1.883 C -.561 1.883 -.235 1.72 -.012 1.296 L 0 1.296 L 0 1.784 L .861 1.784 Z " fill="#231f20"></path>
      <path xmlns="http://www.w3.org/2000/svg" transform="matrix(1,0,0,-1,465.8145,426.2308)" d="M 0 0 C -.084 .51 -.281 .779 -.721 .779 C -1.309 .779 -1.455 .283 -1.474 0 Z M -1.474 -.637 C -1.448 -1.281 -1.174 -1.564 -.664 -1.564 C -.301 -1.564 -.007 -1.316 .051 -1.09 L .848 -1.09 C .593 -1.961 .051 -2.322 -.695 -2.322 C -1.735 -2.322 -2.379 -1.529 -2.379 -.396 C -2.379 .701 -1.697 1.536 -.695 1.536 C .427 1.536 .976 .488 .905 -.637 Z " fill="#231f20"></path>
    </g>
    <!-- high -->
    <g>
      <path xmlns="http://www.w3.org/2000/svg" transform="matrix(1,0,0,-1,489.1172,423.3988)" d="M 0 0 L 1.002 0 L 1.002 -1.939 L 2.845 -1.939 L 2.845 0 L 3.846 0 L 3.846 -5.055 L 2.845 -5.055 L 2.845 -2.875 L 1.002 -2.875 L 1.002 -5.055 L 0 -5.055 Z " fill="#231f20"></path>
      <path xmlns="http://www.w3.org/2000/svg" transform="matrix(1,0,0,-1,0,841.89)" d="M 493.773 417.097 L 494.67903 417.097 L 494.67903 413.43699 L 493.773 413.43699 Z M 494.68 417.663 L 493.774 417.663 L 493.774 418.491 L 494.68 418.491 Z " fill="#231f20"></path>
      <path xmlns="http://www.w3.org/2000/svg" transform="matrix(1,0,0,-1,497.7021,426.5775)" d="M 0 0 C 0 .595 -.185 1.126 -.772 1.126 C -1.282 1.126 -1.505 .63 -1.505 .085 C -1.505 -.439 -1.333 -1.013 -.772 -1.013 C -.255 -1.013 0 -.524 0 0 M .86 -1.643 C .86 -2.245 .663 -3.265 -.849 -3.265 C -1.499 -3.265 -2.251 -2.917 -2.303 -2.089 L -1.403 -2.089 C -1.32 -2.464 -1.052 -2.592 -.728 -2.592 C -.224 -2.592 .007 -2.216 0 -1.686 L 0 -1.204 L -.013 -1.204 C -.21 -1.593 -.6 -1.771 -1.001 -1.771 C -1.997 -1.771 -2.411 -.935 -2.411 .07 C -2.411 1.02 -1.913 1.883 -.995 1.883 C -.562 1.883 -.235 1.72 -.013 1.296 L 0 1.296 L 0 1.784 L .86 1.784 Z " fill="#231f20"></path>
      <path xmlns="http://www.w3.org/2000/svg" transform="matrix(1,0,0,-1,499.29,423.3988)" d="M 0 0 L .905 0 L .905 -1.904 L .925 -1.904 C 1.155 -1.486 1.55 -1.296 1.888 -1.296 C 2.851 -1.296 3.094 -1.897 3.094 -2.804 L 3.094 -5.055 L 2.188 -5.055 L 2.188 -2.988 C 2.188 -2.386 2.034 -2.089 1.607 -2.089 C 1.116 -2.089 .905 -2.393 .905 -3.137 L .905 -5.055 L 0 -5.055 Z " fill="#231f20"></path>
    </g>
    <!-- very high -->
    <g>
      <path xmlns="http://www.w3.org/2000/svg" transform="matrix(1,0,0,-1,524.46,428.45353)" d="M 0 0 L -1.129 0 L -2.608 5.055 L -1.575 5.055 L -.562 1.5 L -.548 1.5 L .479 5.055 L 1.512 5.055 Z " fill="#231f20"></path>
      <path xmlns="http://www.w3.org/2000/svg" transform="matrix(1,0,0,-1,528.1338,426.2308)" d="M 0 0 C -.083 .51 -.28 .779 -.721 .779 C -1.308 .779 -1.454 .283 -1.474 0 Z M -1.474 -.637 C -1.448 -1.281 -1.173 -1.564 -.663 -1.564 C -.3 -1.564 -.007 -1.316 .052 -1.09 L .849 -1.09 C .593 -1.961 .052 -2.322 -.695 -2.322 C -1.735 -2.322 -2.379 -1.529 -2.379 -.396 C -2.379 .701 -1.696 1.536 -.695 1.536 C .427 1.536 .976 .488 .905 -.637 Z " fill="#231f20"></path>
      <path xmlns="http://www.w3.org/2000/svg" transform="matrix(1,0,0,-1,529.5742,424.7933)" d="M 0 0 L .861 0 L .861 -.68 L .875 -.68 C 1.047 -.22 1.475 .099 1.927 .099 C 1.997 .099 2.061 .085 2.125 .063 L 2.125 -.871 C 2.041 -.85 1.908 -.836 1.799 -.836 C 1.129 -.836 .906 -1.359 .906 -2.011 L .906 -3.66 L 0 -3.66 Z " fill="#231f20"></path>
      <path xmlns="http://www.w3.org/2000/svg" transform="matrix(1,0,0,-1,534.1924,428.91444)" d="M 0 0 C -.198 -.588 -.517 -.828 -1.136 -.828 C -1.32 -.828 -1.505 -.814 -1.69 -.793 L -1.69 .035 C -1.519 .015 -1.339 -.007 -1.161 0 C -.925 .028 -.81 .234 -.81 .461 C -.81 .538 -.823 .616 -.849 .688 L -2.009 4.121 L -1.04 4.121 L -.294 1.614 L -.28 1.614 L .44 4.121 L 1.378 4.121 Z " fill="#231f20"></path>
      <path xmlns="http://www.w3.org/2000/svg" transform="matrix(1,0,0,-1,537.7441,423.3988)" d="M 0 0 L 1.002 0 L 1.002 -1.939 L 2.846 -1.939 L 2.846 0 L 3.847 0 L 3.847 -5.055 L 2.846 -5.055 L 2.846 -2.875 L 1.002 -2.875 L 1.002 -5.055 L 0 -5.055 Z " fill="#231f20"></path>
      <path xmlns="http://www.w3.org/2000/svg" transform="matrix(1,0,0,-1,0,841.89)" d="M 542.4 417.097 L 543.306 417.097 L 543.306 413.43699 L 542.4 413.43699 Z M 543.307 417.663 L 542.401 417.663 L 542.401 418.491 L 543.307 418.491 Z " fill="#231f20"></path>
      <path xmlns="http://www.w3.org/2000/svg" transform="matrix(1,0,0,-1,546.3301,426.5775)" d="M 0 0 C 0 .595 -.186 1.126 -.772 1.126 C -1.283 1.126 -1.506 .63 -1.506 .085 C -1.506 -.439 -1.334 -1.013 -.772 -1.013 C -.256 -1.013 0 -.524 0 0 M .86 -1.643 C .86 -2.245 .662 -3.265 -.849 -3.265 C -1.5 -3.265 -2.252 -2.917 -2.303 -2.089 L -1.404 -2.089 C -1.32 -2.464 -1.053 -2.592 -.728 -2.592 C -.224 -2.592 .006 -2.216 0 -1.686 L 0 -1.204 L -.014 -1.204 C -.211 -1.593 -.6 -1.771 -1.002 -1.771 C -1.997 -1.771 -2.412 -.935 -2.412 .07 C -2.412 1.02 -1.914 1.883 -.996 1.883 C -.563 1.883 -.236 1.72 -.014 1.296 L 0 1.296 L 0 1.784 L .86 1.784 Z " fill="#231f20"></path>
      <path xmlns="http://www.w3.org/2000/svg" transform="matrix(1,0,0,-1,547.918,423.3988)" d="M 0 0 L .905 0 L .905 -1.904 L .924 -1.904 C 1.154 -1.486 1.55 -1.296 1.888 -1.296 C 2.851 -1.296 3.094 -1.897 3.094 -2.804 L 3.094 -5.055 L 2.188 -5.055 L 2.188 -2.988 C 2.188 -2.386 2.034 -2.089 1.607 -2.089 C 1.115 -2.089 .905 -2.393 .905 -3.137 L .905 -5.055 L 0 -5.055 Z " fill="#231f20"></path>
    </g>
  </g>
  <!-- icon -->
  <g>
    <path xmlns="http://www.w3.org/2000/svg" transform="matrix(1,0,0,-1,322.7061,414.89784)" d="M 0 0 C 0 -4.695 -3.807 -8.504 -8.504 -8.504 C -13.201 -8.504 -17.008 -4.695 -17.008 0 C -17.008 4.697 -13.201 8.505 -8.504 8.505 C -3.807 8.505 0 4.697 0 0 " fill="#ffffff"></path>
    <path xmlns="http://www.w3.org/2000/svg" transform="matrix(1,0,0,-1,322.7061,414.89784)" stroke-width=".4" stroke-linecap="butt" stroke-miterlimit="4" stroke-linejoin="miter" fill="none" stroke="#231f20" d="M 0 0 C 0 -4.695 -3.807 -8.504 -8.504 -8.504 C -13.201 -8.504 -17.008 -4.695 -17.008 0 C -17.008 4.697 -13.201 8.505 -8.504 8.505 C -3.807 8.505 0 4.697 0 0 Z "></path>
    <path xmlns="http://www.w3.org/2000/svg" transform="matrix(1,0,0,-1,312.4541,409.51213)" d="M 0 0 C 0 .962 .78 1.742 1.744 1.742 C 2.705 1.742 3.486 .962 3.486 0 C 3.486 -.961 2.705 -1.741 1.744 -1.741 C .78 -1.741 0 -.961 0 0 " fill="#231f20"></path>
    <path xmlns="http://www.w3.org/2000/svg" transform="matrix(1,0,0,-1,320.9619,417.5765)" d="M 0 0 C -.271 .41 -3.271 4.926 -3.271 4.926 C -3.672 5.542 -4.368 5.951 -5.155 5.951 L -6.794 5.951 L -8.365 5.952 C -9.152 5.952 -9.85 5.543 -10.25 4.929 C -10.25 4.929 -13.25 .411 -13.519 .003 C -13.75 -.351 -13.652 -.823 -13.299 -1.055 C -12.946 -1.284 -12.483 -1.181 -12.252 -.829 C -12.021 -.477 -9.914 2.663 -9.57 3.188 L -9.501 3.188 C -9.888 2.641 -10.117 1.976 -10.117 1.257 C -10.117 .376 -9.774 -.423 -9.218 -1.022 L -9.218 -5.462 C -8.848 -5.573 -8.468 -5.661 -8.079 -5.722 C -7.938 -5.743 -7.795 -5.763 -7.652 -5.776 C -7.646 -5.778 -7.64 -5.779 -7.633 -5.779 C -7.459 -5.798 -7.284 -5.81 -7.108 -5.815 L -6.973 -5.815 L -6.973 -2.078 C -6.988 -2.089 -6.542 -2.089 -6.558 -2.078 L -6.558 -5.815 L -6.42 -5.815 C -6.09 -5.803 -5.765 -5.771 -5.442 -5.722 C -5.057 -5.662 -4.68 -5.574 -4.313 -5.465 L -4.313 -1.022 C -3.756 -.423 -3.412 .376 -3.412 1.257 C -3.412 1.976 -3.642 2.64 -4.027 3.186 L -3.951 3.186 C -3.608 2.66 -1.499 -.479 -1.27 -.831 C -1.122 -1.056 -.879 -1.181 -.631 -1.181 C -.49 -1.181 -.349 -1.141 -.223 -1.058 C .131 -.824 .229 -.353 0 0 " fill="#231f20"></path>
    <path xmlns="http://www.w3.org/2000/svg" transform="matrix(1,0,0,-1,312.1738,413.765)" d="M 0 0 C 0 0 -.461 -.104 -.869 -.752 C -1.245 -1.353 -1.571 -2.48 -1.571 -2.959 C -1.573 -3.936 -1.06 -4.939 -.197 -5.252 C .478 -5.494 .975 -5.346 1.413 -5.215 C 1.672 -5.137 1.896 -5.07 2.131 -5.094 C 2.347 -5.115 2.538 -5.174 2.743 -5.234 C 3.166 -5.361 3.646 -5.504 4.283 -5.246 C 5.117 -4.91 5.614 -3.979 5.646 -3.1 C 5.669 -2.491 5.338 -1.404 4.885 -.717 C 4.544 -.2 4.12 -.082 4.105 -.074 C 3.472 .22 2.806 -.219 2.072 -.219 C 1.288 -.219 .58 .207 0 0 " fill="#ffffff"></path>
    <path xmlns="http://www.w3.org/2000/svg" transform="matrix(1,0,0,-1,317.2891,416.4955)" stroke-width=".479" stroke-linecap="butt" stroke-miterlimit="4" stroke-linejoin="miter" fill="none" stroke="#231f20" d="M 0 0 C 0 -.804 -1.392 -1.455 -3.107 -1.455 C -4.824 -1.455 -6.216 -.804 -6.216 0 C -6.216 .803 -4.824 1.453 -3.107 1.453 C -1.392 1.453 0 .803 0 0 Z "></path>
    <path xmlns="http://www.w3.org/2000/svg" transform="matrix(1,0,0,-1,315.8809,416.4955)" d="M 0 0 C 0 -.353 -.761 -.639 -1.699 -.639 C -2.638 -.639 -3.399 -.353 -3.399 0 C -3.399 .352 -2.638 .637 -1.699 .637 C -.761 .637 0 .352 0 0 " fill="#231f20"></path>
  </g>
  <!-- text -->
  <g>
    <path xmlns="http://www.w3.org/2000/svg" transform="matrix(1,0,0,-1,329.2402,414.01353)" d="M 0 0 L -1.355 0 L -1.983 6.068 L -.781 6.068 L -.421 1.513 L -.405 1.513 L 1.67 6.068 L 2.919 6.068 Z " fill="#231f20"></path>
    <path xmlns="http://www.w3.org/2000/svg" transform="matrix(1,0,0,-1,333.4951,408.9393)" d="M 0 0 L -1.095 0 L -.896 .994 L .199 .994 Z M -1.218 -.68 L -.122 -.68 L -.965 -5.074 L -2.061 -5.074 Z " fill="#231f20"></path>
    <path xmlns="http://www.w3.org/2000/svg" transform="matrix(1,0,0,-1,336.2051,410.9027)" d="M 0 0 C -.008 .374 -.191 .595 -.612 .595 C -1.003 .595 -1.279 .476 -1.279 .161 C -1.279 -.034 -1.148 -.153 -.781 -.281 L -.237 -.476 C .345 -.68 .805 -1.003 .805 -1.734 C .805 -2.822 -.161 -3.23 -1.08 -3.23 C -1.854 -3.23 -2.766 -2.89 -2.766 -1.861 L -2.766 -1.683 L -1.754 -1.683 L -1.754 -1.828 C -1.754 -2.227 -1.348 -2.422 -.973 -2.422 C -.644 -2.422 -.283 -2.295 -.283 -1.896 C -.283 -1.589 -.437 -1.504 -.674 -1.411 L -1.509 -1.114 C -2.053 -.91 -2.367 -.688 -2.367 .008 C -2.367 1.045 -1.379 1.402 -.612 1.402 C .245 1.402 1.034 1.13 1.011 0 Z " fill="#231f20"></path>
    <path xmlns="http://www.w3.org/2000/svg" transform="matrix(1,0,0,-1,340.4834,411.14103)" d="M 0 0 C 0 .519 -.245 .731 -.728 .731 C -1.555 .731 -1.838 -.374 -1.838 -1.13 C -1.838 -1.648 -1.639 -2.082 -1.087 -2.082 C -.597 -2.082 -.329 -1.7 -.206 -1.266 L .881 -1.266 C .552 -2.363 -.13 -2.992 -1.164 -2.992 C -2.274 -2.992 -2.926 -2.396 -2.926 -1.104 C -2.926 .391 -2.114 1.641 -.689 1.641 C .276 1.641 1.065 1.165 1.088 0 Z " fill="#231f20"></path>
    <path xmlns="http://www.w3.org/2000/svg" transform="matrix(1,0,0,-1,344.793,411.3446)" d="M 0 0 C 0 .45 -.1 .935 -.735 .935 C -1.356 .935 -1.655 .501 -1.815 0 Z M -1.931 -.765 C -1.938 -.825 -1.938 -.867 -1.938 -.91 L -1.938 -1.02 C -1.938 -1.53 -1.655 -1.878 -1.065 -1.878 C -.628 -1.878 -.422 -1.556 -.253 -1.275 L .835 -1.275 C .49 -2.261 -.077 -2.788 -1.218 -2.788 C -2.283 -2.788 -2.98 -2.125 -2.98 -.867 C -2.98 .535 -2.146 1.844 -.797 1.844 C .306 1.844 1.049 1.198 1.049 -.077 C 1.049 -.306 1.026 -.536 .988 -.765 Z " fill="#231f20"></path>
    <path xmlns="http://www.w3.org/2000/svg" transform="matrix(1,0,0,-1,346.8652,409.6195)" d="M 0 0 L 1.033 0 L .873 -.791 L .888 -.808 C 1.133 -.195 1.669 .119 2.252 .119 C 2.358 .119 2.474 .11 2.589 .094 L 2.366 -1.08 C 2.213 -1.045 2.061 -1.003 1.907 -1.003 C 1.072 -1.003 .773 -1.7 .628 -2.448 L .26 -4.394 L -.828 -4.394 Z " fill="#231f20"></path>
    <path xmlns="http://www.w3.org/2000/svg" transform="matrix(1,0,0,-1,351.8643,411.9056)" d="M 0 0 C -.275 -.179 -.605 -.187 -.919 -.212 C -1.325 -.255 -1.724 -.383 -1.724 -.927 C -1.724 -1.258 -1.44 -1.419 -1.126 -1.419 C -.452 -1.419 -.229 -.901 -.107 -.425 Z M -2.298 .952 C -2.152 2.057 -1.317 2.405 -.422 2.405 C .283 2.405 1.248 2.235 1.226 1.249 C 1.226 1.054 1.195 .782 1.142 .51 L .789 -1.258 C .751 -1.419 .735 -1.683 .735 -1.853 C .735 -1.938 .751 -2.023 .773 -2.108 L -.314 -2.108 L -.314 -1.674 C -.613 -2.048 -1.072 -2.227 -1.524 -2.227 C -2.383 -2.227 -2.812 -1.683 -2.812 -1.071 C -2.812 -.221 -2.244 .297 -1.295 .425 C -.275 .561 .215 .493 .215 1.063 C .215 1.504 -.199 1.598 -.475 1.598 C -.865 1.598 -1.21 1.394 -1.279 .952 Z " fill="#231f20"></path>
    <path xmlns="http://www.w3.org/2000/svg" transform="matrix(1,0,0,-1,354.5723,407.94523)" d="M 0 0 L 1.088 0 L -.077 -6.068 L -1.165 -6.068 Z " fill="#231f20"></path>
    <path xmlns="http://www.w3.org/2000/svg" transform="matrix(1,0,0,-1,358.7354,407.94523)" d="M 0 0 L 3.892 0 L 3.669 -1.122 L .988 -1.122 L .72 -2.524 L 3.064 -2.524 L 2.865 -3.561 L .528 -3.561 L .046 -6.068 L -1.156 -6.068 Z " fill="#231f20"></path>
    <path xmlns="http://www.w3.org/2000/svg" transform="matrix(1,0,0,-1,364.9053,411.9056)" d="M 0 0 C -.275 -.179 -.604 -.187 -.919 -.212 C -1.325 -.255 -1.724 -.383 -1.724 -.927 C -1.724 -1.258 -1.439 -1.419 -1.126 -1.419 C -.452 -1.419 -.229 -.901 -.107 -.425 Z M -2.298 .952 C -2.152 2.057 -1.317 2.405 -.421 2.405 C .283 2.405 1.249 2.235 1.226 1.249 C 1.226 1.054 1.195 .782 1.142 .51 L .789 -1.258 C .751 -1.419 .735 -1.683 .735 -1.853 C .735 -1.938 .751 -2.023 .773 -2.108 L -.313 -2.108 L -.313 -1.674 C -.612 -2.048 -1.072 -2.227 -1.524 -2.227 C -2.382 -2.227 -2.811 -1.683 -2.811 -1.071 C -2.811 -.221 -2.244 .297 -1.294 .425 C -.275 .561 .215 .493 .215 1.063 C .215 1.504 -.199 1.598 -.475 1.598 C -.865 1.598 -1.21 1.394 -1.279 .952 Z " fill="#231f20"></path>
    <path xmlns="http://www.w3.org/2000/svg" transform="matrix(1,0,0,-1,368.6699,409.6195)" d="M 0 0 L .782 0 L .613 -.808 L -.16 -.808 L -.566 -2.992 C -.59 -3.085 -.597 -3.162 -.597 -3.196 C -.597 -3.51 -.391 -3.519 -.229 -3.519 C -.1 -3.519 .031 -3.51 .161 -3.493 L -.022 -4.428 C -.245 -4.454 -.467 -4.471 -.704 -4.471 C -1.21 -4.471 -1.762 -4.292 -1.738 -3.578 C -1.738 -3.468 -1.716 -3.323 -1.685 -3.162 L -1.24 -.808 L -1.953 -.808 L -1.784 0 L -1.087 0 L -.842 1.334 L .245 1.334 Z " fill="#231f20"></path>
    <path xmlns="http://www.w3.org/2000/svg" transform="matrix(1,0,0,-1,328.5127,419.1942)" d="M 0 0 L 1.11 0 C 1.754 0 2.352 .28 2.352 .96 C 2.352 1.615 1.931 1.708 1.463 1.708 L .322 1.708 Z M -.689 2.745 L 1.923 2.745 C 2.911 2.771 3.555 2.329 3.555 1.156 C 3.555 .332 3.033 -.366 2.298 -.476 L 2.298 -.493 C 2.75 -.655 2.865 -1.08 2.865 -1.564 C 2.865 -1.836 2.826 -2.244 2.826 -2.618 C 2.826 -2.89 2.842 -3.145 2.903 -3.324 L 1.731 -3.324 C 1.7 -3.179 1.678 -3.051 1.678 -2.916 C 1.678 -2.507 1.739 -2.091 1.739 -1.683 C 1.739 -1.097 1.417 -.952 .95 -.952 L -.184 -.952 L -.636 -3.324 L -1.838 -3.324 Z " fill="#231f20"></path>
    <path xmlns="http://www.w3.org/2000/svg" transform="matrix(1,0,0,-1,334.9883,420.40953)" d="M 0 0 C -.275 -.179 -.605 -.187 -.919 -.212 C -1.325 -.255 -1.724 -.383 -1.724 -.927 C -1.724 -1.258 -1.44 -1.419 -1.126 -1.419 C -.452 -1.419 -.229 -.901 -.107 -.425 Z M -2.298 .952 C -2.152 2.057 -1.317 2.405 -.421 2.405 C .283 2.405 1.249 2.235 1.226 1.249 C 1.226 1.054 1.195 .782 1.142 .51 L .789 -1.258 C .751 -1.419 .735 -1.683 .735 -1.853 C .735 -1.938 .751 -2.023 .773 -2.108 L -.314 -2.108 L -.314 -1.675 C -.612 -2.049 -1.072 -2.227 -1.524 -2.227 C -2.382 -2.227 -2.812 -1.683 -2.812 -1.071 C -2.812 -.221 -2.244 .297 -1.295 .425 C -.275 .561 .215 .493 .215 1.062 C .215 1.504 -.199 1.598 -.475 1.598 C -.865 1.598 -1.21 1.394 -1.279 .952 Z " fill="#231f20"></path>
    <path xmlns="http://www.w3.org/2000/svg" transform="matrix(1,0,0,-1,338.7529,418.1234)" d="M 0 0 L .781 0 L .613 -.808 L -.16 -.808 L -.566 -2.992 C -.59 -3.085 -.597 -3.162 -.597 -3.196 C -.597 -3.51 -.391 -3.519 -.229 -3.519 C -.1 -3.519 .031 -3.51 .161 -3.493 L -.022 -4.428 C -.245 -4.453 -.467 -4.471 -.704 -4.471 C -1.21 -4.471 -1.762 -4.292 -1.738 -3.578 C -1.738 -3.468 -1.716 -3.323 -1.685 -3.162 L -1.24 -.808 L -1.953 -.808 L -1.784 0 L -1.087 0 L -.842 1.334 L .245 1.334 Z " fill="#231f20"></path>
    <path xmlns="http://www.w3.org/2000/svg" transform="matrix(1,0,0,-1,341.4238,417.44374)" d="M 0 0 L -1.095 0 L -.896 .995 L .199 .995 Z M -1.218 -.68 L -.122 -.68 L -.965 -5.074 L -2.061 -5.074 Z " fill="#231f20"></path>
    <path xmlns="http://www.w3.org/2000/svg" transform="matrix(1,0,0,-1,342.1729,418.1234)" d="M 0 0 L 1.042 0 L .92 -.612 L .935 -.612 C 1.287 -.127 1.747 .119 2.321 .119 C 3.079 .119 3.478 -.289 3.478 -1.063 C 3.478 -1.25 3.386 -1.666 3.363 -1.819 L 2.873 -4.395 L 1.785 -4.395 L 2.268 -1.819 C 2.291 -1.683 2.337 -1.402 2.337 -1.283 C 2.337 -1.02 2.068 -.833 1.815 -.833 C 1.157 -.833 .827 -1.445 .705 -2.057 L .261 -4.395 L -.827 -4.395 Z " fill="#231f20"></path>
    <path xmlns="http://www.w3.org/2000/svg" transform="matrix(1,0,0,-1,348.4424,418.9139)" d="M 0 0 C -.728 0 -1.11 -.952 -1.11 -1.657 C -1.11 -2.176 -.889 -2.626 -.375 -2.626 C .398 -2.626 .781 -1.7 .781 -.952 C .781 -.399 .528 0 0 0 M 1.402 -3.375 C 1.142 -4.7 .521 -5.269 -.781 -5.269 C -1.578 -5.269 -2.474 -4.887 -2.474 -3.833 L -1.386 -3.833 C -1.409 -4.284 -1.019 -4.462 -.674 -4.462 C .023 -4.462 .207 -3.791 .429 -2.932 L .414 -2.915 C .131 -3.332 -.229 -3.536 -.674 -3.536 C -1.616 -3.536 -2.198 -2.822 -2.198 -1.742 C -2.198 -.459 -1.463 .91 -.199 .91 C .353 .91 .789 .697 1.012 .119 L 1.026 .119 L 1.149 .791 L 2.191 .791 Z " fill="#231f20"></path>
  </g>
</svg>