<svg
  xmlns="http://www.w3.org/2000/svg"
  xmlns:xlink="http://www.w3.org/1999/xlink"
  version="1.1"
  viewBox="300.47 361.01 265.33 34.02"
  height="60"
>
  <!-- table -->
  <g>
    <path xmlns="http://www.w3.org/2000/svg" transform="matrix(1,0,0,-1,304.7246,361.01454)" d="M 0 0 C -2.339 0 -4.253 -1.913 -4.253 -4.252 L -4.253 -29.763 C -4.253 -32.102 -2.339 -34.015 0 -34.015 L 256.821 -34.015 C 259.159 -34.015 261.073 -32.102 261.073 -29.763 L 261.073 -4.252 C 261.073 -1.913 259.159 0 256.821 0 Z " fill="#81c452"></path>
    <path xmlns="http://www.w3.org/2000/svg" transform="matrix(1,0,0,-1,301.6045,365.26744)" d="M 0 0 L 0 -25.512 C 0 -27.23 1.4 -28.629 3.118 -28.629 L 124.749 -28.629 L 124.749 3.12 L 3.118 3.12 C 1.4 3.12 0 1.721 0 0 " fill="#cee5ba"></path>
    <path xmlns="http://www.w3.org/2000/svg" transform="matrix(1,0,0,-1,561.5459,362.1473)" d="M 0 0 L -135.192 0 L -135.192 -31.749 L 0 -31.749 C 1.719 -31.749 3.117 -30.351 3.117 -28.632 L 3.117 -3.12 C 3.117 -1.399 1.719 0 0 0 " fill="#ffffff"></path>
    <path xmlns="http://www.w3.org/2000/svg" transform="matrix(1,0,0,-1,422.7842,375.8749)" d="M 0 0 C 0 -.779 -.637 -1.417 -1.417 -1.417 L -55.274 -1.417 C -56.055 -1.417 -56.691 -.779 -56.691 0 L -56.691 9.922 C -56.691 10.701 -56.055 11.339 -55.274 11.339 L -1.417 11.339 C -.637 11.339 0 10.701 0 9.922 Z " fill="#ffffff"></path>
    <path xmlns="http://www.w3.org/2000/svg" transform="matrix(1,0,0,-1,422.7842,390.04774)" d="M 0 0 C 0 -.78 -.637 -1.417 -1.417 -1.417 L -55.274 -1.417 C -56.055 -1.417 -56.691 -.78 -56.691 0 L -56.691 9.921 C -56.691 10.7 -56.055 11.339 -55.274 11.339 L -1.417 11.339 C -.637 11.339 0 10.7 0 9.921 Z " fill="#ffffff"></path>
  </g>
  <!-- gauge -->
  <g>
    <!-- gauge bar -->
    <g>
      <path xmlns="http://www.w3.org/2000/svg" transform="matrix(1,0,0,-1,430.2021,382.4081)" stroke-width=".567" stroke-linecap="butt" stroke-miterlimit="4" stroke-linejoin="miter" fill="none" stroke="#58595b" d="M 0 0 L 130.674 0 "></path>
      <path xmlns="http://www.w3.org/2000/svg" transform="matrix(1,0,0,-1,479.0947,390.3475)" stroke-width=".567" stroke-linecap="butt" stroke-miterlimit="4" stroke-linejoin="miter" fill="none" stroke="#58595b" d="M 0 0 L 0 7.889 "></path>
      <path xmlns="http://www.w3.org/2000/svg" transform="matrix(1,0,0,-1,511.9756,382.4432)" stroke-width=".567" stroke-linecap="butt" stroke-miterlimit="4" stroke-linejoin="miter" fill="none" stroke="#58595b" d="M 0 0 L 0 -7.91 "></path>
      <path xmlns="http://www.w3.org/2000/svg" transform="matrix(1,0,0,-1,478.6748,379.57414)" d="M 0 0 C 0 -.469 -.381 -.85 -.852 -.85 L -47.623 -.85 C -48.092 -.85 -48.473 -.469 -48.473 0 C -48.473 .471 -48.092 .852 -47.623 .852 L -.852 .852 C -.381 .852 0 .471 0 0 " fill="#00b3f0"></path>
      <path xmlns="http://www.w3.org/2000/svg" transform="matrix(1,0,0,-1,511.5547,379.57414)" d="M 0 0 C 0 -.47 -.381 -.85 -.851 -.85 L -31.181 -.85 C -31.651 -.85 -32.031 -.47 -32.031 0 C -32.031 .47 -31.651 .851 -31.181 .851 L -.851 .851 C -.381 .851 0 .47 0 0 " fill="#4fb848"></path>
      <path xmlns="http://www.w3.org/2000/svg" transform="matrix(1,0,0,-1,560.8779,379.57414)" d="M 0 0 C 0 -.469 -.381 -.85 -.852 -.85 L -47.623 -.85 C -48.094 -.85 -48.474 -.469 -48.474 0 C -48.474 .471 -48.094 .852 -47.623 .852 L -.852 .852 C -.381 .852 0 .471 0 0 " fill="#ed0180"></path>
    </g>
    <!-- under -->
    <g>
      <path xmlns="http://www.w3.org/2000/svg" transform="matrix(1,0,0,-1,449.4775,388.41444)" d="M 0 0 C 0 -1.366 -.728 -2.032 -1.945 -2.032 C -3.177 -2.032 -3.884 -1.381 -3.884 0 L -3.884 3.144 L -2.883 3.144 L -2.883 0 C -2.883 -.552 -2.755 -1.098 -1.945 -1.098 C -1.231 -1.098 -1.001 -.758 -1.001 0 L -1.001 3.144 L 0 3.144 Z " fill="#231f20"></path>
      <path xmlns="http://www.w3.org/2000/svg" transform="matrix(1,0,0,-1,450.2422,386.6654)" d="M 0 0 L .861 0 L .861 -.51 L .881 -.51 C 1.11 -.092 1.506 .099 1.889 .099 C 2.852 .099 3.094 -.503 3.094 -1.409 L 3.094 -3.661 L 2.188 -3.661 L 2.188 -1.593 C 2.188 -.991 2.035 -.694 1.607 -.694 C 1.117 -.694 .906 -.999 .906 -1.742 L .906 -3.661 L 0 -3.661 Z " fill="#231f20"></path>
      <path xmlns="http://www.w3.org/2000/svg" transform="matrix(1,0,0,-1,455.5879,387.32414)" d="M 0 0 C -.594 0 -.797 -.574 -.797 -1.168 C -.797 -1.742 -.562 -2.343 0 -2.343 C .594 -2.343 .777 -1.763 .777 -1.161 C .777 -.566 .586 0 0 0 M .791 -2.535 L .777 -2.535 C .567 -2.931 .204 -3.101 -.223 -3.101 C -1.219 -3.101 -1.703 -2.16 -1.703 -1.14 C -1.703 -.156 -1.212 .757 -.242 .757 C .146 .757 .529 .574 .733 .212 L .746 .212 L .746 2.053 L 1.652 2.053 L 1.652 -3.002 L .791 -3.002 Z " fill="#231f20"></path>
      <path xmlns="http://www.w3.org/2000/svg" transform="matrix(1,0,0,-1,460.1416,388.1029)" d="M 0 0 C -.083 .51 -.28 .779 -.721 .779 C -1.308 .779 -1.454 .283 -1.474 0 Z M -1.474 -.637 C -1.448 -1.281 -1.173 -1.564 -.663 -1.564 C -.3 -1.564 -.007 -1.317 .052 -1.09 L .849 -1.09 C .593 -1.961 .052 -2.322 -.695 -2.322 C -1.735 -2.322 -2.379 -1.529 -2.379 -.396 C -2.379 .701 -1.696 1.536 -.695 1.536 C .427 1.536 .976 .488 .905 -.637 Z " fill="#231f20"></path>
      <path xmlns="http://www.w3.org/2000/svg" transform="matrix(1,0,0,-1,461.582,386.6654)" d="M 0 0 L .861 0 L .861 -.68 L .875 -.68 C 1.047 -.22 1.475 .099 1.927 .099 C 1.997 .099 2.061 .085 2.125 .063 L 2.125 -.871 C 2.041 -.85 1.908 -.836 1.799 -.836 C 1.129 -.836 .906 -1.359 .906 -2.011 L .906 -3.661 L 0 -3.661 Z " fill="#231f20"></path>
    </g>
    <!-- normal -->
    <g>
      <path xmlns="http://www.w3.org/2000/svg" transform="matrix(1,0,0,-1,485.0488,385.2709)" d="M 0 0 L .994 0 L 2.896 -3.392 L 2.908 -3.392 L 2.908 0 L 3.846 0 L 3.846 -5.055 L 2.844 -5.055 L .95 -1.671 L .938 -1.671 L .938 -5.055 L 0 -5.055 Z " fill="#231f20"></path>
      <path xmlns="http://www.w3.org/2000/svg" transform="matrix(1,0,0,-1,491.2793,389.66734)" d="M 0 0 C .619 0 .805 .58 .805 1.168 C .805 1.756 .619 2.343 0 2.343 C -.611 2.343 -.797 1.756 -.797 1.168 C -.797 .58 -.611 0 0 0 M 0 3.101 C 1.04 3.101 1.71 2.336 1.71 1.168 C 1.71 .007 1.04 -.758 0 -.758 C -1.033 -.758 -1.703 .007 -1.703 1.168 C -1.703 2.336 -1.033 3.101 0 3.101 " fill="#231f20"></path>
      <path xmlns="http://www.w3.org/2000/svg" transform="matrix(1,0,0,-1,493.5762,386.6654)" d="M 0 0 L .861 0 L .861 -.68 L .873 -.68 C 1.046 -.22 1.473 .099 1.926 .099 C 1.996 .099 2.061 .085 2.123 .063 L 2.123 -.871 C 2.041 -.85 1.906 -.836 1.799 -.836 C 1.129 -.836 .905 -1.359 .905 -2.011 L .905 -3.661 L 0 -3.661 Z " fill="#231f20"></path>
      <path xmlns="http://www.w3.org/2000/svg" transform="matrix(1,0,0,-1,496.082,386.6654)" d="M 0 0 L .855 0 L .855 -.496 L .867 -.496 C 1.104 -.121 1.441 .099 1.875 .099 C 2.29 .099 2.66 -.064 2.838 -.51 C 3.036 -.191 3.375 .099 3.834 .099 C 4.535 .099 5.039 -.262 5.039 -1.211 L 5.039 -3.661 L 4.133 -3.661 L 4.133 -1.586 C 4.133 -1.098 4.096 -.694 3.578 -.694 C 3.068 -.694 2.973 -1.168 2.973 -1.622 L 2.973 -3.661 L 2.066 -3.661 L 2.066 -1.607 C 2.066 -1.183 2.092 -.694 1.518 -.694 C 1.34 -.694 .906 -.821 .906 -1.537 L .906 -3.661 L 0 -3.661 Z " fill="#231f20"></path>
      <path xmlns="http://www.w3.org/2000/svg" transform="matrix(1,0,0,-1,503.8887,388.53453)" d="M 0 0 C -.152 -.149 -.472 -.156 -.752 -.213 C -1.033 -.27 -1.288 -.383 -1.288 -.751 C -1.288 -1.119 -1.027 -1.218 -.733 -1.218 C -.025 -1.218 0 -.602 0 -.375 Z M -2.092 .743 C -2.041 1.678 -1.281 1.968 -.542 1.968 C .115 1.968 .906 1.805 .906 .927 L .906 -.978 C .906 -1.31 .938 -1.643 1.021 -1.792 L .102 -1.792 C .07 -1.678 .045 -1.558 .039 -1.438 C -.248 -1.771 -.663 -1.891 -1.071 -1.891 C -1.703 -1.891 -2.193 -1.544 -2.193 -.793 C -2.182 .871 .039 -.021 0 .8 C 0 1.225 -.268 1.295 -.586 1.295 C -.938 1.295 -1.154 1.14 -1.186 .743 Z " fill="#231f20"></path>
      <path xmlns="http://www.w3.org/2000/svg" transform="matrix(1,0,0,-1,0,841.89)" d="M 505.521 456.619 L 506.427 456.619 L 506.427 451.564 L 505.521 451.564 Z " fill="#231f20"></path>
    </g>
    <!-- more -->
    <g>
      <path xmlns="http://www.w3.org/2000/svg" transform="matrix(1,0,0,-1,529.0869,385.2709)" d="M 0 0 L 1.409 0 L 2.476 -3.477 L 2.487 -3.477 L 3.495 0 L 4.905 0 L 4.905 -5.055 L 3.968 -5.055 L 3.968 -1.473 L 3.954 -1.473 L 2.839 -5.055 L 2.067 -5.055 L .95 -1.508 L .938 -1.508 L .938 -5.055 L 0 -5.055 Z " fill="#231f20"></path>
      <path xmlns="http://www.w3.org/2000/svg" transform="matrix(1,0,0,-1,536.377,389.66734)" d="M 0 0 C .619 0 .804 .58 .804 1.168 C .804 1.756 .619 2.343 0 2.343 C -.612 2.343 -.797 1.756 -.797 1.168 C -.797 .58 -.612 0 0 0 M 0 3.101 C 1.039 3.101 1.709 2.336 1.709 1.168 C 1.709 .007 1.039 -.758 0 -.758 C -1.033 -.758 -1.703 .007 -1.703 1.168 C -1.703 2.336 -1.033 3.101 0 3.101 " fill="#231f20"></path>
      <path xmlns="http://www.w3.org/2000/svg" transform="matrix(1,0,0,-1,538.6729,386.6654)" d="M 0 0 L .861 0 L .861 -.68 L .874 -.68 C 1.046 -.22 1.474 .099 1.927 .099 C 1.997 .099 2.061 .085 2.124 .063 L 2.124 -.871 C 2.041 -.85 1.907 -.836 1.799 -.836 C 1.129 -.836 .905 -1.359 .905 -2.011 L .905 -3.661 L 0 -3.661 Z " fill="#231f20"></path>
      <path xmlns="http://www.w3.org/2000/svg" transform="matrix(1,0,0,-1,543.5137,388.1029)" d="M 0 0 C -.083 .51 -.281 .779 -.721 .779 C -1.308 .779 -1.454 .283 -1.473 0 Z M -1.473 -.637 C -1.447 -1.281 -1.174 -1.564 -.663 -1.564 C -.3 -1.564 -.006 -1.317 .051 -1.09 L .848 -1.09 C .594 -1.961 .051 -2.322 -.695 -2.322 C -1.734 -2.322 -2.379 -1.529 -2.379 -.396 C -2.379 .701 -1.697 1.536 -.695 1.536 C .428 1.536 .977 .488 .906 -.637 Z " fill="#231f20"></path>
    </g>
  </g>
  <!-- icon -->
  <g>
    <path xmlns="http://www.w3.org/2000/svg" transform="matrix(1,0,0,-1,322.7061,378.0472)" d="M 0 0 C 0 -4.698 -3.809 -8.505 -8.504 -8.505 C -13.201 -8.505 -17.009 -4.698 -17.009 0 C -17.009 4.695 -13.201 8.503 -8.504 8.503 C -3.809 8.503 0 4.695 0 0 " fill="#ffffff"></path>
    <path xmlns="http://www.w3.org/2000/svg" transform="matrix(1,0,0,-1,322.7061,378.0472)" stroke-width=".4" stroke-linecap="butt" stroke-miterlimit="4" stroke-linejoin="miter" fill="none" stroke="#231f20" d="M 0 0 C 0 -4.698 -3.809 -8.505 -8.504 -8.505 C -13.201 -8.505 -17.009 -4.698 -17.009 0 C -17.009 4.695 -13.201 8.503 -8.504 8.503 C -3.809 8.503 0 4.695 0 0 Z "></path>
    <path xmlns="http://www.w3.org/2000/svg" transform="matrix(1,0,0,-1,316.5098,374.7528)" d="M 0 0 L -4.614 0 C -5.847 0 -6.857 -.999 -6.857 -2.231 L -6.857 -7.632 C -6.857 -8.054 -6.452 -8.396 -6.031 -8.396 C -5.61 -8.396 -5.195 -8.054 -5.195 -7.632 L -5.195 -2.764 L -4.942 -2.764 L -4.942 -11.357 C -4.649 -11.452 -4.351 -11.532 -4.045 -11.596 C -4.026 -11.6 -4.007 -11.604 -3.988 -11.608 C -3.895 -11.627 -3.798 -11.644 -3.701 -11.659 C -3.672 -11.664 -3.644 -11.67 -3.613 -11.674 C -3.288 -11.721 -2.888 -11.752 -2.569 -11.766 L -2.511 -11.766 L -2.511 -8.58 L -2.105 -8.58 L -2.105 -11.766 C -1.728 -11.752 -1.324 -11.721 -.998 -11.674 C -.966 -11.668 -.934 -11.663 -.9 -11.656 C -.813 -11.642 -.724 -11.627 -.637 -11.609 C -.612 -11.605 -.587 -11.6 -.563 -11.595 C -.26 -11.531 .036 -11.451 .328 -11.356 L .328 -2.764 L .581 -2.764 L .581 -7.632 C .581 -8.054 .994 -8.396 1.416 -8.396 C 1.838 -8.396 2.241 -8.054 2.241 -7.632 L 2.241 -2.231 C 2.241 -.999 1.233 0 0 0 " fill="#231f20"></path>
    <path xmlns="http://www.w3.org/2000/svg" transform="matrix(1,0,0,-1,314.1797,374.3788)" d="M 0 0 C .963 0 1.743 .78 1.743 1.742 C 1.743 2.705 .963 3.484 0 3.484 C -.963 3.484 -1.743 2.705 -1.743 1.742 C -1.743 .78 -.963 0 0 0 " fill="#231f20"></path>
    <path xmlns="http://www.w3.org/2000/svg" transform="matrix(1,0,0,-1,0,841.89)" d="M 312.842 465.252 L 315.562 465.252 L 315.562 458.919 L 312.842 458.919 Z " fill="#ffffff"></path>
    <path xmlns="http://www.w3.org/2000/svg" transform="matrix(1,0,0,-1,0,841.89)" d="M 313.525 466.236 L 314.878 466.236 L 314.878 465.45899 L 313.525 465.45899 Z " fill="#ffffff"></path>
    <path xmlns="http://www.w3.org/2000/svg" transform="matrix(1,0,0,-1,0,841.89)" d="M 313.315 460.317 L 315.087 460.317 L 315.087 459.875 L 313.315 459.875 Z " fill="#231f20"></path>
    <path xmlns="http://www.w3.org/2000/svg" transform="matrix(1,0,0,-1,315.0879,378.1195)" d="M 0 0 L -.665 0 L -.665 .666 L -1.107 .666 L -1.107 0 L -1.772 0 L -1.772 -.444 L -1.107 -.444 L -1.107 -1.107 L -.665 -1.107 L -.665 -.444 L 0 -.444 Z " fill="#231f20"></path>
  </g>
  <!-- text -->
  <g>
    <path xmlns="http://www.w3.org/2000/svg" transform="matrix(1,0,0,-1,328.5391,377.96473)" d="M 0 0 L 1.363 0 C 1.8 0 2.176 .263 2.176 .799 C 2.176 1.266 1.931 1.419 1.54 1.419 L .268 1.419 Z M -.49 -2.575 L 1.019 -2.575 C 1.57 -2.575 1.961 -2.244 1.961 -1.598 C 1.961 -.96 1.44 -.91 1.011 -.91 L -.169 -.91 Z M -.697 2.456 L 1.601 2.456 C 2.704 2.456 3.378 2.192 3.378 1.037 C 3.378 .348 2.995 -.281 2.352 -.374 L 2.352 -.391 C 2.872 -.553 3.163 -1.037 3.163 -1.624 C 3.163 -2.941 2.168 -3.612 1.072 -3.612 L -1.846 -3.612 Z " fill="#231f20"></path>
    <path xmlns="http://www.w3.org/2000/svg" transform="matrix(1,0,0,-1,333.375,375.50874)" d="M 0 0 L 1.662 0 L 2.084 -4.394 L 2.1 -4.394 L 4.206 0 L 5.883 0 L 4.727 -6.068 L 3.601 -6.068 L 4.597 -1.241 L 4.581 -1.241 L 2.268 -6.068 L 1.349 -6.068 L .82 -1.241 L .805 -1.241 L -.015 -6.068 L -1.156 -6.068 Z " fill="#231f20"></path>
    <path xmlns="http://www.w3.org/2000/svg" transform="matrix(1,0,0,-1,340.999,378.2538)" d="M 0 0 L 1.11 0 C 1.754 0 2.352 .28 2.352 .96 C 2.352 1.615 1.93 1.708 1.463 1.708 L .321 1.708 Z M -.689 2.745 L 1.923 2.745 C 2.91 2.771 3.554 2.329 3.554 1.156 C 3.554 .332 3.033 -.366 2.298 -.476 L 2.298 -.493 C 2.75 -.654 2.864 -1.08 2.864 -1.564 C 2.864 -1.836 2.826 -2.244 2.826 -2.618 C 2.826 -2.89 2.842 -3.145 2.903 -3.323 L 1.73 -3.323 C 1.7 -3.179 1.678 -3.051 1.678 -2.916 C 1.678 -2.507 1.738 -2.091 1.738 -1.683 C 1.738 -1.097 1.417 -.952 .949 -.952 L -.184 -.952 L -.636 -3.323 L -1.839 -3.323 Z " fill="#231f20"></path>
  </g>
  <!-- unit -->
  <g>
    <!-- unit kj -->
    <g>
      <path xmlns="http://www.w3.org/2000/svg" transform="matrix(1,0,0,-1,413.1777,368.4818)" d="M 0 0 L 1.117 0 L 1.117 -3.413 L 2.527 -1.756 L 3.85 -1.756 L 2.314 -3.449 L 4.023 -6.363 L 2.669 -6.363 L 1.551 -4.304 L 1.117 -4.776 L 1.117 -6.363 L 0 -6.363 Z " fill="#808285"></path>
      <path xmlns="http://www.w3.org/2000/svg" transform="matrix(1,0,0,-1,421,372.83973)" d="M 0 0 C 0 -.82 -.197 -2.156 -1.875 -2.156 C -2.812 -2.156 -3.725 -1.577 -3.725 -.187 L -3.725 .366 L -2.607 .366 L -2.607 .081 C -2.607 -.535 -2.473 -.98 -1.891 -.98 C -1.236 -.98 -1.236 -.392 -1.236 .063 L -1.236 4.358 L 0 4.358 Z " fill="#808285"></path>
    </g>
    <!-- unit kcal -->
    <g>
      <path xmlns="http://www.w3.org/2000/svg" transform="matrix(1,0,0,-1,406.4863,382.7377)" d="M 0 0 L 1.118 0 L 1.118 -3.413 L 2.527 -1.756 L 3.85 -1.756 L 2.314 -3.449 L 4.023 -6.363 L 2.669 -6.363 L 1.551 -4.304 L 1.118 -4.776 L 1.118 -6.363 L 0 -6.363 Z " fill="#808285"></path>
      <path xmlns="http://www.w3.org/2000/svg" transform="matrix(1,0,0,-1,413.6699,386.1151)" d="M 0 0 C -.07 .526 -.346 .793 -.826 .793 C -1.543 .793 -1.779 -.027 -1.779 -.704 C -1.779 -1.373 -1.551 -2.157 -.85 -2.157 C -.322 -2.157 -.031 -1.792 .04 -1.221 L 1.118 -1.221 C .969 -2.442 .236 -3.11 -.842 -3.11 C -2.07 -3.11 -2.897 -2.13 -2.897 -.749 C -2.897 .686 -2.142 1.747 -.818 1.747 C .142 1.747 1.032 1.176 1.095 0 Z " fill="#808285"></path>
      <path xmlns="http://www.w3.org/2000/svg" transform="matrix(1,0,0,-1,417.9492,386.8461)" d="M 0 0 C -.189 -.187 -.583 -.196 -.929 -.267 C -1.275 -.338 -1.591 -.481 -1.591 -.944 C -1.591 -1.408 -1.268 -1.533 -.905 -1.533 C -.031 -1.533 0 -.757 0 -.472 Z M -2.583 .936 C -2.52 2.112 -1.583 2.478 -.669 2.478 C .142 2.478 1.118 2.272 1.118 1.167 L 1.118 -1.229 C 1.118 -1.648 1.157 -2.067 1.26 -2.254 L .126 -2.254 C .087 -2.112 .055 -1.96 .047 -1.809 C -.308 -2.228 -.819 -2.379 -1.323 -2.379 C -2.103 -2.379 -2.709 -1.942 -2.709 -.998 C -2.692 1.096 .047 -.026 0 1.007 C 0 1.542 -.331 1.631 -.725 1.631 C -1.157 1.631 -1.425 1.435 -1.465 .936 Z " fill="#808285"></path>
      <path xmlns="http://www.w3.org/2000/svg" transform="matrix(1,0,0,-1,0,841.89)" d="M 419.96 459.152 L 421.078 459.152 L 421.078 452.789 L 419.96 452.789 Z " fill="#808285"></path>
    </g>
  </g>
</svg>