<svg
  xmlns="http://www.w3.org/2000/svg"
  xmlns:xlink="http://www.w3.org/1999/xlink"
  version="1.1"
  viewBox="42.51 457.4 258.8 189.36"
  height="60"
>
  <!-- table -->
  <g>
    <path xmlns="http://www.w3.org/2000/svg" transform="matrix(1,0,0,-1,51.0098,457.3959)" d="M 0 0 C -4.677 0 -8.504 -3.827 -8.504 -8.504 L -8.504 -180.853 C -8.504 -185.529 -4.677 -189.356 0 -189.356 L 241.795 -189.356 C 246.472 -189.356 250.299 -185.529 250.299 -180.853 L 250.299 -8.504 C 250.299 -3.827 246.472 0 241.795 0 Z " fill="#00bdf2"></path>
    <path xmlns="http://www.w3.org/2000/svg" transform="matrix(1,0,0,-1,51.0098,645.6185)" d="M 0 0 C -4.054 0 -7.37 3.316 -7.37 7.37 L -7.37 179.719 C -7.37 183.772 -4.054 187.089 0 187.089 L 241.795 187.089 C 245.849 187.089 249.165 183.772 249.165 179.719 L 249.165 7.37 C 249.165 3.316 245.849 0 241.795 0 Z " fill="#ffffff"></path>
    <path xmlns="http://www.w3.org/2000/svg" transform="matrix(1,0,0,-1,300.1748,481.20643)" d="M 0 0 L 0 15.307 C 0 19.36 -3.316 22.677 -7.37 22.677 L -249.165 22.677 C -253.219 22.677 -256.535 19.36 -256.535 15.307 L -256.535 0 " fill="#c7eafb"></path>
    <path xmlns="http://www.w3.org/2000/svg" transform="matrix(1,0,0,-1,52.3472,520.682)" stroke-width="1.021" stroke-linecap="butt" stroke-miterlimit="4" stroke-linejoin="miter" fill="none" stroke="#231f20" d="M 0 0 L 0 17.857 C 0 19.261 1.147 20.408 2.551 20.408 L 32.601 20.408 C 34.003 20.408 35.554 19.334 36.047 18.019 L 42.805 0 "></path>
    <path xmlns="http://www.w3.org/2000/svg" transform="matrix(1,0,0,-1,139.3711,535.9916)" stroke-width="1.021" stroke-linecap="round" stroke-miterlimit="4" stroke-linejoin="miter" fill="none" stroke="#231f20" d="M 0 0 L -3.893 11.678 C -4.558 13.675 -6.825 15.308 -8.93 15.308 L -87.024 15.308 L -87.024 -39.16 C -87.024 -41.265 -85.302 -42.987 -83.197 -42.987 L -25.513 -42.987 C -24.808 -42.987 -24.236 -43.558 -24.236 -44.263 C -24.236 -44.966 -24.808 -45.538 -25.513 -45.538 L -83.197 -45.538 C -85.302 -45.538 -87.024 -47.261 -87.024 -49.364 L -87.024 -99.635 C -87.024 -101.74 -85.302 -103.463 -83.197 -103.463 L -8.93 -103.463 C -6.825 -103.463 -4.558 -101.828 -3.893 -99.83 L 0 -88.155 "></path>
    <path xmlns="http://www.w3.org/2000/svg" transform="matrix(1,0,0,-1,248.647,520.682)" stroke-width="1.021" stroke-linecap="butt" stroke-miterlimit="4" stroke-linejoin="miter" fill="none" stroke="#231f20" d="M 0 0 L 6.758 18.019 C 7.25 19.334 8.801 20.408 10.204 20.408 L 40.252 20.408 C 41.655 20.408 42.803 19.261 42.803 17.857 L 42.803 0 "></path>
    <path xmlns="http://www.w3.org/2000/svg" transform="matrix(1,0,0,-1,204.4263,535.9916)" stroke-width="1.021" stroke-linecap="round" stroke-miterlimit="4" stroke-linejoin="miter" fill="none" stroke="#231f20" d="M 0 0 L 3.891 11.678 C 4.556 13.675 6.823 15.308 8.928 15.308 L 87.023 15.308 L 87.023 -39.16 C 87.023 -41.265 85.301 -42.987 83.197 -42.987 L 25.512 -42.987 C 24.809 -42.987 24.237 -43.558 24.237 -44.263 C 24.237 -44.966 24.809 -45.538 25.512 -45.538 L 83.197 -45.538 C 85.301 -45.538 87.023 -47.261 87.023 -49.364 L 87.023 -99.635 C 87.023 -101.74 85.301 -103.463 83.197 -103.463 L 11.48 -103.463 C 9.376 -103.463 7.108 -101.828 6.443 -99.83 L 2.55 -88.155 "></path>
    <path xmlns="http://www.w3.org/2000/svg" transform="matrix(1,0,0,-1,107.4487,500.27574)" stroke-width="1.021" stroke-linecap="round" stroke-miterlimit="4" stroke-linejoin="miter" fill="none" stroke="#231f20" d="M 0 0 L 37.942 0 C 39.733 0 41.265 -1.106 41.892 -2.674 L 42.707 -4.763 C 43.341 -6.314 44.866 -7.407 46.645 -7.407 L 86.118 -7.407 "></path>
  </g>
  <!-- graph -->
  <g>
    <path xmlns="http://www.w3.org/2000/svg" transform="matrix(1,0,0,-1,184.1377,587.75436)" d="M 0 0 L -8.508 -6.182 L -15.842 -6.182 L -24.35 .002 L -26.613 6.973 L -23.365 16.977 L -17.433 21.281 L -6.914 21.287 L -.983 16.975 L 2.266 6.973 Z M 9.879 22.133 L -5.369 33.209 L -18.979 33.209 L -34.229 22.133 L -38.433 9.187 L -32.609 -8.736 L -21.599 -16.738 L -2.751 -16.738 L 8.262 -8.736 L 14.085 9.187 Z " fill="#56c9eb"></path>
    <path xmlns="http://www.w3.org/2000/svg" transform="matrix(1,0,0,-1,193.1499,597.28756)" d="M 0 0 L -11.243 -8.164 L -31.134 -8.164 L -42.374 .002 L -48.519 18.922 L -44.225 32.135 L -28.132 43.824 L -14.237 43.824 L 1.856 32.133 L 6.147 18.92 Z M -1.795 -9.344 L -1.902 -9.344 L -1.76 -9.24 Z M 12.714 37.293 L -12.693 55.752 L -29.683 55.752 L -55.088 37.291 L -60.339 21.131 L -50.632 -8.734 L -36.888 -18.721 L -5.484 -18.721 L 8.262 -8.734 L 17.966 21.131 Z " fill="#92cd8c"></path>
    <path xmlns="http://www.w3.org/2000/svg" transform="matrix(1,0,0,-1,202.1641,606.81777)" d="M 0 0 L -13.975 -10.151 L -46.428 -10.151 L -60.398 0 L -70.429 30.864 L -65.092 47.29 L -38.837 66.366 L -21.567 66.366 L 4.691 47.294 L 10.028 30.867 Z M 15.555 52.448 L -20.017 78.293 L -40.384 78.293 L -75.955 52.45 L -82.248 33.079 L -68.664 -8.736 L -52.185 -20.708 L -8.218 -20.708 L 8.262 -8.739 L 21.848 33.077 Z " fill="#fcc69d"></path>
    <path xmlns="http://www.w3.org/2000/svg" transform="matrix(1,0,0,-1,181.8452,529.84609)" stroke-width="1.276" stroke-linecap="butt" stroke-miterlimit="4" stroke-linejoin="miter" fill="none" stroke="#231f20" d="M 0 0 C -1.132 .251 -2.71 .668 -4.187 1.068 C -6.402 1.675 -8.077 2.908 -6.089 4.932 C -3.957 7.212 -3.253 8.188 -3.253 11.119 C -3.253 15.883 -6.198 18.346 -9.828 18.346 C -13.456 18.346 -16.4 15.883 -16.4 11.119 C -16.4 8.188 -15.699 7.212 -13.563 4.932 C -11.579 2.908 -13.252 1.675 -15.472 1.068 C -16.945 .668 -18.524 .251 -19.659 0 C -23.639 -.883 -22.799 -5.264 -21.776 -9.459 C -19.053 -20.611 -18.208 -29.426 -19.341 -36.419 C -18.111 -41.427 -14.672 -46.598 -10.647 -49.594 L -9.007 -49.594 C -4.981 -46.598 -1.543 -41.427 -.314 -36.419 C -1.448 -29.426 -.604 -20.611 2.118 -9.459 C 3.143 -5.264 3.981 -.883 0 0 Z "></path>
    <path xmlns="http://www.w3.org/2000/svg" transform="matrix(1,0,0,-1,158.1528,558.48086)" stroke-width="1.276" stroke-linecap="butt" stroke-miterlimit="4" stroke-linejoin="miter" fill="none" stroke="#231f20" d="M 0 0 C .309 1.834 .533 3.656 .909 5.482 C 2.143 11.459 -1.055 17.756 -1.479 23.711 C -3.569 17.545 -3.583 11.066 -5.527 4.909 C -6.12 3.033 -6.812 1.306 -6.996 -.646 C -7.271 -3.578 -7.4 -6.516 -7.755 -9.439 C -8.014 -11.6 -8.744 -13.701 -9.756 -15.695 C -10.862 -17.879 -12.372 -19.597 -11.697 -22.066 C -11.401 -23.148 -11.056 -25.867 -9.453 -26.143 C -6.866 -26.591 -6.62 -25.082 -5.972 -23.424 C -5.325 -21.762 -4.614 -20.063 -4.624 -18.293 C -4.633 -17.305 -4.966 -16.588 -4.702 -15.6 C -4.39 -14.426 -4.048 -13.26 -3.699 -12.094 C -2.487 -8.092 -.735 -4.086 0 0 "></path>
    <path xmlns="http://www.w3.org/2000/svg" transform="matrix(1,0,0,-1,161.0273,571.1957)" stroke-width="1.276" stroke-linecap="butt" stroke-miterlimit="4" stroke-linejoin="miter" fill="none" stroke="#231f20" d="M 0 0 C -1.041 -8.465 -2.435 -18.818 -2.466 -24.391 C -2.489 -27.145 -2.846 -29.568 -3.748 -33.053 C -5.273 -38.957 -4.146 -49.18 -4.046 -52.967 C -3.969 -55.561 -3.909 -57.795 -4.355 -59.816 C -4.598 -61.547 -5.904 -63.147 -8.026 -65.375 C -9.678 -67.104 -10.185 -69.115 -5.75 -68.983 C -3.925 -68.928 -1.953 -68.996 -.425 -68.953 C 3.15 -68.845 1.51 -65.244 1.037 -63.9 C .717 -62.991 .136 -60.036 1.067 -56.329 C 1.839 -53.253 4.233 -41.594 4.643 -35.535 C 4.787 -33.393 5.393 -29.663 6.3 -25.189 C 7.212 -20.699 8.656 -16.061 8.902 -10.795 C 5.082 -8.422 2.229 -3.836 0 0 Z "></path>
    <path xmlns="http://www.w3.org/2000/svg" transform="matrix(1,0,0,-1,185.8848,558.48086)" stroke-width="1.276" stroke-linecap="butt" stroke-miterlimit="4" stroke-linejoin="miter" fill="none" stroke="#231f20" d="M 0 0 C -.304 1.836 -.527 3.658 -.913 5.482 C -2.171 11.446 1.059 17.764 1.477 23.711 C 3.565 17.545 3.58 11.066 5.528 4.909 C 6.122 3.033 6.805 1.306 6.994 -.646 C 7.277 -3.576 7.398 -6.516 7.752 -9.439 C 8.014 -11.599 8.745 -13.701 9.756 -15.695 C 10.859 -17.875 12.373 -19.598 11.698 -22.066 C 11.399 -23.148 11.055 -25.867 9.452 -26.143 C 6.866 -26.591 6.619 -25.082 5.971 -23.424 C 5.324 -21.764 4.611 -20.061 4.621 -18.293 C 4.63 -17.301 4.963 -16.591 4.7 -15.6 C 4.389 -14.426 4.048 -13.26 3.696 -12.094 C 2.489 -8.101 .692 -4.084 0 0 "></path>
    <path xmlns="http://www.w3.org/2000/svg" transform="matrix(1,0,0,-1,183.0073,571.1957)" stroke-width="1.276" stroke-linecap="butt" stroke-miterlimit="4" stroke-linejoin="miter" fill="none" stroke="#231f20" d="M 0 0 C 1.041 -8.465 2.435 -18.818 2.47 -24.391 C 2.491 -27.145 2.846 -29.568 3.748 -33.053 C 5.275 -38.957 4.148 -49.18 4.048 -52.967 C 3.973 -55.561 3.911 -57.795 4.357 -59.816 C 4.602 -61.547 5.906 -63.147 8.028 -65.375 C 9.678 -67.104 10.187 -69.115 5.755 -68.983 C 3.93 -68.928 1.955 -68.996 .429 -68.953 C -3.15 -68.845 -1.508 -65.244 -1.037 -63.9 C -.715 -62.991 -.134 -60.036 -1.065 -56.329 C -1.839 -53.253 -4.233 -41.594 -4.639 -35.535 C -4.785 -33.393 -5.393 -29.663 -6.3 -25.189 C -7.212 -20.699 -8.654 -16.061 -8.9 -10.795 C -5.082 -8.422 -2.229 -3.836 0 0 Z "></path>
  </g>
  <!-- banner -->
  <g>
    <!-- icon -->
    <g>
      <path xmlns="http://www.w3.org/2000/svg" transform="matrix(1,0,0,-1,159.4941,469.81584)" d="M 0 0 C -.017 -4.697 -3.837 -8.49 -8.533 -8.473 C -13.231 -8.456 -17.025 -4.637 -17.008 .061 C -16.991 4.757 -13.171 8.551 -8.474 8.535 C -3.777 8.518 .017 4.695 0 0 " fill="#ffffff"></path>
      <path xmlns="http://www.w3.org/2000/svg" transform="matrix(1,0,0,-1,159.4941,469.81584)" stroke-width=".4" stroke-linecap="butt" stroke-miterlimit="4" stroke-linejoin="miter" fill="none" stroke="#231f20" d="M 0 0 C -.017 -4.697 -3.837 -8.49 -8.533 -8.473 C -13.231 -8.456 -17.025 -4.637 -17.008 .061 C -16.991 4.757 -13.171 8.551 -8.474 8.535 C -3.777 8.518 .017 4.695 0 0 Z "></path>
      <path xmlns="http://www.w3.org/2000/svg" transform="matrix(1,0,0,-1,151.0039,466.1166)" d="M 0 0 C .96 0 1.742 .779 1.742 1.74 C 1.743 2.703 .964 3.484 .003 3.484 C -.959 3.485 -1.741 2.706 -1.742 1.743 C -1.742 .781 -.961 .001 0 0 " fill="#231f20"></path>
      <path xmlns="http://www.w3.org/2000/svg" transform="matrix(1,0,0,-1,154.7827,471.1556)" d="M 0 0 L -1.205 1.9 L -1.317 1.9 L -1.324 -6.768 C -2.063 -6.961 -2.726 -7.075 -3.592 -7.1 L -3.589 -3.121 L -3.991 -3.119 L -3.994 -7.1 C -4.861 -7.072 -5.522 -6.957 -6.259 -6.762 L -6.253 1.903 L -6.388 1.906 C -6.675 1.348 -8.439 -1.996 -8.632 -2.371 C -8.825 -2.744 -9.276 -2.896 -9.649 -2.703 C -10.025 -2.511 -10.173 -2.052 -9.98 -1.677 C -9.755 -1.24 -7.246 3.565 -7.246 3.565 C -6.914 4.221 -6.259 4.67 -5.471 4.669 L -2.088 4.663 C -1.301 4.662 -.67 4.213 -.339 3.555 L .643 1.795 C .643 1.795 1.36 3.21 1.471 3.408 C 1.672 3.771 2.034 3.872 2.396 3.674 C 2.756 3.475 2.852 3.053 2.652 2.69 L 1.196 -.001 C .855 -.428 .214 -.342 0 0 " fill="#231f20"></path>
      <path xmlns="http://www.w3.org/2000/svg" transform="matrix(1,0,0,-1,154.8413,466.61174)" stroke-width=".513" stroke-linecap="round" stroke-miterlimit="4" stroke-linejoin="miter" fill="none" stroke="#231f20" d="M 0 0 L 4.201 -2.688 "></path>
      <path xmlns="http://www.w3.org/2000/svg" transform="matrix(1,0,0,-1,159.2163,468.8236)" d="M 0 0 C -.001 -.501 -.41 -.908 -.911 -.908 C -1.412 -.907 -1.818 -.499 -1.817 .002 C -1.817 .504 -1.41 .91 -.909 .91 C -.407 .909 0 .502 0 0 " fill="#231f20"></path>
      <path xmlns="http://www.w3.org/2000/svg" transform="matrix(1,0,0,-1,156.4736,467.08244)" d="M 0 0 C 0 -.501 -.407 -.907 -.908 -.907 C -1.411 -.906 -1.816 -.499 -1.816 .001 C -1.815 .503 -1.409 .91 -.907 .91 C -.406 .91 .001 .503 0 0 " fill="#231f20"></path>
      <path xmlns="http://www.w3.org/2000/svg" transform="matrix(1,0,0,-1,143.3843,471.8597)" stroke-width=".513" stroke-linecap="round" stroke-miterlimit="4" stroke-linejoin="miter" fill="none" stroke="#231f20" d="M 0 0 L 4.2 -2.688 "></path>
      <path xmlns="http://www.w3.org/2000/svg" transform="matrix(1,0,0,-1,147.7578,474.07164)" d="M 0 0 C 0 -.502 -.406 -.908 -.909 -.908 C -1.41 -.907 -1.817 -.5 -1.816 .002 C -1.815 .502 -1.408 .91 -.907 .909 C -.405 .908 .001 .501 0 0 " fill="#231f20"></path>
      <path xmlns="http://www.w3.org/2000/svg" transform="matrix(1,0,0,-1,145.0171,472.3304)" d="M 0 0 C 0 -.501 -.408 -.908 -.909 -.907 C -1.411 -.907 -1.817 -.499 -1.816 .002 C -1.817 .503 -1.409 .91 -.907 .91 C -.406 .909 0 .501 0 0 " fill="#231f20"></path>
    </g>
    <!-- text -->
    <g>
      <path xmlns="http://www.w3.org/2000/svg" transform="matrix(1,0,0,-1,168.5122,465.9613)" d="M 0 0 L 2.215 0 L 2.777 -5.861 L 2.797 -5.861 L 5.604 0 L 7.84 0 L 6.298 -8.095 L 4.798 -8.095 L 6.125 -1.655 L 6.104 -1.655 L 3.021 -8.095 L 1.797 -8.095 L 1.092 -1.655 L 1.072 -1.655 L -.021 -8.095 L -1.542 -8.095 Z " fill="#231f20"></path>
      <path xmlns="http://www.w3.org/2000/svg" transform="matrix(1,0,0,-1,181.0449,474.056)" d="M 0 0 L -1.388 0 L -1.225 .816 L -1.245 .816 C -1.715 .17 -2.327 -.159 -3.093 -.159 C -4.104 -.159 -4.634 .386 -4.634 1.417 C -4.634 1.655 -4.532 2.222 -4.481 2.427 L -3.828 5.861 L -2.378 5.861 L -3.021 2.427 C -3.073 2.257 -3.113 1.87 -3.113 1.712 C -3.113 1.36 -2.756 1.11 -2.419 1.11 C -1.542 1.11 -1.103 1.927 -.939 2.743 L -.347 5.861 L 1.103 5.861 Z " fill="#231f20"></path>
      <path xmlns="http://www.w3.org/2000/svg" transform="matrix(1,0,0,-1,185.8916,469.90663)" d="M 0 0 C -.01 .499 -.255 .793 -.816 .793 C -1.337 .793 -1.705 .635 -1.705 .215 C -1.705 -.045 -1.531 -.204 -1.041 -.374 L -.316 -.635 C .459 -.906 1.072 -1.338 1.072 -2.313 C 1.072 -3.764 -.214 -4.309 -1.439 -4.309 C -2.47 -4.309 -3.685 -3.854 -3.685 -2.482 L -3.685 -2.244 L -2.338 -2.244 L -2.338 -2.438 C -2.338 -2.971 -1.797 -3.23 -1.296 -3.23 C -.857 -3.23 -.378 -3.061 -.378 -2.528 C -.378 -2.12 -.582 -2.007 -.898 -1.882 L -2.011 -1.485 C -2.736 -1.213 -3.154 -.918 -3.154 .012 C -3.154 1.395 -1.837 1.871 -.816 1.871 C .327 1.871 1.378 1.508 1.348 0 Z " fill="#231f20"></path>
      <path xmlns="http://www.w3.org/2000/svg" transform="matrix(1,0,0,-1,191.4941,470.22404)" d="M 0 0 C 0 .691 -.327 .976 -.97 .976 C -2.072 .976 -2.45 -.499 -2.45 -1.508 C -2.45 -2.199 -2.185 -2.778 -1.449 -2.778 C -.796 -2.778 -.439 -2.268 -.275 -1.689 L 1.174 -1.689 C .735 -3.151 -.173 -3.991 -1.552 -3.991 C -3.032 -3.991 -3.899 -3.197 -3.899 -1.474 C -3.899 .521 -2.817 2.188 -.918 2.188 C .368 2.188 1.419 1.554 1.45 0 Z " fill="#231f20"></path>
      <path xmlns="http://www.w3.org/2000/svg" transform="matrix(1,0,0,-1,194.4937,465.9613)" d="M 0 0 L 1.45 0 L -.102 -8.095 L -1.552 -8.095 Z " fill="#231f20"></path>
      <path xmlns="http://www.w3.org/2000/svg" transform="matrix(1,0,0,-1,199.6787,470.49644)" d="M 0 0 C 0 .602 -.133 1.248 -.98 1.248 C -1.807 1.248 -2.205 .67 -2.419 0 Z M -2.573 -1.02 C -2.583 -1.1 -2.583 -1.156 -2.583 -1.213 L -2.583 -1.36 C -2.583 -2.041 -2.205 -2.506 -1.419 -2.506 C -.837 -2.506 -.562 -2.074 -.337 -1.7 L 1.112 -1.7 C .653 -3.016 -.102 -3.719 -1.623 -3.719 C -3.042 -3.719 -3.971 -2.834 -3.971 -1.156 C -3.971 .715 -2.858 2.461 -1.062 2.461 C .408 2.461 1.398 1.6 1.398 -.102 C 1.398 -.408 1.368 -.714 1.316 -1.02 Z " fill="#231f20"></path>
    </g>
  </g>
  <!-- text -->
  <g>
    <!-- L -->
    <g>
      <path xmlns="http://www.w3.org/2000/svg" transform="matrix(1.2,0,0,-1.2,68.3691,515)" d="M 0 0 L 0 8.609 L 2.25 8.609 L 2.25 1.262 L 6.428 1.262 L 6.428 0 Z " fill="#231f20"></path>
    </g>
    <!-- R -->
    <g>
      <path xmlns="http://www.w3.org/2000/svg" transform="matrix(1.2,0,0,-1.2,271,509)" d="M 0 0 L 1.451 0 C 2.059 .034 2.535 .378 2.535 1.239 C 2.535 2.204 2.072 2.364 1.373 2.376 L 0 2.376 Z M 0 -1.264 L 0 -4.972 L -1.849 -4.972 L -1.849 3.639 L 1.65 3.639 C 3.247 3.639 4.462 3.157 4.462 1.573 C 4.462 .632 4.186 -.356 2.943 -.507 L 2.943 -.528 C 4.04 -.653 4.369 -1.264 4.369 -2.09 C 4.369 -2.444 4.316 -4.558 4.766 -4.812 L 4.766 -4.972 L 2.732 -4.972 C 2.508 -4.421 2.548 -3.364 2.535 -2.79 C 2.521 -2.263 2.535 -1.538 1.9 -1.378 C 1.398 -1.251 .857 -1.264 .33 -1.264 Z " fill="#231f20"></path>
    </g>
    <!-- trunk -->
    <g>
      <path xmlns="http://www.w3.org/2000/svg" transform="matrix(1,0,0,-1,107.3013,488.07164)" d="M 0 0 L 6.553 0 L 6.553 -1.404 L 4.266 -1.404 L 4.266 -9.567 L 2.301 -9.567 L 2.301 -1.404 L 0 -1.404 Z " fill="#231f20"></path>
      <path xmlns="http://www.w3.org/2000/svg" transform="matrix(1,0,0,-1,116.9688,492.1156)" d="M 0 0 L 1.543 0 C 2.189 .038 2.694 .422 2.694 1.377 C 2.694 2.449 2.203 2.627 1.459 2.64 L 0 2.64 Z M 0 -1.403 L 0 -5.523 L -1.964 -5.523 L -1.964 4.044 L 1.754 4.044 C 3.452 4.044 4.743 3.508 4.743 1.748 C 4.743 .701 4.448 -.396 3.129 -.562 L 3.129 -.588 C 4.293 -.727 4.645 -1.403 4.645 -2.32 C 4.645 -2.717 4.588 -5.064 5.066 -5.346 L 5.066 -5.523 L 2.904 -5.523 C 2.667 -4.912 2.708 -3.738 2.694 -3.1 C 2.68 -2.513 2.694 -1.709 2.021 -1.531 C 1.488 -1.391 .913 -1.403 .351 -1.403 Z " fill="#231f20"></path>
      <path xmlns="http://www.w3.org/2000/svg" transform="matrix(1,0,0,-1,128.3203,488.07164)" d="M 0 0 L 1.964 0 L 1.964 -6.673 C 1.964 -8.789 1.207 -9.797 -1.361 -9.797 C -3.957 -9.797 -4.715 -8.789 -4.715 -6.673 L -4.715 0 L -2.75 0 L -2.75 -6.52 C -2.75 -7.437 -2.68 -8.355 -1.347 -8.355 C -.07 -8.355 0 -7.437 0 -6.52 Z " fill="#231f20"></path>
      <path xmlns="http://www.w3.org/2000/svg" transform="matrix(1,0,0,-1,136.8794,488.07164)" d="M 0 0 L 1.964 0 L 1.964 -9.567 L -.084 -9.567 L -1.613 -6.161 C -2.133 -5.025 -2.554 -3.865 -3.017 -2.36 L -3.045 -2.36 C -2.975 -3.151 -2.891 -4.12 -2.834 -5.091 C -2.778 -6.047 -2.736 -7.003 -2.736 -7.77 L -2.736 -9.567 L -4.701 -9.567 L -4.701 0 L -2.666 0 L -1.137 -3.481 C -.631 -4.593 -.211 -5.729 .267 -7.284 L .294 -7.284 C .224 -6.416 .154 -5.485 .098 -4.567 C .042 -3.649 0 -2.729 0 -1.876 Z " fill="#231f20"></path>
      <path xmlns="http://www.w3.org/2000/svg" transform="matrix(1,0,0,-1,140.7515,497.639)" d="M 0 0 L 0 9.567 L 1.965 9.567 L 1.965 5.318 L 1.994 5.318 C 2.301 6.071 2.808 6.915 3.228 7.616 L 4.379 9.567 L 6.596 9.567 L 3.999 5.459 L 6.722 0 L 4.504 0 L 2.653 3.775 L 1.965 2.742 L 1.965 0 Z " fill="#231f20"></path>
    </g>
    <!-- arm l -->
    <g>
      <path xmlns="http://www.w3.org/2000/svg" transform="matrix(1,0,0,-1,70.1543,571.5482)" d="M 0 0 L 1.584 0 L 1.083 2.444 C .99 2.848 .95 3.237 .897 3.64 C .884 3.835 .858 4.03 .832 4.214 L .805 4.214 C .779 4.03 .752 3.835 .739 3.64 C .686 3.237 .646 2.848 .554 2.444 Z M -2.76 -3.444 L -.396 5.166 L 2.099 5.166 L 4.343 -3.444 L 2.363 -3.444 L 1.875 -1.263 L -.291 -1.263 L -.779 -3.444 Z " fill="#231f20"></path>
      <path xmlns="http://www.w3.org/2000/svg" transform="matrix(1,0,0,-1,77.6665,570.0209)" d="M 0 0 L 1.452 0 C 2.059 .034 2.535 .378 2.535 1.239 C 2.535 2.204 2.072 2.364 1.373 2.376 L 0 2.376 Z M 0 -1.264 L 0 -4.972 L -1.848 -4.972 L -1.848 3.639 L 1.65 3.639 C 3.248 3.639 4.462 3.157 4.462 1.573 C 4.462 .632 4.185 -.356 2.944 -.507 L 2.944 -.528 C 4.04 -.653 4.37 -1.264 4.37 -2.09 C 4.37 -2.444 4.317 -4.558 4.766 -4.812 L 4.766 -4.972 L 2.732 -4.972 C 2.508 -4.421 2.548 -3.364 2.535 -2.79 C 2.521 -2.263 2.535 -1.538 1.901 -1.378 C 1.399 -1.251 .858 -1.264 .33 -1.264 Z " fill="#231f20"></path>
      <path xmlns="http://www.w3.org/2000/svg" transform="matrix(1,0,0,-1,86.0757,574.99258)" d="M 0 0 L -1.848 0 L -1.848 8.61 L 1.096 8.61 L 2.086 4.615 C 2.245 3.961 2.351 3.295 2.43 2.629 L 2.456 2.629 C 2.549 3.479 2.615 4.053 2.747 4.615 L 3.737 8.61 L 6.667 8.61 L 6.667 0 L 4.819 0 L 4.819 2.709 C 4.819 4.42 4.859 6.131 4.978 7.842 L 4.951 7.842 L 2.971 0 L 1.849 0 L -.092 7.842 L -.158 7.842 C -.04 6.131 0 4.42 0 2.709 Z " fill="#231f20"></path>
    </g>
    <!-- arm r -->
    <g>
      <path xmlns="http://www.w3.org/2000/svg" transform="matrix(1,0,0,-1,246.6875,571.5482)" d="M 0 0 L 1.583 0 L 1.083 2.444 C .99 2.848 .95 3.237 .897 3.64 C .884 3.835 .858 4.03 .832 4.214 L .805 4.214 C .779 4.03 .752 3.835 .739 3.64 C .687 3.237 .647 2.848 .555 2.444 Z M -2.76 -3.444 L -.396 5.166 L 2.099 5.166 L 4.343 -3.444 L 2.363 -3.444 L 1.875 -1.263 L -.291 -1.263 L -.779 -3.444 Z " fill="#231f20"></path>
      <path xmlns="http://www.w3.org/2000/svg" transform="matrix(1,0,0,-1,254.1992,570.0209)" d="M 0 0 L 1.452 0 C 2.06 .034 2.535 .378 2.535 1.239 C 2.535 2.204 2.073 2.364 1.373 2.376 L 0 2.376 Z M 0 -1.264 L 0 -4.972 L -1.848 -4.972 L -1.848 3.639 L 1.651 3.639 C 3.248 3.639 4.462 3.157 4.462 1.573 C 4.462 .632 4.186 -.356 2.944 -.507 L 2.944 -.528 C 4.041 -.653 4.37 -1.264 4.37 -2.09 C 4.37 -2.444 4.317 -4.558 4.767 -4.812 L 4.767 -4.972 L 2.733 -4.972 C 2.509 -4.421 2.548 -3.364 2.535 -2.79 C 2.522 -2.263 2.535 -1.538 1.901 -1.378 C 1.399 -1.251 .858 -1.264 .331 -1.264 Z " fill="#231f20"></path>
      <path xmlns="http://www.w3.org/2000/svg" transform="matrix(1,0,0,-1,262.6099,574.99258)" d="M 0 0 L -1.849 0 L -1.849 8.61 L 1.095 8.61 L 2.085 4.615 C 2.244 3.961 2.349 3.295 2.428 2.629 L 2.456 2.629 C 2.548 3.479 2.614 4.053 2.746 4.615 L 3.736 8.61 L 6.667 8.61 L 6.667 0 L 4.818 0 L 4.818 2.709 C 4.818 4.42 4.857 6.131 4.977 7.842 L 4.951 7.842 L 2.97 0 L 1.848 0 L -.093 7.842 L -.159 7.842 C -.041 6.131 0 4.42 0 2.709 Z " fill="#231f20"></path>
    </g>
    <!-- leg l -->
    <g>
      <path xmlns="http://www.w3.org/2000/svg" transform="matrix(1,0,0,-1,68.3691,594.1254)" d="M 0 0 L 0 8.609 L 2.25 8.609 L 2.25 1.262 L 6.429 1.262 L 6.429 0 Z " fill="#231f20"></path>
      <path xmlns="http://www.w3.org/2000/svg" transform="matrix(1,0,0,-1,76.7427,594.1254)" d="M 0 0 L 0 8.609 L 6.333 8.609 L 6.333 7.348 L 2.25 7.348 L 2.25 5.176 L 6.011 5.176 L 6.011 3.914 L 2.25 3.914 L 2.25 1.262 L 6.333 1.262 L 6.333 0 Z " fill="#231f20"></path>
      <path xmlns="http://www.w3.org/2000/svg" transform="matrix(1,0,0,-1,85.0361,589.1312)" d="M 0 0 C .096 2.191 .337 3.822 3.938 3.822 C 5.866 3.811 7.201 3.455 7.715 1.963 C 7.827 1.619 7.811 1.262 7.827 .917 L 5.577 .917 C 5.545 1.791 5.465 2.48 3.938 2.525 C 2.169 2.525 2.314 1.021 2.314 .354 L 2.314 -2.033 C 2.314 -2.744 2.395 -3.904 3.938 -3.904 C 5.223 -3.904 5.641 -2.93 5.593 -1.632 L 4.034 -1.632 L 4.034 -.367 L 7.779 -.367 L 7.779 -4.994 L 6.091 -4.994 L 6.091 -4.006 L 6.059 -4.006 C 5.609 -4.902 4.757 -5.156 3.938 -5.201 C .241 -5.201 0 -3.525 0 -1.229 Z " fill="#231f20"></path>
    </g>
    <!-- leg r -->
    <g>
      <path xmlns="http://www.w3.org/2000/svg" transform="matrix(1,0,0,-1,244.5444,594.1254)" d="M 0 0 L 0 8.609 L 2.25 8.609 L 2.25 1.262 L 6.429 1.262 L 6.429 0 Z " fill="#231f20"></path>
      <path xmlns="http://www.w3.org/2000/svg" transform="matrix(1,0,0,-1,252.918,594.1254)" d="M 0 0 L 0 8.609 L 6.333 8.609 L 6.333 7.348 L 2.25 7.348 L 2.25 5.176 L 6.012 5.176 L 6.012 3.914 L 2.25 3.914 L 2.25 1.262 L 6.333 1.262 L 6.333 0 Z " fill="#231f20"></path>
      <path xmlns="http://www.w3.org/2000/svg" transform="matrix(1,0,0,-1,261.2114,589.1312)" d="M 0 0 C .097 2.191 .337 3.822 3.938 3.822 C 5.867 3.811 7.201 3.455 7.715 1.963 C 7.828 1.619 7.812 1.262 7.828 .917 L 5.578 .917 C 5.545 1.791 5.465 2.48 3.938 2.525 C 2.17 2.525 2.315 1.021 2.315 .354 L 2.315 -2.033 C 2.315 -2.744 2.395 -3.904 3.938 -3.904 C 5.224 -3.904 5.642 -2.93 5.593 -1.632 L 4.034 -1.632 L 4.034 -.367 L 7.779 -.367 L 7.779 -4.994 L 6.092 -4.994 L 6.092 -4.006 L 6.059 -4.006 C 5.609 -4.902 4.757 -5.156 3.938 -5.201 C .242 -5.201 0 -3.525 0 -1.229 Z " fill="#231f20"></path>
    </g>
  </g>
  <!-- unit -->
  <g>
    <!-- unit kg trunk -->
    <g>
      <path xmlns="http://www.w3.org/2000/svg" transform="matrix(1,0,0,-1,195.1743,493.44664)" d="M 0 0 L 0 -5.356 L .021 -5.356 L 1.953 -2.517 L 3.719 -2.517 L 1.699 -5.302 L 3.851 -9.81 L 2.041 -9.81 L .64 -6.688 L 0 -7.537 L 0 -9.81 L -1.545 -9.81 L -1.545 0 Z " fill="#231f20"></path>
      <path xmlns="http://www.w3.org/2000/svg" transform="matrix(1,0,0,-1,201.166,498.3734)" d="M 0 0 C -.122 -.281 -.288 -.819 -.288 -1.426 C -.288 -2.031 -.122 -2.569 0 -2.852 C .287 -3.457 .717 -3.672 1.104 -3.672 C 1.489 -3.672 1.919 -3.457 2.207 -2.852 C 2.327 -2.569 2.493 -2.031 2.493 -1.426 C 2.493 -.819 2.327 -.281 2.207 0 C 1.919 .608 1.489 .822 1.104 .822 C .717 .822 .287 .608 0 0 M 3.917 2.41 L 3.917 -5.072 C 3.917 -5.974 3.542 -6.821 2.979 -7.265 C 2.581 -7.574 2.052 -7.829 .926 -7.829 C -.706 -7.829 -1.578 -6.902 -1.578 -5.73 L .044 -5.73 C .044 -6.147 .419 -6.552 1.125 -6.552 C 1.809 -6.552 2.482 -5.96 2.471 -5.152 L 2.471 -4.131 C 2.008 -4.749 1.677 -5.193 .861 -5.193 C .021 -5.193 -.375 -4.991 -.861 -4.385 C -2.008 -2.959 -1.91 .243 -.795 1.657 C -.497 2.02 .055 2.599 .883 2.53 C 1.831 2.464 2.041 1.926 2.471 1.307 L 2.471 2.41 Z " fill="#231f20"></path>
    </g>
    <!-- unit kg arm l -->
    <g>
      <path xmlns="http://www.w3.org/2000/svg" transform="matrix(1,0,0,-1,112.8184,533.6439)" d="M 0 0 L 0 -5.356 L .021 -5.356 L 1.953 -2.517 L 3.719 -2.517 L 1.699 -5.302 L 3.851 -9.81 L 2.041 -9.81 L .64 -6.688 L 0 -7.537 L 0 -9.81 L -1.545 -9.81 L -1.545 0 Z " fill="#231f20"></path>
      <path xmlns="http://www.w3.org/2000/svg" transform="matrix(1,0,0,-1,118.8101,538.5707)" d="M 0 0 C -.122 -.281 -.288 -.819 -.288 -1.426 C -.288 -2.031 -.122 -2.569 0 -2.852 C .287 -3.457 .717 -3.672 1.104 -3.672 C 1.489 -3.672 1.919 -3.457 2.207 -2.852 C 2.327 -2.569 2.493 -2.031 2.493 -1.426 C 2.493 -.819 2.327 -.281 2.207 0 C 1.919 .608 1.489 .822 1.104 .822 C .717 .822 .287 .608 0 0 M 3.917 2.41 L 3.917 -5.072 C 3.917 -5.974 3.542 -6.821 2.979 -7.265 C 2.581 -7.574 2.052 -7.829 .926 -7.829 C -.706 -7.829 -1.578 -6.902 -1.578 -5.73 L .044 -5.73 C .044 -6.147 .419 -6.552 1.125 -6.552 C 1.809 -6.552 2.482 -5.96 2.471 -5.152 L 2.471 -4.131 C 2.008 -4.749 1.677 -5.193 .861 -5.193 C .021 -5.193 -.375 -4.991 -.861 -4.385 C -2.008 -2.959 -1.91 .243 -.795 1.657 C -.497 2.02 .055 2.599 .883 2.53 C 1.831 2.464 2.041 1.926 2.471 1.307 L 2.471 2.41 Z " fill="#231f20"></path>
    </g>
    <!-- unit kg arm r -->
    <g>
      <path xmlns="http://www.w3.org/2000/svg" transform="matrix(1,0,0,-1,271.7163,533.6439)" d="M 0 0 L 0 -5.356 L .021 -5.356 L 1.953 -2.517 L 3.719 -2.517 L 1.699 -5.302 L 3.851 -9.81 L 2.041 -9.81 L .64 -6.688 L 0 -7.537 L 0 -9.81 L -1.545 -9.81 L -1.545 0 Z " fill="#231f20"></path>
      <path xmlns="http://www.w3.org/2000/svg" transform="matrix(1,0,0,-1,277.708,538.5707)" d="M 0 0 C -.122 -.281 -.288 -.819 -.288 -1.426 C -.288 -2.031 -.122 -2.569 0 -2.852 C .287 -3.457 .717 -3.672 1.104 -3.672 C 1.489 -3.672 1.919 -3.457 2.207 -2.852 C 2.327 -2.569 2.493 -2.031 2.493 -1.426 C 2.493 -.819 2.327 -.281 2.207 0 C 1.919 .608 1.489 .822 1.104 .822 C .717 .822 .287 .608 0 0 M 3.917 2.41 L 3.917 -5.072 C 3.917 -5.974 3.542 -6.821 2.979 -7.265 C 2.581 -7.574 2.052 -7.829 .926 -7.829 C -.706 -7.829 -1.578 -6.902 -1.578 -5.73 L .044 -5.73 C .044 -6.147 .419 -6.552 1.125 -6.552 C 1.809 -6.552 2.482 -5.96 2.471 -5.152 L 2.471 -4.131 C 2.008 -4.749 1.677 -5.193 .861 -5.193 C .021 -5.193 -.375 -4.991 -.861 -4.385 C -2.008 -2.959 -1.91 .243 -.795 1.657 C -.497 2.02 .055 2.599 .883 2.53 C 1.831 2.464 2.041 1.926 2.471 1.307 L 2.471 2.41 Z " fill="#231f20"></path>
    </g>
    <!-- unit kg leg l -->
    <g>
      <path xmlns="http://www.w3.org/2000/svg" transform="matrix(1,0,0,-1,112.1807,623.474)" d="M 0 0 L 0 -5.356 L .021 -5.356 L 1.953 -2.517 L 3.719 -2.517 L 1.699 -5.302 L 3.851 -9.81 L 2.041 -9.81 L .64 -6.688 L 0 -7.537 L 0 -9.81 L -1.545 -9.81 L -1.545 0 Z " fill="#231f20"></path>
      <path xmlns="http://www.w3.org/2000/svg" transform="matrix(1,0,0,-1,118.1724,628.4007)" d="M 0 0 C -.122 -.281 -.288 -.819 -.288 -1.426 C -.288 -2.031 -.122 -2.569 0 -2.852 C .287 -3.457 .717 -3.672 1.104 -3.672 C 1.489 -3.672 1.919 -3.457 2.207 -2.852 C 2.327 -2.569 2.493 -2.031 2.493 -1.426 C 2.493 -.819 2.327 -.281 2.207 0 C 1.919 .608 1.489 .822 1.104 .822 C .717 .822 .287 .608 0 0 M 3.917 2.41 L 3.917 -5.072 C 3.917 -5.974 3.542 -6.821 2.979 -7.265 C 2.581 -7.574 2.052 -7.829 .926 -7.829 C -.706 -7.829 -1.578 -6.902 -1.578 -5.73 L .044 -5.73 C .044 -6.147 .419 -6.552 1.125 -6.552 C 1.809 -6.552 2.482 -5.96 2.471 -5.152 L 2.471 -4.131 C 2.008 -4.749 1.677 -5.193 .861 -5.193 C .021 -5.193 -.375 -4.991 -.861 -4.385 C -2.008 -2.959 -1.91 .243 -.795 1.657 C -.497 2.02 .055 2.599 .883 2.53 C 1.831 2.464 2.041 1.926 2.471 1.307 L 2.471 2.41 Z " fill="#231f20"></path>
    </g>
    <!-- unit kg leg r -->
    <g>
      <path xmlns="http://www.w3.org/2000/svg" transform="matrix(1,0,0,-1,271.7163,623.474)" d="M 0 0 L 0 -5.356 L .021 -5.356 L 1.953 -2.517 L 3.719 -2.517 L 1.699 -5.302 L 3.851 -9.81 L 2.041 -9.81 L .64 -6.688 L 0 -7.537 L 0 -9.81 L -1.545 -9.81 L -1.545 0 Z " fill="#231f20"></path>
      <path xmlns="http://www.w3.org/2000/svg" transform="matrix(1,0,0,-1,277.708,628.4007)" d="M 0 0 C -.122 -.281 -.288 -.819 -.288 -1.426 C -.288 -2.031 -.122 -2.569 0 -2.852 C .287 -3.457 .717 -3.672 1.104 -3.672 C 1.489 -3.672 1.919 -3.457 2.207 -2.852 C 2.327 -2.569 2.493 -2.031 2.493 -1.426 C 2.493 -.819 2.327 -.281 2.207 0 C 1.919 .608 1.489 .822 1.104 .822 C .717 .822 .287 .608 0 0 M 3.917 2.41 L 3.917 -5.072 C 3.917 -5.974 3.542 -6.821 2.979 -7.265 C 2.581 -7.574 2.052 -7.829 .926 -7.829 C -.706 -7.829 -1.578 -6.902 -1.578 -5.73 L .044 -5.73 C .044 -6.147 .419 -6.552 1.125 -6.552 C 1.809 -6.552 2.482 -5.96 2.471 -5.152 L 2.471 -4.131 C 2.008 -4.749 1.677 -5.193 .861 -5.193 C .021 -5.193 -.375 -4.991 -.861 -4.385 C -2.008 -2.959 -1.91 .243 -.795 1.657 C -.497 2.02 .055 2.599 .883 2.53 C 1.831 2.464 2.041 1.926 2.471 1.307 L 2.471 2.41 Z " fill="#231f20"></path>
    </g>
  </g>
</svg>