<svg xmlns="http://www.w3.org/2000/svg" xmlns:xlink="http://www.w3.org/1999/xlink" version="1.1" viewBox="42.52 361.01 252.28 34.02">
  <!-- table -->
  <g>
    <path xmlns="http://www.w3.org/2000/svg" transform="matrix(1,0,0,-1,46.7715,361.01454)" d="M 0 0 C -2.339 0 -4.252 -1.914 -4.252 -4.252 L -4.252 -29.764 C -4.252 -32.103 -2.339 -34.016 0 -34.016 L 243.778 -34.016 C 246.119 -34.016 248.031 -32.103 248.031 -29.764 L 248.031 -4.252 C 248.031 -1.914 246.119 0 243.778 0 Z " fill="#42c8f4"></path>
    <path xmlns="http://www.w3.org/2000/svg" transform="matrix(1,0,0,-1,290.5498,362.14933)" d="M 0 0 L -135.191 0 L -135.191 -31.748 L 0 -31.748 C 1.719 -31.748 3.118 -30.348 3.118 -28.629 L 3.118 -3.117 C 3.118 -1.398 1.719 0 0 0 " fill="#ffffff"></path>
    <path xmlns="http://www.w3.org/2000/svg" transform="matrix(1,0,0,-1,227.5166,365.9735)" d="M 0 0 C -1.247 0 -2.268 -1.021 -2.268 -2.268 L -2.268 -21.828 C -2.268 -23.075 -1.247 -24.096 0 -24.096 L 60.947 -24.096 C 62.195 -24.096 63.215 -23.075 63.215 -21.828 L 63.215 -2.268 C 63.215 -1.021 62.195 0 60.947 0 Z " fill="#9380bc"></path>
    <path xmlns="http://www.w3.org/2000/svg" transform="matrix(1,0,0,-1,43.6523,365.2665)" d="M 0 0 L 0 -25.512 C 0 -27.23 1.399 -28.631 3.117 -28.631 L 111.706 -28.631 L 111.706 3.117 L 3.117 3.117 C 1.399 3.117 0 1.719 0 0 " fill="#c7eafb"></path>
    <path xmlns="http://www.w3.org/2000/svg" transform="matrix(1,0,0,-1,223.832,368.24113)" d="M 0 0 C 0 1.246 -1.021 2.268 -2.268 2.268 L -63.215 2.268 C -64.462 2.268 -65.482 1.246 -65.482 0 L -65.482 -19.561 C -65.482 -20.808 -64.462 -21.828 -63.215 -21.828 L -2.268 -21.828 C -1.021 -21.828 0 -20.808 0 -19.561 Z " fill="#5894cf"></path>
    <path xmlns="http://www.w3.org/2000/svg" transform="matrix(1,0,0,-1,160.6162,367.1083)" d="M 0 0 C -.625 0 -1.134 -.508 -1.134 -1.133 L -1.134 -19.561 C -1.134 -20.184 -.625 -20.692 0 -20.692 L 21.971 -20.692 L 21.971 0 Z " fill="#d0dcf1"></path>
    <path xmlns="http://www.w3.org/2000/svg" transform="matrix(1,0,0,-1,220.4316,367.1083)" d="M 0 0 L -37.845 0 L -37.845 -20.692 L 0 -20.692 C .625 -20.692 1.133 -20.184 1.133 -19.561 L 1.133 -1.133 C 1.133 -.508 .625 0 0 0 " fill="#ffffff"></path>
    <path xmlns="http://www.w3.org/2000/svg" transform="matrix(1,0,0,-1,227.5156,367.1083)" d="M 0 0 C -.625 0 -1.135 -.508 -1.135 -1.133 L -1.135 -19.561 C -1.135 -20.184 -.625 -20.692 0 -20.692 L 21.971 -20.692 L 21.971 0 Z " fill="#ddd8ec"></path>
    <path xmlns="http://www.w3.org/2000/svg" transform="matrix(1,0,0,-1,287.3311,367.1083)" d="M 0 0 L -37.845 0 L -37.845 -20.692 L 0 -20.692 C .625 -20.692 1.133 -20.184 1.133 -19.561 L 1.133 -1.133 C 1.133 -.508 .625 0 0 0 " fill="#ffffff"></path>
    <path xmlns="http://www.w3.org/2000/svg" transform="matrix(1,0,0,-1,151.7891,375.87583)" d="M 0 0 C 0 -.779 -.637 -1.418 -1.417 -1.418 L -55.274 -1.418 C -56.055 -1.418 -56.691 -.779 -56.691 0 L -56.691 9.921 C -56.691 10.701 -56.055 11.338 -55.274 11.338 L -1.417 11.338 C -.637 11.338 0 10.701 0 9.921 Z " fill="#ffffff"></path>
    <path xmlns="http://www.w3.org/2000/svg" transform="matrix(1,0,0,-1,151.7891,390.0497)" d="M 0 0 C 0 -.779 -.637 -1.417 -1.417 -1.417 L -55.274 -1.417 C -56.055 -1.417 -56.691 -.779 -56.691 0 L -56.691 9.922 C -56.691 10.701 -56.055 11.339 -55.274 11.339 L -1.417 11.339 C -.637 11.339 0 10.701 0 9.922 Z " fill="#ffffff"></path>
  </g>
  <!-- TBW -->
  <g>
    <!-- icon -->
    <g>
      <path xmlns="http://www.w3.org/2000/svg" transform="matrix(1,0,0,-1,64.7515,378.0472)" d="M 0 0 C 0 -4.696 -3.807 -8.503 -8.503 -8.503 C -13.2 -8.503 -17.008 -4.696 -17.008 0 C -17.008 4.696 -13.2 8.504 -8.503 8.504 C -3.807 8.504 0 4.696 0 0 " fill="#ffffff"></path>
      <path xmlns="http://www.w3.org/2000/svg" transform="matrix(1,0,0,-1,64.7515,378.0472)" stroke-width=".4" stroke-linecap="butt" stroke-miterlimit="4" stroke-linejoin="miter" fill="none" stroke="#231f20" d="M 0 0 C 0 -4.696 -3.807 -8.503 -8.503 -8.503 C -13.2 -8.503 -17.008 -4.696 -17.008 0 C -17.008 4.696 -13.2 8.504 -8.503 8.504 C -3.807 8.504 0 4.696 0 0 Z "></path>
      <path xmlns="http://www.w3.org/2000/svg" transform="matrix(1,0,0,-1,58.5557,374.77873)" d="M 0 0 L -4.614 0 C -5.846 0 -6.856 -.997 -6.856 -2.229 L -6.856 -7.631 C -6.856 -8.051 -6.452 -8.394 -6.032 -8.394 C -5.608 -8.394 -5.195 -8.051 -5.195 -7.631 L -5.195 -2.762 L -4.942 -2.762 L -4.942 -11.355 C -4.649 -11.449 -4.349 -11.531 -4.044 -11.595 C -4.026 -11.598 -4.006 -11.602 -3.988 -11.605 C -3.894 -11.625 -3.797 -11.641 -3.701 -11.657 C -3.672 -11.662 -3.643 -11.667 -3.614 -11.672 C -3.288 -11.718 -2.887 -11.751 -2.568 -11.763 L -2.51 -11.763 L -2.51 -7.785 L -2.104 -7.785 L -2.104 -11.763 C -1.727 -11.751 -1.323 -11.718 -.997 -11.672 C -.965 -11.667 -.933 -11.66 -.901 -11.655 C -.812 -11.64 -.723 -11.625 -.636 -11.607 C -.612 -11.603 -.587 -11.598 -.563 -11.592 C -.259 -11.529 .037 -11.449 .328 -11.354 L .328 -2.762 L .581 -2.762 L .581 -7.631 C .581 -8.051 .996 -8.394 1.417 -8.394 C 1.838 -8.394 2.242 -8.051 2.242 -7.631 L 2.242 -2.229 C 2.242 -.997 1.233 0 0 0 " fill="#231f20"></path>
      <path xmlns="http://www.w3.org/2000/svg" transform="matrix(1,0,0,-1,56.2275,374.40223)" d="M 0 0 C .961 0 1.741 .779 1.741 1.74 C 1.741 2.704 .961 3.483 0 3.483 C -.964 3.483 -1.742 2.704 -1.742 1.74 C -1.742 .779 -.964 0 0 0 " fill="#231f20"></path>
      <path xmlns="http://www.w3.org/2000/svg" transform="matrix(1,0,0,-1,58.6348,380.32704)" d="M 0 0 C 0 -.793 -.665 -1.97 -2.383 -1.97 C -4.12 -1.97 -4.768 -.793 -4.768 0 C -4.768 2.318 -3.33 3.014 -2.383 4.882 C -1.455 2.973 0 2.318 0 0 " fill="#ffffff"></path>
      <path xmlns="http://www.w3.org/2000/svg" transform="matrix(1,0,0,-1,56.8916,380.5047)" d="M 0 0 C 0 -.419 .028 -.644 .341 -.644 C .634 -.644 .668 -.401 .668 0 C .668 .446 .621 .644 .335 .644 C .022 .644 0 .374 0 0 M .956 0 C .956 -.657 .851 -1.041 .35 -1.041 C -.091 -1.041 -.286 -.846 -.286 0 C -.286 .715 -.157 1.042 .335 1.042 C .787 1.042 .956 .784 .956 0 M .244 2.548 L -1.16 -1.004 L -1.459 -1.004 L -.052 2.548 Z M -1.885 1.541 C -1.885 1.118 -1.854 .896 -1.544 .896 C -1.251 .896 -1.216 1.135 -1.216 1.541 C -1.216 1.991 -1.263 2.19 -1.55 2.19 C -1.862 2.19 -1.885 1.918 -1.885 1.541 M -.93 1.541 C -.93 .896 -1.026 .5 -1.535 .5 C -1.972 .5 -2.171 .694 -2.171 1.541 C -2.171 2.27 -2.039 2.585 -1.55 2.585 C -1.097 2.585 -.93 2.329 -.93 1.541 " fill="#231f20"></path>
    </g>
    <!-- text -->
    <g>
      <path xmlns="http://www.w3.org/2000/svg" transform="matrix(1,0,0,-1,73.2222,376.84263)" d="M 0 0 L -1.716 0 L -1.501 1.122 L 3.064 1.122 L 2.85 0 L 1.21 0 L .276 -4.946 L -.935 -4.946 Z " fill="#231f20"></path>
      <path xmlns="http://www.w3.org/2000/svg" transform="matrix(1,0,0,-1,77.5845,378.1766)" d="M 0 0 L 1.363 0 C 1.8 0 2.175 .263 2.175 .799 C 2.175 1.266 1.93 1.419 1.54 1.419 L .268 1.419 Z M -.49 -2.575 L 1.019 -2.575 C 1.57 -2.575 1.961 -2.244 1.961 -1.598 C 1.961 -.96 1.44 -.91 1.011 -.91 L -.168 -.91 Z M -.697 2.456 L 1.601 2.456 C 2.704 2.456 3.378 2.192 3.378 1.037 C 3.378 .348 2.995 -.281 2.352 -.374 L 2.352 -.391 C 2.873 -.553 3.164 -1.037 3.164 -1.624 C 3.164 -2.941 2.167 -3.612 1.072 -3.612 L -1.846 -3.612 Z " fill="#231f20"></path>
      <path xmlns="http://www.w3.org/2000/svg" transform="matrix(1,0,0,-1,86.4883,381.7889)" d="M 0 0 L -1.195 0 L -1.333 4.334 L -1.348 4.334 L -3.049 0 L -4.259 0 L -4.634 6.068 L -3.432 6.068 L -3.355 1.624 L -3.34 1.624 L -1.609 6.068 L -.46 6.068 L -.322 1.64 L -.307 1.64 L 1.363 6.068 L 2.566 6.068 Z " fill="#231f20"></path>
    </g>
    <!-- unit kg -->
    <g>
      <path xmlns="http://www.w3.org/2000/svg" transform="matrix(1,0,0,-1,140.998,368.08534)" d="M 0 0 L 1.118 0 L 1.118 -3.413 L 2.528 -1.756 L 3.851 -1.756 L 2.315 -3.449 L 4.023 -6.363 L 2.669 -6.363 L 1.551 -4.304 L 1.118 -4.776 L 1.118 -6.363 L 0 -6.363 Z " fill="#808285"></path>
      <path xmlns="http://www.w3.org/2000/svg" transform="matrix(1,0,0,-1,148.2612,372.08683)" d="M 0 0 C 0 .749 -.229 1.417 -.953 1.417 C -1.583 1.417 -1.858 .793 -1.858 .107 C -1.858 -.552 -1.646 -1.274 -.953 -1.274 C -.315 -1.274 0 -.659 0 0 M 1.063 -2.067 C 1.063 -2.825 .819 -4.108 -1.047 -4.108 C -1.85 -4.108 -2.779 -3.671 -2.842 -2.628 L -1.732 -2.628 C -1.63 -3.101 -1.299 -3.261 -.897 -3.261 C -.275 -3.261 .008 -2.789 0 -2.121 L 0 -1.515 L -.016 -1.515 C -.26 -2.005 -.74 -2.228 -1.236 -2.228 C -2.464 -2.228 -2.976 -1.176 -2.976 .089 C -2.976 1.283 -2.362 2.371 -1.229 2.371 C -.693 2.371 -.292 2.166 -.016 1.631 L 0 1.631 L 0 2.246 L 1.063 2.246 Z " fill="#808285"></path>
    </g>
    <!-- unit % -->
    <g>
      <path xmlns="http://www.w3.org/2000/svg" transform="matrix(1,0,0,-1,147.562,388.5057)" d="M 0 0 C .586 0 .624 .817 .624 1.258 C .624 1.667 .595 2.516 .038 2.516 C -.566 2.516 -.604 1.75 -.604 1.268 C -.604 .817 -.604 0 0 0 M .038 3.302 C 1.209 3.302 1.587 2.379 1.587 1.237 C 1.587 .104 1.096 -.787 -.009 -.787 C -1.171 -.787 -1.568 .136 -1.568 1.279 C -1.568 2.411 -1.067 3.302 .038 3.302 M -.84 6.929 L -.038 6.929 L -3.929 -.87 L -4.751 -.87 Z M -4.874 3.543 C -4.288 3.543 -4.25 4.298 -4.25 4.738 C -4.25 5.157 -4.278 6.059 -4.836 6.059 C -5.44 6.059 -5.478 5.231 -5.478 4.749 C -5.478 4.298 -5.478 3.543 -4.874 3.543 M -4.836 6.845 C -3.665 6.845 -3.287 5.881 -3.287 4.728 C -3.287 3.585 -3.778 2.757 -4.883 2.757 C -6.045 2.757 -6.441 3.616 -6.441 4.77 C -6.441 5.912 -5.941 6.845 -4.836 6.845 " fill="#808285"></path>
    </g>
  </g>
  <!-- ECW -->
  <g>
    <!-- text -->
    <g>
      <path xmlns="http://www.w3.org/2000/svg" transform="matrix(1,0,0,-1,164.4224,374.98863)" d="M 0 0 L 3.476 0 L 3.304 -.935 L .829 -.935 L .625 -2.018 L 2.915 -2.018 L 2.749 -2.882 L .459 -2.882 L .223 -4.121 L 2.736 -4.121 L 2.558 -5.055 L -.957 -5.055 Z " fill="#231f20"></path>
      <path xmlns="http://www.w3.org/2000/svg" transform="matrix(1,0,0,-1,171.2275,376.7445)" d="M 0 0 C 0 .623 -.332 .941 -.816 .941 C -1.843 .941 -2.309 -.212 -2.309 -1.183 C -2.309 -1.876 -2.002 -2.485 -1.275 -2.485 C -.727 -2.485 -.293 -2.018 -.204 -1.479 L .797 -1.479 C .389 -2.889 -.3 -3.42 -1.288 -3.42 C -2.57 -3.42 -3.31 -2.62 -3.31 -1.183 C -3.31 .453 -2.36 1.876 -.823 1.876 C .236 1.876 1.021 1.225 1.001 0 Z " fill="#231f20"></path>
      <path xmlns="http://www.w3.org/2000/svg" transform="matrix(1,0,0,-1,176.668,380.04383)" d="M 0 0 L -.995 0 L -1.11 3.611 L -1.123 3.611 L -2.539 0 L -3.546 0 L -3.859 5.055 L -2.857 5.055 L -2.793 1.352 L -2.781 1.352 L -1.339 5.055 L -.382 5.055 L -.268 1.367 L -.255 1.367 L 1.135 5.055 L 2.137 5.055 Z " fill="#231f20"></path>
    </g>
    <!-- unit kg -->
    <g>
      <path xmlns="http://www.w3.org/2000/svg" transform="matrix(1,0,0,-1,211.2002,376.24943)" d="M 0 0 L 1.118 0 L 1.118 -3.413 L 2.528 -1.756 L 3.851 -1.756 L 2.315 -3.449 L 4.023 -6.363 L 2.669 -6.363 L 1.551 -4.304 L 1.118 -4.776 L 1.118 -6.363 L 0 -6.363 Z " fill="#808285"></path>
      <path xmlns="http://www.w3.org/2000/svg" transform="matrix(1,0,0,-1,218.4634,380.25083)" d="M 0 0 C 0 .749 -.229 1.417 -.953 1.417 C -1.583 1.417 -1.858 .793 -1.858 .107 C -1.858 -.552 -1.646 -1.274 -.953 -1.274 C -.315 -1.274 0 -.659 0 0 M 1.063 -2.067 C 1.063 -2.825 .819 -4.108 -1.047 -4.108 C -1.85 -4.108 -2.779 -3.671 -2.842 -2.628 L -1.732 -2.628 C -1.63 -3.101 -1.299 -3.261 -.897 -3.261 C -.275 -3.261 .008 -2.789 0 -2.121 L 0 -1.515 L -.016 -1.515 C -.26 -2.005 -.74 -2.228 -1.236 -2.228 C -2.464 -2.228 -2.976 -1.176 -2.976 .089 C -2.976 1.283 -2.362 2.371 -1.229 2.371 C -.693 2.371 -.292 2.166 -.016 1.631 L 0 1.631 L 0 2.246 L 1.063 2.246 Z " fill="#808285"></path>
    </g>
  </g>
  <!-- ICW -->
  <g>
    <!-- text -->
    <g>
      <path xmlns="http://www.w3.org/2000/svg" transform="matrix(1,0,0,-1,232.2363,374.90953)" d="M 0 0 L 1.008 0 L .045 -5.055 L -.963 -5.055 Z " fill="#231f20"></path>
      <path xmlns="http://www.w3.org/2000/svg" transform="matrix(1,0,0,-1,236.6689,376.6654)" d="M 0 0 C 0 .623 -.332 .941 -.816 .941 C -1.843 .941 -2.309 -.212 -2.309 -1.183 C -2.309 -1.876 -2.003 -2.485 -1.276 -2.485 C -.727 -2.485 -.293 -2.018 -.204 -1.479 L .797 -1.479 C .389 -2.889 -.3 -3.42 -1.289 -3.42 C -2.57 -3.42 -3.311 -2.62 -3.311 -1.183 C -3.311 .453 -2.36 1.876 -.823 1.876 C .236 1.876 1.021 1.225 1.001 0 Z " fill="#231f20"></path>
      <path xmlns="http://www.w3.org/2000/svg" transform="matrix(1,0,0,-1,242.1094,379.96473)" d="M 0 0 L -.995 0 L -1.109 3.611 L -1.123 3.611 L -2.538 0 L -3.546 0 L -3.858 5.055 L -2.857 5.055 L -2.793 1.352 L -2.781 1.352 L -1.339 5.055 L -.382 5.055 L -.268 1.367 L -.255 1.367 L 1.136 5.055 L 2.137 5.055 Z " fill="#231f20"></path>
    </g>
    <!-- unit kg -->
    <g>
      <path xmlns="http://www.w3.org/2000/svg" transform="matrix(1,0,0,-1,278.2656,376.24943)" d="M 0 0 L 1.118 0 L 1.118 -3.413 L 2.528 -1.756 L 3.851 -1.756 L 2.315 -3.449 L 4.023 -6.363 L 2.669 -6.363 L 1.551 -4.304 L 1.118 -4.776 L 1.118 -6.363 L 0 -6.363 Z " fill="#808285"></path>
      <path xmlns="http://www.w3.org/2000/svg" transform="matrix(1,0,0,-1,285.5288,380.25083)" d="M 0 0 C 0 .749 -.229 1.417 -.953 1.417 C -1.583 1.417 -1.858 .793 -1.858 .107 C -1.858 -.552 -1.646 -1.274 -.953 -1.274 C -.315 -1.274 0 -.659 0 0 M 1.063 -2.067 C 1.063 -2.825 .819 -4.108 -1.047 -4.108 C -1.85 -4.108 -2.779 -3.671 -2.842 -2.628 L -1.732 -2.628 C -1.63 -3.101 -1.299 -3.261 -.897 -3.261 C -.275 -3.261 .008 -2.789 0 -2.121 L 0 -1.515 L -.016 -1.515 C -.26 -2.005 -.74 -2.228 -1.236 -2.228 C -2.464 -2.228 -2.976 -1.176 -2.976 .089 C -2.976 1.283 -2.362 2.371 -1.229 2.371 C -.693 2.371 -.292 2.166 -.016 1.631 L 0 1.631 L 0 2.246 L 1.063 2.246 Z " fill="#808285"></path>
    </g>
  </g>
</svg>